<svg width="170" height="116" viewBox="0 0 170 116" fill="none" xmlns="http://www.w3.org/2000/svg">
<path d="M55.8175 34.4646L23.7542 34.9129L20.4735 115.194L52.5369 114.746L55.8175 34.4646Z" fill="#E96100"/>
<path d="M104.652 50.3126L72.589 50.761L69.9934 114.501L102.031 114.053L104.652 50.3126Z" fill="#E96100"/>
<path d="M155.916 6.85465L123.853 7.303L119.513 113.809L151.551 113.361L155.916 6.85465Z" fill="#E96100"/>
<path d="M31.5375 80.0668C28.3566 80.1113 25.1503 80.1562 21.9149 79.9467C15.2648 79.9276 8.67436 78.6902 2.46943 76.296C1.9649 76.0751 1.56804 75.6635 1.36541 75.1511C1.16277 74.6386 1.17077 74.0668 1.38763 73.5602C1.49661 73.3102 1.65405 73.0842 1.85086 72.8955C2.04767 72.7067 2.2799 72.559 2.53417 72.4606C2.78844 72.3623 3.05967 72.3155 3.33216 72.3227C3.60465 72.33 3.87301 72.3914 4.12167 72.5031C9.82906 74.6716 15.8797 75.7949 21.9845 75.8193C60.4628 77.268 93.9889 66.7635 127.556 42.8094C138.029 35.3045 147.211 26.1429 154.741 15.6843C154.884 15.442 155.074 15.2314 155.301 15.0656C155.528 14.8997 155.786 14.7819 156.06 14.7196C156.334 14.6572 156.618 14.6515 156.894 14.7029C157.17 14.7543 157.433 14.8616 157.666 15.0183C157.9 15.175 158.099 15.3778 158.251 15.6141C158.403 15.8505 158.505 16.1155 158.551 16.3928C158.597 16.6701 158.586 16.954 158.519 17.2269C158.451 17.4998 158.329 17.756 158.159 17.9798C150.409 28.8449 140.898 38.3362 130.019 46.0608C98.5208 68.6869 66.9852 79.5712 31.5375 80.0668Z" fill="white"/>
<path d="M163.208 31.4091C162.868 31.4145 162.533 31.3361 162.231 31.1806C161.93 31.0252 161.671 30.7976 161.478 30.5181C161.285 30.2385 161.164 29.9157 161.126 29.5782C161.088 29.2407 161.134 28.8991 161.259 28.5835C164.072 21.4852 164.586 13.682 162.729 6.27541C154.769 11.803 146.253 16.4809 137.319 20.2325C137.069 20.3475 136.797 20.411 136.522 20.4192C136.246 20.4274 135.971 20.3802 135.714 20.2803C135.457 20.1804 135.223 20.0298 135.025 19.8375C134.827 19.6452 134.669 19.4152 134.562 19.1609C134.454 18.9067 134.399 18.6335 134.399 18.3574C134.399 18.0814 134.454 17.8081 134.562 17.5538C134.669 17.2996 134.826 17.0695 135.024 16.8771C135.222 16.6848 135.457 16.5342 135.714 16.4342C145.246 12.4242 154.287 7.3323 162.659 1.2585C162.921 1.07749 163.221 0.958939 163.536 0.91191C163.851 0.86488 164.173 0.890626 164.476 0.987185C164.78 1.08374 165.057 1.24856 165.287 1.46898C165.517 1.68941 165.694 1.9596 165.803 2.25887C168.892 11.3299 168.642 21.2063 165.098 30.1091C164.947 30.4888 164.687 30.8151 164.35 31.0466C164.014 31.278 163.616 31.4042 163.208 31.4091Z" fill="white"/>
</svg>
