<svg width="141" height="107" viewBox="0 0 141 107" fill="none" xmlns="http://www.w3.org/2000/svg">
<g style="mix-blend-mode:multiply">
<g style="mix-blend-mode:multiply" opacity="0.3">
<path d="M11.7221 18.5257C10.8556 18.566 9.99004 18.4277 9.17905 18.1196C8.36805 17.8115 7.62886 17.3401 7.00732 16.7345C6.38577 16.1288 5.8951 15.402 5.56565 14.5989C5.2362 13.7958 5.075 12.9336 5.09205 12.0657C5.15212 10.2593 5.88575 8.54096 7.14849 7.24893C8.41122 5.95689 10.1116 5.18479 11.9148 5.08463C12.7802 5.04416 13.6447 5.18247 14.4545 5.4909C15.2642 5.79933 16.0018 6.27129 16.6214 6.8774C17.241 7.48352 17.7292 8.21078 18.0558 9.01392C18.3823 9.81706 18.5401 10.6789 18.5194 11.5457C18.4653 13.3496 17.737 15.0674 16.4785 16.3599C15.2199 17.6523 13.5226 18.4251 11.7221 18.5257Z" fill="#E96100"/>
</g>
<g style="mix-blend-mode:multiply" opacity="0.8">
<path d="M116.869 14.2542L34.3027 17.6084C33.4373 17.6488 32.5727 17.5105 31.763 17.2021C30.9532 16.8937 30.2156 16.4217 29.596 15.8156C28.9764 15.2095 28.4882 14.4822 28.1617 13.6791C27.8351 12.8759 27.6773 12.0141 27.6981 11.1473C27.74 9.33728 28.4634 7.60989 29.7236 6.31093C30.9837 5.01196 32.6877 4.23727 34.4943 4.14186L117.188 0.782552C118.055 0.742283 118.92 0.880459 119.731 1.18857C120.542 1.49668 121.281 1.96815 121.903 2.57375C122.524 3.17936 123.015 3.90622 123.345 4.70931C123.674 5.5124 123.835 6.37463 123.818 7.24258C123.763 9.07504 123.016 10.8183 121.726 12.1199C120.436 13.4216 118.7 14.1844 116.869 14.2542Z" fill="#E96100"/>
</g>
<g style="mix-blend-mode:multiply" opacity="0.3">
<path d="M11.3101 47.8814C10.4426 47.9255 9.57543 47.7899 8.76273 47.4831C7.95003 47.1764 7.20937 46.7051 6.58703 46.0987C5.96469 45.4923 5.47407 44.7639 5.14594 43.9591C4.8178 43.1543 4.65918 42.2903 4.68 41.4214C4.72846 39.5958 5.46758 37.8567 6.74801 36.5555C8.02843 35.2544 9.75471 34.4882 11.578 34.4118C12.4434 34.3713 13.3079 34.5096 14.1177 34.8181C14.9274 35.1265 15.6651 35.5985 16.2847 36.2046C16.9042 36.8107 17.3925 37.5379 17.719 38.3411C18.0455 39.1442 18.2034 40.006 18.1826 40.8729C18.1343 42.6941 17.3986 44.4294 16.1235 45.7297C14.8485 47.0299 13.1287 47.7987 11.3101 47.8814Z" fill="#E96100"/>
</g>
<g style="mix-blend-mode:multiply" opacity="0.8">
<path d="M131.079 43.016L33.8906 46.9641C33.0241 47.0044 32.1585 46.8661 31.3475 46.558C30.5365 46.2499 29.7973 45.7785 29.1758 45.1729C28.5542 44.5673 28.0636 43.8404 27.7341 43.0373C27.4047 42.2342 27.2434 41.372 27.2605 40.5041C27.3143 38.6934 28.045 36.969 29.3082 35.6716C30.5713 34.3742 32.2749 33.5984 34.0822 33.4976L131.27 29.5495C132.137 29.5092 133.002 29.6474 133.813 29.9555C134.624 30.2636 135.363 30.7351 135.985 31.3407C136.607 31.9463 137.097 32.6731 137.427 33.4762C137.756 34.2793 137.917 35.1415 137.9 36.0095C137.846 37.8201 137.116 39.5446 135.853 40.8419C134.589 42.1393 132.886 42.9151 131.079 43.016Z" fill="#E96100"/>
</g>
<g style="mix-blend-mode:multiply" opacity="0.3">
<path d="M10.7698 77.2168C9.90566 77.2607 9.04177 77.1257 8.23221 76.8201C7.42264 76.5145 6.68484 76.0449 6.06495 75.4408C5.44507 74.8367 4.95647 74.111 4.62975 73.3092C4.30302 72.5074 4.14518 71.6468 4.16615 70.7812C4.20806 68.9711 4.9315 67.2438 6.19167 65.9448C7.45184 64.6459 9.15575 63.8711 10.9624 63.7757C11.8298 63.7317 12.697 63.8672 13.5097 64.174C14.3224 64.4807 15.0631 64.952 15.6854 65.5584C16.3078 66.1648 16.7984 66.8932 17.1265 67.698C17.4547 68.5029 17.6133 69.3668 17.5924 70.2357C17.5382 72.044 16.8064 73.7656 15.5425 75.0588C14.2786 76.3521 12.575 77.1224 10.7698 77.2168Z" fill="#E96100"/>
</g>
<g style="mix-blend-mode:multiply" opacity="0.8">
<path d="M80.7746 74.373L33.452 76.2954C32.5879 76.3393 31.724 76.2042 30.9145 75.8987C30.1049 75.5931 29.3671 75.1235 28.7472 74.5194C28.1273 73.9153 27.6387 73.1896 27.312 72.3878C26.9853 71.586 26.8274 70.7254 26.8484 69.8597C26.8903 68.0497 27.6138 66.3224 28.874 65.0234C30.1341 63.7244 31.838 62.9497 33.6447 62.8543L80.9673 60.9319C81.8336 60.8876 82.6998 61.0233 83.5113 61.3303C84.3227 61.6374 85.0619 62.1092 85.6823 62.7161C86.3027 63.323 86.7908 64.0518 87.116 64.8567C87.4412 65.6616 87.5964 66.5251 87.5719 67.3929C87.5236 69.1987 86.7973 70.9199 85.5375 72.2135C84.2778 73.5072 82.5771 74.2782 80.7746 74.373Z" fill="#E96100"/>
</g>
<g style="mix-blend-mode:multiply" opacity="0.8">
<path d="M125.778 101.884L78.4553 103.806C77.5899 103.847 76.7254 103.708 75.9156 103.4C75.1059 103.091 74.3682 102.62 73.7487 102.013C73.1291 101.407 72.6408 100.68 72.3143 99.8768C71.9878 99.0737 71.83 98.2119 71.8507 97.3451C71.8985 95.5369 72.6238 93.8129 73.8828 92.5152C75.1418 91.2174 76.8423 90.4409 78.6469 90.3396L125.97 88.4172C126.835 88.3768 127.699 88.5151 128.509 88.8235C129.319 89.1319 130.057 89.6039 130.676 90.21C131.296 90.8161 131.784 91.5434 132.111 92.3465C132.437 93.1497 132.595 94.0115 132.574 94.8783C132.526 96.6864 131.801 98.4105 130.542 99.7082C129.283 101.006 127.583 101.783 125.778 101.884Z" fill="#E96100"/>
</g>
<g style="mix-blend-mode:multiply" opacity="0.3">
<path d="M10.4593 106.568C9.59387 106.609 8.72934 106.471 7.91959 106.162C7.10984 105.854 6.37221 105.382 5.75263 104.776C5.13305 104.17 4.6448 103.442 4.31827 102.639C3.99174 101.836 3.83393 100.974 3.85467 100.107C3.90245 98.2992 4.62781 96.5751 5.88679 95.2774C7.14577 93.9797 8.84631 93.2031 10.6509 93.1019C11.5163 93.0614 12.3809 93.1997 13.1906 93.5081C14.0004 93.8166 14.738 94.2885 15.3576 94.8947C15.9772 95.5008 16.4654 96.228 16.792 97.0312C17.1185 97.8343 17.2763 98.6961 17.2555 99.5629C17.2078 101.371 16.4824 103.095 15.2234 104.393C13.9645 105.691 12.2639 106.467 10.4593 106.568Z" fill="#E96100"/>
</g>
<g style="mix-blend-mode:multiply" opacity="0.8">
<path d="M54.8831 104.764L33.0399 105.651C32.1745 105.692 31.31 105.553 30.5002 105.245C29.6905 104.936 28.9528 104.464 28.3333 103.858C27.7137 103.252 27.2254 102.525 26.8989 101.722C26.5724 100.919 26.4146 100.057 26.4353 99.19C26.4831 97.3819 27.2084 95.6578 28.4674 94.3601C29.7264 93.0624 31.4269 92.2858 33.2315 92.1846L55.0747 91.2972C55.9421 91.2532 56.8093 91.3887 57.622 91.6955C58.4347 92.0022 59.1754 92.4735 59.7978 93.0799C60.4201 93.6863 60.9107 94.4147 61.2388 95.2196C61.5669 96.0244 61.7256 96.8883 61.7047 97.7572C61.6568 99.5697 60.9279 101.298 59.6636 102.596C58.3993 103.895 56.6924 104.669 54.8831 104.764Z" fill="#E96100"/>
</g>
</g>
</svg>
