<?xml version="1.0" encoding="utf-8"?>
<!-- Generator: Adobe Illustrator 25.4.1, SVG Export Plug-In . SVG Version: 6.00 Build 0)  -->
<svg version="1.1" id="Layer_1" xmlns="http://www.w3.org/2000/svg" xmlns:xlink="http://www.w3.org/1999/xlink" x="0px" y="0px"
	 viewBox="0 0 110 110" style="enable-background:new 0 0 110 110;" xml:space="preserve">
<style type="text/css">
	.st0{fill:#3071E7;}
	.st1{fill:none;stroke:#FFFFFF;stroke-width:10;stroke-linecap:round;stroke-linejoin:round;}
	.st2{fill:url(#SVGID_1_);}
	.st3{fill:#5DD10D;}
	.st4{fill:#FFFFFF;}
	.st5{fill:none;stroke:#5DD10D;stroke-width:3;stroke-linecap:round;stroke-linejoin:round;}
	.st6{fill:url(#SVGID_00000134933831721153133400000012385056857624368796_);}
	.st7{fill:url(#SVGID_00000038380360927684220020000015441486424816718214_);}
	.st8{fill:#FFFFFF;stroke:#FFFFFF;stroke-width:4;}
	.st9{fill:#3C3C3C;}
	.st10{fill:#C4C4C4;}
	.st11{fill:#4AAF05;}
	.st12{fill-rule:evenodd;clip-rule:evenodd;fill:#E7E6E6;}
	.st13{fill:none;stroke:#BDBDBD;}
	.st14{fill:#BDBDBD;}
	.st15{fill:#E5E5E5;}
	.st16{fill:#E7E6E6;}
	.st17{fill:#C4C4C4;filter:url(#Adobe_OpacityMaskFilter);}
	.st18{mask:url(#mask0_0:1_00000079464290474750960640000000752820437039881869_);}
	.st19{fill:none;stroke:#E97179;}
	.st20{fill-rule:evenodd;clip-rule:evenodd;fill:#4AAF05;}
	.st21{fill:#FFFFFF;stroke:#BDBDBD;}
	.st22{fill:#E97179;}
	.st23{fill:#C4C4C4;filter:url(#Adobe_OpacityMaskFilter_00000064329347200033441870000003579986751499348630_);}
	.st24{mask:url(#mask1_0:1_00000155132012382774330090000006118603820518013580_);}
	.st25{fill:#DD596B;}
	.st26{fill:#F4A3AE;}
	.st27{fill:#F4BEC6;}
</style>
<g>
	
		<linearGradient id="SVGID_1_" gradientUnits="userSpaceOnUse" x1="59.385" y1="1457.075" x2="142.385" y2="1528.075" gradientTransform="matrix(0.9926 -0.1216 -0.1216 -0.9926 141.0566 1543.6776)">
		<stop  offset="0" style="stop-color:#F4A3AE"/>
		<stop  offset="1" style="stop-color:#E97179"/>
	</linearGradient>
	<path class="st2" d="M14.1,8.6l69.5-8.5c8.8-1.1,16.8,5.2,17.8,13.9l8.5,69.5c1.1,8.8-5.2,16.8-13.9,17.8l-69.5,8.5
		c-8.8,1.1-16.8-5.2-17.8-13.9L0.1,26.5C-1,17.7,5.3,9.7,14.1,8.6z"/>
</g>
<path class="st8" d="M46.8,66.6L33.5,56.2L31.9,55l-1.2,1.6l-3.9,5l-1.2,1.6l1.6,1.2L47,79.9l1.6,1.2l1.2-1.6l33.3-42.6l1.2-1.6
	l-1.6-1.2l-5-3.9L76.2,29L75,30.6L46.8,66.6z"/>
</svg>
