<svg width="637" height="481" viewBox="0 0 637 481" fill="none" xmlns="http://www.w3.org/2000/svg">
<path d="M272.757 435.196L184.084 453.934L197.977 467.814L440.509 454.358L382.756 433.808L272.757 435.196Z" fill="#BABABA"/>
<path d="M185.473 453.934H439.023C439.944 453.934 440.827 454.3 441.479 454.951C442.13 455.601 442.496 456.484 442.496 457.404V481H182V457.404C182 456.484 182.366 455.601 183.017 454.951C183.669 454.3 184.552 453.934 185.473 453.934Z" fill="#CDCECE"/>
<path d="M384.722 316.149L384.367 435.196H272.757L277.439 317.197L384.722 316.149Z" fill="#E0E0E0"/>
<path d="M456.591 244.383L55.5725 376.242C27.0916 376.242 9.03053 370.69 0 330.438L21.5344 53.7914C25.0076 1.48513 59.0458 0.791138 87.5267 0.791138L297.653 20.3132C326.134 20.3132 349.496 43.215 349.496 71.2176L519.756 237.096C519.756 265.099 485.106 244.383 456.591 244.383Z" fill="#F4ACB6"/>
<path d="M573.904 376.762H61.3521C47.6139 376.724 34.4492 371.255 24.7342 361.55C15.0191 351.846 9.54326 338.695 9.50293 324.969L28.3976 53.729C28.4379 40.0032 33.9135 26.8512 43.6284 17.1456C53.3433 7.43998 66.5079 1.9696 80.2468 1.92932L585.151 0C598.89 0.0402785 612.054 5.51068 621.769 15.2163C631.484 24.9219 636.96 38.0739 637 51.7997L625.747 324.969C625.708 338.694 620.234 351.845 610.52 361.55C600.806 371.255 587.642 376.724 573.904 376.762Z" fill="white"/>
<path d="M42.3741 52.4936L20.8397 318.585L614.076 319.973L622.551 59.6765C623.143 53.4751 622.42 47.2188 620.432 41.3147C618.443 35.4106 615.232 29.991 611.008 25.4085C606.785 20.826 601.642 17.1834 595.916 14.7176C590.19 12.2518 584.008 11.0182 577.774 11.0969L79.6215 17.2873C70.041 17.1349 60.7808 20.7327 53.8205 27.3116C46.8602 33.8904 42.752 42.9285 42.3741 52.4936Z" fill="#E0E0E0"/>
<path d="M622.523 59.7251C623.113 53.5223 622.39 47.2649 620.402 41.3596C618.413 35.4542 615.203 30.0329 610.979 25.448C606.756 20.8631 601.615 17.2171 595.889 14.7471C590.164 12.277 583.982 11.0381 577.746 11.1108L79.5799 17.3151C69.9984 17.1629 60.7377 20.763 53.7793 27.3452C46.8208 33.9274 42.7172 42.9689 42.3463 52.5353L622.523 59.7251Z" fill="#CCC8C9"/>
<path d="M70.5077 43.0901C74.1523 43.0901 77.1069 40.1383 77.1069 36.4971C77.1069 32.8559 74.1523 29.9042 70.5077 29.9042C66.863 29.9042 63.9084 32.8559 63.9084 36.4971C63.9084 40.1383 66.863 43.0901 70.5077 43.0901Z" fill="#E0E0E0"/>
<path d="M88.5687 43.0901C92.2134 43.0901 95.168 40.1383 95.168 36.4971C95.168 32.8559 92.2134 29.9042 88.5687 29.9042C84.9241 29.9042 81.9695 32.8559 81.9695 36.4971C81.9695 40.1383 84.9241 43.0901 88.5687 43.0901Z" fill="#E0E0E0"/>
<path d="M107.324 43.0901C110.969 43.0901 113.924 40.1383 113.924 36.4971C113.924 32.8559 110.969 29.9042 107.324 29.9042C103.68 29.9042 100.725 32.8559 100.725 36.4971C100.725 40.1383 103.68 43.0901 107.324 43.0901Z" fill="#E0E0E0"/>
<rect x="107" y="88.1686" width="406.936" height="45.6628" rx="22.8314" fill="#E77179"/>
<path d="M135.653 118.236L140.082 103.98H143.563L135.916 125.936C134.733 129.1 132.852 130.682 130.274 130.682L129.658 130.629L128.446 130.4V127.764L129.324 127.834C130.426 127.834 131.282 127.611 131.891 127.166C132.512 126.721 133.022 125.906 133.42 124.723L134.141 122.789L127.356 103.98H130.907L135.653 118.236ZM144.942 113.314C144.942 111.451 145.305 109.775 146.032 108.287C146.77 106.799 147.79 105.65 149.091 104.842C150.403 104.033 151.897 103.629 153.573 103.629C156.163 103.629 158.255 104.525 159.848 106.318C161.454 108.111 162.257 110.496 162.257 113.473V113.701C162.257 115.553 161.899 117.217 161.184 118.693C160.481 120.158 159.468 121.301 158.143 122.121C156.831 122.941 155.319 123.352 153.608 123.352C151.03 123.352 148.938 122.455 147.333 120.662C145.739 118.869 144.942 116.496 144.942 113.543V113.314ZM148.212 113.701C148.212 115.811 148.698 117.504 149.671 118.781C150.655 120.059 151.968 120.697 153.608 120.697C155.261 120.697 156.573 120.053 157.546 118.764C158.518 117.463 159.005 115.646 159.005 113.314C159.005 111.229 158.507 109.541 157.511 108.252C156.526 106.951 155.214 106.301 153.573 106.301C151.968 106.301 150.673 106.939 149.688 108.217C148.704 109.494 148.212 111.322 148.212 113.701ZM177.681 121.119C176.415 122.607 174.558 123.352 172.109 123.352C170.081 123.352 168.534 122.766 167.468 121.594C166.413 120.41 165.88 118.664 165.868 116.355V103.98H169.12V116.268C169.12 119.15 170.292 120.592 172.636 120.592C175.12 120.592 176.773 119.666 177.593 117.814V103.98H180.845V123H177.751L177.681 121.119ZM194.599 106.898C194.107 106.816 193.574 106.775 193 106.775C190.867 106.775 189.42 107.684 188.658 109.5V123H185.406V103.98H188.57L188.623 106.178C189.689 104.479 191.201 103.629 193.158 103.629C193.791 103.629 194.271 103.711 194.599 103.875V106.898ZM200.742 123H197.49V96H200.742V123ZM209.1 123H205.848V103.98H209.1V123ZM205.585 98.9355C205.585 98.4082 205.743 97.9629 206.059 97.5996C206.387 97.2363 206.868 97.0547 207.501 97.0547C208.134 97.0547 208.614 97.2363 208.942 97.5996C209.27 97.9629 209.434 98.4082 209.434 98.9355C209.434 99.4629 209.27 99.9023 208.942 100.254C208.614 100.605 208.134 100.781 207.501 100.781C206.868 100.781 206.387 100.605 206.059 100.254C205.743 99.9023 205.585 99.4629 205.585 98.9355ZM217.001 103.98L217.107 106.371C218.56 104.543 220.458 103.629 222.802 103.629C226.822 103.629 228.849 105.896 228.884 110.432V123H225.632V110.414C225.62 109.043 225.304 108.029 224.683 107.373C224.073 106.717 223.118 106.389 221.818 106.389C220.763 106.389 219.837 106.67 219.04 107.232C218.243 107.795 217.622 108.533 217.177 109.447V123H213.925V103.98H217.001ZM238.701 114.193L236.662 116.32V123H233.41V96H236.662V112.33L238.402 110.238L244.326 103.98H248.281L240.881 111.926L249.142 123H245.328L238.701 114.193ZM251.313 121.295C251.313 120.732 251.477 120.264 251.805 119.889C252.145 119.514 252.649 119.326 253.317 119.326C253.985 119.326 254.489 119.514 254.828 119.889C255.18 120.264 255.356 120.732 255.356 121.295C255.356 121.834 255.18 122.285 254.828 122.648C254.489 123.012 253.985 123.193 253.317 123.193C252.649 123.193 252.145 123.012 251.805 122.648C251.477 122.285 251.313 121.834 251.313 121.295ZM267.968 120.697C269.128 120.697 270.141 120.346 271.009 119.643C271.876 118.939 272.356 118.061 272.45 117.006H275.526C275.468 118.096 275.093 119.133 274.401 120.117C273.71 121.102 272.784 121.887 271.624 122.473C270.475 123.059 269.257 123.352 267.968 123.352C265.378 123.352 263.315 122.49 261.78 120.768C260.257 119.033 259.495 116.666 259.495 113.666V113.121C259.495 111.27 259.835 109.623 260.514 108.182C261.194 106.74 262.167 105.621 263.432 104.824C264.71 104.027 266.216 103.629 267.95 103.629C270.083 103.629 271.852 104.268 273.259 105.545C274.677 106.822 275.432 108.48 275.526 110.52H272.45C272.356 109.289 271.887 108.281 271.044 107.496C270.212 106.699 269.18 106.301 267.95 106.301C266.298 106.301 265.014 106.898 264.1 108.094C263.198 109.277 262.747 110.994 262.747 113.244V113.859C262.747 116.051 263.198 117.738 264.1 118.922C265.003 120.105 266.292 120.697 267.968 120.697ZM277.925 113.314C277.925 111.451 278.288 109.775 279.015 108.287C279.753 106.799 280.773 105.65 282.073 104.842C283.386 104.033 284.88 103.629 286.556 103.629C289.146 103.629 291.238 104.525 292.831 106.318C294.437 108.111 295.239 110.496 295.239 113.473V113.701C295.239 115.553 294.882 117.217 294.167 118.693C293.464 120.158 292.45 121.301 291.126 122.121C289.814 122.941 288.302 123.352 286.591 123.352C284.013 123.352 281.921 122.455 280.316 120.662C278.722 118.869 277.925 116.496 277.925 113.543V113.314ZM281.195 113.701C281.195 115.811 281.681 117.504 282.654 118.781C283.638 120.059 284.95 120.697 286.591 120.697C288.243 120.697 289.556 120.053 290.529 118.764C291.501 117.463 291.988 115.646 291.988 113.314C291.988 111.229 291.489 109.541 290.493 108.252C289.509 106.951 288.197 106.301 286.556 106.301C284.95 106.301 283.655 106.939 282.671 108.217C281.687 109.494 281.195 111.322 281.195 113.701ZM301.98 103.98L302.068 106.09C303.463 104.449 305.343 103.629 307.711 103.629C310.371 103.629 312.181 104.648 313.142 106.688C313.775 105.773 314.595 105.035 315.603 104.473C316.623 103.91 317.824 103.629 319.207 103.629C323.379 103.629 325.5 105.838 325.57 110.256V123H322.318V110.449C322.318 109.09 322.008 108.076 321.386 107.408C320.765 106.729 319.722 106.389 318.258 106.389C317.051 106.389 316.049 106.752 315.252 107.479C314.455 108.193 313.992 109.16 313.863 110.379V123H310.593V110.537C310.593 107.771 309.24 106.389 306.533 106.389C304.4 106.389 302.941 107.297 302.156 109.113V123H298.904V103.98H301.98Z" fill="white"/>
<path d="M335.148 97.2268V126.102" stroke="white" stroke-width="2"/>
<rect x="523.337" y="88.1686" width="45.6628" height="45.6628" rx="22.8314" fill="#020C30"/>
<circle cx="542.811" cy="107.642" r="7.72965" stroke="white" stroke-width="2"/>
<path d="M557.584 121.744L548.855 113.015" stroke="white" stroke-width="2"/>
<rect x="107" y="158.169" width="406.936" height="45.6628" rx="22.8314" fill="#E77179"/>
<path d="M131.872 173.98L131.978 176.371C133.431 174.543 135.329 173.629 137.673 173.629C141.692 173.629 143.72 175.896 143.755 180.432V193H140.503V180.414C140.491 179.043 140.175 178.029 139.554 177.373C138.944 176.717 137.989 176.389 136.689 176.389C135.634 176.389 134.708 176.67 133.911 177.232C133.114 177.795 132.493 178.533 132.048 179.447V193H128.796V173.98H131.872ZM156.156 193.352C153.578 193.352 151.48 192.508 149.863 190.82C148.246 189.121 147.437 186.854 147.437 184.018V183.42C147.437 181.533 147.794 179.852 148.509 178.375C149.236 176.887 150.244 175.727 151.533 174.895C152.834 174.051 154.24 173.629 155.751 173.629C158.224 173.629 160.146 174.443 161.517 176.072C162.888 177.701 163.574 180.033 163.574 183.068V184.422H150.689C150.736 186.297 151.281 187.814 152.324 188.975C153.378 190.123 154.714 190.697 156.332 190.697C157.48 190.697 158.453 190.463 159.25 189.994C160.046 189.525 160.744 188.904 161.341 188.131L163.328 189.678C161.734 192.127 159.343 193.352 156.156 193.352ZM155.751 176.301C154.439 176.301 153.337 176.781 152.447 177.742C151.556 178.691 151.005 180.027 150.794 181.75H160.322V181.504C160.228 179.852 159.783 178.574 158.986 177.672C158.189 176.758 157.111 176.301 155.751 176.301ZM183.797 188.518L187.453 173.98H190.705L185.168 193H182.531L177.908 178.586L173.408 193H170.772L165.252 173.98H168.486L172.23 188.219L176.66 173.98H179.279L183.797 188.518ZM192.84 183.332C192.84 180.414 193.532 178.07 194.915 176.301C196.297 174.52 198.108 173.629 200.346 173.629C202.573 173.629 204.336 174.391 205.637 175.914V166H208.889V193H205.901L205.743 190.961C204.442 192.555 202.631 193.352 200.311 193.352C198.108 193.352 196.309 192.449 194.915 190.645C193.532 188.84 192.84 186.484 192.84 183.578V183.332ZM196.092 183.701C196.092 185.857 196.538 187.545 197.428 188.764C198.319 189.982 199.549 190.592 201.12 190.592C203.182 190.592 204.688 189.666 205.637 187.814V179.078C204.665 177.285 203.17 176.389 201.155 176.389C199.561 176.389 198.319 177.004 197.428 178.234C196.538 179.465 196.092 181.287 196.092 183.701ZM212.694 183.314C212.694 181.451 213.058 179.775 213.784 178.287C214.522 176.799 215.542 175.65 216.843 174.842C218.155 174.033 219.649 173.629 221.325 173.629C223.915 173.629 226.007 174.525 227.601 176.318C229.206 178.111 230.009 180.496 230.009 183.473V183.701C230.009 185.553 229.651 187.217 228.937 188.693C228.233 190.158 227.22 191.301 225.896 192.121C224.583 192.941 223.071 193.352 221.36 193.352C218.782 193.352 216.69 192.455 215.085 190.662C213.491 188.869 212.694 186.496 212.694 183.543V183.314ZM215.964 183.701C215.964 185.811 216.45 187.504 217.423 188.781C218.407 190.059 219.72 190.697 221.36 190.697C223.013 190.697 224.325 190.053 225.298 188.764C226.271 187.463 226.757 185.646 226.757 183.314C226.757 181.229 226.259 179.541 225.263 178.252C224.278 176.951 222.966 176.301 221.325 176.301C219.72 176.301 218.425 176.939 217.44 178.217C216.456 179.494 215.964 181.322 215.964 183.701ZM236.75 173.98L236.837 176.09C238.232 174.449 240.113 173.629 242.48 173.629C245.14 173.629 246.951 174.648 247.912 176.688C248.544 175.773 249.365 175.035 250.373 174.473C251.392 173.91 252.593 173.629 253.976 173.629C258.148 173.629 260.269 175.838 260.339 180.256V193H257.087V180.449C257.087 179.09 256.777 178.076 256.156 177.408C255.535 176.729 254.492 176.389 253.027 176.389C251.82 176.389 250.818 176.752 250.021 177.479C249.224 178.193 248.761 179.16 248.632 180.379V193H245.363V180.537C245.363 177.771 244.009 176.389 241.302 176.389C239.169 176.389 237.71 177.297 236.925 179.113V193H233.673V173.98H236.75ZM276.607 193C276.42 192.625 276.268 191.957 276.15 190.996C274.639 192.566 272.834 193.352 270.736 193.352C268.861 193.352 267.32 192.824 266.113 191.77C264.918 190.703 264.32 189.355 264.32 187.727C264.32 185.746 265.07 184.211 266.57 183.121C268.082 182.02 270.203 181.469 272.934 181.469H276.098V179.975C276.098 178.838 275.758 177.936 275.078 177.268C274.398 176.588 273.396 176.248 272.072 176.248C270.912 176.248 269.939 176.541 269.154 177.127C268.369 177.713 267.977 178.422 267.977 179.254H264.707C264.707 178.305 265.041 177.391 265.709 176.512C266.389 175.621 267.303 174.918 268.451 174.402C269.611 173.887 270.883 173.629 272.266 173.629C274.457 173.629 276.174 174.18 277.416 175.281C278.658 176.371 279.303 177.877 279.35 179.799V188.553C279.35 190.299 279.572 191.688 280.018 192.719V193H276.607ZM271.211 190.521C272.23 190.521 273.197 190.258 274.111 189.73C275.025 189.203 275.688 188.518 276.098 187.674V183.771H273.549C269.564 183.771 267.572 184.938 267.572 187.27C267.572 188.289 267.912 189.086 268.592 189.66C269.271 190.234 270.145 190.521 271.211 190.521ZM287.584 193H284.333V173.98H287.584V193ZM284.069 168.936C284.069 168.408 284.227 167.963 284.543 167.6C284.872 167.236 285.352 167.055 285.985 167.055C286.618 167.055 287.098 167.236 287.426 167.6C287.754 167.963 287.918 168.408 287.918 168.936C287.918 169.463 287.754 169.902 287.426 170.254C287.098 170.605 286.618 170.781 285.985 170.781C285.352 170.781 284.872 170.605 284.543 170.254C284.227 169.902 284.069 169.463 284.069 168.936ZM295.485 173.98L295.591 176.371C297.044 174.543 298.942 173.629 301.286 173.629C305.306 173.629 307.333 175.896 307.368 180.432V193H304.116V180.414C304.104 179.043 303.788 178.029 303.167 177.373C302.558 176.717 301.603 176.389 300.302 176.389C299.247 176.389 298.321 176.67 297.524 177.232C296.728 177.795 296.106 178.533 295.661 179.447V193H292.409V173.98H295.485ZM311.947 191.295C311.947 190.732 312.111 190.264 312.439 189.889C312.779 189.514 313.283 189.326 313.951 189.326C314.619 189.326 315.123 189.514 315.462 189.889C315.814 190.264 315.99 190.732 315.99 191.295C315.99 191.834 315.814 192.285 315.462 192.648C315.123 193.012 314.619 193.193 313.951 193.193C313.283 193.193 312.779 193.012 312.439 192.648C312.111 192.285 311.947 191.834 311.947 191.295ZM328.602 190.697C329.762 190.697 330.775 190.346 331.643 189.643C332.51 188.939 332.99 188.061 333.084 187.006H336.16C336.102 188.096 335.727 189.133 335.035 190.117C334.344 191.102 333.418 191.887 332.258 192.473C331.109 193.059 329.891 193.352 328.602 193.352C326.012 193.352 323.949 192.49 322.414 190.768C320.891 189.033 320.129 186.666 320.129 183.666V183.121C320.129 181.27 320.469 179.623 321.148 178.182C321.828 176.74 322.801 175.621 324.066 174.824C325.344 174.027 326.85 173.629 328.584 173.629C330.717 173.629 332.486 174.268 333.893 175.545C335.311 176.822 336.066 178.48 336.16 180.52H333.084C332.99 179.289 332.521 178.281 331.678 177.496C330.846 176.699 329.814 176.301 328.584 176.301C326.932 176.301 325.648 176.898 324.734 178.094C323.832 179.277 323.381 180.994 323.381 183.244V183.859C323.381 186.051 323.832 187.738 324.734 188.922C325.637 190.105 326.926 190.697 328.602 190.697ZM338.559 183.314C338.559 181.451 338.922 179.775 339.649 178.287C340.387 176.799 341.407 175.65 342.708 174.842C344.02 174.033 345.514 173.629 347.19 173.629C349.78 173.629 351.872 174.525 353.465 176.318C355.071 178.111 355.874 180.496 355.874 183.473V183.701C355.874 185.553 355.516 187.217 354.801 188.693C354.098 190.158 353.084 191.301 351.76 192.121C350.448 192.941 348.936 193.352 347.225 193.352C344.647 193.352 342.555 192.455 340.95 190.662C339.356 188.869 338.559 186.496 338.559 183.543V183.314ZM341.829 183.701C341.829 185.811 342.315 187.504 343.288 188.781C344.272 190.059 345.584 190.697 347.225 190.697C348.877 190.697 350.19 190.053 351.163 188.764C352.135 187.463 352.622 185.646 352.622 183.314C352.622 181.229 352.124 179.541 351.127 178.252C350.143 176.951 348.831 176.301 347.19 176.301C345.584 176.301 344.29 176.939 343.305 178.217C342.321 179.494 341.829 181.322 341.829 183.701ZM362.614 173.98L362.702 176.09C364.097 174.449 365.978 173.629 368.345 173.629C371.005 173.629 372.815 174.648 373.776 176.688C374.409 175.773 375.229 175.035 376.237 174.473C377.257 173.91 378.458 173.629 379.841 173.629C384.013 173.629 386.134 175.838 386.204 180.256V193H382.952V180.449C382.952 179.09 382.642 178.076 382.02 177.408C381.399 176.729 380.356 176.389 378.892 176.389C377.685 176.389 376.683 176.752 375.886 177.479C375.089 178.193 374.626 179.16 374.497 180.379V193H371.228V180.537C371.228 177.771 369.874 176.389 367.167 176.389C365.034 176.389 363.575 177.297 362.79 179.113V193H359.538V173.98H362.614Z" fill="white"/>
<path d="M396 167.227V196.102" stroke="white" stroke-width="2"/>
<rect x="523.337" y="158.169" width="45.6628" height="45.6628" rx="22.8314" fill="#020C30"/>
<circle cx="542.811" cy="177.642" r="7.72965" stroke="white" stroke-width="2"/>
<path d="M557.584 191.744L548.855 183.015" stroke="white" stroke-width="2"/>
<rect x="107" y="241.169" width="406.936" height="45.6628" rx="22.8314" fill="#E77179"/>
<path d="M133.722 271.236L138.152 256.98H141.633L133.986 278.936C132.803 282.1 130.922 283.682 128.344 283.682L127.728 283.629L126.515 283.4V280.764L127.394 280.834C128.496 280.834 129.351 280.611 129.961 280.166C130.582 279.721 131.092 278.906 131.49 277.723L132.211 275.789L125.426 256.98H128.976L133.722 271.236ZM143.012 266.314C143.012 264.451 143.375 262.775 144.102 261.287C144.84 259.799 145.86 258.65 147.16 257.842C148.473 257.033 149.967 256.629 151.643 256.629C154.233 256.629 156.324 257.525 157.918 259.318C159.524 261.111 160.326 263.496 160.326 266.473V266.701C160.326 268.553 159.969 270.217 159.254 271.693C158.551 273.158 157.537 274.301 156.213 275.121C154.901 275.941 153.389 276.352 151.678 276.352C149.1 276.352 147.008 275.455 145.403 273.662C143.809 271.869 143.012 269.496 143.012 266.543V266.314ZM146.282 266.701C146.282 268.811 146.768 270.504 147.741 271.781C148.725 273.059 150.037 273.697 151.678 273.697C153.33 273.697 154.643 273.053 155.616 271.764C156.588 270.463 157.074 268.646 157.074 266.314C157.074 264.229 156.576 262.541 155.58 261.252C154.596 259.951 153.283 259.301 151.643 259.301C150.037 259.301 148.742 259.939 147.758 261.217C146.774 262.494 146.282 264.322 146.282 266.701ZM175.751 274.119C174.485 275.607 172.628 276.352 170.178 276.352C168.151 276.352 166.604 275.766 165.538 274.594C164.483 273.41 163.95 271.664 163.938 269.355V256.98H167.19V269.268C167.19 272.15 168.362 273.592 170.706 273.592C173.19 273.592 174.843 272.666 175.663 270.814V256.98H178.915V276H175.821L175.751 274.119ZM192.669 259.898C192.177 259.816 191.644 259.775 191.07 259.775C188.937 259.775 187.49 260.684 186.728 262.5V276H183.476V256.98H186.64L186.693 259.178C187.759 257.479 189.271 256.629 191.228 256.629C191.861 256.629 192.341 256.711 192.669 256.875V259.898ZM194.136 266.332C194.136 263.414 194.828 261.07 196.211 259.301C197.594 257.52 199.404 256.629 201.642 256.629C203.869 256.629 205.633 257.391 206.933 258.914V249H210.185V276H207.197L207.039 273.961C205.738 275.555 203.928 276.352 201.607 276.352C199.404 276.352 197.605 275.449 196.211 273.645C194.828 271.84 194.136 269.484 194.136 266.578V266.332ZM197.388 266.701C197.388 268.857 197.834 270.545 198.724 271.764C199.615 272.982 200.845 273.592 202.416 273.592C204.478 273.592 205.984 272.666 206.933 270.814V262.078C205.961 260.285 204.467 259.389 202.451 259.389C200.857 259.389 199.615 260.004 198.724 261.234C197.834 262.465 197.388 264.287 197.388 266.701ZM213.99 266.314C213.99 264.451 214.354 262.775 215.08 261.287C215.819 259.799 216.838 258.65 218.139 257.842C219.451 257.033 220.946 256.629 222.621 256.629C225.211 256.629 227.303 257.525 228.897 259.318C230.502 261.111 231.305 263.496 231.305 266.473V266.701C231.305 268.553 230.948 270.217 230.233 271.693C229.53 273.158 228.516 274.301 227.192 275.121C225.879 275.941 224.367 276.352 222.657 276.352C220.078 276.352 217.987 275.455 216.381 273.662C214.787 271.869 213.99 269.496 213.99 266.543V266.314ZM217.26 266.701C217.26 268.811 217.746 270.504 218.719 271.781C219.703 273.059 221.016 273.697 222.657 273.697C224.309 273.697 225.621 273.053 226.594 271.764C227.567 270.463 228.053 268.646 228.053 266.314C228.053 264.229 227.555 262.541 226.559 261.252C225.574 259.951 224.262 259.301 222.621 259.301C221.016 259.301 219.721 259.939 218.737 261.217C217.752 262.494 217.26 264.322 217.26 266.701ZM238.046 256.98L238.134 259.09C239.528 257.449 241.409 256.629 243.776 256.629C246.436 256.629 248.247 257.648 249.208 259.688C249.841 258.773 250.661 258.035 251.669 257.473C252.688 256.91 253.889 256.629 255.272 256.629C259.444 256.629 261.565 258.838 261.636 263.256V276H258.384V263.449C258.384 262.09 258.073 261.076 257.452 260.408C256.831 259.729 255.788 259.389 254.323 259.389C253.116 259.389 252.114 259.752 251.317 260.479C250.52 261.193 250.057 262.16 249.928 263.379V276H246.659V263.537C246.659 260.771 245.305 259.389 242.598 259.389C240.466 259.389 239.007 260.297 238.221 262.113V276H234.969V256.98H238.046ZM277.904 276C277.716 275.625 277.564 274.957 277.447 273.996C275.935 275.566 274.13 276.352 272.032 276.352C270.157 276.352 268.616 275.824 267.409 274.77C266.214 273.703 265.616 272.355 265.616 270.727C265.616 268.746 266.366 267.211 267.866 266.121C269.378 265.02 271.499 264.469 274.23 264.469H277.394V262.975C277.394 261.838 277.054 260.936 276.374 260.268C275.695 259.588 274.693 259.248 273.368 259.248C272.208 259.248 271.236 259.541 270.45 260.127C269.665 260.713 269.273 261.422 269.273 262.254H266.003C266.003 261.305 266.337 260.391 267.005 259.512C267.685 258.621 268.599 257.918 269.747 257.402C270.907 256.887 272.179 256.629 273.562 256.629C275.753 256.629 277.47 257.18 278.712 258.281C279.954 259.371 280.599 260.877 280.646 262.799V271.553C280.646 273.299 280.868 274.688 281.314 275.719V276H277.904ZM272.507 273.521C273.527 273.521 274.493 273.258 275.407 272.73C276.322 272.203 276.984 271.518 277.394 270.674V266.771H274.845C270.861 266.771 268.868 267.938 268.868 270.27C268.868 271.289 269.208 272.086 269.888 272.66C270.568 273.234 271.441 273.521 272.507 273.521ZM288.881 276H285.629V256.98H288.881V276ZM285.365 251.936C285.365 251.408 285.523 250.963 285.84 250.6C286.168 250.236 286.648 250.055 287.281 250.055C287.914 250.055 288.394 250.236 288.722 250.6C289.051 250.963 289.215 251.408 289.215 251.936C289.215 252.463 289.051 252.902 288.722 253.254C288.394 253.605 287.914 253.781 287.281 253.781C286.648 253.781 286.168 253.605 285.84 253.254C285.523 252.902 285.365 252.463 285.365 251.936ZM296.781 256.98L296.887 259.371C298.34 257.543 300.239 256.629 302.582 256.629C306.602 256.629 308.629 258.896 308.664 263.432V276H305.412V263.414C305.401 262.043 305.084 261.029 304.463 260.373C303.854 259.717 302.899 259.389 301.598 259.389C300.543 259.389 299.617 259.67 298.821 260.232C298.024 260.795 297.403 261.533 296.957 262.447V276H293.705V256.98H296.781ZM313.243 274.295C313.243 273.732 313.407 273.264 313.735 272.889C314.075 272.514 314.579 272.326 315.247 272.326C315.915 272.326 316.419 272.514 316.759 272.889C317.11 273.264 317.286 273.732 317.286 274.295C317.286 274.834 317.11 275.285 316.759 275.648C316.419 276.012 315.915 276.193 315.247 276.193C314.579 276.193 314.075 276.012 313.735 275.648C313.407 275.285 313.243 274.834 313.243 274.295ZM329.898 273.697C331.058 273.697 332.072 273.346 332.939 272.643C333.806 271.939 334.286 271.061 334.38 270.006H337.456C337.398 271.096 337.023 272.133 336.331 273.117C335.64 274.102 334.714 274.887 333.554 275.473C332.406 276.059 331.187 276.352 329.898 276.352C327.308 276.352 325.245 275.49 323.71 273.768C322.187 272.033 321.425 269.666 321.425 266.666V266.121C321.425 264.27 321.765 262.623 322.445 261.182C323.124 259.74 324.097 258.621 325.363 257.824C326.64 257.027 328.146 256.629 329.88 256.629C332.013 256.629 333.782 257.268 335.189 258.545C336.607 259.822 337.363 261.48 337.456 263.52H334.38C334.286 262.289 333.818 261.281 332.974 260.496C332.142 259.699 331.111 259.301 329.88 259.301C328.228 259.301 326.945 259.898 326.031 261.094C325.128 262.277 324.677 263.994 324.677 266.244V266.859C324.677 269.051 325.128 270.738 326.031 271.922C326.933 273.105 328.222 273.697 329.898 273.697ZM339.855 266.314C339.855 264.451 340.218 262.775 340.945 261.287C341.683 259.799 342.703 258.65 344.004 257.842C345.316 257.033 346.81 256.629 348.486 256.629C351.076 256.629 353.168 257.525 354.761 259.318C356.367 261.111 357.17 263.496 357.17 266.473V266.701C357.17 268.553 356.812 270.217 356.097 271.693C355.394 273.158 354.381 274.301 353.056 275.121C351.744 275.941 350.232 276.352 348.521 276.352C345.943 276.352 343.851 275.455 342.246 273.662C340.652 271.869 339.855 269.496 339.855 266.543V266.314ZM343.125 266.701C343.125 268.811 343.611 270.504 344.584 271.781C345.568 273.059 346.881 273.697 348.521 273.697C350.174 273.697 351.486 273.053 352.459 271.764C353.431 270.463 353.918 268.646 353.918 266.314C353.918 264.229 353.42 262.541 352.424 261.252C351.439 259.951 350.127 259.301 348.486 259.301C346.881 259.301 345.586 259.939 344.601 261.217C343.617 262.494 343.125 264.322 343.125 266.701ZM363.91 256.98L363.998 259.09C365.393 257.449 367.274 256.629 369.641 256.629C372.301 256.629 374.112 257.648 375.072 259.688C375.705 258.773 376.526 258.035 377.533 257.473C378.553 256.91 379.754 256.629 381.137 256.629C385.309 256.629 387.43 258.838 387.5 263.256V276H384.248V263.449C384.248 262.09 383.938 261.076 383.317 260.408C382.696 259.729 381.653 259.389 380.188 259.389C378.981 259.389 377.979 259.752 377.182 260.479C376.385 261.193 375.922 262.16 375.793 263.379V276H372.524V263.537C372.524 260.771 371.17 259.389 368.463 259.389C366.33 259.389 364.871 260.297 364.086 262.113V276H360.834V256.98H363.91Z" fill="white"/>
<path d="M396 250.227V279.102" stroke="white" stroke-width="2"/>
<rect x="523.337" y="241.169" width="45.6628" height="45.6628" rx="22.8314" fill="#020C30"/>
<circle cx="542.811" cy="260.642" r="7.72965" stroke="white" stroke-width="2"/>
<path d="M557.584 274.744L548.855 266.015" stroke="white" stroke-width="2"/>
</svg>
