<svg width="637" height="481" viewBox="0 0 637 481" fill="none" xmlns="http://www.w3.org/2000/svg">
<path d="M272.757 435.196L184.084 453.934L197.977 467.814L440.509 454.358L382.756 433.808L272.757 435.196Z" fill="#BABABA"/>
<path d="M185.473 453.934H439.023C439.944 453.934 440.827 454.3 441.479 454.951C442.13 455.601 442.496 456.484 442.496 457.404V481H182V457.404C182 456.484 182.366 455.601 183.017 454.951C183.669 454.3 184.552 453.934 185.473 453.934Z" fill="#CDCECE"/>
<path d="M384.722 316.149L384.367 435.196H272.757L277.439 317.197L384.722 316.149Z" fill="#E0E0E0"/>
<path d="M456.591 244.383L55.5725 376.242C27.0916 376.242 9.03053 370.69 0 330.438L21.5344 53.7914C25.0076 1.48513 59.0458 0.791138 87.5267 0.791138L297.653 20.3132C326.134 20.3132 349.496 43.215 349.496 71.2176L519.756 237.096C519.756 265.099 485.106 244.383 456.591 244.383Z" fill="#F4ACB6"/>
<path d="M573.904 376.762H61.3521C47.6139 376.724 34.4492 371.255 24.7342 361.55C15.0191 351.846 9.54326 338.695 9.50293 324.969L28.3976 53.729C28.4379 40.0032 33.9135 26.8512 43.6284 17.1456C53.3433 7.43998 66.5079 1.9696 80.2468 1.92932L585.151 0C598.89 0.0402785 612.054 5.51068 621.769 15.2163C631.484 24.9219 636.96 38.0739 637 51.7997L625.747 324.969C625.708 338.694 620.234 351.845 610.52 361.55C600.806 371.255 587.642 376.724 573.904 376.762Z" fill="white"/>
<path d="M42.3742 52.4936L20.8398 318.585L614.076 319.973L622.551 59.6765C623.143 53.4751 622.421 47.2188 620.432 41.3147C618.443 35.4106 615.232 29.991 611.009 25.4085C606.785 20.826 601.642 17.1834 595.916 14.7176C590.19 12.2518 584.009 11.0182 577.774 11.0969L79.6217 17.2873C70.0411 17.1349 60.7809 20.7327 53.8206 27.3116C46.8603 33.8904 42.7521 42.9285 42.3742 52.4936Z" fill="#E0E0E0"/>
<path d="M622.523 59.7251C623.113 53.5223 622.39 47.2649 620.401 41.3596C618.413 35.4542 615.202 30.0329 610.979 25.448C606.756 20.8631 601.615 17.2171 595.889 14.7471C590.164 12.277 583.982 11.0381 577.746 11.1108L79.5798 17.3151C69.9983 17.1629 60.7376 20.763 53.7792 27.3452C46.8207 33.9274 42.717 42.9689 42.3462 52.5353L622.523 59.7251Z" fill="#CCC8C9"/>
<path d="M70.5077 43.0901C74.1523 43.0901 77.1069 40.1383 77.1069 36.4971C77.1069 32.8559 74.1523 29.9042 70.5077 29.9042C66.863 29.9042 63.9084 32.8559 63.9084 36.4971C63.9084 40.1383 66.863 43.0901 70.5077 43.0901Z" fill="#E0E0E0"/>
<path d="M88.5687 43.0901C92.2134 43.0901 95.168 40.1383 95.168 36.4971C95.168 32.8559 92.2134 29.9042 88.5687 29.9042C84.9241 29.9042 81.9695 32.8559 81.9695 36.4971C81.9695 40.1383 84.9241 43.0901 88.5687 43.0901Z" fill="#E0E0E0"/>
<path d="M107.324 43.0901C110.969 43.0901 113.924 40.1383 113.924 36.4971C113.924 32.8559 110.969 29.9042 107.324 29.9042C103.68 29.9042 100.725 32.8559 100.725 36.4971C100.725 40.1383 103.68 43.0901 107.324 43.0901Z" fill="#E0E0E0"/>
</svg>
