<svg width="145" height="45" viewBox="0 0 145 45" fill="none" xmlns="http://www.w3.org/2000/svg">
<path d="M24.4326 24.7039C19.9086 29.5077 9.6627 38.0552 6.10027 38.0552C3.99197 38.0552 0 34.406 0 32.8691C0 27.9235 2.00978 19.5337 13.166 17.5278C11.7276 15.187 10.4784 11.5261 10.4784 6.34796C10.4784 3.4791 20.1175 1.26045 24.271 1.26045C24.9291 1.26045 25.8907 1.95401 26.6355 2.67122C27.0206 1.89579 27.242 1.04936 27.2857 0.184637C27.2857 -0.769023 30.2767 2.2338 30.2767 3.2111C30.2767 4.1884 23.3016 12.0305 23.3016 13.1733C23.3016 14.3161 21.4179 11.5616 21.4179 11.0847C21.4179 10.1114 23.9479 7.30554 25.6858 4.4485C21.5716 5.06325 13.6507 7.09667 13.6507 9.01975C13.6507 13.1181 15.0458 15.719 16.1649 17.1811C16.9137 17.1298 17.6742 17.0825 18.4939 17.0825C19.6761 17.0825 17.9304 20.7435 16.8743 20.7435C16.3698 20.7435 15.6093 20.3494 14.7857 19.5612C5.52492 21.7838 2.70729 34.7174 4.6422 34.7174C10.5533 34.7174 17.9461 28.4949 22.0169 24.7C22.7775 23.9906 22.943 23.5729 23.7114 23.5729C24.4799 23.5729 25.1695 23.9237 24.4326 24.7039Z" fill="white"/>
<path d="M41.894 24.6881C36.6962 31.1352 31.8254 36.8414 28.8896 36.8414C28.3024 36.8414 26.0917 34.6858 26.0917 34.1775C26.0917 32.3529 30.3083 25.165 32.5742 22.8005C28.4482 24.3768 20.9451 33.4917 20.9451 36.4552C20.9451 37.4049 17.4772 34.674 17.4811 34.0434C17.4811 32.7903 25.1341 20.8971 25.1498 16.7042C25.1498 16.251 28.7398 19.0686 28.7398 19.9198C28.7398 20.8853 24.9094 25.1926 22.746 29.2318C26.6 24.8142 32.72 18.7613 34.4027 18.7692C35.1672 18.7692 37.4568 20.7395 37.4568 21.2794C37.4568 22.2094 29.5477 29.949 29.5477 33.6376C29.5477 34.5558 31.9752 33.4169 39.6321 24.5108C40.0261 24.0537 40.3374 23.9315 41.2675 23.9315C42.1975 23.9315 42.2211 24.2862 41.894 24.6881Z" fill="white"/>
<path d="M51.2414 24.7118C44.8811 32.0731 38.4498 36.9715 37.7208 36.9715C36.8341 36.9715 34.7258 35.0366 34.7258 34.0711C34.7258 32.7943 37.9414 26.6822 41.1137 21.3661C40.2231 20.7553 39.3246 19.5612 39.3246 18.8716C39.3246 18.5051 39.5769 19.2657 40.5069 19.2657C41.232 19.2657 41.8349 19.2657 42.3866 19.2657C44.5698 15.7466 46.5126 12.9999 47.08 12.9999C49.2514 12.9999 50.4572 15.4707 50.1144 15.4707C49.5036 15.4707 47.9903 17.1259 46.2091 19.4115C46.6426 19.4351 47.0682 19.4509 47.5687 19.4509C48.2465 19.4509 49.145 20.6095 49.145 21.2439C49.145 21.9572 48.9479 21.2794 47.6278 21.2794C46.1855 21.2794 45.7284 21.4844 44.554 21.6183C41.0428 26.43 37.2518 32.4041 37.2518 32.9834C37.2518 33.9371 42.6664 31.1155 49.074 24.4359C49.2868 24.2153 49.4405 24.0419 50.1774 24.0419C51.7695 24.0852 51.47 24.4517 51.2414 24.7118Z" fill="white"/>
<path d="M65.9562 24.4359C63.1465 27.9353 51.2494 37.1212 48.7588 37.1212C47.8012 37.1212 45.3343 34.9577 45.3343 34.0513C45.3343 27.7146 52.7823 16.6884 57.8541 16.6884C58.6422 16.6884 61.0066 19.2302 61.0066 20.2075C61.0066 24.2192 54.6305 30.7766 51.5489 30.7766C50.9578 30.7766 50.1066 30.1658 49.4366 29.2279C47.884 31.8721 47.017 34.004 47.8052 34.004C52.7941 34.004 61.9051 25.9255 63.5681 24.4359C63.7353 24.2425 63.9452 24.0906 64.1811 23.9921C64.417 23.8937 64.6726 23.8513 64.9277 23.8685C65.8813 23.8685 66.0547 24.2901 65.9562 24.4359ZM50.4179 27.6397C50.4612 28.1599 50.5597 28.5461 50.7725 28.5461C52.5971 28.5461 59.722 19.2302 58.4136 19.2302C56.5733 19.2381 52.9518 23.6399 50.3982 27.6397H50.4179Z" fill="white"/>
<path d="M78.5666 23.7778C80.2099 23.7778 79.8119 24.2625 79.7488 24.3413C78.2513 26.2329 68.3719 36.9833 65.9562 36.9833C65.0104 36.9833 62.5672 34.9065 62.5672 34.2248C62.5672 31.3204 68.7817 25.2871 68.7817 23.7739C68.7817 23.5059 68.2694 22.9858 67.6428 22.4025C67.0727 23.104 66.4803 23.8146 65.8656 24.5344C65.6747 24.7595 65.4392 24.9427 65.174 25.0722C64.9088 25.2018 64.6196 25.2749 64.3247 25.2871C62.8036 25.2871 63.5918 24.3768 63.5918 24.3768C64.6164 23.3089 65.5621 22.241 66.433 21.2243C65.834 20.5819 65.3533 19.9317 65.3533 19.3997C65.3533 17.784 68.0133 13.5989 70.7757 13.5989C71.3077 13.5989 72.2378 14.8324 72.2378 15.1082C72.2378 16.2156 70.8506 18.3475 68.9078 20.842C70.0309 21.973 71.8397 23.5335 71.8397 24.5542C71.8397 24.9798 66.7168 32.1637 66.7168 33.3026C66.7168 35.1508 74.4879 27.2181 77.3213 24.3571C77.4583 24.1671 77.6431 24.0168 77.8569 23.9213C78.0708 23.8258 78.3061 23.7885 78.539 23.8133L78.5666 23.7778Z" fill="white"/>
<path d="M95.4329 24.9955C94.8063 25.7403 86.8185 36.0611 77.5774 36.0611C76.1154 36.0611 75.2327 34.737 74.8386 33.6967C74.4603 34.2011 74.0977 34.695 73.751 35.1784C71.8436 38.8196 70.358 42.3978 70.358 44.9436C70.358 45.2549 66.5355 44.2933 66.5355 41.6885C66.5355 40.4669 79.4335 23.6951 79.4335 18.044C79.4335 17.5987 82.0541 19.908 82.0541 20.507C82.0541 21.106 81.0532 22.7808 79.6542 25.0744C82.5625 21.4134 85.4825 18.3514 87.2125 18.3514C87.8588 18.3514 89.6558 20.2548 89.6558 20.9957C89.6558 24.1482 87.4726 28.6604 84.5683 31.9194C88.5957 29.8742 91.4607 26.5797 93.2852 24.6842C93.7148 24.2389 94.1285 24.235 94.7078 24.235C95.2871 24.235 96.0595 24.2507 95.4329 24.9955ZM77.2819 33.744C80.6827 33.744 86.3456 25.4684 86.3456 21.7208C86.3456 20.243 80.734 26.162 76.0996 32.0849C76.3794 32.9361 76.8641 33.744 77.2819 33.744Z" fill="white"/>
<path d="M109.821 24.3611C108.323 26.2526 98.4437 37.003 96.028 37.003C95.0822 37.003 92.635 34.9262 92.635 34.2444C92.635 31.3401 98.8535 25.3069 98.8535 23.7936C98.8535 23.5257 98.3412 23.0055 97.7147 22.4222C97.1446 23.1237 96.5508 23.8343 95.9334 24.5542C95.7429 24.7797 95.5075 24.963 95.2422 25.0926C94.9769 25.2222 94.6876 25.2952 94.3926 25.3069C92.8754 25.3069 93.6636 24.3965 93.6636 24.3965C94.6882 23.3286 95.6339 22.2607 96.5009 21.2439C95.9019 20.6016 95.4211 19.9514 95.4211 19.4194C95.4211 17.8037 98.0811 13.6186 100.848 13.6186C101.38 13.6186 102.31 14.8521 102.31 15.1279C102.31 16.2353 100.922 18.3672 98.9757 20.8617C100.103 21.9927 101.912 23.5533 101.912 24.5739C101.912 24.9995 96.7886 32.1835 96.7886 33.3223C96.7886 35.1705 104.564 27.2378 107.393 24.3769C107.531 24.1872 107.717 24.0371 107.931 23.9417C108.146 23.8462 108.381 23.8088 108.615 23.833C110.278 23.7779 109.88 24.2626 109.821 24.3611Z" fill="white"/>
<path d="M119.653 24.3374C113.292 31.6987 108.962 36.6089 106.136 36.6089C105.249 36.6089 102.589 33.8504 102.589 32.8928C102.589 31.683 109.923 19.9987 109.923 17.7721C109.923 16.4165 113.399 19.9947 113.399 20.6844C113.399 21.5395 103.85 33.4169 105.789 33.4169C107.815 33.4169 111.07 30.7766 117.47 24.097C117.682 23.8724 117.836 23.7029 118.569 23.7029C120.185 23.7108 119.877 24.0812 119.653 24.3374ZM112.827 16.1643C113.221 16.1643 115.669 10.4069 115.669 9.21676C115.669 7.93996 118.77 10.7931 118.77 11.8492C118.77 12.9053 115.097 16.913 114.341 16.913C112.709 16.913 112.457 16.1643 112.827 16.1643Z" fill="white"/>
<path d="M130.529 24.0892C128.665 26.3078 126.08 29.3776 120.677 30.7884C120.591 32.0574 120.539 33.476 120.539 35.072C120.539 36.5143 117.47 37.4365 116.362 37.4365C114.81 37.4365 112.027 33.6297 112.027 31.2258C112.055 30.9674 112.145 30.7196 112.291 30.5047C112.587 29.9136 113.474 29.1293 114.057 29.1293C115.377 29.1293 116.532 29.09 117.576 29.0151C117.576 27.8329 117.576 26.6506 117.576 25.7324C117.576 22.9069 120.019 16.4283 121.217 16.4283C121.978 16.4283 123.688 18.2372 123.688 19.7544C123.688 20.4637 121.718 21.8035 120.882 28.5934C124.622 27.8053 126.21 26.229 128.35 23.8645C128.543 23.7008 128.767 23.5783 129.009 23.5045C129.251 23.4306 129.505 23.4069 129.757 23.435C130.411 23.4232 130.809 23.7542 130.529 24.0892ZM117.58 31.3362C116.494 31.4581 115.402 31.5187 114.309 31.5175C114.309 31.5175 114.045 31.4898 113.714 31.4386C114.833 33.677 117.568 35.5015 117.568 33.7164C117.552 33.2238 117.58 32.3529 117.58 31.3362Z" fill="white"/>
<path d="M144.696 24.4359C141.886 27.9353 129.989 37.1212 127.499 37.1212C126.541 37.1212 124.074 34.9577 124.074 34.0513C124.074 27.7146 131.522 16.6884 136.594 16.6884C137.382 16.6884 139.747 19.2302 139.747 20.2075C139.747 24.2192 133.37 30.7766 130.289 30.7766C129.694 30.7766 128.843 30.1658 128.173 29.2279C126.62 31.8721 125.757 34.004 126.541 34.004C131.534 34.004 140.641 25.9255 142.304 24.4359C142.471 24.2425 142.681 24.0906 142.917 23.9921C143.153 23.8937 143.409 23.8513 143.664 23.8685C144.641 23.8685 144.814 24.2901 144.696 24.4359ZM129.158 27.6397C129.205 28.1599 129.3 28.5461 129.512 28.5461C131.337 28.5461 138.466 19.2302 137.154 19.2302C135.333 19.2381 131.723 23.6399 129.158 27.6397Z" fill="white"/>
</svg>
