<svg width="368" height="139" viewBox="0 0 368 139" fill="none" xmlns="http://www.w3.org/2000/svg">
<g clip-path="url(#clip0_2_74)">
<path d="M300.02 111.17L296.73 111.84C296.631 111.29 296.337 110.795 295.901 110.446C295.466 110.096 294.918 109.917 294.36 109.94C293.24 109.94 292.53 110.54 292.53 111.32C292.53 111.86 292.77 112.32 293.63 112.45L296.45 113.08C298.8 113.61 300.18 114.89 300.18 117.08C300.18 119.98 297.6 121.49 294.58 121.49C291.56 121.49 289 120.02 288.58 117.36L292.03 116.69C292.147 117.298 292.486 117.84 292.982 118.21C293.478 118.58 294.094 118.751 294.71 118.69C295.97 118.69 296.71 118.13 296.71 117.29C296.71 116.68 296.43 116.29 295.45 116.1L292.61 115.49C290.61 115.04 288.96 114.03 288.96 111.55C288.96 108.91 291.15 107.27 294.34 107.27C297.37 107.24 299.51 108.7 300.02 111.17Z" fill="white"/>
<path d="M312.89 121.14H309.64V120.33C308.763 121.09 307.63 121.49 306.47 121.45C305.118 121.334 303.859 120.714 302.942 119.714C302.024 118.715 301.515 117.407 301.515 116.05C301.515 114.693 302.024 113.385 302.942 112.386C303.859 111.386 305.118 110.766 306.47 110.65C307.629 110.606 308.762 111.003 309.64 111.76V110.95H312.89V121.14ZM309.64 116.05C309.653 115.711 309.599 115.374 309.48 115.057C309.361 114.739 309.179 114.449 308.946 114.203C308.713 113.957 308.434 113.76 308.123 113.624C307.813 113.488 307.479 113.415 307.14 113.41C306.469 113.451 305.839 113.747 305.379 114.237C304.919 114.726 304.662 115.373 304.662 116.045C304.662 116.717 304.919 117.364 305.379 117.853C305.839 118.343 306.469 118.639 307.14 118.68C307.478 118.676 307.812 118.605 308.123 118.47C308.433 118.334 308.713 118.138 308.946 117.893C309.179 117.648 309.36 117.359 309.48 117.042C309.599 116.725 309.653 116.388 309.64 116.05Z" fill="white"/>
<path d="M315.24 121.14V106.53H318.49V121.14H315.24Z" fill="white"/>
<path d="M330.83 116.88H323.37C323.433 117.421 323.689 117.922 324.091 118.29C324.493 118.657 325.015 118.867 325.56 118.88C325.998 118.915 326.438 118.822 326.824 118.612C327.211 118.403 327.529 118.086 327.74 117.7L330.62 118.29C330.224 119.29 329.52 120.137 328.611 120.711C327.701 121.284 326.633 121.554 325.56 121.48C324.128 121.48 322.754 120.911 321.742 119.898C320.729 118.886 320.16 117.512 320.16 116.08C320.16 114.648 320.729 113.274 321.742 112.262C322.754 111.249 324.128 110.68 325.56 110.68C326.266 110.667 326.967 110.799 327.62 111.068C328.273 111.336 328.863 111.736 329.355 112.242C329.847 112.748 330.23 113.35 330.481 114.01C330.731 114.67 330.843 115.375 330.81 116.08L330.83 116.88ZM323.42 114.88H327.63C327.539 114.42 327.288 114.006 326.922 113.712C326.557 113.417 326.099 113.261 325.63 113.27C325.134 113.257 324.648 113.41 324.248 113.703C323.848 113.996 323.557 114.413 323.42 114.89V114.88Z" fill="white"/>
<path d="M334.99 117.82C335.14 118.69 335.93 119.02 336.8 119.02C337.67 119.02 338.12 118.65 338.12 118.21C338.12 117.77 337.86 117.6 337.12 117.46L335.05 117.05C333.17 116.71 332.05 115.69 332.05 114.05C332.05 111.96 333.86 110.6 336.44 110.6C339.02 110.6 340.66 111.75 341.06 113.52L338.06 114.11C337.97 113.736 337.746 113.408 337.432 113.187C337.117 112.966 336.732 112.868 336.35 112.91C335.48 112.91 335.2 113.34 335.2 113.7C335.2 114.06 335.32 114.27 335.97 114.41L338.36 114.9C340.29 115.31 341.19 116.46 341.19 117.96C341.19 120.22 339.24 121.4 336.56 121.4C334.16 121.4 332.11 120.52 331.77 118.4L334.99 117.82Z" fill="white"/>
<path d="M301.46 137.65H298.13V132.28H292.37V137.65H289.02V124.05H292.37V129.35H298.09V124.05H301.42L301.46 137.65Z" fill="white"/>
<path d="M314.03 137.65H310.78V136.65C310.375 137.068 309.888 137.398 309.349 137.618C308.81 137.838 308.232 137.945 307.65 137.93C305.28 137.93 303.65 136.24 303.65 133.69V127.43H306.88V133C306.852 133.249 306.876 133.5 306.951 133.739C307.026 133.977 307.15 134.198 307.314 134.386C307.479 134.574 307.681 134.726 307.907 134.831C308.134 134.937 308.38 134.995 308.63 135C309.91 135 310.74 134.12 310.74 132.15V127.42H313.99L314.03 137.65Z" fill="white"/>
<path d="M327.77 132.56C327.813 133.247 327.717 133.935 327.486 134.584C327.255 135.232 326.895 135.827 326.428 136.332C325.96 136.837 325.395 137.242 324.766 137.521C324.137 137.801 323.458 137.951 322.77 137.96C321.613 137.998 320.484 137.598 319.61 136.84V137.65H316.37V123.04H319.62V128.28C320.494 127.522 321.623 127.122 322.78 127.16C323.467 127.172 324.144 127.323 324.771 127.604C325.398 127.885 325.962 128.29 326.428 128.795C326.894 129.299 327.253 129.893 327.484 130.54C327.715 131.187 327.812 131.874 327.77 132.56ZM324.58 132.56C324.606 132.222 324.562 131.882 324.45 131.562C324.338 131.241 324.161 130.948 323.93 130.7C323.699 130.452 323.418 130.254 323.107 130.12C322.795 129.986 322.459 129.918 322.12 129.92C321.42 129.92 320.748 130.198 320.253 130.693C319.758 131.188 319.48 131.86 319.48 132.56C319.48 133.26 319.758 133.932 320.253 134.427C320.748 134.922 321.42 135.2 322.12 135.2C322.46 135.204 322.796 135.137 323.109 135.003C323.421 134.87 323.702 134.672 323.933 134.424C324.165 134.175 324.342 133.881 324.453 133.56C324.565 133.239 324.608 132.899 324.58 132.56Z" fill="white"/>
<path d="M260.08 114.25C256.81 114.25 238.59 113.86 237.36 113.86C236.138 113.844 234.918 113.958 233.72 114.2C233.293 114.245 232.899 114.452 232.619 114.777C232.339 115.102 232.192 115.521 232.21 115.95C232.21 116.345 232.334 116.73 232.566 117.05C232.798 117.369 233.125 117.608 233.5 117.73C234.998 118.305 236.531 118.783 238.09 119.16C240.173 119.629 242.155 120.469 243.94 121.64C245.171 122.465 246.128 123.638 246.69 125.01C247.193 126.404 247.44 127.878 247.42 129.36C247.458 130.686 247.178 132.003 246.602 133.198C246.026 134.394 245.171 135.433 244.11 136.23C241.91 137.963 238.577 138.83 234.11 138.83C232.099 138.841 230.091 138.671 228.11 138.32C226.453 138.047 224.837 137.567 223.3 136.89V129.36C224.856 130.076 226.481 130.628 228.15 131.01C229.787 131.412 231.465 131.623 233.15 131.64C234.384 131.686 235.617 131.548 236.81 131.23C237.202 131.111 237.54 130.86 237.767 130.518C237.993 130.177 238.093 129.767 238.05 129.36C238.063 129.056 238.007 128.753 237.886 128.474C237.765 128.195 237.581 127.948 237.35 127.75C236.687 127.272 235.946 126.913 235.16 126.69C234.16 126.36 232.89 125.96 231.3 125.47C229.543 124.948 227.862 124.198 226.3 123.24C225.15 122.512 224.231 121.471 223.65 120.24C223.082 118.887 222.809 117.427 222.85 115.96C222.776 114.613 223.037 113.269 223.61 112.048C224.182 110.826 225.048 109.765 226.13 108.96C228.31 107.36 231.557 106.56 235.87 106.56L259.96 106.5L260.08 114.25Z" fill="#E77179"/>
<path d="M270.73 107.06V118.58H250.82V118.69V126.49V127.48V138.34H259.95V126.68H270.73V138.34H279.86V107.06H270.73Z" fill="#F2A1AC"/>
<path d="M62 62.69C50.52 74.88 24.52 96.57 15.48 96.57C10.13 96.57 0 87.31 0 83.41C0 70.86 5.1 49.5701 33.41 44.4801C29.76 38.5401 26.59 29.2501 26.59 16.1101C26.59 8.83007 51.05 3.20003 61.59 3.20003C63.26 3.20003 65.7 4.95999 67.59 6.77999C68.5674 4.81225 69.1291 2.66436 69.24 0.470052C69.24 -1.94995 76.83 5.66998 76.83 8.14998C76.83 10.63 59.13 30.53 59.13 33.43C59.13 36.33 54.35 29.3401 54.35 28.1301C54.35 25.6601 60.77 18.54 65.18 11.29C54.74 12.85 34.64 18.01 34.64 22.89C34.64 33.29 38.18 39.8901 41.02 43.6001C42.92 43.4701 44.85 43.3501 46.93 43.3501C49.93 43.3501 45.5 52.64 42.82 52.64C41.54 52.64 39.61 51.64 37.52 49.64C14.02 55.28 6.87001 88.1001 11.78 88.1001C26.78 88.1001 45.54 72.31 55.87 62.68C57.8 60.88 58.22 59.82 60.17 59.82C62.12 59.82 63.87 60.71 62 62.69Z" fill="white"/>
<path d="M106.31 62.6499C93.12 79.0099 80.76 93.49 73.31 93.49C71.82 93.49 66.21 88.02 66.21 86.73C66.21 82.1 76.91 63.86 82.66 57.86C72.19 61.86 53.15 84.9899 53.15 92.5099C53.15 94.9199 44.35 87.9899 44.36 86.3899C44.36 83.2099 63.78 53.0299 63.82 42.3899C63.82 41.2399 72.93 48.3899 72.93 50.5499C72.93 52.9999 63.21 63.9299 57.72 74.1799C67.5 62.9699 83.03 47.61 87.3 47.63C89.24 47.63 95.05 52.63 95.05 54C95.05 56.36 74.98 76 74.98 85.36C74.98 87.69 81.14 84.7999 100.57 62.2C101.57 61.04 102.36 60.73 104.72 60.73C107.08 60.73 107.14 61.6299 106.31 62.6499Z" fill="white"/>
<path d="M130.03 62.71C113.89 81.39 97.57 93.82 95.72 93.82C93.47 93.82 88.12 88.91 88.12 86.46C88.12 83.22 96.28 67.71 104.33 54.22C102.07 52.67 99.79 49.6399 99.79 47.8899C99.79 46.9599 100.43 48.8899 102.79 48.8899C104.63 48.8899 106.16 48.8899 107.56 48.8899C113.1 39.9599 118.03 32.99 119.47 32.99C124.98 32.99 128.04 39.2599 127.17 39.2599C125.62 39.2599 121.78 43.4599 117.26 49.2599C118.36 49.3199 119.44 49.36 120.71 49.36C122.43 49.36 124.71 52.3 124.71 53.91C124.71 55.72 124.21 54.0001 120.86 54.0001C117.2 54.0001 116.04 54.52 113.06 54.86C104.15 67.07 94.53 82.23 94.53 83.7C94.53 86.12 108.27 78.9599 124.53 62.0099C125.07 61.4499 125.46 61.0099 127.33 61.0099C131.37 61.1199 130.61 62.05 130.03 62.71Z" fill="white"/>
<path d="M167.37 62.0099C160.24 70.8899 130.05 94.2 123.73 94.2C121.3 94.2 115.04 88.71 115.04 86.41C115.04 70.33 133.94 42.35 146.81 42.35C148.81 42.35 154.81 48.8 154.81 51.28C154.81 61.46 138.63 78.1 130.81 78.1C129.31 78.1 127.15 76.55 125.45 74.17C121.51 80.88 119.31 86.29 121.31 86.29C133.97 86.29 157.09 65.7899 161.31 62.0099C161.734 61.5192 162.267 61.1337 162.866 60.8838C163.464 60.634 164.113 60.5266 164.76 60.57C167.18 60.57 167.62 61.6399 167.37 62.0099ZM127.94 70.1399C128.05 71.4599 128.3 72.44 128.84 72.44C133.47 72.44 151.55 48.8 148.23 48.8C143.56 48.82 134.37 59.9899 127.89 70.1399H127.94Z" fill="white"/>
<path d="M199.37 60.34C203.54 60.34 202.53 61.57 202.37 61.77C198.57 66.57 173.5 93.85 167.37 93.85C164.97 93.85 158.77 88.58 158.77 86.85C158.77 79.48 174.54 64.17 174.54 60.33C174.54 59.65 173.24 58.33 171.65 56.85C170.203 58.63 168.7 60.4333 167.14 62.2599C166.656 62.8312 166.058 63.2959 165.385 63.6247C164.712 63.9534 163.978 64.139 163.23 64.17C159.37 64.17 161.37 61.86 161.37 61.86C163.97 59.15 166.37 56.44 168.58 53.86C167.06 52.23 165.84 50.58 165.84 49.23C165.84 45.13 172.59 34.5099 179.6 34.5099C180.95 34.5099 183.31 37.64 183.31 38.34C183.31 41.15 179.79 46.5599 174.86 52.8899C177.71 55.7599 182.3 59.72 182.3 62.31C182.3 63.39 169.3 81.6199 169.3 84.5099C169.3 89.1999 189.02 69.07 196.21 61.81C196.558 61.3279 197.027 60.9464 197.569 60.704C198.112 60.4617 198.709 60.3671 199.3 60.43L199.37 60.34Z" fill="white"/>
<path d="M242.17 63.43C240.58 65.32 220.31 91.5099 196.86 91.5099C193.15 91.5099 190.91 88.1499 189.91 85.5099C188.95 86.7899 188.03 88.0433 187.15 89.2699C182.31 98.5099 178.54 107.59 178.54 114.05C178.54 114.84 168.84 112.4 168.84 105.79C168.84 102.69 201.57 60.13 201.57 45.79C201.57 44.66 208.22 50.52 208.22 52.04C208.22 53.56 205.68 57.8101 202.13 63.6301C209.51 54.3401 216.92 46.57 221.31 46.57C222.95 46.57 227.51 51.4 227.51 53.28C227.51 61.28 221.97 72.73 214.6 81C224.82 75.81 232.09 67.4499 236.72 62.6399C237.81 61.5099 238.86 61.5 240.33 61.5C241.8 61.5 243.76 61.54 242.17 63.43ZM196.11 85.6301C204.74 85.6301 219.11 64.63 219.11 55.12C219.11 51.37 204.87 66.39 193.11 81.42C193.82 83.58 195.05 85.6301 196.11 85.6301Z" fill="white"/>
<path d="M278.68 61.82C274.88 66.62 249.81 93.9 243.68 93.9C241.28 93.9 235.07 88.63 235.07 86.9C235.07 79.53 250.85 64.2201 250.85 60.3801C250.85 59.7001 249.55 58.38 247.96 56.9C246.513 58.68 245.007 60.4833 243.44 62.31C242.956 62.8822 242.359 63.3475 241.686 63.6763C241.013 64.0051 240.279 64.1903 239.53 64.22C235.68 64.22 237.68 61.91 237.68 61.91C240.28 59.2 242.68 56.49 244.88 53.91C243.36 52.28 242.14 50.63 242.14 49.28C242.14 45.18 248.89 34.56 255.91 34.56C257.26 34.56 259.62 37.6899 259.62 38.3899C259.62 41.1999 256.1 46.61 251.16 52.94C254.02 55.81 258.61 59.77 258.61 62.36C258.61 63.44 245.61 81.67 245.61 84.56C245.61 89.25 265.34 69.12 272.52 61.86C272.871 61.3787 273.342 60.9979 273.886 60.7557C274.43 60.5135 275.028 60.4184 275.62 60.48C279.84 60.34 278.83 61.57 278.68 61.82Z" fill="white"/>
<path d="M303.63 61.7599C287.49 80.4399 276.5 92.9 269.33 92.9C267.08 92.9 260.33 85.9 260.33 83.47C260.33 80.4 278.94 50.75 278.94 45.1C278.94 41.66 287.76 50.74 287.76 52.49C287.76 54.66 263.53 84.8 268.45 84.8C273.59 84.8 281.85 78.1 298.09 61.15C298.63 60.58 299.02 60.15 300.88 60.15C304.98 60.17 304.2 61.1099 303.63 61.7599ZM286.31 41.02C287.31 41.02 293.52 26.41 293.52 23.39C293.52 20.15 301.39 27.39 301.39 30.07C301.39 32.75 292.07 42.92 290.15 42.92C286.01 42.92 285.37 41.02 286.31 41.02Z" fill="white"/>
<path d="M331.23 61.1301C326.5 66.7601 319.94 74.5501 306.23 78.1301C306.01 81.3501 305.88 84.9501 305.88 89.0001C305.88 92.6601 298.09 95.0001 295.28 95.0001C291.34 95.0001 284.28 85.34 284.28 79.24C284.349 78.5841 284.579 77.9554 284.95 77.41C285.7 75.91 287.95 73.92 289.43 73.92C292.78 73.92 295.71 73.8201 298.36 73.6301C298.36 70.6301 298.36 67.63 298.36 65.3C298.36 58.13 304.56 41.69 307.6 41.69C309.53 41.69 313.87 46.2801 313.87 50.1301C313.87 51.9301 308.87 55.33 306.75 72.56C316.24 70.56 320.27 66.56 325.7 60.56C326.189 60.1446 326.759 59.8337 327.372 59.6463C327.986 59.4589 328.632 59.3989 329.27 59.47C330.93 59.44 331.94 60.2801 331.23 61.1301ZM298.37 79.52C295.614 79.8295 292.843 79.9832 290.07 79.98C290.07 79.98 289.4 79.91 288.56 79.78C291.4 85.46 298.34 90.09 298.34 85.56C298.3 84.31 298.37 82.1 298.37 79.52Z" fill="white"/>
<path d="M367.18 62.0099C360.05 70.8899 329.86 94.2 323.54 94.2C321.11 94.2 314.85 88.71 314.85 86.41C314.85 70.33 333.75 42.35 346.62 42.35C348.62 42.35 354.62 48.8 354.62 51.28C354.62 61.46 338.44 78.1 330.62 78.1C329.11 78.1 326.95 76.55 325.25 74.17C321.31 80.88 319.12 86.29 321.11 86.29C333.78 86.29 356.89 65.7899 361.11 62.0099C361.534 61.5192 362.067 61.1337 362.665 60.8838C363.264 60.634 363.913 60.5266 364.56 60.57C367.04 60.57 367.48 61.6399 367.18 62.0099ZM327.75 70.1399C327.87 71.4599 328.11 72.44 328.65 72.44C333.28 72.44 351.37 48.8 348.04 48.8C343.42 48.82 334.26 59.9899 327.75 70.1399Z" fill="white"/>
</g>
<defs>
<clipPath id="clip0_2_74">
<rect width="367.27" height="138.83" fill="white"/>
</clipPath>
</defs>
</svg>
