<svg width="466" height="146" viewBox="0 0 466 146" fill="none" xmlns="http://www.w3.org/2000/svg">
<path d="M78.6669 79.926C64.1009 95.4676 31.1115 123.121 19.6414 123.121C12.8532 123.121 0 111.315 0 106.343C0 90.3423 6.47099 63.1989 42.3913 56.7094C37.7601 49.1363 33.738 37.2921 33.738 20.5394C33.738 11.2578 64.7733 4.07985 78.1467 4.07985C80.2656 4.07985 83.3616 6.32369 85.7596 8.64408C86.9998 6.13534 87.7125 3.39691 87.8532 0.599288C87.8532 -2.48607 97.4836 7.22889 97.4836 10.3907C97.4836 13.5526 75.0254 38.9239 75.0254 42.6213C75.0254 46.3186 68.9604 37.4069 68.9604 35.8642C68.9604 32.7151 77.1063 23.6374 82.7018 14.3941C69.4553 16.383 43.952 22.9616 43.952 29.1834C43.952 42.4427 48.4436 50.8574 52.0471 55.5875C54.4578 55.4217 56.9066 55.2687 59.5458 55.2687C63.3522 55.2687 57.7314 67.1128 54.3309 67.1128C52.7068 67.1128 50.258 65.8379 47.6062 63.288C17.7889 70.4787 8.71681 112.322 14.9467 112.322C33.979 112.322 57.7821 92.191 70.8891 79.9133C73.3379 77.6184 73.8708 76.267 76.345 76.267C78.8192 76.267 81.0396 77.4017 78.6669 79.926Z" fill="white"/>
<path d="M134.888 79.8749C118.153 100.733 102.47 119.194 93.0173 119.194C91.1267 119.194 84.0087 112.22 84.0087 110.576C84.0087 104.673 97.585 81.4177 104.881 73.768C91.5962 78.8678 67.4378 108.357 67.4378 117.945C67.4378 121.017 56.2722 112.182 56.2849 110.142C56.2849 106.088 80.9254 67.61 80.9762 54.0446C80.9762 52.5784 92.5351 61.6943 92.5351 64.4482C92.5351 67.5718 80.2022 81.5069 73.2364 94.575C85.6454 80.2829 105.35 60.6999 110.768 60.7254C113.23 60.7254 120.601 67.1001 120.601 68.8468C120.601 71.8556 95.1362 96.8955 95.1362 108.829C95.1362 111.8 102.952 108.115 127.605 79.3012C128.874 77.8223 129.877 77.4271 132.871 77.4271C135.865 77.4271 135.942 78.5745 134.888 79.8749Z" fill="white"/>
<path d="M164.985 79.9515C144.506 103.767 123.799 119.615 121.452 119.615C118.597 119.615 111.809 113.355 111.809 110.231C111.809 106.101 122.162 86.3263 132.376 69.1273C129.509 67.1512 126.616 63.288 126.616 61.0568C126.616 59.8711 127.428 62.3318 130.422 62.3318C132.757 62.3318 134.698 62.3318 136.474 62.3318C143.504 50.9466 149.759 42.0603 151.586 42.0603C158.577 42.0603 162.46 50.0541 161.356 50.0541C159.389 50.0541 154.517 55.4088 148.782 62.8035C150.178 62.88 151.548 62.9311 153.159 62.9311C155.342 62.9311 158.235 66.6793 158.235 68.732C158.235 71.0396 157.6 68.8469 153.35 68.8469C148.706 68.8469 147.234 69.5098 143.453 69.9433C132.148 85.5103 119.942 104.838 119.942 106.713C119.942 109.798 137.375 100.669 158.006 79.059C158.691 78.345 159.186 77.784 161.559 77.784C166.685 77.9243 165.721 79.1101 164.985 79.9515Z" fill="white"/>
<path d="M212.363 79.059C203.316 90.3805 165.01 120.099 156.991 120.099C153.908 120.099 145.965 113.1 145.965 110.168C145.965 89.6665 169.946 53.9938 186.276 53.9938C188.813 53.9938 196.426 62.217 196.426 65.3789C196.426 78.3578 175.897 99.5729 165.975 99.5729C164.071 99.5729 161.331 97.5967 159.174 94.5623C154.175 103.117 151.383 110.015 153.921 110.015C169.984 110.015 199.319 83.8783 204.674 79.059C205.212 78.4333 205.888 77.9419 206.647 77.6233C207.407 77.3047 208.23 77.1678 209.051 77.2231C212.122 77.2231 212.68 78.5873 212.363 79.059ZM162.333 89.4243C162.473 91.1072 162.79 92.3567 163.475 92.3567C169.35 92.3567 192.29 62.2171 188.077 62.2171C182.152 62.2426 170.492 76.4836 162.27 89.4243H162.333Z" fill="white"/>
<path d="M252.965 76.9299C258.256 76.9299 256.974 78.498 256.771 78.753C251.95 84.8727 220.141 119.653 212.363 119.653C209.317 119.653 201.451 112.934 201.451 110.729C201.451 101.332 221.46 81.813 221.46 76.9172C221.46 76.0502 219.811 74.3673 217.793 72.4804C215.958 74.7498 214.05 77.0488 212.071 79.3777C211.456 80.106 210.698 80.6986 209.844 81.1177C208.99 81.5368 208.059 81.7735 207.11 81.8129C202.212 81.8129 204.75 78.8679 204.75 78.8679C208.049 75.4128 211.094 71.9577 213.898 68.6683C211.969 66.5902 210.421 64.4865 210.421 62.7654C210.421 57.5381 218.986 43.9981 227.88 43.9981C229.593 43.9981 232.588 47.9888 232.588 48.8812C232.588 52.4638 228.121 59.3612 221.866 67.4315C225.482 71.0906 231.306 76.1394 231.306 79.4415C231.306 80.8185 214.811 104.061 214.811 107.745C214.811 113.725 239.833 88.0601 248.955 78.8041C249.397 78.1895 249.992 77.703 250.68 77.394C251.369 77.085 252.126 76.9645 252.876 77.0446L252.965 76.9299Z" fill="white"/>
<path d="M307.27 80.8694C305.253 83.2791 279.534 116.67 249.78 116.67C245.073 116.67 242.231 112.386 240.962 109.02C239.744 110.652 238.576 112.25 237.46 113.814C231.319 125.594 226.535 137.171 226.535 145.407C226.535 146.414 214.228 143.303 214.228 134.876C214.228 130.924 255.756 76.6621 255.756 58.3795C255.756 56.9388 264.194 64.41 264.194 66.3479C264.194 68.2858 260.971 73.7044 256.467 81.1245C265.831 69.2803 275.233 59.374 280.803 59.374C282.884 59.374 288.67 65.5319 288.67 67.9288C288.67 78.1283 281.64 92.7265 272.289 103.27C285.256 96.6533 294.481 85.9947 300.355 79.8622C301.738 78.4215 303.071 78.4089 304.936 78.4089C306.801 78.4089 309.288 78.4598 307.27 80.8694ZM248.829 109.173C259.778 109.173 278.011 82.3995 278.011 70.2748C278.011 65.4937 259.943 84.6433 245.022 103.806C245.923 106.559 247.484 109.173 248.829 109.173Z" fill="white"/>
<path d="M353.595 78.8168C348.774 84.9365 316.964 119.717 309.186 119.717C306.141 119.717 298.262 112.998 298.262 110.792C298.262 101.396 318.284 81.8768 318.284 76.981C318.284 76.114 316.634 74.431 314.617 72.5441C312.781 74.8135 310.87 77.1126 308.882 79.4415C308.268 80.171 307.51 80.7643 306.656 81.1835C305.802 81.6028 304.871 81.8388 303.921 81.8767C299.036 81.8767 301.573 78.9315 301.573 78.9315C304.872 75.4764 307.918 72.0213 310.709 68.732C308.78 66.6538 307.232 64.5502 307.232 62.829C307.232 57.6018 315.797 44.0619 324.704 44.0619C326.417 44.0619 329.411 48.0524 329.411 48.9449C329.411 52.5275 324.945 59.425 318.677 67.4953C322.306 71.1544 328.13 76.2032 328.13 79.5053C328.13 80.8823 311.635 104.124 311.635 107.809C311.635 113.788 336.669 88.1239 345.779 78.8679C346.224 78.2542 346.822 77.7686 347.512 77.4599C348.202 77.1511 348.961 77.0299 349.713 77.1084C355.067 76.93 353.785 78.4981 353.595 78.8168Z" fill="white"/>
<path d="M385.252 78.7403C364.773 102.556 350.829 118.442 341.732 118.442C338.877 118.442 330.312 109.517 330.312 106.419C330.312 102.505 353.925 64.7033 353.925 57.4999C353.925 53.1141 365.116 64.6905 365.116 66.9217C365.116 69.6883 334.373 108.115 340.615 108.115C347.137 108.115 357.617 99.5728 378.223 77.9626C378.908 77.2359 379.403 76.6876 381.763 76.6876C386.965 76.7131 385.975 77.9115 385.252 78.7403ZM363.276 52.298C364.545 52.298 372.424 33.6711 372.424 29.8208C372.424 25.69 382.41 34.9206 382.41 38.3375C382.41 41.7543 370.585 54.7204 368.149 54.7204C362.896 54.7204 362.084 52.298 363.276 52.298Z" fill="white"/>
<path d="M420.272 77.9372C414.27 85.1151 405.947 95.0469 388.551 99.6112C388.272 103.716 388.107 108.306 388.107 113.47C388.107 118.136 378.223 121.119 374.658 121.119C369.658 121.119 360.701 108.803 360.701 101.026C360.788 100.19 361.08 99.3885 361.551 98.6931C362.502 96.7807 365.357 94.2436 367.235 94.2436C371.486 94.2436 375.203 94.1162 378.566 93.874C378.566 90.0491 378.566 86.2242 378.566 83.2536C378.566 74.1123 386.432 53.1523 390.289 53.1523C392.738 53.1523 398.245 59.0043 398.245 63.9128C398.245 66.2077 391.901 70.5425 389.211 92.5097C401.252 89.9598 406.365 84.86 413.255 77.2104C413.876 76.6808 414.598 76.2845 415.377 76.0455C416.156 75.8065 416.975 75.73 417.785 75.8207C419.891 75.7825 421.173 76.8535 420.272 77.9372ZM378.578 101.383C375.082 101.778 371.566 101.974 368.047 101.97C368.047 101.97 367.197 101.88 366.131 101.715C369.735 108.956 378.54 114.859 378.54 109.084C378.489 107.49 378.578 104.673 378.578 101.383Z" fill="white"/>
<path d="M465.886 79.059C456.839 90.3805 418.533 120.099 410.514 120.099C407.431 120.099 399.488 113.1 399.488 110.168C399.488 89.6665 423.469 53.9938 439.799 53.9938C442.336 53.9938 449.949 62.217 449.949 65.3789C449.949 78.3578 429.42 99.5729 419.498 99.5729C417.582 99.5729 414.841 97.5967 412.684 94.5623C407.685 103.117 404.906 110.015 407.431 110.015C423.507 110.015 452.83 83.8783 458.184 79.059C458.722 78.4333 459.398 77.9419 460.158 77.6233C460.917 77.3047 461.74 77.1678 462.561 77.2231C465.708 77.2231 466.266 78.5873 465.886 79.059ZM415.856 89.4243C416.008 91.1072 416.313 92.3567 416.998 92.3567C422.873 92.3567 445.826 62.2171 441.601 62.2171C435.739 62.2426 424.116 76.4836 415.856 89.4243Z" fill="white"/>
</svg>
