<svg width="230" height="59" viewBox="0 0 230 59" fill="none" xmlns="http://www.w3.org/2000/svg">
<g clip-path="url(#clip0_159:1068)">
<path d="M74.8222 1.3787L73.6603 0.363141C73.0963 -0.12975 72.2433 -0.0678713 71.755 0.501339L62.3335 11.483C61.8452 12.0523 61.9064 12.9132 62.4704 13.4061L63.6324 14.4217C64.1963 14.9146 65.0494 14.8527 65.5377 14.2835L74.9592 3.30182C75.4475 2.73261 75.3862 1.8716 74.8222 1.3787Z" fill="#3C3C3C"/>
<path d="M75.1763 36.1992L45.9255 1.22234C45.7566 0.99689 45.5447 0.80789 45.3022 0.666503C45.0597 0.525117 44.7916 0.434207 44.5137 0.399149C44.2358 0.36409 43.9538 0.385592 43.6843 0.462383C43.4148 0.539173 43.1633 0.669706 42.9446 0.846252C42.7232 1.02443 42.539 1.24514 42.4027 1.49561C42.2663 1.74608 42.1805 2.02134 42.1501 2.30549C42.1198 2.58965 42.1456 2.87705 42.226 3.15108C42.3064 3.42512 42.4398 3.68035 42.6185 3.90202L56.5452 20.5443C56.6869 20.7068 56.7867 20.9022 56.8357 21.113C56.8847 21.3238 56.8814 21.5436 56.8262 21.7529C56.7709 21.9621 56.6653 22.1543 56.5188 22.3125C56.3723 22.4707 56.1894 22.59 55.9863 22.6598C53.5317 23.5552 51.3491 25.0778 49.6518 27.0789L43.1309 34.8359C42.7676 35.242 42.5665 35.7696 42.5665 36.3168C42.5665 36.8639 42.7676 37.3916 43.1309 37.7976C43.3233 38.0257 43.5624 38.2088 43.8318 38.3344C44.1012 38.46 44.3945 38.5251 44.6912 38.5251C44.988 38.5251 45.2812 38.46 45.5506 38.3344C45.82 38.2088 46.0592 38.0257 46.2515 37.7976L53.0519 29.9466C53.7646 29.1035 54.6501 28.4264 55.6472 27.9621C56.6444 27.4978 57.7294 27.2574 58.8275 27.2574C59.9257 27.2574 61.0107 27.4978 62.0078 27.9621C63.0049 28.4264 63.8904 29.1035 64.6031 29.9466L69.8664 36.2462C70.8445 37.4215 72.2884 39.208 74.5242 38.4088C74.7521 38.3587 74.9626 38.2478 75.1337 38.0877C75.3047 37.9276 75.43 37.724 75.4966 37.4984C75.5632 37.2727 75.5686 37.0331 75.5123 36.8046C75.4559 36.5761 75.3399 36.367 75.1763 36.1992Z" fill="#3C3C3C"/>
<path d="M18.7242 38.6909C15.3241 38.6909 11.9705 38.6909 8.57029 38.6909C6.83984 38.7184 5.16767 38.0602 3.91254 36.8575C2.66415 35.7312 1.6722 34.3454 1.00485 32.7953C0.337507 31.2453 0.0106185 29.5678 0.0466279 27.8782C0.0466279 25.3866 0.0466279 22.8949 0.0466279 20.4033C0.0466279 17.9117 0.838422 17.3945 3.26046 17.4415C9.26896 17.4415 15.2775 17.4415 21.2394 17.4415C22.497 17.4415 23.8478 17.0654 24.6862 18.5228C25.5246 19.9802 24.9656 21.7196 23.1025 21.7666C18.4448 21.7666 13.461 21.7666 8.66347 21.7666H7.49903C4.37833 21.7666 3.67967 22.5188 3.67967 25.6686C3.67967 26.5148 3.67967 27.3611 3.67967 28.2543C3.66731 29.0339 3.80878 29.8081 4.09583 30.532C4.38289 31.2558 4.80979 31.9148 5.35167 32.4705C5.89355 33.0262 6.53953 33.4675 7.25206 33.7687C7.96458 34.0698 8.72935 34.2249 9.50183 34.2248H27.2013C27.9931 34.2248 28.8316 34.2248 29.6234 34.2248C31.1604 34.2248 31.5796 35.071 31.7193 36.3403C31.8591 37.6097 31.2536 38.2208 30.0426 38.4089C29.298 38.4551 28.5514 38.4551 27.8068 38.4089H18.4913L18.7242 38.6909Z" fill="#3C3C3C"/>
<path d="M30.7878 0.329102H1.39733C0.625605 0.329102 0 0.960541 0 1.73946V3.38488C0 4.1638 0.625605 4.79524 1.39733 4.79524H30.7878C31.5595 4.79524 32.1851 4.1638 32.1851 3.38488V1.73946C32.1851 0.960541 31.5595 0.329102 30.7878 0.329102Z" fill="#3C3C3C"/>
<path d="M145.974 38.6909C142.574 38.6909 139.22 38.6909 135.82 38.6909C134.093 38.6989 132.428 38.0434 131.162 36.8575C129.92 35.7288 128.935 34.3414 128.276 32.7912C127.616 31.2409 127.298 29.5647 127.343 27.8782C127.343 25.3866 127.343 22.8949 127.343 20.4033C127.343 17.9117 128.135 17.3945 130.557 17.4415C136.565 17.4415 142.574 17.4415 148.536 17.4415C149.793 17.4415 151.144 17.0654 151.983 18.5228C152.821 19.9802 152.262 21.7196 150.352 21.7666C145.695 21.7666 140.757 21.7666 135.96 21.7666H134.795C131.675 21.7666 130.976 22.5188 130.93 25.6686C130.93 26.5148 130.93 27.3611 130.93 28.2543C130.911 29.0316 131.046 29.8048 131.328 30.5285C131.61 31.2521 132.033 31.9115 132.571 32.4678C133.109 33.0242 133.752 33.4662 134.462 33.768C135.172 34.0697 135.935 34.225 136.705 34.2248H154.451C155.243 34.2248 156.081 34.2248 156.873 34.2248C158.41 34.2248 158.83 35.071 158.969 36.3403C159.109 37.6097 158.503 38.2208 157.292 38.4089C156.548 38.4551 155.801 38.4551 155.057 38.4089H145.741L145.974 38.6909Z" fill="#3C3C3C"/>
<path d="M158.038 0.329102H128.647C127.876 0.329102 127.25 0.960541 127.25 1.73946V3.38488C127.25 4.1638 127.876 4.79524 128.647 4.79524H158.038C158.809 4.79524 159.435 4.1638 159.435 3.38488V1.73946C159.435 0.960541 158.809 0.329102 158.038 0.329102Z" fill="#3C3C3C"/>
<path d="M129.392 47.623H137.357V48.5163H133.864V58.6709H132.839V48.5163H129.392V47.623Z" fill="#3C3C3C"/>
<path d="M143.412 58.6709V47.623H150.678V48.5163H144.437V52.5123H150.073V53.4055H144.437V57.7776H150.865V58.6709H143.412Z" fill="#3C3C3C"/>
<path d="M157.246 58.6709V47.623H158.317V57.7776H164.186V58.6709H157.246Z" fill="#3C3C3C"/>
<path d="M170.288 58.6709V47.623H177.647V48.5163H171.359V52.5123H177.041V53.4055H171.359V57.7776H177.647V58.6709H170.288Z" fill="#3C3C3C"/>
<path d="M191.946 50.82C191.884 50.4263 191.745 50.049 191.537 49.7101C191.329 49.3711 191.056 49.0772 190.735 48.8455C190.076 48.401 189.291 48.1864 188.499 48.2343C187.904 48.2257 187.315 48.3544 186.776 48.6104C186.315 48.8814 185.917 49.2503 185.612 49.6917C185.287 50.1616 185.05 50.6873 184.913 51.2431C184.764 51.8588 184.686 52.4898 184.68 53.1236C184.634 53.7339 184.634 54.3468 184.68 54.9571C184.82 55.5188 185.04 56.0571 185.332 56.5555C185.655 57.0113 186.067 57.3953 186.543 57.6837C187.116 57.9878 187.759 58.1338 188.406 58.1068C188.822 58.1826 189.248 58.1826 189.664 58.1068C190.047 57.9608 190.395 57.7367 190.689 57.4487C190.973 57.1662 191.223 56.8506 191.434 56.5084C191.622 56.1196 191.763 55.7092 191.853 55.2861H192.924C192.824 55.8093 192.652 56.3158 192.412 56.7905C192.171 57.2614 191.856 57.6899 191.48 58.0598C191.063 58.416 190.591 58.7018 190.083 58.9061C189.47 59.1262 188.824 59.2375 188.173 59.2351C187.434 59.2393 186.702 59.0788 186.031 58.765C185.46 58.4586 184.966 58.0244 184.587 57.4957C184.173 56.9392 183.887 56.2969 183.748 55.6152C183.558 54.8946 183.464 54.1514 183.469 53.4056C183.452 52.4981 183.577 51.5936 183.842 50.726C184.08 50.0412 184.461 49.416 184.96 48.8925C185.389 48.4249 185.937 48.0837 186.543 47.9053C187.201 47.6706 187.895 47.559 188.593 47.5762C189.114 47.578 189.631 47.6572 190.13 47.8112C190.598 47.9538 191.04 48.1764 191.434 48.4694C191.801 48.7625 192.103 49.1311 192.319 49.5507C192.565 50.0225 192.738 50.5299 192.831 51.0551L191.946 50.82Z" fill="#3C3C3C"/>
<path d="M199.305 53.1706C199.293 52.4056 199.403 51.6436 199.631 50.914C199.834 50.2295 200.167 49.591 200.61 49.0336C201.03 48.5008 201.574 48.0809 202.193 47.8113C202.86 47.4847 203.595 47.3235 204.336 47.3411C205.123 47.3137 205.905 47.4748 206.618 47.8113C207.227 48.0986 207.767 48.5155 208.202 49.0336C208.646 49.5903 208.978 50.229 209.18 50.914C209.653 52.4448 209.653 54.0845 209.18 55.6152C208.967 56.2815 208.636 56.9029 208.202 57.4487C207.772 57.9838 207.232 58.4171 206.618 58.718C205.912 59.0271 205.152 59.1871 204.382 59.1881C203.628 59.1931 202.881 59.0327 202.193 58.718C201.568 58.4152 201.012 57.9827 200.563 57.4487C200.122 56.9146 199.804 56.2884 199.631 55.6152C199.382 54.8258 199.272 53.9984 199.305 53.1706V53.1706ZM204.429 57.8718C205.06 57.8884 205.685 57.7428 206.245 57.4487C206.744 57.1949 207.176 56.8241 207.503 56.3674C207.825 55.8897 208.076 55.3671 208.248 54.816C208.398 54.2004 208.476 53.5693 208.481 52.9356C208.49 52.2359 208.395 51.5389 208.202 50.867C208.036 50.295 207.75 49.7658 207.363 49.3156C207.021 48.8978 206.591 48.5608 206.106 48.3284C205.561 48.0973 204.973 47.9851 204.382 47.9993C203.751 47.9827 203.126 48.1283 202.566 48.4224C202.067 48.6762 201.636 49.047 201.308 49.5037C200.962 49.9842 200.709 50.5265 200.563 51.1021C200.489 51.711 200.489 52.3267 200.563 52.9356C200.492 53.5603 200.492 54.1913 200.563 54.816C200.697 55.3817 200.951 55.9112 201.308 56.3674C201.624 56.8353 202.058 57.2088 202.566 57.4487C203.119 57.8291 203.762 58.056 204.429 58.1069V57.8718Z" fill="#3C3C3C"/>
<path d="M216.073 58.6709V47.623H217.657L221.243 57.4015L224.783 47.623H226.367V58.6709H225.296V48.8454L221.709 58.6709H220.731L217.098 48.8454V58.6709H216.073Z" fill="#3C3C3C"/>
<path d="M177.274 35.0709C177.463 34.7067 177.753 34.406 178.109 34.2056C178.465 34.0053 178.871 33.9138 179.277 33.9426H181.699C183.576 34.14 185.455 33.5777 186.922 32.3791C188.389 31.1804 189.325 29.4433 189.524 27.5489C189.524 24.7282 187.428 23.1768 183.981 22.3776L178.066 21.1083C176.689 20.8019 175.369 20.2784 174.153 19.5569C172.624 18.6725 171.374 17.3681 170.549 15.7953C169.725 14.2224 169.36 12.4457 169.496 10.6716C169.578 9.20484 169.95 7.7695 170.591 6.45031C171.231 5.13112 172.127 3.95481 173.226 2.99079C174.324 2.02677 175.603 1.29459 176.986 0.837425C178.369 0.380264 179.829 0.207397 181.28 0.329024C183.488 0.239485 185.683 0.713842 187.662 1.70819C189.64 2.70254 191.338 4.18473 192.598 6.01747C192.933 6.46668 193.086 7.02799 193.026 7.58704C192.965 8.14608 192.696 8.66077 192.272 9.02623V9.02623C192.107 9.16107 191.916 9.25997 191.712 9.3167C191.507 9.37343 191.293 9.38676 191.083 9.35585C190.873 9.32493 190.671 9.25044 190.491 9.13708C190.311 9.02371 190.156 8.87392 190.036 8.69715C188.986 7.44003 187.662 6.44604 186.166 5.79342C184.671 5.1408 183.046 4.84736 181.42 4.93619C176.762 4.93619 173.455 7.47484 173.455 10.7187C173.44 11.5889 173.641 12.4491 174.04 13.221C174.438 13.9928 175.022 14.6517 175.737 15.1378C176.863 15.9975 178.199 16.5336 179.603 16.6892L184.261 17.3003C186.209 17.4474 188.087 18.0947 189.718 19.1808C191.348 20.267 192.676 21.7558 193.576 23.5059C194.064 25.0211 194.223 26.6245 194.042 28.2071C193.978 29.6876 193.608 31.1382 192.958 32.4667C192.307 33.7951 191.39 34.9723 190.263 35.9231C189.137 36.874 187.827 37.5777 186.417 37.9894C185.007 38.4012 183.527 38.5119 182.072 38.3147C181.218 38.3654 180.363 38.3654 179.51 38.3147C179.183 38.2699 178.87 38.1527 178.593 37.9715C178.317 37.7902 178.083 37.5494 177.909 37.2663C177.736 36.9832 177.626 36.6649 177.589 36.334C177.552 36.0032 177.587 35.6682 177.693 35.3529L177.274 35.0709Z" fill="#3C3C3C"/>
<path d="M172.477 31.0278C172.477 31.0278 168.797 28.8183 168.285 32.5322C167.912 35.3059 172.337 36.9043 173.548 35.9171C174.759 34.9298 175.411 32.8613 172.477 31.0278Z" fill="#3C3C3C"/>
<path d="M213.744 35.0708C213.934 34.7067 214.224 34.406 214.579 34.2056C214.935 34.0053 215.341 33.9138 215.747 33.9426C216.586 33.9426 217.471 33.9426 218.169 33.9426C220.047 34.14 221.925 33.5777 223.392 32.3791C224.859 31.1804 225.795 29.4433 225.994 27.5489C225.994 24.7282 223.898 23.1768 220.452 22.3776L214.583 21.1083C213.189 20.8098 211.852 20.2859 210.624 19.5569C209.094 18.6725 207.844 17.3681 207.02 15.7953C206.195 14.2224 205.83 12.4457 205.966 10.6716C206.048 9.20484 206.42 7.7695 207.061 6.45031C207.702 5.13112 208.598 3.95481 209.696 2.99079C210.794 2.02677 212.073 1.29459 213.456 0.837425C214.84 0.380264 216.3 0.207397 217.75 0.329024C219.94 0.286813 222.106 0.798032 224.05 1.81617C225.994 2.83431 227.655 4.32703 228.882 6.1585C229.217 6.60771 229.37 7.16904 229.31 7.72808C229.249 8.28713 228.98 8.8018 228.556 9.16726V9.16726C228.391 9.3021 228.2 9.40102 227.996 9.45775C227.791 9.51448 227.577 9.52779 227.367 9.49688C227.157 9.46596 226.955 9.39147 226.775 9.27811C226.595 9.16474 226.44 9.01495 226.32 8.83818C225.27 7.58106 223.946 6.58707 222.45 5.93445C220.955 5.28183 219.33 4.98839 217.704 5.07722C213.046 5.07722 209.739 7.61587 209.739 10.8597C209.724 11.73 209.925 12.5902 210.323 13.362C210.722 14.1338 211.306 14.7928 212.021 15.2788C213.147 16.1386 214.483 16.6746 215.887 16.8302L220.545 17.4414C222.493 17.5884 224.371 18.2358 226.002 19.3219C227.632 20.408 228.96 21.8968 229.86 23.6469C230.348 25.1621 230.507 26.7655 230.326 28.3481C230.261 29.8286 229.892 31.2792 229.242 32.6077C228.591 33.9362 227.673 35.1133 226.547 36.0642C225.421 37.015 224.111 37.7187 222.701 38.1305C221.291 38.5422 219.811 38.653 218.356 38.4557C217.502 38.5064 216.647 38.5064 215.794 38.4557C215.467 38.411 215.154 38.2938 214.877 38.1125C214.6 37.9313 214.367 37.6905 214.193 37.4074C214.02 37.1243 213.91 36.8059 213.873 36.4751C213.836 36.1443 213.871 35.8092 213.977 35.494L213.744 35.0708Z" fill="#3C3C3C"/>
<path d="M208.947 31.0278C208.947 31.0278 205.267 28.8183 204.755 32.5322C204.382 35.3059 208.807 36.9043 210.018 35.9171C211.229 34.9298 211.881 32.8613 208.947 31.0278Z" fill="#3C3C3C"/>
<path d="M113.603 25.8094C113.889 25.8932 114.155 26.0363 114.383 26.2296C114.611 26.4229 114.797 26.6621 114.928 26.932C115.06 27.2019 115.134 27.4965 115.147 27.797C115.159 28.0975 115.109 28.3973 115 28.6772C113.969 31.5907 112.075 34.114 109.576 35.9051C107.076 37.6962 104.092 38.6687 101.027 38.6907C91.292 38.6907 83.9328 29.2883 85.1438 17.0182C86.1685 7.23973 92.6894 0.422998 101.073 0.47001C104.124 0.444062 107.107 1.37564 109.611 3.13588C112.114 4.89612 114.014 7.39802 115.047 10.2955C115.254 10.8084 115.258 11.382 115.059 11.898C114.86 12.4141 114.472 12.8333 113.975 13.0692V13.0692C113.801 13.1472 113.613 13.1895 113.423 13.1939C113.232 13.1982 113.043 13.1644 112.865 13.0945C112.688 13.0246 112.526 12.9199 112.388 12.7865C112.251 12.653 112.141 12.4935 112.066 12.317C111.122 10.1892 109.603 8.37267 107.684 7.07561C105.764 5.77855 103.522 5.05338 101.213 4.98315C97.8215 5.56539 94.7404 7.33206 92.5084 9.97441C90.2763 12.6168 89.0353 15.9667 89.002 19.439C88.9687 22.9112 90.1453 26.2848 92.3263 28.9702C94.5073 31.6557 97.5538 33.4822 100.934 34.1306C103.339 34.083 105.676 33.316 107.65 31.9268C109.623 30.5376 111.144 28.5886 112.019 26.3266C112.182 26.0677 112.429 25.8743 112.718 25.7799C113.008 25.6855 113.32 25.6959 113.603 25.8094V25.8094Z" fill="#3C3C3C"/>
</g>
<defs>
<clipPath id="clip0_159:1068">
<rect width="230" height="59" fill="white"/>
</clipPath>
</defs>
</svg>
