<svg width="49" height="49" viewBox="0 0 49 49" fill="none" xmlns="http://www.w3.org/2000/svg">
<path d="M47.04 0H1.96C0.875875 0 0 0.875875 0 1.96V47.04C0 48.1241 0.875875 49 1.96 49H47.04C48.1241 49 49 48.1241 49 47.04V1.96C49 0.875875 48.1241 0 47.04 0ZM41.3805 14.3019H37.4666C34.398 14.3019 33.8039 15.7596 33.8039 17.9034V22.6257H41.1294L40.1739 30.0186H33.8039V49H26.166V30.0248H19.7776V22.6257H26.166V17.1745C26.166 10.8474 30.0309 7.399 35.6781 7.399C38.3854 7.399 40.7068 7.60113 41.3866 7.693V14.3019H41.3805Z" fill="white"/>
</svg>
