<?xml version="1.0" encoding="utf-8"?>
<!-- Generator: Adobe Illustrator 25.4.1, SVG Export Plug-In . SVG Version: 6.00 Build 0)  -->
<svg version="1.1" id="Layer_1" xmlns="http://www.w3.org/2000/svg" xmlns:xlink="http://www.w3.org/1999/xlink" x="0px" y="0px"
	 viewBox="0 0 276 253" style="enable-background:new 0 0 276 253;" xml:space="preserve">
<style type="text/css">
	.st0{fill:#3071E7;}
	.st1{fill:none;stroke:#FFFFFF;stroke-width:10;stroke-linecap:round;stroke-linejoin:round;}
	.st2{fill:url(#SVGID_1_);}
	.st3{fill:#5DD10D;}
	.st4{fill:#FFFFFF;}
	.st5{fill:none;stroke:#5DD10D;stroke-width:3;stroke-linecap:round;stroke-linejoin:round;}
	.st6{fill:url(#SVGID_00000142856649163121442440000003778410694306281369_);}
	.st7{fill:url(#SVGID_00000008853049037503775650000005948659220731665795_);}
	.st8{fill:#FFFFFF;stroke:#FFFFFF;stroke-width:4;}
	.st9{fill:#3C3C3C;}
	.st10{fill:#C4C4C4;}
	.st11{fill:#4AAF05;}
	.st12{fill-rule:evenodd;clip-rule:evenodd;fill:#E7E6E6;}
	.st13{fill:none;stroke:#BDBDBD;}
	.st14{fill:#BDBDBD;}
	.st15{fill:#E5E5E5;}
	.st16{fill:#E7E6E6;}
	.st17{fill:#C4C4C4;filter:url(#Adobe_OpacityMaskFilter);}
	.st18{mask:url(#mask0_0:1_00000079464290474750960640000000752820437039881869_);}
	.st19{fill:none;stroke:#E97179;}
	.st20{fill-rule:evenodd;clip-rule:evenodd;fill:#4AAF05;}
	.st21{fill:#FFFFFF;stroke:#BDBDBD;}
	.st22{fill:#E97179;}
	.st23{fill:#C4C4C4;filter:url(#Adobe_OpacityMaskFilter_00000025401858549944039640000012414895619709868424_);}
	.st24{mask:url(#mask1_0:1_00000155132012382774330090000006118603820518013580_);}
	.st25{fill:#DD596B;}
	.st26{fill:#F4A3AE;}
	.st27{fill:#F4BEC6;}
</style>
<g>
	<g>
		<path class="st4" d="M0,6.6C0,2.9,2.9,0,6.6,0h262.9c3.6,0,6.6,2.9,6.6,6.6v239.9c0,3.6-2.9,6.6-6.6,6.6H6.6
			c-3.6,0-6.6-2.9-6.6-6.6V6.6z"/>
	</g>
	<g>
		<path class="st12" d="M269.4,0.7H6.6c-3.3,0-5.9,2.7-5.9,5.9v239.9c0,3.3,2.7,5.9,5.9,5.9h262.9c3.3,0,5.9-2.7,5.9-5.9V6.6
			C275.3,3.3,272.7,0.7,269.4,0.7z M6.6,0C2.9,0,0,2.9,0,6.6v239.9c0,3.6,2.9,6.6,6.6,6.6h262.9c3.6,0,6.6-2.9,6.6-6.6V6.6
			c0-3.6-2.9-6.6-6.6-6.6H6.6z"/>
	</g>
	<g>
		<path class="st4" d="M160,8.5h96c1.9,0,3.5,1.6,3.5,3.5v10c0,1.9-1.6,3.5-3.5,3.5h-96c-1.9,0-3.5-1.6-3.5-3.5V12
			C156.5,10.1,158.1,8.5,160,8.5z"/>
		<path class="st9" d="M169,16.4c-1-0.3-1.7-0.6-2.1-1.1c-0.4-0.4-0.7-0.9-0.7-1.6c0-0.7,0.3-1.3,0.8-1.8c0.5-0.5,1.2-0.7,2.1-0.7
			c0.6,0,1.1,0.1,1.6,0.4c0.5,0.2,0.8,0.6,1.1,1s0.4,0.9,0.4,1.4H171c0-0.5-0.2-1-0.5-1.3c-0.3-0.3-0.8-0.5-1.4-0.5
			c-0.6,0-1,0.1-1.3,0.4c-0.3,0.2-0.5,0.6-0.5,1.1c0,0.4,0.2,0.7,0.4,0.9c0.3,0.2,0.8,0.5,1.5,0.7c0.7,0.2,1.3,0.4,1.7,0.7
			c0.4,0.2,0.7,0.5,0.9,0.9c0.2,0.3,0.3,0.7,0.3,1.2c0,0.7-0.3,1.3-0.8,1.7c-0.5,0.4-1.3,0.7-2.2,0.7c-0.6,0-1.1-0.1-1.6-0.4
			c-0.5-0.2-0.9-0.6-1.2-1c-0.3-0.4-0.4-0.9-0.4-1.4h1.1c0,0.5,0.2,1,0.6,1.3c0.4,0.3,0.9,0.5,1.5,0.5c0.6,0,1.1-0.1,1.4-0.4
			c0.3-0.2,0.5-0.6,0.5-1c0-0.4-0.2-0.8-0.4-1C170.3,16.9,169.8,16.7,169,16.4z"/>
		<path class="st9" d="M176.1,20.6c-0.8,0-1.5-0.3-2.1-0.9c-0.5-0.6-0.8-1.4-0.8-2.4v-0.2c0-0.7,0.1-1.2,0.4-1.8
			c0.2-0.5,0.6-0.9,1-1.2c0.4-0.3,0.9-0.4,1.4-0.4c0.8,0,1.5,0.3,1.9,0.9c0.4,0.6,0.7,1.4,0.7,2.4v0.5h-4.3c0,0.7,0.2,1.2,0.5,1.6
			c0.3,0.4,0.8,0.6,1.3,0.6c0.4,0,0.7-0.1,1-0.2c0.3-0.2,0.5-0.4,0.7-0.6l0.7,0.5C177.9,20.1,177.1,20.6,176.1,20.6z M175.9,14.6
			c-0.4,0-0.8,0.2-1.1,0.5c-0.3,0.3-0.5,0.8-0.5,1.4h3.2v-0.1c0-0.6-0.2-1-0.4-1.3C176.8,14.8,176.4,14.6,175.9,14.6z"/>
		<path class="st9" d="M185.2,17.2c0,1-0.2,1.8-0.7,2.4c-0.4,0.6-1,0.9-1.8,0.9c-0.8,0-1.4-0.3-1.8-0.8V23h-1.1v-9.2h1l0,0.7
			c0.4-0.6,1.1-0.9,1.8-0.9c0.8,0,1.4,0.3,1.8,0.9C184.9,15.2,185.2,16,185.2,17.2L185.2,17.2z M184.1,17.1c0-0.8-0.1-1.3-0.5-1.8
			c-0.3-0.4-0.7-0.7-1.2-0.7c-0.7,0-1.1,0.3-1.5,0.9v3.2c0.3,0.6,0.8,0.9,1.5,0.9c0.5,0,0.9-0.2,1.2-0.6
			C183.9,18.6,184.1,17.9,184.1,17.1z"/>
		<path class="st9" d="M188,12.2v1.6h1.2v0.9H188v4.1c0,0.3,0.1,0.5,0.2,0.6c0.1,0.1,0.3,0.2,0.5,0.2c0.1,0,0.3,0,0.5-0.1v0.9
			c-0.3,0.1-0.6,0.1-0.8,0.1c-0.5,0-0.8-0.2-1.1-0.5c-0.2-0.3-0.4-0.7-0.4-1.3v-4.1h-1.2v-0.9h1.2v-1.6H188z"/>
		<path class="st9" d="M193.1,20.6c-0.9,0-1.5-0.3-2.1-0.9c-0.5-0.6-0.8-1.4-0.8-2.4v-0.2c0-0.7,0.1-1.2,0.4-1.8
			c0.2-0.5,0.6-0.9,1-1.2c0.4-0.3,0.9-0.4,1.4-0.4c0.8,0,1.5,0.3,1.9,0.9c0.5,0.6,0.7,1.4,0.7,2.4v0.5h-4.3c0,0.7,0.2,1.2,0.6,1.6
			c0.3,0.4,0.8,0.6,1.3,0.6c0.4,0,0.7-0.1,1-0.2c0.3-0.2,0.5-0.4,0.7-0.6l0.7,0.5C194.9,20.1,194.1,20.6,193.1,20.6z M192.9,14.6
			c-0.4,0-0.8,0.2-1.1,0.5c-0.3,0.3-0.5,0.8-0.5,1.4h3.2v-0.1c0-0.6-0.2-1-0.4-1.3C193.8,14.8,193.4,14.6,192.9,14.6z"/>
		<path class="st9" d="M197.8,13.8l0,0.7c0.5-0.6,1.1-0.9,1.9-0.9c0.9,0,1.5,0.4,1.8,1.1c0.2-0.3,0.5-0.6,0.8-0.8
			c0.3-0.2,0.7-0.3,1.2-0.3c1.4,0,2.1,0.8,2.1,2.3v4.4h-1.1v-4.4c0-0.5-0.1-0.8-0.3-1.1c-0.2-0.2-0.6-0.4-1-0.4
			c-0.4,0-0.7,0.1-1,0.4c-0.3,0.2-0.4,0.6-0.5,1v4.4h-1.1v-4.4c0-1-0.5-1.5-1.4-1.5c-0.7,0-1.2,0.3-1.5,1v4.8h-1.1v-6.6H197.8z"/>
		<path class="st9" d="M212.7,17.2c0,1-0.2,1.8-0.7,2.4c-0.4,0.6-1,0.9-1.8,0.9c-0.8,0-1.4-0.3-1.8-0.9l0,0.8h-1V11h1.1v3.5
			c0.4-0.6,1-0.9,1.8-0.9c0.8,0,1.4,0.3,1.8,0.9C212.4,15.2,212.7,16,212.7,17.2L212.7,17.2z M211.6,17.1c0-0.8-0.1-1.4-0.4-1.8
			c-0.3-0.4-0.7-0.6-1.2-0.6c-0.7,0-1.2,0.4-1.5,1.1v2.9c0.3,0.7,0.8,1,1.6,1c0.5,0,0.9-0.2,1.2-0.6
			C211.4,18.6,211.6,17.9,211.6,17.1z"/>
		<path class="st9" d="M216.6,20.6c-0.9,0-1.6-0.3-2.1-0.9c-0.5-0.6-0.8-1.4-0.8-2.4v-0.2c0-0.7,0.1-1.2,0.4-1.8
			c0.2-0.5,0.6-0.9,1-1.2c0.4-0.3,0.9-0.4,1.4-0.4c0.8,0,1.5,0.3,1.9,0.9c0.5,0.6,0.7,1.4,0.7,2.4v0.5h-4.3c0,0.7,0.2,1.2,0.6,1.6
			c0.3,0.4,0.8,0.6,1.3,0.6c0.4,0,0.7-0.1,1-0.2c0.3-0.2,0.5-0.4,0.7-0.6l0.7,0.5C218.5,20.1,217.7,20.6,216.6,20.6z M216.5,14.6
			c-0.4,0-0.8,0.2-1.1,0.5c-0.3,0.3-0.5,0.8-0.6,1.4h3.2v-0.1c0-0.6-0.2-1-0.5-1.3C217.3,14.8,217,14.6,216.5,14.6z"/>
		<path class="st9" d="M223.4,14.8c-0.2,0-0.3,0-0.5,0c-0.7,0-1.2,0.3-1.5,0.9v4.7h-1.1v-6.6h1.1l0,0.8c0.4-0.6,0.9-0.9,1.5-0.9
			c0.2,0,0.4,0,0.5,0.1V14.8z"/>
		<path class="st9" d="M232.9,20.4h-5.6v-0.8l2.9-3.4c0.4-0.5,0.7-0.9,0.9-1.3c0.2-0.3,0.2-0.7,0.2-1c0-0.5-0.1-0.8-0.4-1.1
			s-0.6-0.4-1.1-0.4c-0.5,0-1,0.2-1.3,0.5c-0.3,0.3-0.4,0.8-0.4,1.3h-1.1c0-0.8,0.2-1.5,0.8-2c0.5-0.5,1.2-0.8,2-0.8
			c0.8,0,1.4,0.2,1.9,0.7c0.5,0.4,0.7,1,0.7,1.7c0,0.9-0.5,1.9-1.6,3.1l-2.3,2.6h4.3V20.4z"/>
		<path class="st9" d="M239.3,16.6c0,1.3-0.2,2.3-0.7,3c-0.4,0.6-1.1,1-2,1c-0.9,0-1.6-0.3-2-0.9c-0.4-0.6-0.7-1.6-0.7-2.8v-1.5
			c0-1.3,0.2-2.3,0.6-2.9c0.4-0.6,1.1-1,2-1c0.9,0,1.6,0.3,2,0.9c0.4,0.6,0.7,1.6,0.7,2.8V16.6z M238.3,15.1c0-1-0.1-1.7-0.4-2.1
			c-0.3-0.4-0.7-0.7-1.2-0.7c-0.6,0-1,0.2-1.2,0.7s-0.4,1.1-0.4,2v1.8c0,1,0.1,1.7,0.4,2.1c0.3,0.5,0.7,0.7,1.2,0.7
			c0.5,0,0.9-0.2,1.2-0.6c0.3-0.4,0.4-1.1,0.4-2.1V15.1z"/>
		<path class="st9" d="M246.3,20.4h-5.6v-0.8l3-3.4c0.4-0.5,0.7-0.9,0.9-1.3c0.2-0.3,0.2-0.7,0.2-1c0-0.5-0.1-0.8-0.4-1.1
			c-0.3-0.3-0.6-0.4-1.1-0.4c-0.5,0-0.9,0.2-1.2,0.5c-0.3,0.3-0.4,0.8-0.4,1.3h-1.1c0-0.8,0.2-1.5,0.8-2c0.5-0.5,1.2-0.8,2-0.8
			c0.8,0,1.4,0.2,1.9,0.7c0.5,0.4,0.7,1,0.7,1.7c0,0.9-0.5,1.9-1.6,3.1l-2.3,2.6h4.3V20.4z"/>
		<path class="st9" d="M251,20.4h-1.1v-7.6l-2.2,0.8v-1l3.1-1.2h0.2V20.4z"/>
	</g>
	<path class="st13" d="M160,8.5h96c1.9,0,3.5,1.6,3.5,3.5v10c0,1.9-1.6,3.5-3.5,3.5h-96c-1.9,0-3.5-1.6-3.5-3.5V12
		C156.5,10.1,158.1,8.5,160,8.5z"/>
	<path class="st9" d="M19.2,23.3h-4.1l-0.8,2.3h-2.5l4.2-11.2h2.1l4.2,11.2h-2.5L19.2,23.3z M15.7,21.4h2.8l-1.4-4.2L15.7,21.4z"/>
	<path class="st9" d="M26.8,24c0.4,0,0.7-0.1,1-0.3s0.4-0.5,0.4-0.9h2.1c0,0.6-0.2,1.1-0.5,1.6c-0.3,0.5-0.7,0.8-1.2,1.1
		c-0.5,0.2-1.1,0.4-1.7,0.4c-1.2,0-2.1-0.4-2.8-1.1c-0.7-0.8-1-1.8-1-3.1v-0.1c0-1.3,0.3-2.3,1-3.1c0.7-0.8,1.6-1.2,2.8-1.2
		c1,0,1.9,0.3,2.5,0.9c0.6,0.6,0.9,1.4,1,2.4h-2.1c0-0.4-0.1-0.8-0.4-1s-0.6-0.4-1-0.4c-0.5,0-0.9,0.2-1.2,0.6
		c-0.3,0.4-0.4,1-0.4,1.8v0.2c0,0.9,0.1,1.5,0.4,1.8C25.8,23.8,26.2,24,26.8,24z"/>
	<path class="st9" d="M34.2,15.2v2.1h1.4v1.6h-1.4v4.2c0,0.3,0.1,0.5,0.2,0.7s0.3,0.2,0.7,0.2c0.2,0,0.5,0,0.6-0.1v1.7
		c-0.4,0.1-0.9,0.2-1.3,0.2c-1.6,0-2.4-0.8-2.4-2.4v-4.5h-1.2v-1.6H32v-2.1H34.2z"/>
	<path class="st9" d="M39.2,25.6H37v-8.3h2.2V25.6z M36.8,15.1c0-0.3,0.1-0.6,0.3-0.8c0.2-0.2,0.5-0.3,0.9-0.3s0.7,0.1,0.9,0.3
		c0.2,0.2,0.3,0.5,0.3,0.8c0,0.3-0.1,0.6-0.3,0.8c-0.2,0.2-0.5,0.3-0.9,0.3c-0.4,0-0.7-0.1-0.9-0.3C36.9,15.8,36.8,15.5,36.8,15.1z"
		/>
	<path class="st9" d="M44.2,22.9l1.5-5.6H48l-2.8,8.3h-2.1l-2.8-8.3h2.3L44.2,22.9z"/>
	<path class="st9" d="M53.7,25.6c-0.1-0.2-0.2-0.4-0.2-0.8c-0.5,0.6-1.2,0.9-2.1,0.9c-0.8,0-1.5-0.2-2-0.7c-0.5-0.5-0.8-1.1-0.8-1.8
		c0-0.9,0.3-1.6,1-2c0.7-0.5,1.6-0.7,2.8-0.7h1v-0.5c0-0.4-0.1-0.7-0.3-0.9c-0.2-0.2-0.5-0.3-0.9-0.3c-0.4,0-0.7,0.1-0.9,0.3
		c-0.2,0.2-0.3,0.4-0.3,0.7h-2.2c0-0.5,0.2-0.9,0.4-1.3c0.3-0.4,0.7-0.7,1.3-1c0.5-0.2,1.2-0.4,1.8-0.4c1,0,1.8,0.3,2.4,0.8
		c0.6,0.5,0.9,1.2,0.9,2.2v3.6c0,0.8,0.1,1.4,0.3,1.8v0.1H53.7z M51.9,24.1c0.3,0,0.6-0.1,0.9-0.2c0.3-0.1,0.5-0.3,0.6-0.6v-1.4
		h-0.8c-1.1,0-1.7,0.4-1.8,1.1v0.1c0,0.3,0.1,0.5,0.3,0.7C51.3,24,51.5,24.1,51.9,24.1z"/>
	<path class="st9" d="M60,15.2v2.1h1.4v1.6H60v4.2c0,0.3,0.1,0.5,0.2,0.7c0.1,0.1,0.3,0.2,0.7,0.2c0.2,0,0.5,0,0.7-0.1v1.7
		c-0.4,0.1-0.9,0.2-1.3,0.2c-1.6,0-2.4-0.8-2.4-2.4v-4.5h-1.2v-1.6h1.2v-2.1H60z"/>
	<path class="st9" d="M65,25.6h-2.2v-8.3H65V25.6z M62.7,15.1c0-0.3,0.1-0.6,0.3-0.8c0.2-0.2,0.5-0.3,0.9-0.3c0.4,0,0.7,0.1,0.9,0.3
		c0.2,0.2,0.3,0.5,0.3,0.8c0,0.3-0.1,0.6-0.3,0.8c-0.2,0.2-0.5,0.3-0.9,0.3c-0.4,0-0.7-0.1-0.9-0.3C62.8,15.8,62.7,15.5,62.7,15.1z"
		/>
	<path class="st9" d="M66.5,21.4c0-0.8,0.2-1.6,0.5-2.2c0.3-0.6,0.8-1.1,1.4-1.5c0.6-0.3,1.3-0.5,2.1-0.5c1.1,0,2,0.4,2.7,1
		c0.7,0.7,1.1,1.6,1.2,2.8l0,0.6c0,1.3-0.3,2.3-1.1,3.1c-0.7,0.8-1.7,1.2-2.9,1.2c-1.2,0-2.2-0.4-2.9-1.2c-0.7-0.8-1.1-1.8-1.1-3.1
		V21.4z M68.8,21.6c0,0.8,0.1,1.4,0.4,1.8c0.3,0.4,0.7,0.6,1.3,0.6c0.5,0,1-0.2,1.3-0.6c0.3-0.4,0.5-1.1,0.5-2
		c0-0.8-0.1-1.4-0.5-1.8c-0.3-0.4-0.7-0.6-1.3-0.6c-0.5,0-1,0.2-1.3,0.6C68.9,20,68.8,20.7,68.8,21.6z"/>
	<path class="st9" d="M77.8,17.3l0.1,1c0.6-0.8,1.4-1.1,2.4-1.1c0.9,0,1.5,0.3,2,0.8c0.4,0.5,0.7,1.3,0.7,2.3v5.4h-2.2v-5.3
		c0-0.5-0.1-0.8-0.3-1c-0.2-0.2-0.6-0.3-1-0.3c-0.6,0-1.1,0.3-1.4,0.8v5.9h-2.2v-8.3H77.8z"/>
	<path class="st9" d="M89.1,23.3c0-0.3-0.1-0.5-0.4-0.6c-0.3-0.2-0.7-0.3-1.3-0.4c-2-0.4-3-1.2-3-2.5c0-0.7,0.3-1.4,0.9-1.9
		c0.6-0.5,1.4-0.8,2.4-0.8c1.1,0,1.9,0.2,2.5,0.8c0.6,0.5,1,1.1,1,1.9h-2.2c0-0.3-0.1-0.6-0.3-0.8c-0.2-0.2-0.5-0.3-1-0.3
		c-0.4,0-0.7,0.1-0.9,0.2c-0.2,0.2-0.3,0.4-0.3,0.6c0,0.2,0.1,0.5,0.3,0.6c0.2,0.1,0.6,0.3,1.2,0.4c0.5,0.1,1,0.2,1.4,0.4
		c1.2,0.4,1.8,1.2,1.8,2.2c0,0.8-0.3,1.4-1,1.9c-0.6,0.5-1.5,0.7-2.5,0.7c-0.7,0-1.3-0.1-1.9-0.4c-0.5-0.2-1-0.6-1.3-1
		c-0.3-0.4-0.5-0.9-0.5-1.4h2.1c0,0.4,0.2,0.7,0.4,0.9c0.3,0.2,0.6,0.3,1.1,0.3c0.4,0,0.8-0.1,1-0.2C89,23.8,89.1,23.6,89.1,23.3z"
		/>
	<path class="st9" d="M20.8,241.8h-2.8v-10.7l-3.3,1v-2.3l5.8-2.1h0.3V241.8z"/>
	<path class="st9" d="M26.2,245.3l-1.4-0.8l0.3-0.6c0.4-0.8,0.7-1.6,0.7-2.3v-2.2h2.3l0,1.9c0,0.7-0.2,1.4-0.5,2.2
		C27.3,244.3,26.8,244.9,26.2,245.3z"/>
	<path class="st9" d="M39.8,241.8h-9.6v-1.9l4.5-4.8c0.6-0.7,1.1-1.3,1.4-1.8c0.3-0.5,0.4-1,0.4-1.4c0-0.6-0.2-1.1-0.5-1.5
		c-0.3-0.4-0.8-0.5-1.3-0.5c-0.6,0-1.1,0.2-1.5,0.7c-0.4,0.4-0.5,1-0.5,1.7h-2.8c0-0.8,0.2-1.6,0.6-2.3c0.4-0.7,1-1.3,1.7-1.6
		c0.7-0.4,1.6-0.6,2.5-0.6c1.4,0,2.6,0.3,3.4,1c0.8,0.7,1.2,1.7,1.2,2.9c0,0.7-0.2,1.4-0.5,2.1c-0.3,0.7-1,1.6-1.8,2.5l-3.2,3.4h6
		V241.8z"/>
	<path class="st9" d="M49.8,236.6h1.6v2.2h-1.6v3H47v-3h-5.8l-0.1-1.8l5.8-9.2h2.8V236.6z M43.9,236.6H47v-4.9l-0.2,0.3L43.9,236.6z
		"/>
	<path class="st9" d="M55.7,233.6h1.5c0.7,0,1.2-0.2,1.6-0.5c0.3-0.4,0.5-0.8,0.5-1.4c0-0.6-0.2-1-0.5-1.3c-0.3-0.3-0.8-0.5-1.4-0.5
		c-0.5,0-1,0.1-1.3,0.4c-0.4,0.3-0.5,0.7-0.5,1.1h-2.8c0-0.7,0.2-1.4,0.6-2c0.4-0.6,0.9-1,1.7-1.4c0.7-0.3,1.5-0.5,2.4-0.5
		c1.5,0,2.6,0.4,3.5,1.1c0.8,0.7,1.3,1.7,1.3,2.9c0,0.6-0.2,1.2-0.6,1.8c-0.4,0.5-0.9,1-1.5,1.2c0.8,0.3,1.4,0.7,1.8,1.3
		c0.4,0.6,0.6,1.2,0.6,2c0,1.2-0.4,2.2-1.4,3c-0.9,0.8-2.1,1.1-3.6,1.1c-1.4,0-2.6-0.4-3.4-1.1c-0.9-0.7-1.3-1.7-1.3-2.9h2.8
		c0,0.5,0.2,0.9,0.6,1.3c0.4,0.3,0.9,0.5,1.5,0.5c0.7,0,1.2-0.2,1.6-0.5c0.4-0.4,0.6-0.8,0.6-1.4c0-1.4-0.8-2.1-2.3-2.1h-1.5V233.6z
		"/>
	<path class="st14" d="M16.2,219.4c-0.8-0.2-1.5-0.5-1.8-0.9c-0.4-0.4-0.6-0.8-0.6-1.3c0-0.6,0.2-1.1,0.7-1.5
		c0.5-0.4,1.1-0.6,1.8-0.6c0.5,0,1,0.1,1.4,0.3c0.4,0.2,0.7,0.5,0.9,0.8c0.2,0.3,0.3,0.7,0.3,1.1h-1c0-0.4-0.1-0.8-0.4-1.1
		c-0.3-0.3-0.7-0.4-1.2-0.4c-0.5,0-0.9,0.1-1.1,0.3c-0.3,0.2-0.4,0.5-0.4,0.9c0,0.3,0.1,0.6,0.4,0.8s0.7,0.4,1.3,0.6
		c0.6,0.2,1.1,0.4,1.5,0.6c0.4,0.2,0.6,0.5,0.8,0.7c0.2,0.3,0.3,0.6,0.3,1c0,0.6-0.2,1.1-0.7,1.5c-0.5,0.4-1.1,0.5-1.9,0.5
		c-0.5,0-1-0.1-1.4-0.3c-0.4-0.2-0.8-0.5-1-0.8c-0.2-0.3-0.4-0.7-0.4-1.2h1c0,0.5,0.2,0.8,0.5,1.1c0.3,0.3,0.8,0.4,1.3,0.4
		c0.5,0,0.9-0.1,1.2-0.3c0.3-0.2,0.4-0.5,0.4-0.9c0-0.4-0.1-0.6-0.4-0.8C17.3,219.8,16.9,219.6,16.2,219.4z"/>
	<path class="st14" d="M23.5,222.8c-0.1-0.1-0.1-0.3-0.1-0.6c-0.4,0.4-1,0.7-1.6,0.7c-0.5,0-1-0.2-1.3-0.5c-0.3-0.3-0.5-0.7-0.5-1.2
		c0-0.6,0.2-1,0.7-1.3c0.4-0.3,1.1-0.5,1.9-0.5h0.9V219c0-0.3-0.1-0.6-0.3-0.8c-0.2-0.2-0.5-0.3-0.9-0.3c-0.3,0-0.6,0.1-0.8,0.3
		c-0.2,0.2-0.3,0.4-0.3,0.6h-0.9c0-0.3,0.1-0.6,0.3-0.8c0.2-0.3,0.5-0.5,0.8-0.6c0.3-0.2,0.7-0.2,1.1-0.2c0.6,0,1.1,0.2,1.5,0.5
		c0.4,0.3,0.5,0.8,0.6,1.3v2.6c0,0.5,0.1,0.9,0.2,1.2v0.1H23.5z M22,222.1c0.3,0,0.6-0.1,0.8-0.2c0.3-0.2,0.5-0.4,0.6-0.6v-1.1h-0.7
		c-1.2,0-1.8,0.3-1.8,1c0,0.3,0.1,0.5,0.3,0.7C21.4,222,21.7,222.1,22,222.1z"/>
	<path class="st14" d="M26.9,222.8h-0.9v-7.9h0.9V222.8z"/>
	<path class="st14" d="M30.7,222.9c-0.8,0-1.4-0.2-1.8-0.7c-0.5-0.5-0.7-1.1-0.7-2V220c0-0.6,0.1-1,0.3-1.5c0.2-0.4,0.5-0.8,0.9-1
		c0.4-0.2,0.8-0.4,1.2-0.4c0.7,0,1.3,0.2,1.7,0.7c0.4,0.5,0.6,1.1,0.6,2v0.4h-3.8c0,0.5,0.2,1,0.5,1.3c0.3,0.3,0.7,0.5,1.2,0.5
		c0.3,0,0.6-0.1,0.8-0.2c0.2-0.1,0.4-0.3,0.6-0.5l0.6,0.4C32.3,222.5,31.6,222.9,30.7,222.9z M30.6,217.9c-0.4,0-0.7,0.1-1,0.4
		c-0.3,0.3-0.4,0.7-0.5,1.2h2.8v-0.1c0-0.5-0.2-0.8-0.4-1.1C31.3,218,31,217.9,30.6,217.9z"/>
	<path class="st14" d="M37.2,221.3c0-0.3-0.1-0.5-0.3-0.6c-0.2-0.1-0.5-0.3-1-0.4c-0.5-0.1-0.9-0.2-1.2-0.4
		c-0.3-0.1-0.5-0.3-0.6-0.5c-0.1-0.2-0.2-0.4-0.2-0.7c0-0.4,0.2-0.8,0.6-1.1c0.4-0.3,0.9-0.5,1.5-0.5c0.6,0,1.1,0.2,1.5,0.5
		c0.4,0.3,0.6,0.7,0.6,1.2h-1c0-0.3-0.1-0.5-0.3-0.7c-0.2-0.2-0.5-0.3-0.8-0.3c-0.3,0-0.6,0.1-0.8,0.2c-0.2,0.1-0.3,0.3-0.3,0.6
		c0,0.2,0.1,0.4,0.3,0.5c0.2,0.1,0.5,0.2,1,0.3c0.5,0.1,0.9,0.2,1.2,0.4c0.3,0.2,0.5,0.3,0.7,0.5c0.1,0.2,0.2,0.4,0.2,0.8
		c0,0.5-0.2,0.9-0.6,1.2c-0.4,0.3-0.9,0.4-1.5,0.4c-0.4,0-0.8-0.1-1.2-0.2c-0.3-0.2-0.6-0.4-0.8-0.7c-0.2-0.3-0.3-0.6-0.3-0.9h1
		c0,0.3,0.1,0.6,0.4,0.8c0.2,0.2,0.6,0.3,0.9,0.3c0.4,0,0.7-0.1,0.9-0.2C37.1,221.7,37.2,221.5,37.2,221.3z"/>
	<path class="st9" d="M53.7,206.7h-1.3v-8.4l-2.5,0.9v-1.1l3.6-1.4h0.2V206.7z"/>
	<path class="st15" d="M51.7,42.7h1v143h-1V42.7z"/>
	<path class="st16" d="M44.7,192.5h218.2v0.7H44.7V192.5z"/>
	<path class="st9" d="M103.6,199.4c0,0.5-0.1,0.9-0.4,1.3c-0.3,0.4-0.6,0.7-1.1,0.9c0.5,0.2,0.9,0.5,1.2,1c0.3,0.4,0.5,0.9,0.5,1.5
		c0,0.9-0.3,1.6-0.9,2.1c-0.6,0.5-1.3,0.8-2.3,0.8s-1.7-0.2-2.3-0.8c-0.6-0.5-0.9-1.2-0.9-2.1c0-0.5,0.1-1,0.4-1.5
		c0.3-0.4,0.7-0.8,1.2-1c-0.4-0.2-0.8-0.5-1.1-0.9c-0.2-0.4-0.4-0.8-0.4-1.3c0-0.8,0.3-1.5,0.8-2c0.5-0.5,1.2-0.7,2.1-0.7
		s1.6,0.2,2.1,0.7S103.6,198.5,103.6,199.4z M102.5,204c0-0.6-0.2-1-0.5-1.4c-0.3-0.3-0.8-0.5-1.4-0.5c-0.6,0-1,0.2-1.4,0.5
		c-0.3,0.4-0.5,0.8-0.5,1.4c0,0.6,0.2,1,0.5,1.3c0.3,0.3,0.8,0.5,1.4,0.5s1.1-0.2,1.4-0.5C102.3,205,102.5,204.6,102.5,204z
		 M100.6,197.7c-0.5,0-0.9,0.2-1.2,0.5c-0.3,0.3-0.5,0.7-0.5,1.2c0,0.5,0.2,0.9,0.5,1.2c0.3,0.3,0.7,0.5,1.2,0.5
		c0.5,0,0.9-0.2,1.2-0.5c0.3-0.3,0.5-0.7,0.5-1.2c0-0.5-0.2-0.9-0.5-1.2C101.5,197.8,101.1,197.7,100.6,197.7z"/>
	<path class="st16" d="M99.6,42.7h1v143h-1V42.7z"/>
	<path class="st9" d="M145.5,206.7h-1.3v-8.4l-2.5,0.9v-1.1l3.6-1.4h0.2V206.7z"/>
	<path class="st9" d="M150.2,201.7l0.5-5h5.1v1.2h-4l-0.3,2.7c0.5-0.3,1-0.4,1.7-0.4c0.9,0,1.6,0.3,2.2,0.9c0.5,0.6,0.8,1.4,0.8,2.4
		c0,1-0.3,1.8-0.8,2.4c-0.5,0.6-1.3,0.9-2.3,0.9c-0.9,0-1.6-0.2-2.2-0.7c-0.6-0.5-0.9-1.2-0.9-2h1.2c0.1,0.6,0.3,1,0.6,1.3
		c0.3,0.3,0.8,0.4,1.3,0.4c0.6,0,1-0.2,1.4-0.6c0.3-0.4,0.5-1,0.5-1.7c0-0.7-0.2-1.2-0.6-1.6c-0.4-0.4-0.8-0.6-1.4-0.6
		c-0.6,0-1,0.1-1.3,0.4l-0.3,0.3L150.2,201.7z"/>
	<path class="st16" d="M147.6,42.7h1v143h-1V42.7z"/>
	<path class="st9" d="M195.8,206.7h-6.5v-0.9l3.4-3.8c0.5-0.6,0.9-1.1,1.1-1.4c0.2-0.4,0.3-0.7,0.3-1.1c0-0.5-0.2-0.9-0.5-1.3
		c-0.3-0.3-0.7-0.5-1.3-0.5c-0.6,0-1.1,0.2-1.5,0.5c-0.3,0.4-0.5,0.9-0.5,1.5h-1.3c0-0.9,0.3-1.6,0.9-2.2c0.6-0.6,1.4-0.8,2.4-0.8
		c0.9,0,1.7,0.2,2.2,0.7c0.5,0.5,0.8,1.1,0.8,1.9c0,1-0.6,2.1-1.9,3.5l-2.7,2.9h5V206.7z"/>
	<path class="st9" d="M204,206.7h-6.5v-0.9l3.4-3.8c0.5-0.6,0.9-1.1,1.1-1.4c0.2-0.4,0.3-0.7,0.3-1.1c0-0.5-0.2-0.9-0.5-1.3
		c-0.3-0.3-0.7-0.5-1.2-0.5c-0.6,0-1.1,0.2-1.5,0.5c-0.3,0.4-0.5,0.9-0.5,1.5h-1.3c0-0.9,0.3-1.6,0.9-2.2c0.6-0.6,1.4-0.8,2.4-0.8
		c0.9,0,1.7,0.2,2.2,0.7c0.5,0.5,0.8,1.1,0.8,1.9c0,1-0.6,2.1-1.9,3.5l-2.7,2.9h5V206.7z"/>
	<path class="st16" d="M195.5,42.7h1v143h-1V42.7z"/>
	<path class="st9" d="M243.7,206.7h-6.5v-0.9l3.4-3.8c0.5-0.6,0.9-1.1,1.1-1.4c0.2-0.4,0.3-0.7,0.3-1.1c0-0.5-0.2-0.9-0.5-1.3
		c-0.3-0.3-0.7-0.5-1.3-0.5c-0.6,0-1.1,0.2-1.5,0.5c-0.4,0.4-0.5,0.9-0.5,1.5H237c0-0.9,0.3-1.6,0.9-2.2c0.6-0.6,1.4-0.8,2.4-0.8
		c0.9,0,1.7,0.2,2.2,0.7c0.5,0.5,0.8,1.1,0.8,1.9c0,1-0.6,2.1-1.9,3.5l-2.7,2.9h5V206.7z"/>
	<path class="st9" d="M250.3,202.3c-0.3,0.3-0.6,0.6-1,0.8c-0.4,0.2-0.8,0.3-1.2,0.3c-0.6,0-1.1-0.1-1.5-0.4c-0.4-0.3-0.8-0.7-1-1.2
		c-0.2-0.5-0.3-1.1-0.3-1.7c0-0.7,0.1-1.3,0.4-1.8c0.3-0.5,0.6-0.9,1.1-1.2c0.5-0.3,1-0.4,1.6-0.4c1,0,1.8,0.4,2.3,1.1
		c0.6,0.7,0.9,1.7,0.9,3v0.4c0,1.9-0.4,3.3-1.1,4.2c-0.8,0.9-1.9,1.3-3.5,1.4h-0.2v-1.1h0.3c1.1,0,1.8-0.3,2.4-0.8
		C249.9,204.3,250.3,203.5,250.3,202.3z M248.4,202.3c0.4,0,0.8-0.1,1.2-0.4s0.6-0.6,0.8-1v-0.5c0-0.8-0.2-1.5-0.5-2
		s-0.8-0.8-1.4-0.8c-0.6,0-1,0.2-1.3,0.6c-0.3,0.4-0.5,1-0.5,1.7c0,0.7,0.2,1.2,0.5,1.7C247.4,202.1,247.8,202.3,248.4,202.3z"/>
	<path class="st16" d="M243.4,42.7h1v143h-1V42.7z"/>
	<path class="st9" d="M21.3,190.9c0,1-0.2,1.7-0.8,2.2c-0.5,0.5-1.3,0.7-2.4,0.7c-1.1,0-1.8-0.2-2.4-0.7c-0.5-0.5-0.8-1.2-0.8-2.1
		v-1.1c0-1,0.2-1.7,0.8-2.1c0.5-0.5,1.3-0.7,2.4-0.7c1.1,0,1.9,0.2,2.4,0.7c0.5,0.4,0.8,1.1,0.8,2.1V190.9z M20,189.8
		c0-0.7-0.2-1.2-0.5-1.5c-0.3-0.3-0.8-0.5-1.4-0.5s-1.1,0.2-1.4,0.5c-0.3,0.3-0.4,0.8-0.5,1.5v1.3c0,0.7,0.2,1.2,0.5,1.6
		c0.3,0.3,0.8,0.5,1.4,0.5c0.6,0,1.1-0.2,1.4-0.5c0.3-0.3,0.5-0.8,0.5-1.5V189.8z"/>
	<path class="st9" d="M10.9,161.7H9.7v-5.5l-2.6,0.6V156l3.6-0.9h0.2V161.7z"/>
	<path class="st9" d="M21.3,158.9c0,1-0.2,1.7-0.8,2.2c-0.5,0.5-1.3,0.7-2.4,0.7c-1.1,0-1.8-0.2-2.4-0.7c-0.5-0.5-0.8-1.2-0.8-2.1
		v-1.1c0-1,0.2-1.7,0.8-2.1c0.5-0.5,1.3-0.7,2.4-0.7c1.1,0,1.9,0.2,2.4,0.7c0.5,0.4,0.8,1.1,0.8,2.1V158.9z M20,157.8
		c0-0.7-0.2-1.2-0.5-1.5c-0.3-0.3-0.8-0.5-1.4-0.5s-1.1,0.2-1.4,0.5c-0.3,0.3-0.4,0.8-0.5,1.5v1.3c0,0.7,0.2,1.2,0.5,1.6
		c0.3,0.3,0.8,0.5,1.4,0.5c0.6,0,1.1-0.2,1.4-0.5c0.3-0.3,0.5-0.8,0.5-1.5V157.8z"/>
	<path class="st9" d="M29.5,158.9c0,1-0.2,1.7-0.8,2.2c-0.5,0.5-1.3,0.7-2.4,0.7c-1.1,0-1.8-0.2-2.4-0.7c-0.5-0.5-0.8-1.2-0.8-2.1
		v-1.1c0-1,0.2-1.7,0.8-2.1c0.5-0.5,1.3-0.7,2.4-0.7c1.1,0,1.9,0.2,2.4,0.7c0.5,0.4,0.8,1.1,0.8,2.1V158.9z M28.3,157.8
		c0-0.7-0.2-1.2-0.5-1.5c-0.3-0.3-0.8-0.5-1.4-0.5s-1.1,0.2-1.4,0.5c-0.3,0.3-0.4,0.8-0.5,1.5v1.3c0,0.7,0.2,1.2,0.5,1.6
		c0.3,0.3,0.8,0.5,1.4,0.5s1.1-0.2,1.4-0.5c0.3-0.3,0.5-0.8,0.5-1.5V157.8z"/>
	<path class="st9" d="M13.3,129.7H6.8v-0.6l3.4-2.5c0.5-0.4,0.9-0.7,1.1-0.9c0.2-0.2,0.3-0.5,0.3-0.7c0-0.3-0.2-0.6-0.5-0.8
		c-0.3-0.2-0.7-0.3-1.3-0.3c-0.6,0-1.1,0.1-1.5,0.4c-0.3,0.2-0.5,0.6-0.5,1H6.6c0-0.6,0.3-1.1,0.9-1.5c0.6-0.4,1.4-0.6,2.4-0.6
		c0.9,0,1.7,0.2,2.2,0.5c0.5,0.3,0.8,0.7,0.8,1.3c0,0.6-0.6,1.4-1.9,2.3L8.3,129h5V129.7z"/>
	<path class="st9" d="M21.3,126.9c0,1-0.2,1.7-0.8,2.2c-0.5,0.5-1.3,0.7-2.4,0.7c-1.1,0-1.8-0.2-2.4-0.7c-0.5-0.5-0.8-1.2-0.8-2.1
		v-1.1c0-1,0.2-1.7,0.8-2.1c0.5-0.5,1.3-0.7,2.4-0.7c1.1,0,1.9,0.2,2.4,0.7c0.5,0.4,0.8,1.1,0.8,2.1V126.9z M20,125.8
		c0-0.7-0.2-1.2-0.5-1.5c-0.3-0.3-0.8-0.5-1.4-0.5s-1.1,0.2-1.4,0.5c-0.3,0.3-0.4,0.8-0.5,1.5v1.3c0,0.7,0.2,1.2,0.5,1.6
		c0.3,0.3,0.8,0.5,1.4,0.5c0.6,0,1.1-0.2,1.4-0.5c0.3-0.3,0.5-0.8,0.5-1.5V125.8z"/>
	<path class="st9" d="M29.5,126.9c0,1-0.2,1.7-0.8,2.2c-0.5,0.5-1.3,0.7-2.4,0.7c-1.1,0-1.8-0.2-2.4-0.7c-0.5-0.5-0.8-1.2-0.8-2.1
		v-1.1c0-1,0.2-1.7,0.8-2.1c0.5-0.5,1.3-0.7,2.4-0.7c1.1,0,1.9,0.2,2.4,0.7c0.5,0.4,0.8,1.1,0.8,2.1V126.9z M28.3,125.8
		c0-0.7-0.2-1.2-0.5-1.5c-0.3-0.3-0.8-0.5-1.4-0.5s-1.1,0.2-1.4,0.5c-0.3,0.3-0.4,0.8-0.5,1.5v1.3c0,0.7,0.2,1.2,0.5,1.6
		c0.3,0.3,0.8,0.5,1.4,0.5s1.1-0.2,1.4-0.5c0.3-0.3,0.5-0.8,0.5-1.5V125.8z"/>
	<path class="st9" d="M7.6,94h0.9c0.6,0,1.1-0.1,1.4-0.3c0.3-0.2,0.5-0.5,0.5-0.8c0-0.8-0.6-1.1-1.8-1.1c-0.5,0-1,0.1-1.3,0.3
		c-0.3,0.2-0.5,0.5-0.5,0.8H5.7c0-0.5,0.3-0.9,0.9-1.3c0.6-0.4,1.3-0.5,2.2-0.5c0.9,0,1.7,0.2,2.2,0.5c0.5,0.3,0.8,0.8,0.8,1.4
		c0,0.3-0.1,0.6-0.4,0.8c-0.3,0.3-0.7,0.5-1.1,0.6c0.5,0.1,1,0.3,1.3,0.6c0.3,0.3,0.5,0.6,0.5,1c0,0.6-0.3,1.1-0.9,1.4
		c-0.6,0.3-1.3,0.5-2.3,0.5c-0.9,0-1.7-0.2-2.3-0.5C5.9,97,5.6,96.5,5.6,96h1.3c0,0.3,0.2,0.6,0.5,0.8c0.3,0.2,0.8,0.3,1.4,0.3
		c0.6,0,1.1-0.1,1.4-0.3c0.3-0.2,0.5-0.5,0.5-0.9c0-0.4-0.2-0.7-0.5-0.9c-0.3-0.2-0.9-0.3-1.5-0.3H7.6V94z"/>
	<path class="st9" d="M20.3,94.9c0,1-0.2,1.7-0.8,2.2c-0.5,0.5-1.3,0.7-2.4,0.7c-1.1,0-1.8-0.2-2.4-0.7C14.3,96.6,14,95.9,14,95
		v-1.1c0-1,0.2-1.7,0.8-2.1c0.5-0.5,1.3-0.7,2.4-0.7c1.1,0,1.9,0.2,2.4,0.7c0.5,0.4,0.8,1.1,0.8,2.1V94.9z M19,93.8
		c0-0.7-0.2-1.2-0.5-1.5c-0.3-0.3-0.8-0.5-1.4-0.5s-1.1,0.2-1.4,0.5c-0.3,0.3-0.4,0.8-0.5,1.5v1.3c0,0.7,0.2,1.2,0.5,1.6
		c0.3,0.3,0.8,0.5,1.4,0.5c0.6,0,1.1-0.2,1.4-0.5c0.3-0.3,0.5-0.8,0.5-1.5V93.8z"/>
	<path class="st9" d="M28.5,94.9c0,1-0.2,1.7-0.8,2.2c-0.5,0.5-1.3,0.7-2.4,0.7c-1.1,0-1.8-0.2-2.4-0.7c-0.5-0.5-0.8-1.2-0.8-2.1
		v-1.1c0-1,0.2-1.7,0.8-2.1c0.5-0.5,1.3-0.7,2.4-0.7c1.1,0,1.9,0.2,2.4,0.7c0.5,0.4,0.8,1.1,0.8,2.1V94.9z M27.3,93.8
		c0-0.7-0.2-1.2-0.5-1.5c-0.3-0.3-0.8-0.5-1.4-0.5s-1.1,0.2-1.4,0.5c-0.3,0.3-0.4,0.8-0.5,1.5v1.3c0,0.7,0.2,1.2,0.5,1.6
		c0.3,0.3,0.8,0.5,1.4,0.5s1.1-0.2,1.4-0.5c0.3-0.3,0.5-0.8,0.5-1.5V93.8z"/>
	<path class="st9" d="M11.1,63.5h1.4v0.7h-1.4v1.5H9.8v-1.5H5.3v-0.5l4.5-4.5h1.3V63.5z M6.8,63.5h3.1v-3.2l-0.2,0.2L6.8,63.5z"/>
	<path class="st9" d="M20.3,62.9c0,1-0.2,1.7-0.8,2.2c-0.5,0.5-1.3,0.7-2.4,0.7c-1.1,0-1.8-0.2-2.4-0.7C14.3,64.6,14,64,14,63v-1.1
		c0-1,0.2-1.7,0.8-2.1c0.5-0.5,1.3-0.7,2.4-0.7c1.1,0,1.9,0.2,2.4,0.7c0.5,0.4,0.8,1.1,0.8,2.1V62.9z M19,61.8
		c0-0.7-0.2-1.2-0.5-1.5c-0.3-0.3-0.8-0.5-1.4-0.5s-1.1,0.2-1.4,0.5c-0.3,0.3-0.4,0.8-0.5,1.5v1.3c0,0.7,0.2,1.2,0.5,1.6
		c0.3,0.3,0.8,0.5,1.4,0.5c0.6,0,1.1-0.2,1.4-0.5c0.3-0.3,0.5-0.8,0.5-1.5V61.8z"/>
	<path class="st9" d="M28.5,62.9c0,1-0.2,1.7-0.8,2.2c-0.5,0.5-1.3,0.7-2.4,0.7c-1.1,0-1.8-0.2-2.4-0.7c-0.5-0.5-0.8-1.2-0.8-2.1
		v-1.1c0-1,0.2-1.7,0.8-2.1c0.5-0.5,1.3-0.7,2.4-0.7c1.1,0,1.9,0.2,2.4,0.7c0.5,0.4,0.8,1.1,0.8,2.1V62.9z M27.3,61.8
		c0-0.7-0.2-1.2-0.5-1.5c-0.3-0.3-0.8-0.5-1.4-0.5s-1.1,0.2-1.4,0.5c-0.3,0.3-0.4,0.8-0.5,1.5v1.3c0,0.7,0.2,1.2,0.5,1.6
		c0.3,0.3,0.8,0.5,1.4,0.5s1.1-0.2,1.4-0.5c0.3-0.3,0.5-0.8,0.5-1.5V61.8z"/>
	<defs>
		<filter id="Adobe_OpacityMaskFilter" filterUnits="userSpaceOnUse" x="52" y="97.1" width="103.3" height="42">
			<feColorMatrix  type="matrix" values="1 0 0 0 0  0 1 0 0 0  0 0 1 0 0  0 0 0 1 0"/>
		</filter>
	</defs>
	
		<mask maskUnits="userSpaceOnUse" x="52" y="97.1" width="103.3" height="42" id="mask0_0:1_00000079464290474750960640000000752820437039881869_">
		<path class="st17" d="M44.7,42.7h216.9v151.2H44.7V42.7z"/>
	</mask>
	<g class="st18">
		<path class="st19" d="M52,134.6c3.3,0,3.3-9.5,6.7-9.5c2.2,0,2.2,4,5.6,4c3.3,0,3.3,5.1,6.7,5.1s3.3,0.1,6.7,0.1
			c3.3,0,3.3-1.2,5.6-1.2c3.3,0,3.3,5.4,6.7,5.4s3.3-1.6,6.7-1.6c3.3,0,3.3,0.4,6.7,0.4c2.2,0,2.2,1.1,5.6,1.2c29,1,43.3-41,46.7-41
			"/>
	</g>
	<path class="st11" d="M241.9,232.4h0.7c0.5,0,0.8-0.1,1.1-0.4s0.4-0.5,0.4-0.9c0-0.9-0.4-1.3-1.3-1.3c-0.4,0-0.7,0.1-1,0.4
		c-0.2,0.2-0.4,0.5-0.4,0.9h-0.9c0-0.6,0.2-1.1,0.6-1.5c0.4-0.4,1-0.6,1.7-0.6c0.7,0,1.2,0.2,1.7,0.6c0.4,0.4,0.6,0.9,0.6,1.6
		c0,0.3-0.1,0.6-0.3,0.9c-0.2,0.3-0.5,0.5-0.9,0.7c0.4,0.1,0.7,0.3,0.9,0.6c0.2,0.3,0.3,0.7,0.3,1.1c0,0.7-0.2,1.2-0.7,1.6
		c-0.4,0.4-1,0.6-1.7,0.6c-0.7,0-1.3-0.2-1.7-0.6c-0.4-0.4-0.7-0.9-0.7-1.5h1c0,0.4,0.1,0.7,0.4,0.9c0.3,0.2,0.6,0.4,1,0.4
		c0.5,0,0.8-0.1,1.1-0.4c0.2-0.2,0.4-0.6,0.4-1c0-0.4-0.1-0.8-0.4-1c-0.3-0.2-0.7-0.4-1.2-0.4h-0.7V232.4z"/>
	<path class="st11" d="M246.7,238.1l-0.5-0.4c0.3-0.4,0.5-0.9,0.5-1.4v-0.9h0.9v0.7c0,0.4-0.1,0.7-0.3,1
		C247.2,237.6,247,237.9,246.7,238.1z"/>
	<path class="st11" d="M253.7,233.4c0,1.1-0.2,1.9-0.6,2.5c-0.4,0.5-1,0.8-1.8,0.8c-0.8,0-1.4-0.3-1.8-0.8c-0.4-0.5-0.6-1.3-0.6-2.4
		v-1.3c0-1.1,0.2-1.9,0.6-2.4c0.4-0.5,1-0.8,1.8-0.8c0.8,0,1.4,0.3,1.8,0.8c0.4,0.5,0.6,1.3,0.6,2.4V233.4z M252.7,232.1
		c0-0.8-0.1-1.4-0.3-1.8c-0.2-0.4-0.6-0.6-1.1-0.6s-0.8,0.2-1.1,0.6c-0.2,0.4-0.3,0.9-0.3,1.7v1.5c0,0.8,0.1,1.4,0.3,1.8
		c0.2,0.4,0.6,0.6,1.1,0.6c0.5,0,0.8-0.2,1-0.5c0.2-0.4,0.3-0.9,0.4-1.7V232.1z"/>
	<path class="st11" d="M255.1,230.5c0-0.4,0.1-0.8,0.4-1.1c0.3-0.3,0.7-0.4,1.1-0.4c0.5,0,0.8,0.1,1.1,0.4c0.3,0.3,0.4,0.7,0.4,1.1
		v0.4c0,0.4-0.2,0.8-0.4,1.1c-0.3,0.3-0.6,0.4-1.1,0.4c-0.4,0-0.8-0.1-1.1-0.4c-0.3-0.3-0.4-0.7-0.4-1.2V230.5z M255.8,230.9
		c0,0.3,0.1,0.5,0.2,0.7c0.2,0.2,0.3,0.3,0.6,0.3c0.2,0,0.4-0.1,0.6-0.2c0.1-0.2,0.2-0.4,0.2-0.7v-0.4c0-0.3-0.1-0.5-0.2-0.7
		c-0.1-0.2-0.3-0.3-0.6-0.3c-0.3,0-0.5,0.1-0.6,0.3c-0.2,0.2-0.2,0.4-0.2,0.7V230.9z M258.7,234.7c0-0.4,0.1-0.8,0.4-1.1
		c0.3-0.3,0.7-0.4,1.1-0.4c0.4,0,0.8,0.1,1.1,0.4c0.3,0.3,0.4,0.7,0.4,1.1v0.4c0,0.5-0.1,0.8-0.4,1.1c-0.3,0.3-0.6,0.4-1.1,0.4
		c-0.4,0-0.8-0.1-1.1-0.4c-0.3-0.3-0.4-0.7-0.4-1.1V234.7z M259.4,235.1c0,0.3,0.1,0.5,0.2,0.7c0.2,0.2,0.3,0.2,0.6,0.2
		c0.2,0,0.4-0.1,0.6-0.2c0.1-0.2,0.2-0.4,0.2-0.7v-0.4c0-0.3-0.1-0.5-0.2-0.7c-0.1-0.2-0.3-0.3-0.6-0.3s-0.4,0.1-0.6,0.3
		c-0.2,0.2-0.2,0.4-0.2,0.7V235.1z M256.8,236l-0.5-0.3l3.7-5.8l0.5,0.3L256.8,236z"/>
	<path class="st20" d="M225,229.4c0.6,0,1,0.4,1,1v5.3c0,0.6-0.4,1-1,1s-1-0.4-1-1v-5.3C224,229.8,224.4,229.4,225,229.4z"/>
	<path class="st20" d="M224.3,229.6c0.4-0.4,1-0.4,1.4,0l2,2c0.4,0.4,0.4,1,0,1.4c-0.4,0.4-1,0.4-1.4,0l-1.3-1.3l-1.3,1.3
		c-0.4,0.4-1,0.4-1.4,0c-0.4-0.4-0.4-1,0-1.4L224.3,229.6z"/>
</g>
</svg>
