<svg width="50" height="49" viewBox="0 0 50 49" fill="none" xmlns="http://www.w3.org/2000/svg">
<path d="M25.4605 16.3299C20.9618 16.3299 17.2904 20.0012 17.2904 24.5C17.2904 28.9988 20.9618 32.6701 25.4605 32.6701C29.9593 32.6701 33.6307 28.9988 33.6307 24.5C33.6307 20.0012 29.9593 16.3299 25.4605 16.3299ZM49.9649 24.5C49.9649 21.1167 49.9955 17.7641 49.8055 14.3869C49.6155 10.4643 48.7206 6.98291 45.8522 4.11448C42.9776 1.23991 39.5024 0.351184 35.5798 0.161181C32.1965 -0.0288227 28.8438 0.00182308 25.4667 0.00182308C22.0834 0.00182308 18.7307 -0.0288227 15.3536 0.161181C11.4309 0.351184 7.94959 1.24604 5.08115 4.11448C2.20658 6.98904 1.31786 10.4643 1.12786 14.3869C0.937852 17.7702 0.968498 21.1228 0.968498 24.5C0.968498 27.8772 0.937852 31.2359 1.12786 34.6131C1.31786 38.5357 2.21271 42.0171 5.08115 44.8855C7.95572 47.7601 11.4309 48.6488 15.3536 48.8388C18.7369 49.0288 22.0895 48.9982 25.4667 48.9982C28.85 48.9982 32.2026 49.0288 35.5798 48.8388C39.5024 48.6488 42.9838 47.754 45.8522 44.8855C48.7268 42.011 49.6155 38.5357 49.8055 34.6131C50.0016 31.2359 49.9649 27.8833 49.9649 24.5ZM25.4605 37.0709C18.504 37.0709 12.8897 31.4566 12.8897 24.5C12.8897 17.5434 18.504 11.9291 25.4605 11.9291C32.4171 11.9291 38.0314 17.5434 38.0314 24.5C38.0314 31.4566 32.4171 37.0709 25.4605 37.0709ZM38.5463 14.3501C36.922 14.3501 35.6104 13.0385 35.6104 11.4143C35.6104 9.79006 36.922 8.47843 38.5463 8.47843C40.1705 8.47843 41.4821 9.79006 41.4821 11.4143C41.4826 11.8 41.407 12.1819 41.2596 12.5384C41.1123 12.8948 40.896 13.2186 40.6233 13.4913C40.3506 13.764 40.0268 13.9803 39.6703 14.1276C39.3139 14.275 38.9319 14.3506 38.5463 14.3501Z" fill="white"/>
</svg>
