<svg width="30" height="30" viewBox="0 0 30 30" fill="none" xmlns="http://www.w3.org/2000/svg">
<g clip-path="url(#clip0_579:946)">
<path d="M30.0009 2.34245V27.7159C29.9111 27.7711 29.9363 27.8739 29.9122 27.9508C29.5188 29.2454 28.5369 29.9948 27.1816 29.9948C19.0588 29.9983 10.9362 29.9983 2.81383 29.9948C2.37104 29.9948 1.93942 29.9232 1.54009 29.717C0.488337 29.1743 0.00327279 28.2915 0.00268555 27.1274C0.00268555 22.5382 0.00268555 17.9497 0.00268555 13.3617C0.00268555 9.86658 0.00268555 6.37147 0.00268555 2.87635C0.00268555 1.90781 0.346224 1.11078 1.12961 0.51756C1.4937 0.241507 1.92415 0.129323 2.34755 -0.00341797H27.6578C27.6871 0.0177722 27.7194 0.0345895 27.7535 0.0465068C28.4201 0.166913 28.9586 0.495828 29.3978 1.01387C29.7232 1.40504 29.8559 1.87492 30.0009 2.34245ZM16.4567 12.856C16.4567 12.5353 16.4567 12.2152 16.4567 11.8945C16.4526 11.3124 16.1578 11.0211 15.5688 11.0205C14.5141 11.0205 13.4596 11.0205 12.4053 11.0205C11.7993 11.0205 11.5074 11.3083 11.5074 11.9156C11.5074 16.544 11.5074 21.1723 11.5074 25.8006C11.5074 26.4108 11.794 26.6951 12.4041 26.6963C13.4389 26.699 14.4738 26.699 15.5089 26.6963C16.1954 26.6963 16.4573 26.4296 16.4573 25.736C16.4573 23.3725 16.4573 21.0094 16.4573 18.6467C16.4471 17.8516 16.6374 17.0669 17.0105 16.3648C17.5502 15.3563 18.4199 14.9552 19.5427 15.0597C20.5457 15.1549 21.1799 15.7111 21.5146 16.6456C21.7255 17.2329 21.7924 17.8432 21.7942 18.4587C21.8006 20.9191 21.7942 23.3801 21.7942 25.8405C21.7942 26.3997 22.0772 26.6922 22.6351 26.6951C23.7579 26.7006 24.8807 26.7006 26.0035 26.6951C26.5644 26.6951 26.8462 26.4044 26.8462 25.8434C26.8462 23.2268 26.8562 20.6096 26.8333 17.9929C26.821 16.6338 26.6983 15.2829 26.1956 13.999C25.6671 12.651 24.7862 11.6455 23.3974 11.1503C22.2816 10.7521 21.1241 10.7198 19.9584 10.8672C19.1545 10.9688 18.3987 11.2073 17.7205 11.6648C17.2395 11.9867 16.8578 12.4114 16.4567 12.8536V12.856ZM9.28174 18.861C9.28174 16.5575 9.28174 14.2541 9.28174 11.9509C9.28174 11.3154 8.98166 11.0194 8.34979 11.0182C7.33503 11.0182 6.32007 11.0182 5.30492 11.0182C4.64016 11.0182 4.34243 11.3177 4.34243 11.985C4.34243 16.5627 4.34243 21.1403 4.34243 25.7177C4.34243 26.4049 4.63076 26.6927 5.32371 26.6945C6.29971 26.6945 7.27571 26.6945 8.25172 26.6945C9.02512 26.6945 9.28292 26.4349 9.28292 25.6549C9.28292 23.3905 9.28253 21.1259 9.28174 18.861ZM6.82647 9.68607C7.45805 9.68395 8.07478 9.49433 8.59849 9.14123C9.12219 8.78814 9.52929 8.28747 9.76817 7.70271C10.0071 7.11794 10.067 6.4754 9.94031 5.85653C9.81366 5.23767 9.50615 4.67035 9.05676 4.22649C8.60736 3.78263 8.03633 3.48221 7.41603 3.36332C6.79574 3.24443 6.15411 3.31241 5.5725 3.55866C4.99088 3.80491 4.49545 4.21833 4.14902 4.74652C3.8026 5.27471 3.62076 5.89388 3.62657 6.52555C3.6354 7.36796 3.97663 8.17276 4.57596 8.76471C5.17529 9.35667 5.98417 9.68782 6.82647 9.68607V9.68607Z" fill="white"/>
</g>
<defs>
<clipPath id="clip0_579:946">
<rect width="30" height="30" fill="white"/>
</clipPath>
</defs>
</svg>
