<svg width="639" height="359" viewBox="0 0 639 359" fill="none" xmlns="http://www.w3.org/2000/svg">
<g clip-path="url(#clip0_3_725)">
<path d="M204.493 169.143L194.616 193.07L249.143 193.036L245.338 171.998L204.493 169.143Z" fill="#F4B19F"/>
<path d="M199.27 168.027L203.354 174.397C206.769 178.189 218.264 183.533 225.674 186.89C227.733 187.824 229.878 188.552 232.08 189.065L249.177 193.059L245.371 172.032L199.27 168.027Z" fill="#DD988A"/>
<path d="M197.116 123.407C197.116 123.407 183.869 113.781 184.84 128.427C185.811 143.073 190.487 149.621 192.931 147.067C195.375 144.512 197.116 123.407 197.116 123.407Z" fill="#DD988A"/>
<path d="M261.932 131.417C261.932 131.417 273.415 126.955 269.911 137.418C266.407 147.881 261.753 151.774 260.47 149.454C259.187 147.134 261.932 131.417 261.932 131.417Z" fill="#DD988A"/>
<path d="M197.06 117.64C197.06 117.64 176.001 179.104 223.151 181.023C251.944 182.138 260.18 166.744 263.985 148.049C267.029 133.385 265.526 118.142 259.677 104.355C255.638 94.9846 249.488 86.1164 240.639 85.949C221.767 85.6032 204.861 92.6308 197.06 117.64Z" fill="#F4B19F"/>
<path d="M236.22 125.806C237.269 128.037 238.281 130.268 239.255 132.499C239.769 133.614 240.238 134.73 240.784 135.845C241.218 136.881 241.784 137.856 242.47 138.745C242.969 139.267 243.351 139.889 243.591 140.57C243.832 141.251 243.925 141.975 243.865 142.694C243.861 143.392 243.721 144.082 243.451 144.725C243.181 145.368 242.787 145.952 242.291 146.442C241.781 146.922 241.16 147.267 240.483 147.446C239.852 147.583 239.209 147.657 238.564 147.669C237.934 147.688 237.304 147.662 236.678 147.591C236.037 147.585 235.424 147.329 234.97 146.877C235.491 147.174 236.096 147.287 236.689 147.201C237.293 147.16 237.894 147.074 238.485 146.944C239.608 146.876 240.668 146.41 241.476 145.628C242.16 144.799 242.51 143.745 242.458 142.672C242.519 141.651 242.179 140.646 241.51 139.872C240.658 138.839 239.979 137.675 239.501 136.425C239.021 135.31 238.575 134.127 238.184 132.956C237.384 130.615 236.728 128.227 236.22 125.806Z" fill="#5A0604"/>
<path d="M231.801 94.6163C231.801 94.6163 235.494 99.7254 247.581 101.823C259.131 103.819 263.595 128.416 264.934 133.569C266.05 137.753 274.71 85.8709 246.364 80.8623C218.018 75.8537 231.801 94.6163 231.801 94.6163Z" fill="#5A0604"/>
<path d="M255.47 98.4538C255.47 98.4538 249.098 114.997 217.27 100.997C206.044 96.0555 192.15 134.25 192.462 139.571C192.775 144.892 190.565 86.3395 222.27 80.9405C253.975 75.5415 255.47 98.4538 255.47 98.4538Z" fill="#5A0604"/>
<path d="M225.864 118.744C222.27 118.164 214.894 117.428 210.764 120.317C210.704 120.369 210.627 120.395 210.548 120.391C210.469 120.387 210.394 120.354 210.339 120.297C210.283 120.241 210.252 120.165 210.25 120.086C210.248 120.007 210.277 119.93 210.329 119.871C211.702 117.93 213.934 115.532 216.635 115.342C219.98 115.322 223.279 116.135 226.232 117.707C226.348 117.771 226.437 117.874 226.484 117.998C226.531 118.121 226.533 118.257 226.489 118.382C226.444 118.507 226.357 118.612 226.243 118.678C226.128 118.744 225.994 118.768 225.864 118.744Z" fill="#5A0604"/>
<path d="M244.11 119.481C247.759 119.603 255.136 120.306 258.617 123.943C258.665 124.011 258.737 124.057 258.819 124.072C258.9 124.087 258.984 124.068 259.053 124.021C259.121 123.973 259.167 123.901 259.182 123.819C259.197 123.738 259.178 123.654 259.131 123.586C258.16 121.422 256.43 118.633 253.807 117.919C250.535 117.254 247.148 117.415 243.953 118.388C243.824 118.425 243.714 118.508 243.641 118.621C243.568 118.734 243.538 118.869 243.557 119.002C243.576 119.135 243.643 119.256 243.744 119.344C243.845 119.432 243.975 119.481 244.11 119.481Z" fill="#5A0604"/>
<path d="M220.976 131.718C222.714 131.718 224.123 130.309 224.123 128.572C224.123 126.835 222.714 125.426 220.976 125.426C219.238 125.426 217.829 126.835 217.829 128.572C217.829 130.309 219.238 131.718 220.976 131.718Z" fill="#5A0604"/>
<path d="M249.255 133.291C250.993 133.291 252.402 131.882 252.402 130.145C252.402 128.408 250.993 126.999 249.255 126.999C247.516 126.999 246.107 128.408 246.107 130.145C246.107 131.882 247.516 133.291 249.255 133.291Z" fill="#5A0604"/>
<path d="M226.187 158.278C227.117 159.172 228.174 159.923 229.323 160.509C230.429 161.076 231.642 161.407 232.883 161.479C234.129 161.53 235.374 161.367 236.566 160.999C237.179 160.832 237.771 160.553 238.385 160.341C238.998 160.129 239.557 159.784 240.193 159.527C239.702 159.984 239.188 160.408 238.652 160.821C238.083 161.196 237.486 161.527 236.867 161.814C235.595 162.382 234.208 162.649 232.816 162.595C231.433 162.504 230.098 162.059 228.937 161.303C227.776 160.547 226.829 159.505 226.187 158.278Z" fill="#5A0604"/>
<path d="M225.417 82.5914C225.63 82.5633 225.828 82.4655 225.979 82.3133C226.13 82.1612 226.227 81.9631 226.254 81.7503C226.28 81.5374 226.236 81.3217 226.127 81.1368C226.018 80.9519 225.851 80.8083 225.652 80.7285C222.705 79.613 222.616 81.0296 221.634 77.382C221.634 77.382 218.61 82.0558 221.556 82.6247C222.838 82.8038 224.139 82.7926 225.417 82.5914Z" fill="#5A0604"/>
<path d="M223.051 83.4837C222.836 83.4828 222.628 83.4109 222.459 83.2791C222.289 83.1474 222.168 82.9632 222.115 82.7554C222.061 82.5476 222.078 82.3279 222.162 82.1307C222.247 81.9335 222.395 81.7698 222.582 81.6654C225.372 80.2041 226.31 80.048 226.522 75.2848C226.522 75.2848 229.725 82.0782 226.879 83.0041C225.633 83.3478 224.343 83.5093 223.051 83.4837Z" fill="#5A0604"/>
<path d="M196.96 182.796C196.96 182.796 234.345 195.368 250.248 191.72L252.045 201.648L261.91 203.812C261.91 203.812 317.218 210.773 321.727 288.032L320.956 329.573L322.53 351.381L193.779 354.94H100.851C99.4565 354.943 98.0803 354.62 96.8329 353.996C95.5855 353.372 94.5018 352.465 93.6686 351.347C92.8353 350.229 92.2757 348.931 92.0347 347.558C91.7937 346.184 91.8779 344.774 92.2807 343.439L129.443 218.994C131.145 213.302 134.591 208.287 139.297 204.656C144.002 201.026 149.728 198.963 155.669 198.759L191.737 197.532L196.96 182.796Z" fill="url(#paint0_linear_3_725)"/>
<path d="M170.019 248.36L152.963 315.34L154.878 315.827L171.933 248.847L170.019 248.36Z" fill="white"/>
<path d="M215.128 221.158L191.079 198.257L192.44 196.829L215.061 218.336L230.216 201.916C230.186 201.289 230.227 200.66 230.339 200.042L232.292 200.276L232.203 202.675C232.482 205.519 234.234 210.405 242.548 213.16L252.279 200.064L253.875 201.247L243.307 215.469L242.637 215.268C234.178 212.68 231.399 207.973 230.551 204.47L215.128 221.158Z" fill="white"/>
<path d="M219.145 213.885L222.917 223.847L218.855 336.579L238.541 342.881L254.667 327.342L234.758 226.044L240.918 214.287L231.209 204.214L219.145 213.885Z" fill="white"/>
<path d="M238.809 343.997L217.851 337.304L221.935 224.025L217.973 213.573L231.298 202.886L242.134 214.119L235.807 226.211L255.749 327.722L238.809 343.997ZM219.837 335.865L238.24 341.754L253.551 327.008L233.686 225.899L239.668 214.454L231.086 205.53L220.283 214.186L223.877 223.668V223.858L219.837 335.865Z" fill="white"/>
<path d="M212.84 347.622H438.001C439.481 347.622 440.9 348.21 441.946 349.256C442.993 350.302 443.581 351.72 443.581 353.199V357.304H207.26V353.199C207.26 351.72 207.848 350.302 208.895 349.256C209.941 348.21 211.36 347.622 212.84 347.622Z" fill="#CDCECE"/>
<path d="M471.614 270.82L318.044 329.607C305.254 329.607 291.762 319.924 291.762 307.364L311.136 187.493C311.206 181.389 313.691 175.561 318.047 171.283C322.402 167.004 328.275 164.623 334.381 164.658L535.827 166.555C541.934 166.519 547.807 168.9 552.163 173.179C556.518 177.457 559.003 183.285 559.073 189.389L499.926 267.552C499.926 280.112 484.392 270.82 471.614 270.82Z" fill="#377CE9"/>
<path d="M524.21 330.198H322.764C316.604 330.18 310.702 327.727 306.346 323.373C301.991 319.019 299.536 313.119 299.518 306.962L318.892 184.983C318.909 178.825 321.364 172.926 325.72 168.572C330.075 164.218 335.978 161.764 342.138 161.747L543.583 163.688C549.743 163.705 555.645 166.159 560.001 170.513C564.357 174.867 566.811 180.766 566.829 186.924L547.467 306.962C547.449 313.121 544.993 319.023 540.635 323.377C536.277 327.731 530.372 330.183 524.21 330.198Z" fill="white"/>
<path d="M399.722 303.002L363.776 330.689L415.736 330.042L399.722 303.002Z" fill="#CDCECE"/>
<path d="M350.72 347.02L332.194 357.907H429.14L419.308 347.053C419.308 347.053 351.3 347.622 350.72 347.02Z" fill="#A9A9A9"/>
<path d="M399.722 303.013L423.236 356.825H473.277L447.821 303.482L399.722 303.013Z" fill="#E0E0E0"/>
<path d="M629.536 357.07H0V359.011H629.536V357.07Z" fill="#020A2D"/>
<path d="M451.95 258.613C453.544 249.973 448.67 241.833 441.063 240.43C433.456 239.028 425.997 244.895 424.403 253.534C422.809 262.174 427.683 270.314 435.29 271.717C442.897 273.119 450.355 267.252 451.95 258.613Z" stroke="#E0E0E0" stroke-width="2" stroke-miterlimit="10"/>
<path d="M591.581 61.9278L411.752 61.5514C404.091 61.5353 397.868 67.7301 397.852 75.3878L397.767 115.702C397.751 123.36 403.949 129.58 411.61 129.596L591.439 129.973C599.1 129.989 605.323 123.794 605.34 116.136L605.424 75.8224C605.44 68.1646 599.242 61.9439 591.581 61.9278Z" fill="white" stroke="#1C1B1A" stroke-width="2" stroke-miterlimit="10"/>
<path d="M587.074 98.4733L483.712 98.2569C480.378 98.2499 477.669 100.944 477.662 104.274C477.655 107.603 480.352 110.308 483.687 110.315L587.049 110.532C590.383 110.539 593.092 107.845 593.099 104.515C593.106 101.185 590.408 98.4803 587.074 98.4733Z" fill="#1C1B1A"/>
<path d="M585.727 81.0241L482.365 80.8077C479.03 80.8007 476.321 83.4945 476.315 86.8243C476.308 90.1542 479.005 92.8592 482.34 92.8662L585.701 93.0826C589.036 93.0896 591.744 90.3958 591.751 87.066C591.758 83.7361 589.061 81.0311 585.727 81.0241Z" fill="#1C1B1A"/>
<path d="M428.325 97.4497C429.273 97.4497 433.168 97.4498 434.106 97.5279C429.139 99.5804 427.901 105.035 427.889 109.397C427.879 109.954 427.924 110.511 428.024 111.059L414.855 111.204H414.643C414.419 111.166 414.201 111.098 413.996 111.003C413.795 110.916 413.624 110.773 413.505 110.59C413.323 110.296 413.238 109.953 413.259 109.609C413.443 107.013 414.456 104.546 416.149 102.57C418.314 99.9484 422.008 97.539 428.269 97.472L428.325 97.4497ZM432.677 113.937H432.465C432.235 113.9 432.012 113.824 431.807 113.714C431.599 113.601 431.429 113.43 431.316 113.223C431.109 112.847 431.005 112.424 431.014 111.996C431.032 108.851 431.895 105.769 433.514 103.072C434.809 101.078 436.559 99.4191 438.619 98.2317C440.68 97.0444 442.992 96.3623 445.368 96.2415C447.743 96.1206 450.113 96.5645 452.284 97.5366C454.454 98.5087 456.363 99.9813 457.854 101.834C459.731 104.343 460.889 107.316 461.202 110.434C461.259 110.858 461.201 111.29 461.034 111.683C460.943 111.903 460.792 112.092 460.599 112.23C460.402 112.355 460.188 112.449 459.963 112.509H459.74L432.632 113.892L432.677 113.937ZM454.45 88.827C453.813 89.7164 453.009 90.474 452.084 91.0579C451.154 91.631 450.118 92.0104 449.037 92.1734C447.952 92.358 446.84 92.3239 445.768 92.0731C444.697 91.8111 443.688 91.3411 442.799 90.6899C440.974 89.3618 439.743 87.3704 439.372 85.1445C439 82.9186 439.518 80.6359 440.813 78.7875C441.443 77.8922 442.248 77.1334 443.178 76.5565C444.111 75.9885 445.146 75.6095 446.225 75.441C448.415 75.0912 450.655 75.6248 452.452 76.9246C453.824 77.9204 454.873 79.2972 455.468 80.8838C456.063 82.4704 456.179 84.1968 455.8 85.8485C455.54 86.9169 455.082 87.9272 454.45 88.827ZM433.681 91.716C433.074 92.3523 432.346 92.8607 431.539 93.2113C430.732 93.5619 429.863 93.7477 428.983 93.7575C428.11 93.7686 427.245 93.6015 426.439 93.2666C425.605 92.9429 424.846 92.4533 424.207 91.8276C422.931 90.5555 422.21 88.8319 422.198 87.031C422.176 85.232 422.857 83.4955 424.095 82.1898C424.707 81.5613 425.434 81.0573 426.238 80.7061C427.038 80.3588 427.899 80.1731 428.771 80.1595C429.651 80.1485 430.524 80.3156 431.338 80.6504C432.154 80.9766 432.895 81.4662 433.514 82.0893C434.788 83.3608 435.513 85.0806 435.534 86.88C435.555 88.6794 434.87 90.4154 433.626 91.716H433.681Z" fill="#EFA3B2"/>
<path d="M604.966 32.9308L425.138 32.5543C417.477 32.5383 411.253 38.733 411.237 46.3908L411.153 86.7047C411.137 94.3625 417.334 100.583 424.995 100.599L604.824 100.976C612.485 100.992 618.709 94.797 618.725 87.1393L618.809 46.8253C618.825 39.1676 612.628 32.9468 604.966 32.9308Z" fill="white" stroke="#1C1B1A" stroke-width="2" stroke-miterlimit="10"/>
<path d="M600.471 69.465L497.109 69.2486C493.775 69.2416 491.066 71.9354 491.059 75.2652C491.052 78.5951 493.749 81.3002 497.084 81.3072L600.446 81.5235C603.78 81.5305 606.489 78.8368 606.496 75.5069C606.503 72.177 603.805 69.472 600.471 69.465Z" fill="#1C1B1A"/>
<path d="M601.983 46.0031H498.621C495.286 46.0031 492.583 48.7025 492.583 52.0323C492.583 55.3622 495.286 58.0616 498.621 58.0616H601.983C605.317 58.0616 608.02 55.3622 608.02 52.0323C608.02 48.7025 605.317 46.0031 601.983 46.0031Z" fill="#1C1B1A"/>
<path d="M441.717 68.4468C442.666 68.4468 446.56 68.4469 447.498 68.5249C442.532 70.5775 441.293 76.0321 441.282 80.3937C441.271 80.9508 441.316 81.5077 441.416 82.0559L428.247 82.2009H428.035C427.811 82.1629 427.594 82.0953 427.388 82.0001C427.187 81.9135 427.016 81.77 426.897 81.5874C426.715 81.2933 426.63 80.9504 426.651 80.6057C426.835 78.0104 427.848 75.5428 429.541 73.5669C431.706 70.9455 435.4 68.536 441.661 68.4691L441.717 68.4468ZM446.069 84.9339H445.857C445.627 84.8968 445.404 84.8214 445.199 84.7108C444.991 84.5979 444.821 84.4274 444.708 84.2199C444.501 83.8444 444.397 83.4212 444.406 82.9929C444.424 79.848 445.287 76.7657 446.906 74.0689C448.201 72.0749 449.951 70.4161 452.011 69.2288C454.072 68.0415 456.384 67.3594 458.76 67.2386C461.135 67.1177 463.505 67.5616 465.676 68.5337C467.846 69.5057 469.755 70.9784 471.246 72.8307C473.123 75.3401 474.281 78.3134 474.594 81.4312C474.651 81.8551 474.593 82.2867 474.426 82.6805C474.335 82.8998 474.184 83.0891 473.991 83.2271C473.794 83.3517 473.58 83.4458 473.355 83.506H473.132L446.024 84.8892L446.069 84.9339ZM467.842 59.824C467.205 60.7135 466.401 61.4711 465.476 62.055C464.546 62.6281 463.51 63.0075 462.429 63.1705C461.344 63.355 460.232 63.3209 459.16 63.0702C458.089 62.8082 457.08 62.3382 456.191 61.687C454.366 60.3588 453.135 58.3675 452.764 56.1416C452.392 53.9157 452.91 51.633 454.205 49.7846C454.835 48.8893 455.64 48.1305 456.57 47.5536C457.503 46.9856 458.538 46.6066 459.617 46.4381C461.807 46.0883 464.047 46.6218 465.844 47.9216C467.216 48.9174 468.265 50.2943 468.86 51.8809C469.455 53.4675 469.571 55.1939 469.192 56.8456C468.932 57.914 468.474 58.9243 467.842 59.824ZM447.073 62.7131C446.466 63.3494 445.738 63.8578 444.931 64.2084C444.124 64.559 443.255 64.7447 442.375 64.7546C441.502 64.7656 440.637 64.5985 439.831 64.2637C438.997 63.94 438.238 63.4504 437.599 62.8246C436.323 61.5526 435.602 59.829 435.59 58.0281C435.569 56.2291 436.249 54.4925 437.487 53.1869C438.099 52.5584 438.826 52.0544 439.63 51.7032C440.43 51.3559 441.291 51.1701 442.163 51.1566C443.043 51.1456 443.916 51.3126 444.73 51.6475C445.546 51.9737 446.287 52.4633 446.906 53.0864C448.18 54.3579 448.905 56.0777 448.926 57.8771C448.947 59.6765 448.262 61.4124 447.018 62.7131H447.073Z" fill="#EFA3B2"/>
<path d="M623.948 1.69201L444.119 1.31554C436.458 1.2995 430.235 7.49426 430.219 15.152L430.134 55.4659C430.118 63.1237 436.315 69.3446 443.977 69.3606L623.805 69.7371C631.466 69.7531 637.69 63.5582 637.706 55.9005L637.791 15.5866C637.807 7.9288 631.609 1.70805 623.948 1.69201Z" fill="white" stroke="#1C1B1A" stroke-width="2" stroke-miterlimit="10"/>
<path d="M619.44 38.2374L516.079 38.0211C512.744 38.0141 510.035 40.7078 510.028 44.0377C510.021 47.3676 512.719 50.0726 516.053 50.0796L619.415 50.296C622.75 50.303 625.458 47.6092 625.465 44.2794C625.472 40.9495 622.775 38.2444 619.44 38.2374Z" fill="#1C1B1A"/>
<path d="M620.888 14.7245H517.525C514.191 14.7245 511.488 17.4239 511.488 20.7538C511.488 24.0836 514.191 26.7831 517.525 26.7831H620.888C624.222 26.7831 626.925 24.0836 626.925 20.7538C626.925 17.4239 624.222 14.7245 620.888 14.7245Z" fill="#1C1B1A"/>
<path d="M460.689 37.2129C461.637 37.2129 465.532 37.213 466.469 37.2911C461.503 39.3436 460.264 44.7982 460.253 49.1598C460.242 49.7169 460.287 50.2738 460.387 50.822L447.219 50.967H447.007C446.783 50.929 446.565 50.8614 446.359 50.7662C446.159 50.6796 445.988 50.5361 445.868 50.3535C445.687 50.0594 445.601 49.7165 445.623 49.3718C445.807 46.7765 446.82 44.3089 448.513 42.333C450.678 39.7116 454.372 37.3022 460.633 37.2352L460.689 37.2129ZM465.041 53.7H464.829C464.598 53.6629 464.376 53.5876 464.17 53.4769C463.963 53.364 463.792 53.1935 463.679 52.986C463.473 52.6105 463.369 52.1874 463.378 51.759C463.396 48.6141 464.259 45.5318 465.878 42.835C467.173 40.841 468.922 39.1822 470.983 37.9949C473.043 36.8076 475.356 36.1255 477.731 36.0047C480.107 35.8838 482.477 36.3277 484.647 37.2998C486.818 38.2719 488.727 39.7445 490.217 41.5969C492.095 44.1062 493.252 47.0795 493.565 50.1973C493.623 50.6212 493.565 51.0528 493.398 51.4466C493.307 51.6659 493.156 51.8552 492.963 51.9932C492.766 52.1178 492.551 52.2119 492.327 52.2721H492.103L464.996 53.6553L465.041 53.7ZM486.814 28.5901C486.177 29.4796 485.373 30.2372 484.448 30.8211C483.518 31.3942 482.481 31.7736 481.401 31.9366C480.315 32.1211 479.204 32.087 478.131 31.8363C477.061 31.5743 476.052 31.1043 475.163 30.4531C473.338 29.1249 472.107 27.1336 471.735 24.9077C471.364 22.6818 471.881 20.3991 473.176 18.5507C473.807 17.6554 474.611 16.8966 475.542 16.3197C476.475 15.7517 477.51 15.3727 478.589 15.2042C480.779 14.8544 483.019 15.3879 484.816 16.6877C486.188 17.6836 487.236 19.0604 487.832 20.647C488.427 22.2336 488.542 23.96 488.164 25.6117C487.904 26.6801 487.446 27.6904 486.814 28.5901ZM466.045 31.4792C465.438 32.1155 464.709 32.6239 463.903 32.9745C463.096 33.3251 462.227 33.5108 461.347 33.5207C460.474 33.5317 459.608 33.3647 458.802 33.0298C457.969 32.7061 457.209 32.2165 456.57 31.5908C455.295 30.3187 454.573 28.5951 454.562 26.7942C454.54 24.9952 455.221 23.2587 456.459 21.953C457.07 21.3245 457.798 20.8205 458.602 20.4693C459.402 20.122 460.263 19.9362 461.135 19.9227C462.015 19.9117 462.888 20.0787 463.702 20.4136C464.518 20.7398 465.258 21.2294 465.878 21.8525C467.152 23.124 467.877 24.8438 467.898 26.6432C467.919 28.4426 467.234 30.1785 465.99 31.4792H466.045Z" fill="#EFA3B2"/>
</g>
<defs>
<linearGradient id="paint0_linear_3_725" x1="322.53" y1="268.868" x2="91.9012" y2="268.868" gradientUnits="userSpaceOnUse">
<stop stop-color="#F4AC2A"/>
<stop offset="1" stop-color="#EB6C00"/>
</linearGradient>
<clipPath id="clip0_3_725">
<rect width="639" height="359" fill="white"/>
</clipPath>
</defs>
</svg>
