<svg width="839" height="426" viewBox="0 0 839 426" fill="none" xmlns="http://www.w3.org/2000/svg">
<g clip-path="url(#clip0_510:702)">
<path d="M704.176 300.198L710.688 315.985L674.738 315.956L677.247 302.074L704.176 300.198Z" fill="#F4B19F"/>
<path d="M350 348H499" stroke="black" stroke-width="3" stroke-linecap="round" stroke-linejoin="round" stroke-dasharray="1 10"/>
<path d="M425 348L425 144" stroke="black" stroke-width="3" stroke-linecap="round" stroke-linejoin="round" stroke-dasharray="1 10"/>
<path d="M707.62 299.439L704.934 303.642C702.675 306.137 695.104 309.663 690.218 311.878C688.862 312.507 687.448 313 685.995 313.35L674.716 315.986L677.232 302.104L707.62 299.439Z" fill="#DD988A"/>
<path d="M709.032 270.035C709.032 270.035 717.766 263.691 717.126 273.347C716.486 283.004 713.403 287.332 711.791 285.654C710.18 283.976 709.032 270.035 709.032 270.035Z" fill="#DD988A"/>
<path d="M666.313 275.305C666.313 275.305 658.742 272.361 661.052 279.257C663.363 286.154 666.431 288.737 667.277 287.206C668.123 285.676 666.313 275.305 666.313 275.305Z" fill="#DD988A"/>
<path d="M709.084 266.215C709.084 266.215 722.968 306.763 691.881 308.029C672.898 308.765 667.468 298.615 664.959 286.272C662.95 276.599 663.941 266.543 667.799 257.449C670.463 251.266 674.517 245.415 680.351 245.304C692.793 245.076 703.941 249.698 709.084 266.215Z" fill="#F4B19F"/>
<path d="M683.28 271.595C682.588 273.068 681.919 274.54 681.271 276.012C680.94 276.748 680.624 277.484 680.27 278.22C679.985 278.901 679.611 279.542 679.159 280.126C678.831 280.472 678.579 280.884 678.42 281.334C678.262 281.784 678.2 282.263 678.24 282.739C678.24 283.199 678.332 283.654 678.509 284.078C678.685 284.503 678.944 284.888 679.27 285.212C679.61 285.527 680.021 285.755 680.469 285.874C680.886 285.961 681.309 286.01 681.735 286.022C682.15 286.034 682.565 286.017 682.978 285.97C683.4 285.963 683.803 285.794 684.104 285.499C683.761 285.695 683.362 285.77 682.971 285.713C682.572 285.685 682.176 285.629 681.786 285.543C681.046 285.498 680.347 285.19 679.814 284.675C679.363 284.125 679.132 283.427 679.167 282.717C679.127 282.043 679.352 281.381 679.792 280.869C680.355 280.192 680.803 279.426 681.117 278.602C681.433 277.866 681.727 277.086 681.985 276.313C682.512 274.769 682.944 273.193 683.28 271.595Z" fill="#5A0604"/>
<path d="M686.179 251.023C686.179 251.023 683.744 254.394 675.775 255.771C668.16 257.095 665.217 273.318 664.334 276.725C663.598 279.486 657.888 245.245 676.577 241.948C695.266 238.651 686.179 251.023 686.179 251.023Z" fill="#5A0604"/>
<path d="M670.573 253.555C670.573 253.555 674.775 264.47 695.759 255.233C703.161 251.973 712.321 277.174 712.115 280.685C711.909 284.196 713.366 245.562 692.463 241.992C671.559 238.422 670.573 253.555 670.573 253.555Z" fill="#5A0604"/>
<path d="M690.093 266.944C692.462 266.554 697.326 266.075 700.048 267.981C700.088 268.015 700.139 268.033 700.191 268.03C700.243 268.028 700.293 268.005 700.329 267.968C700.365 267.931 700.386 267.881 700.387 267.829C700.389 267.777 700.37 267.726 700.335 267.687C699.43 266.406 697.959 264.816 696.178 264.691C693.972 264.681 691.797 265.22 689.85 266.259C689.774 266.301 689.715 266.369 689.684 266.451C689.653 266.532 689.652 266.622 689.681 266.704C689.71 266.787 689.768 266.856 689.843 266.9C689.919 266.943 690.007 266.959 690.093 266.944Z" fill="#5A0604"/>
<path d="M678.063 267.429C675.657 267.51 670.794 267.974 668.498 270.374C668.465 270.411 668.42 270.434 668.37 270.441C668.321 270.447 668.271 270.435 668.23 270.407C668.188 270.379 668.159 270.337 668.146 270.289C668.133 270.241 668.138 270.19 668.16 270.145C668.8 268.718 669.94 266.87 671.662 266.406C673.822 265.966 676.058 266.073 678.166 266.716C678.246 266.744 678.314 266.799 678.358 266.872C678.401 266.945 678.419 267.031 678.406 267.115C678.394 267.199 678.354 267.276 678.291 267.333C678.228 267.391 678.148 267.425 678.063 267.429V267.429Z" fill="#5A0604"/>
<path d="M693.309 275.496C694.455 275.496 695.384 274.567 695.384 273.421C695.384 272.275 694.455 271.345 693.309 271.345C692.163 271.345 691.234 272.275 691.234 273.421C691.234 274.567 692.163 275.496 693.309 275.496Z" fill="#5A0604"/>
<path d="M674.664 276.534C675.81 276.534 676.739 275.605 676.739 274.458C676.739 273.312 675.81 272.383 674.664 272.383C673.518 272.383 672.589 273.312 672.589 274.458C672.589 275.605 673.518 276.534 674.664 276.534Z" fill="#5A0604"/>
<path d="M689.902 293.029C689.479 293.84 688.855 294.529 688.09 295.03C687.325 295.531 686.444 295.828 685.532 295.892C684.613 295.929 683.698 295.75 682.861 295.369C682.451 295.186 682.058 294.969 681.683 294.721C681.33 294.449 680.992 294.169 680.668 293.868C681.087 294.03 681.47 294.228 681.86 294.405C682.25 294.582 682.647 294.729 683.059 294.832C683.844 295.08 684.665 295.19 685.487 295.156C686.306 295.108 687.105 294.89 687.834 294.515C688.592 294.122 689.288 293.621 689.902 293.029V293.029Z" fill="#5A0604"/>
<path d="M690.388 243.074C690.247 243.055 690.117 242.991 690.017 242.891C689.918 242.79 689.854 242.659 689.836 242.519C689.819 242.379 689.848 242.236 689.92 242.114C689.992 241.992 690.102 241.898 690.233 241.845C692.176 241.109 692.235 242.036 692.882 239.637C692.882 239.637 694.876 242.713 692.934 243.096C692.088 243.214 691.23 243.207 690.388 243.074V243.074Z" fill="#5A0604"/>
<path d="M691.948 243.67C692.089 243.67 692.226 243.622 692.338 243.535C692.45 243.448 692.53 243.327 692.565 243.19C692.6 243.053 692.589 242.908 692.533 242.778C692.478 242.647 692.38 242.54 692.257 242.471C690.41 241.514 689.799 241.403 689.659 238.268C689.659 238.268 687.548 242.75 689.424 243.361C690.246 243.586 691.096 243.69 691.948 243.67V243.67Z" fill="#5A0604"/>
<path d="M709.15 309.207C709.15 309.207 684.501 317.494 674.016 315.095L672.832 321.645L666.328 323.073C666.328 323.073 629.863 327.659 626.89 378.644L627.398 406.053L626.36 420.436L711.247 422.783H772.515C773.434 422.785 774.34 422.572 775.162 422.161C775.984 421.75 776.698 421.152 777.247 420.415C777.796 419.678 778.165 418.823 778.325 417.918C778.485 417.013 778.43 416.083 778.166 415.202L753.664 333.091C752.543 329.334 750.271 326.025 747.169 323.629C744.067 321.233 740.29 319.873 736.374 319.739L712.593 318.93L709.15 309.207Z" fill="#FAA711"/>
<path d="M726.898 352.484L725.636 352.806L736.881 397.001L738.143 396.68L726.898 352.484Z" fill="white"/>
<path d="M745.147 396.283L744.922 395L700 402.853L700.224 404.136L745.147 396.283Z" fill="white"/>
<path d="M697.171 334.511L713.042 319.408L712.144 318.466L697.26 332.657L687.238 321.83C687.259 321.416 687.232 321.001 687.158 320.593L685.87 320.74L685.929 322.33C685.745 324.207 684.59 327.431 679.108 329.249L672.692 320.608L671.64 321.388L678.608 330.772L679.049 330.64C684.626 328.932 686.459 325.819 687.018 323.515L697.171 334.511Z" fill="white"/>
<path d="M694.515 329.712L692.028 336.293L694.707 410.668L681.727 414.827L671.095 404.574L684.222 337.743L680.16 329.977L686.562 323.331L694.515 329.712Z" fill="white"/>
<path d="M670.389 404.802L683.538 337.823L679.366 329.852L686.51 322.44L695.295 329.491L692.683 336.381L695.376 411.125L681.558 415.541L670.389 404.802ZM691.374 336.315V336.182L693.743 329.926L686.62 324.214L680.962 330.102L684.906 337.647L671.809 404.361L681.904 414.098L694.037 410.205L691.374 336.315Z" fill="white"/>
<path d="M702.351 424.881H546.543V422.18C546.543 421.204 546.931 420.268 547.62 419.578C548.31 418.887 549.246 418.5 550.222 418.5H698.672C699.648 418.5 700.584 418.887 701.274 419.578C701.964 420.268 702.351 421.204 702.351 422.18V424.888V424.881Z" fill="#CDCECE"/>
<path d="M528.068 367.817L629.318 406.606C637.75 406.606 646.646 400.217 646.646 391.929L633.873 312.835C633.826 308.808 632.188 304.963 629.316 302.14C626.445 299.317 622.573 297.745 618.546 297.769L485.731 299.02C481.705 298.998 477.835 300.57 474.963 303.393C472.092 306.216 470.453 310.06 470.405 314.087L509.401 365.66C509.401 373.948 519.643 367.817 528.068 367.817Z" fill="#377CE9"/>
<path d="M493.39 406.996H626.213C630.274 406.984 634.166 405.365 637.037 402.492C639.909 399.62 641.528 395.727 641.539 391.664L628.766 311.179C628.754 307.117 627.136 303.224 624.264 300.351C621.393 297.478 617.501 295.859 613.44 295.848L480.617 297.128C476.557 297.14 472.666 298.759 469.795 301.632C466.925 304.505 465.308 308.398 465.298 312.46L478.064 391.664C478.076 395.727 479.694 399.62 482.566 402.492C485.438 405.365 489.329 406.984 493.39 406.996V406.996Z" fill="#E0E0E0"/>
<path d="M575.459 389.051L599.158 407.32L564.901 406.893L575.459 389.051Z" fill="#CDCECE"/>
<path d="M607.774 418.095L619.981 425.286H556.071L562.553 418.117C562.553 418.117 607.392 418.485 607.774 418.095Z" fill="#A9A9A9"/>
<path d="M575.459 389.059L559.956 424.565H526.964L543.747 389.368L575.459 389.059Z" fill="#E0E0E0"/>
<path d="M423.941 426L839 426V424.719L423.941 424.719V426Z" fill="#020A2D"/>
<path d="M551.835 368.671C556.851 367.746 560.064 362.375 559.013 356.674C557.962 350.974 553.045 347.103 548.029 348.028C543.014 348.953 539.8 354.325 540.852 360.025C541.903 365.726 546.82 369.597 551.835 368.671Z" stroke="#F9F9F9" stroke-width="2" stroke-miterlimit="10"/>
<path d="M119.674 260.084L114.597 264.537C113.776 265.263 113.146 266.18 112.761 267.206C112.376 268.233 112.249 269.338 112.39 270.425L113.472 278.521C113.606 279.542 113.504 280.58 113.173 281.555C112.843 282.53 112.293 283.416 111.566 284.145L101.449 294.258C100.295 295.41 99.6021 296.944 99.4993 298.571L99.0798 304.996C98.7634 309.817 117.805 315.051 122.352 313.417L159.141 293.367C159.973 293.068 160.738 292.607 161.391 292.011C162.044 291.416 162.573 290.697 162.948 289.896C163.323 289.095 163.535 288.228 163.574 287.345C163.613 286.461 163.477 285.579 163.173 284.748V284.748C162.743 283.57 162.651 282.295 162.909 281.068L164.292 274.591C164.615 273.087 164.411 271.518 163.715 270.147C163.018 268.776 161.871 267.686 160.466 267.061L153.049 263.757C152.56 263.539 152.046 263.381 151.519 263.286L125.332 258.523C124.333 258.335 123.303 258.378 122.323 258.648C121.342 258.918 120.436 259.41 119.674 260.084Z" fill="#5A0604"/>
<path d="M125.56 248.896L120.491 253.312C119.67 254.039 119.04 254.956 118.655 255.982C118.271 257.008 118.143 258.113 118.284 259.201L119.365 267.297C119.5 268.319 119.397 269.358 119.067 270.334C118.737 271.31 118.187 272.198 117.46 272.928L107.343 283.041C106.191 284.191 105.497 285.722 105.393 287.346L104.959 293.86C104.886 294.971 105.09 296.082 105.554 297.093C106.017 298.105 106.725 298.985 107.614 299.654C108.502 300.324 109.543 300.762 110.643 300.929C111.742 301.095 112.866 300.986 113.913 300.61L164.998 282.209C165.829 281.908 166.592 281.446 167.244 280.85C167.896 280.254 168.424 279.535 168.797 278.734C169.171 277.934 169.384 277.067 169.422 276.185C169.461 275.302 169.325 274.42 169.023 273.59C168.592 272.412 168.5 271.137 168.758 269.91L170.149 263.433C170.471 261.929 170.266 260.36 169.57 258.99C168.873 257.619 167.727 256.529 166.323 255.903L158.899 252.591C158.408 252.377 157.894 252.219 157.368 252.12L131.189 247.365C130.196 247.18 129.174 247.221 128.2 247.486C127.225 247.751 126.323 248.233 125.56 248.896V248.896Z" fill="#5A0604"/>
<path d="M171.017 258.207L175.917 262.844C176.721 263.601 177.326 264.546 177.675 265.594C178.024 266.643 178.108 267.761 177.918 268.85L176.55 276.932C176.376 277.946 176.438 278.987 176.732 279.974C177.025 280.961 177.542 281.867 178.242 282.621L187.977 293.102C189.085 294.297 189.723 295.853 189.772 297.482L189.948 303.922C190.088 308.75 162.879 311.716 158.398 309.913L130.38 290.04C129.562 289.708 128.818 289.218 128.191 288.597C127.563 287.977 127.064 287.239 126.722 286.425C126.38 285.611 126.203 284.738 126.199 283.855C126.195 282.973 126.366 282.098 126.701 281.281V281.281C127.178 280.117 127.315 278.841 127.098 277.601L125.95 271.073C125.691 269.561 125.958 268.007 126.705 266.668C127.452 265.329 128.634 264.286 130.056 263.712L137.591 260.68C138.09 260.481 138.611 260.343 139.143 260.268L165.476 256.477C166.47 256.333 167.484 256.413 168.443 256.713C169.402 257.012 170.281 257.523 171.017 258.207V258.207Z" fill="#5A0604"/>
<path d="M165.587 246.82L170.487 251.45C171.288 252.21 171.889 253.155 172.238 254.203C172.587 255.25 172.673 256.368 172.488 257.456L171.112 265.501C170.939 266.517 171.003 267.56 171.297 268.548C171.592 269.536 172.11 270.443 172.812 271.198L182.546 281.679C183.653 282.871 184.288 284.425 184.334 286.051L184.518 292.491C184.55 293.604 184.304 294.707 183.803 295.701C183.302 296.695 182.561 297.549 181.648 298.185C180.735 298.821 179.677 299.22 178.572 299.345C177.466 299.47 176.346 299.318 175.314 298.902L124.95 278.654C124.132 278.321 123.388 277.83 122.76 277.209C122.132 276.588 121.633 275.849 121.292 275.034C120.95 274.22 120.772 273.346 120.769 272.463C120.765 271.58 120.936 270.705 121.271 269.888V269.888C121.748 268.723 121.886 267.447 121.668 266.208L120.528 259.686C120.265 258.175 120.529 256.62 121.275 255.281C122.021 253.941 123.204 252.898 124.626 252.326L132.168 249.293C132.665 249.095 133.184 248.955 133.713 248.874L160.054 245.091C161.047 244.947 162.059 245.028 163.017 245.327C163.974 245.626 164.852 246.137 165.587 246.82V246.82Z" fill="#5A0604"/>
<path d="M129.666 299.469L123.022 315.573L159.7 315.544L157.14 301.382L129.666 299.469Z" fill="#CA8A72"/>
<path d="M126.156 298.696L128.901 302.98C131.204 305.534 138.929 309.133 143.896 311.393C145.28 312.022 146.721 312.515 148.2 312.865L159.708 315.559L157.147 301.397L126.156 298.696Z" fill="#BC715A"/>
<path d="M124.707 268.696C124.707 268.696 115.789 262.218 116.452 272.074C117.114 281.929 120.248 286.346 121.896 284.631C123.544 282.916 124.707 268.696 124.707 268.696Z" fill="#BC715A"/>
<path d="M168.302 274.068C168.302 274.068 176.035 271.051 173.673 278.109C171.311 285.168 168.191 287.773 167.316 286.206C166.44 284.638 168.302 274.068 168.302 274.068Z" fill="#BC715A"/>
<path d="M169.788 286.095C170.373 286.095 170.848 285.621 170.848 285.035C170.848 284.45 170.373 283.975 169.788 283.975C169.203 283.975 168.729 284.45 168.729 285.035C168.729 285.621 169.203 286.095 169.788 286.095Z" fill="#FBF1E1"/>
<path d="M124.663 264.795C124.663 264.795 110.499 306.167 142.219 307.484C161.584 308.272 167.125 297.916 169.685 285.286C171.74 275.406 170.728 265.134 166.786 255.844C164.071 249.537 159.936 243.567 153.984 243.457C141.291 243.229 129.916 247.962 124.663 264.795Z" fill="#CB8770"/>
<path d="M151.004 270.307C151.739 271.779 152.394 273.325 153.057 274.827C153.395 275.563 153.711 276.335 154.079 277.035C154.371 277.731 154.751 278.387 155.212 278.985C155.547 279.337 155.803 279.756 155.965 280.214C156.128 280.671 156.192 281.158 156.154 281.642C156.149 282.591 155.768 283.499 155.094 284.167C154.751 284.492 154.331 284.726 153.873 284.844C153.449 284.933 153.018 284.985 152.586 284.998C152.163 285.011 151.74 284.994 151.32 284.947C150.887 284.94 150.473 284.766 150.165 284.461C150.517 284.663 150.926 284.741 151.327 284.682C151.733 284.652 152.136 284.593 152.534 284.505C153.288 284.463 154.002 284.15 154.543 283.622C155.001 283.061 155.237 282.351 155.205 281.628C155.247 280.94 155.017 280.263 154.565 279.743C153.991 279.053 153.536 278.272 153.218 277.432C152.895 276.652 152.593 275.879 152.328 275.092C151.791 273.525 151.349 271.927 151.004 270.307V270.307Z" fill="#5A0604"/>
<path d="M148.031 249.294C148.031 249.294 150.518 252.738 158.656 254.144C166.426 255.491 169.42 272.044 170.318 275.489C171.054 278.308 176.94 243.376 157.81 240.012C138.871 236.693 148.031 249.294 148.031 249.294Z" fill="#5A0604"/>
<path d="M149.65 249.029C149.65 249.029 146.059 252.488 139.739 250.964C131.712 249.021 121.344 275.989 121.573 279.559C121.801 283.129 120.3 243.722 141.63 240.086C162.96 236.45 149.65 249.029 149.65 249.029Z" fill="#5A0604"/>
<path d="M144.043 265.538C141.623 265.148 136.685 264.655 133.882 266.598C133.841 266.623 133.792 266.633 133.744 266.626C133.696 266.619 133.651 266.597 133.618 266.562C133.584 266.526 133.564 266.481 133.56 266.433C133.556 266.384 133.568 266.336 133.595 266.296C134.515 264.993 136.016 263.352 137.833 263.241C140.083 263.23 142.301 263.779 144.286 264.839C144.364 264.881 144.424 264.95 144.456 265.033C144.488 265.116 144.489 265.207 144.46 265.291C144.431 265.375 144.373 265.445 144.297 265.491C144.22 265.536 144.131 265.553 144.043 265.538V265.538Z" fill="#5A0604"/>
<path d="M156.316 266.031C158.766 266.112 163.733 266.59 166.08 269.034C166.115 269.069 166.161 269.09 166.21 269.094C166.259 269.098 166.308 269.086 166.349 269.058C166.39 269.03 166.42 268.989 166.434 268.942C166.448 268.895 166.445 268.844 166.426 268.799C165.771 267.326 164.616 265.457 162.85 264.979C160.65 264.539 158.376 264.647 156.228 265.295C156.142 265.32 156.068 265.374 156.018 265.448C155.969 265.523 155.948 265.612 155.958 265.701C155.969 265.789 156.011 265.871 156.076 265.932C156.142 265.992 156.227 266.028 156.316 266.031V266.031Z" fill="#5A0604"/>
<path d="M140.754 274.267C141.925 274.267 142.873 273.318 142.873 272.147C142.873 270.977 141.925 270.028 140.754 270.028C139.584 270.028 138.635 270.977 138.635 272.147C138.635 273.318 139.584 274.267 140.754 274.267Z" fill="#5A0604"/>
<path d="M159.781 275.327C160.952 275.327 161.9 274.378 161.9 273.207C161.9 272.036 160.952 271.087 159.781 271.087C158.611 271.087 157.662 272.036 157.662 273.207C157.662 274.378 158.611 275.327 159.781 275.327Z" fill="#5A0604"/>
<g style="mix-blend-mode:multiply" opacity="0.18">
<g style="mix-blend-mode:multiply" opacity="0.18">
<path d="M150.495 281.171C150.7 279.979 148.801 278.659 146.254 278.222C143.708 277.784 141.478 278.395 141.273 279.587C141.069 280.778 142.967 282.098 145.514 282.535C148.06 282.973 150.291 282.362 150.495 281.171Z" fill="#EC504B"/>
</g>
</g>
<g style="mix-blend-mode:multiply" opacity="0.18">
<g style="mix-blend-mode:multiply" opacity="0.18">
<path d="M168.177 287.104C168.199 285.901 166.132 284.887 163.561 284.84C160.989 284.792 158.886 285.729 158.864 286.932C158.841 288.135 160.908 289.148 163.48 289.196C166.052 289.244 168.155 288.307 168.177 287.104Z" fill="#EC504B"/>
</g>
</g>
<path d="M120.064 285.882C120.845 285.882 121.477 285.249 121.477 284.469C121.477 283.688 120.845 283.055 120.064 283.055C119.284 283.055 118.652 283.688 118.652 284.469C118.652 285.249 119.284 285.882 120.064 285.882Z" fill="#FBF1E1"/>
<path d="M124.597 308.662C124.597 308.662 149.745 317.119 160.444 314.653L161.658 321.336L168.28 322.808C168.28 322.808 205.481 327.49 208.519 379.483L208.004 407.452L209.064 422.128L122.448 424.521H59.907C58.9697 424.522 58.045 424.304 57.2068 423.884C56.3686 423.464 55.6401 422.854 55.0796 422.103C54.5191 421.351 54.1422 420.479 53.9788 419.555C53.8154 418.632 53.87 417.683 54.1385 416.785L79.1549 333.01C80.3049 329.177 82.627 325.801 85.7945 323.358C88.9621 320.914 92.8158 319.525 96.8136 319.386L121.094 318.562L124.597 308.662Z" fill="#FACE80"/>
<path d="M106.466 352.798L94.9946 397.885L96.2853 398.214L107.757 353.127L106.466 352.798Z" fill="white"/>
<path d="M136.818 334.482L120.631 319.069L121.551 318.105L136.766 332.583L146.964 321.543C146.944 321.121 146.971 320.699 147.045 320.284L148.362 320.439L148.296 322.058C148.487 323.971 149.665 327.261 155.257 329.116L161.805 320.284L162.872 321.079L155.764 330.647L155.315 330.515C149.628 328.77 147.759 325.598 147.222 323.243L136.818 334.482Z" fill="white"/>
<path d="M139.526 329.587L142.064 336.293L139.327 412.185L152.571 416.424L163.416 405.965L150.025 337.772L154.168 329.86L147.634 323.073L139.526 329.587Z" fill="white"/>
<path d="M152.784 417.182L138.687 412.663L141.431 336.403L138.768 329.374L147.729 322.175L155.021 329.742L150.768 337.875L164.181 406.193L152.784 417.182ZM140.055 411.706L152.431 415.673L162.732 405.744L149.37 337.676L153.395 329.977L147.619 323.979L140.357 329.801L142.778 336.182V336.322L140.055 411.706Z" fill="white"/>
<path d="M143.697 418.308H296.003C296.979 418.308 297.915 418.696 298.605 419.386C299.295 420.076 299.682 421.012 299.682 421.989V424.852H140.019V421.989C140.019 421.012 140.406 420.076 141.096 419.386C141.786 418.696 142.722 418.308 143.697 418.308V418.308Z" fill="#CDCECE"/>
<path d="M318.592 366.382L214.847 406.127C206.216 406.127 197.1 399.584 197.1 391.09L210.175 310.053C210.22 305.924 211.896 301.981 214.838 299.085C217.78 296.188 221.749 294.575 225.876 294.596L361.995 295.884C366.125 295.859 370.096 297.471 373.04 300.368C375.984 303.265 377.661 307.21 377.704 311.341L337.744 364.181C337.722 372.667 327.23 366.382 318.592 366.382Z" fill="#F4ACB6"/>
<path d="M354.123 406.532H218.004C213.844 406.518 209.858 404.859 206.916 401.916C203.974 398.974 202.316 394.986 202.302 390.825L215.392 308.389C215.403 304.227 217.061 300.239 220.003 297.296C222.946 294.353 226.932 292.694 231.093 292.683L367.212 293.993C371.373 294.004 375.36 295.663 378.302 298.606C381.244 301.549 382.902 305.538 382.914 309.7L369.839 390.825C369.825 394.989 368.165 398.979 365.22 401.922C362.275 404.865 358.285 406.522 354.123 406.532V406.532Z" fill="#E0E0E0"/>
<path d="M270.03 388.146L245.75 406.863L280.854 406.421L270.03 388.146Z" fill="#CDCECE"/>
<path d="M236.921 417.904L224.412 425.264H289.897L283.275 417.904C283.275 417.904 237.318 418.301 236.921 417.904Z" fill="#A9A9A9"/>
<path d="M270.031 388.146L285.916 424.528H319.718L302.522 388.462L270.031 388.146Z" fill="#E0E0E0"/>
<path d="M425.28 424.69H0V426H425.28V424.69Z" fill="#020A2D"/>
<path d="M293.686 361.575C298.765 361.575 302.883 357.456 302.883 352.375C302.883 347.293 298.765 343.174 293.686 343.174C288.606 343.174 284.489 347.293 284.489 352.375C284.489 357.456 288.606 361.575 293.686 361.575Z" stroke="#F9F9F9" stroke-width="2" stroke-miterlimit="10"/>
<path d="M155.617 292.153C155.194 292.964 154.569 293.652 153.804 294.154C153.039 294.655 152.159 294.952 151.246 295.016C150.326 295.051 149.41 294.875 148.568 294.501C148.163 294.31 147.773 294.091 147.398 293.846C147.045 293.573 146.707 293.294 146.383 292.992C146.795 293.154 147.185 293.353 147.575 293.529C147.965 293.706 148.362 293.853 148.767 293.956C149.554 294.205 150.378 294.314 151.202 294.28C152.021 294.232 152.82 294.014 153.55 293.64C154.307 293.246 155.003 292.746 155.617 292.153Z" fill="#5A0604"/>
<path d="M362.099 231.025L243.536 230.776C238.485 230.766 234.382 234.853 234.371 239.906L234.315 266.506C234.305 271.559 238.391 275.663 243.442 275.674L362.005 275.922C367.056 275.933 371.159 271.845 371.17 266.793L371.225 240.193C371.236 235.14 367.15 231.035 362.099 231.025Z" fill="white" stroke="#1C1B1A" stroke-width="2" stroke-miterlimit="10"/>
<path d="M362.165 253.574H294.017C291.818 253.574 290.036 255.355 290.036 257.552C290.036 259.75 291.818 261.531 294.017 261.531H362.165C364.363 261.531 366.145 259.75 366.145 257.552C366.145 255.355 364.363 253.574 362.165 253.574Z" fill="#1C1B1A"/>
<path d="M358.254 243.625L290.106 243.482C287.908 243.477 286.122 245.255 286.117 247.452C286.113 249.649 287.891 251.434 290.09 251.438L358.237 251.581C360.435 251.586 362.221 249.808 362.226 247.611C362.231 245.414 360.452 243.629 358.254 243.625Z" fill="#1C1B1A"/>
<path d="M254.506 254.438C255.131 254.438 257.699 254.438 258.317 254.497C255.043 255.852 254.226 259.451 254.219 262.321C254.211 262.689 254.241 263.056 254.307 263.418L245.625 263.521H245.492C245.345 263.498 245.201 263.456 245.065 263.396C244.934 263.337 244.822 263.242 244.742 263.124C244.627 262.925 244.57 262.698 244.58 262.468C244.703 260.759 245.371 259.133 246.486 257.832C247.913 256.102 250.348 254.512 254.476 254.46L254.506 254.438ZM257.375 265.317H257.265C257.113 265.295 256.966 265.248 256.83 265.177C256.693 265.1 256.581 264.985 256.507 264.846C256.37 264.598 256.301 264.319 256.308 264.036C256.321 261.961 256.89 259.928 257.956 258.148C258.812 256.835 259.966 255.743 261.325 254.962C262.683 254.18 264.207 253.731 265.772 253.651C267.337 253.572 268.899 253.864 270.329 254.503C271.76 255.143 273.019 256.112 274.004 257.331C275.239 258.988 276.002 260.949 276.211 263.006C276.249 263.285 276.211 263.57 276.101 263.83C276.041 263.975 275.941 264.1 275.814 264.191C275.684 264.275 275.543 264.34 275.394 264.382H275.247L257.375 265.288V265.317ZM271.701 248.778C271.281 249.365 270.751 249.865 270.141 250.25C269.217 250.833 268.139 251.125 267.047 251.086C265.955 251.048 264.9 250.683 264.019 250.037C262.816 249.161 262.004 247.847 261.759 246.378C261.514 244.909 261.855 243.403 262.709 242.183C263.124 241.588 263.653 241.081 264.266 240.691C264.879 240.302 265.563 240.039 266.278 239.916C266.995 239.803 267.727 239.831 268.434 239.997C269.14 240.166 269.805 240.474 270.391 240.903C271.598 241.777 272.411 243.091 272.657 244.561C272.902 246.031 272.558 247.538 271.701 248.756V248.778ZM258.008 250.677C257.607 251.096 257.127 251.432 256.595 251.664C256.064 251.897 255.491 252.02 254.91 252.024C254.335 252.034 253.764 251.926 253.233 251.708C252.696 251.486 252.209 251.161 251.798 250.751C251.27 250.235 250.876 249.597 250.651 248.893C250.427 248.189 250.379 247.441 250.511 246.715C250.643 245.988 250.952 245.305 251.41 244.725C251.868 244.146 252.461 243.687 253.137 243.391C253.664 243.161 254.232 243.039 254.807 243.03C255.387 243.026 255.962 243.136 256.499 243.354C257.036 243.572 257.524 243.895 257.934 244.303C258.774 245.144 259.252 246.28 259.266 247.468C259.283 248.655 258.831 249.801 258.008 250.655V250.677Z" fill="#EFA3B2"/>
<path d="M370.931 211.892L252.368 211.643C247.317 211.633 243.214 215.72 243.204 220.773L243.148 247.373C243.137 252.426 247.223 256.53 252.274 256.541L370.837 256.789C375.888 256.8 379.992 252.712 380.002 247.66L380.058 221.06C380.068 216.007 375.982 211.902 370.931 211.892Z" fill="white" stroke="#1C1B1A" stroke-width="2" stroke-miterlimit="10"/>
<path d="M369.957 237.423H301.809C299.611 237.423 297.829 239.204 297.829 241.401C297.829 243.598 299.611 245.379 301.809 245.379H369.957C372.156 245.379 373.938 243.598 373.938 241.401C373.938 239.204 372.156 237.423 369.957 237.423Z" fill="#1C1B1A"/>
<path d="M367.079 224.492L298.931 224.349C296.733 224.344 294.947 226.122 294.943 228.319C294.938 230.516 296.716 232.301 298.915 232.305L367.062 232.448C369.261 232.453 371.047 230.675 371.051 228.478C371.056 226.281 369.277 224.496 367.079 224.492Z" fill="#1C1B1A"/>
<path d="M263.335 235.302C263.96 235.302 266.528 235.302 267.146 235.361C263.872 236.715 263.055 240.314 263.048 243.185C263.04 243.552 263.07 243.92 263.136 244.281L254.454 244.384H254.322C254.174 244.362 254.031 244.32 253.895 244.259C253.764 244.2 253.652 244.106 253.571 243.987C253.456 243.788 253.4 243.561 253.409 243.332C253.532 241.622 254.2 239.997 255.315 238.695C256.742 236.965 259.178 235.375 263.305 235.324L263.335 235.302ZM266.204 246.18H266.094C265.942 246.158 265.796 246.111 265.66 246.04C265.522 245.963 265.41 245.848 265.336 245.709C265.199 245.462 265.131 245.182 265.137 244.899C265.15 242.825 265.719 240.791 266.786 239.011C267.641 237.698 268.796 236.606 270.154 235.825C271.512 235.043 273.036 234.594 274.601 234.515C276.166 234.435 277.728 234.727 279.159 235.366C280.589 236.006 281.848 236.975 282.833 238.194C284.068 239.851 284.831 241.813 285.04 243.869C285.079 244.149 285.041 244.434 284.93 244.693C284.87 244.838 284.77 244.963 284.643 245.054C284.514 245.139 284.372 245.203 284.223 245.245H284.076L266.204 246.151V246.18ZM280.53 229.642C280.11 230.228 279.58 230.728 278.97 231.114C278.046 231.696 276.968 231.988 275.876 231.95C274.785 231.912 273.73 231.546 272.848 230.9C271.645 230.024 270.834 228.71 270.589 227.241C270.344 225.773 270.685 224.266 271.539 223.047C271.954 222.451 272.483 221.944 273.095 221.555C273.708 221.166 274.392 220.902 275.107 220.78C275.824 220.667 276.556 220.694 277.263 220.861C277.969 221.029 278.635 221.337 279.22 221.766C280.427 222.64 281.241 223.954 281.486 225.424C281.731 226.894 281.388 228.401 280.53 229.619V229.642ZM266.837 231.541C266.436 231.96 265.956 232.295 265.425 232.527C264.893 232.76 264.32 232.883 263.74 232.888C263.165 232.897 262.594 232.79 262.062 232.571C261.525 232.349 261.038 232.024 260.627 231.614C260.099 231.098 259.705 230.46 259.481 229.756C259.256 229.053 259.208 228.305 259.341 227.578C259.473 226.851 259.781 226.168 260.239 225.588C260.697 225.009 261.29 224.551 261.966 224.254C262.494 224.025 263.061 223.902 263.636 223.893C264.216 223.889 264.791 223.999 265.329 224.217C265.865 224.435 266.353 224.758 266.764 225.167C267.604 226.007 268.082 227.143 268.095 228.331C268.113 229.518 267.661 230.664 266.837 231.518V231.541Z" fill="#EFA3B2"/>
<path d="M383.439 191.28L264.876 191.031C259.825 191.021 255.721 195.108 255.711 200.161L255.655 226.761C255.645 231.814 259.731 235.918 264.782 235.929L383.345 236.177C388.396 236.188 392.499 232.1 392.51 227.048L392.565 200.448C392.576 195.395 388.49 191.29 383.439 191.28Z" fill="white" stroke="#1C1B1A" stroke-width="2" stroke-miterlimit="10"/>
<path d="M381.421 214.784H313.273C311.075 214.784 309.293 216.566 309.293 218.763C309.293 220.96 311.075 222.741 313.273 222.741H381.421C383.62 222.741 385.402 220.96 385.402 218.763C385.402 216.566 383.62 214.784 381.421 214.784Z" fill="#1C1B1A"/>
<path d="M381.145 202.151L312.997 202.008C310.799 202.004 309.013 203.781 309.008 205.978C309.004 208.175 310.782 209.96 312.98 209.965L381.128 210.108C383.326 210.112 385.112 208.335 385.117 206.138C385.122 203.941 383.343 202.156 381.145 202.151Z" fill="#1C1B1A"/>
<path d="M275.843 214.693C276.468 214.693 279.036 214.693 279.654 214.752C276.38 216.106 275.563 219.705 275.556 222.576C275.549 222.943 275.578 223.311 275.644 223.672L266.962 223.775H266.83C266.682 223.753 266.539 223.711 266.403 223.65C266.272 223.591 266.16 223.497 266.079 223.378C265.964 223.179 265.908 222.952 265.917 222.723C266.04 221.013 266.708 219.388 267.823 218.086C269.25 216.356 271.686 214.766 275.813 214.715L275.843 214.693ZM278.712 225.571H278.602C278.451 225.549 278.304 225.502 278.168 225.431C278.031 225.354 277.918 225.239 277.844 225.1C277.707 224.853 277.639 224.573 277.646 224.291C277.658 222.216 278.227 220.182 279.294 218.402C280.15 217.089 281.304 215.997 282.662 215.216C284.021 214.434 285.544 213.986 287.109 213.906C288.674 213.826 290.236 214.118 291.667 214.758C293.097 215.397 294.356 216.366 295.341 217.585C296.576 219.243 297.339 221.204 297.548 223.26C297.587 223.54 297.549 223.825 297.438 224.084C297.378 224.229 297.278 224.354 297.151 224.445C297.022 224.53 296.88 224.594 296.732 224.637H296.584L278.712 225.542V225.571ZM293.038 209.033C292.618 209.62 292.088 210.119 291.478 210.505C290.554 211.088 289.476 211.379 288.385 211.341C287.293 211.303 286.238 210.937 285.356 210.291C284.153 209.415 283.342 208.101 283.097 206.632C282.852 205.164 283.193 203.658 284.047 202.438C284.462 201.842 284.991 201.335 285.603 200.946C286.216 200.557 286.9 200.293 287.615 200.171C288.332 200.058 289.065 200.085 289.771 200.252C290.477 200.42 291.143 200.728 291.728 201.157C292.935 202.031 293.749 203.345 293.994 204.815C294.239 206.285 293.896 207.792 293.038 209.011V209.033ZM279.345 210.932C278.944 211.351 278.464 211.686 277.933 211.918C277.401 212.151 276.828 212.274 276.248 212.279C275.673 212.288 275.102 212.181 274.57 211.962C274.034 211.741 273.546 211.415 273.135 211.005C272.607 210.489 272.213 209.851 271.989 209.148C271.765 208.444 271.716 207.696 271.849 206.969C271.981 206.242 272.289 205.559 272.747 204.979C273.205 204.4 273.798 203.942 274.474 203.645C275.002 203.416 275.569 203.293 276.145 203.284C276.724 203.28 277.299 203.39 277.837 203.608C278.373 203.826 278.861 204.149 279.272 204.558C280.112 205.398 280.59 206.534 280.603 207.723C280.621 208.909 280.169 210.055 279.345 210.91V210.932Z" fill="#EFA3B2"/>
<path d="M308.1 29.4192H238.451C233.4 29.4192 229.305 33.5153 229.305 38.5681V108.241C229.305 113.294 233.4 117.39 238.451 117.39H308.1C313.151 117.39 317.245 113.294 317.245 108.241V38.5681C317.245 33.5153 313.151 29.4192 308.1 29.4192Z" fill="#4AAF05"/>
<path d="M261.348 71.4024H259.362V75.3917H261.348V71.4024ZM285.21 75.3917H287.196V71.4024H285.224L285.21 75.3917ZM261.348 81.3756H259.362V83.3555H261.348V81.3756ZM285.21 81.3756V83.3555H287.196V81.3609L285.21 81.3756ZM261.348 65.4184V63.4238H259.362V65.4184H261.348ZM285.21 65.4184H287.196V63.4238H285.224L285.21 65.4184ZM297.137 57.4399H299.123V56.6229L298.549 56.0488L297.137 57.4399ZM285.224 45.472L286.63 44.0809L286.034 43.4773H285.224V45.472ZM261.363 75.3917H285.224V71.4024H261.363V75.3917ZM261.363 83.3702H285.224V79.3809H261.363V83.3702ZM261.363 67.413H285.224V63.4238H261.363V67.413ZM293.178 99.3273H253.409V103.317H293.178V99.3273ZM251.379 97.3401V49.4981H247.398V97.3401H251.379ZM295.121 57.4472V97.3401H299.094V57.4472H295.121ZM253.365 47.4814H285.224V43.4847H253.409L253.365 47.4814ZM283.768 46.8999L295.694 58.8677L298.52 56.0561L286.586 44.0883L283.768 46.8999ZM253.365 99.3568C253.112 99.3535 252.862 99.301 252.629 99.2023C252.387 99.1053 252.167 98.9599 251.982 98.7752C251.797 98.5905 251.652 98.3702 251.555 98.1276C251.456 97.895 251.406 97.6444 251.408 97.3916H247.427C247.427 98.1796 247.582 98.9599 247.884 99.688C248.18 100.418 248.621 101.082 249.179 101.638C250.3 102.752 251.815 103.376 253.395 103.376L253.365 99.3568ZM293.134 103.346C294.314 103.348 295.468 102.999 296.449 102.344C297.43 101.689 298.194 100.757 298.645 99.666C298.947 98.9382 299.099 98.1574 299.094 97.3696H295.121C295.116 97.6217 295.066 97.871 294.973 98.1056C294.872 98.3473 294.724 98.5672 294.539 98.7533C294.355 98.9385 294.135 99.0838 293.892 99.1802C293.659 99.2791 293.409 99.3316 293.156 99.3347L293.134 103.346ZM251.379 49.4981C251.379 48.9746 251.585 48.4724 251.953 48.0996C252.138 47.9124 252.358 47.7626 252.6 47.658C252.834 47.5624 253.083 47.5101 253.336 47.5035V43.5141C251.752 43.518 250.234 44.1502 249.115 45.272C247.997 46.3938 247.369 47.9136 247.369 49.4981H251.379ZM259.332 65.4553V81.4124H263.306V65.4553H259.332ZM271.259 65.4553V81.4124H275.232V65.4553H271.259ZM283.186 65.4553V81.4124H287.167V65.4553H283.186ZM259.332 59.4713H271.259V55.482H259.332V59.4713ZM275.232 91.3856H287.167V87.3963H275.232V91.3856Z" fill="white"/>
<path d="M415.692 27.6084H345.735C340.517 27.6084 336.287 31.8396 336.287 37.059V107.041C336.287 112.26 340.517 116.491 345.735 116.491H415.692C420.91 116.491 425.14 112.26 425.14 107.041V37.059C425.14 31.8396 420.91 27.6084 415.692 27.6084Z" fill="#3071E7"/>
<path d="M400.587 101.756H360.855C360.258 101.757 359.667 101.64 359.115 101.412C358.563 101.184 358.062 100.848 357.64 100.426C357.218 100.003 356.884 99.5011 356.657 98.9489C356.429 98.3966 356.313 97.8048 356.315 97.2075V48.129C356.313 47.5318 356.429 46.94 356.657 46.3877C356.884 45.8354 357.218 45.3336 357.64 44.9109C358.062 44.4882 358.563 44.1531 359.115 43.9248C359.667 43.6965 360.258 43.5794 360.855 43.5803H400.587C401.184 43.5794 401.775 43.6965 402.327 43.9248C402.879 44.1531 403.38 44.4882 403.802 44.9109C404.224 45.3336 404.558 45.8354 404.785 46.3877C405.012 46.94 405.129 47.5318 405.127 48.129V97.2075C405.129 97.8048 405.012 98.3966 404.785 98.9489C404.558 99.5011 404.224 100.003 403.802 100.426C403.38 100.848 402.879 101.184 402.327 101.412C401.775 101.64 401.184 101.757 400.587 101.756V101.756ZM360.855 46.5539C360.647 46.5529 360.441 46.5933 360.249 46.6725C360.057 46.7518 359.883 46.8684 359.737 47.0156C359.59 47.1629 359.474 47.3378 359.396 47.5302C359.318 47.7226 359.278 47.9287 359.28 48.1364V97.2149C359.278 97.4226 359.318 97.6287 359.396 97.8211C359.474 98.0135 359.59 98.1884 359.737 98.3357C359.883 98.4829 360.057 98.5995 360.249 98.6788C360.441 98.758 360.647 98.7984 360.855 98.7974H400.587C401.006 98.7949 401.407 98.6284 401.705 98.3337C401.999 98.0358 402.163 97.6335 402.161 97.2149V48.1364C402.163 47.9287 402.124 47.7226 402.046 47.5302C401.967 47.3378 401.852 47.1629 401.705 47.0156C401.559 46.8684 401.384 46.7518 401.192 46.6725C401 46.5933 400.795 46.5529 400.587 46.5539H360.855Z" fill="white"/>
<path d="M371.619 49.5864C371.229 49.5864 370.855 49.4313 370.579 49.1552C370.303 48.8792 370.148 48.5048 370.148 48.1143V38.914C370.148 38.5235 370.303 38.1491 370.579 37.8731C370.855 37.597 371.229 37.4419 371.619 37.4419C372.01 37.4419 372.384 37.597 372.66 37.8731C372.936 38.1491 373.091 38.5235 373.091 38.914V48.1143C373.091 48.5048 372.936 48.8792 372.66 49.1552C372.384 49.4313 372.01 49.5864 371.619 49.5864Z" fill="white"/>
<path d="M389.97 49.5864C389.579 49.5864 389.205 49.4313 388.929 49.1552C388.653 48.8792 388.498 48.5048 388.498 48.1143V38.914C388.498 38.5235 388.653 38.1491 388.929 37.8731C389.205 37.597 389.579 37.4419 389.97 37.4419C390.36 37.4419 390.734 37.597 391.01 37.8731C391.286 38.1491 391.441 38.5235 391.441 38.914V48.1143C391.441 48.5048 391.286 48.8792 391.01 49.1552C390.734 49.4313 390.36 49.5864 389.97 49.5864Z" fill="white"/>
<path d="M393.023 63.3943H368.566C368.176 63.3943 367.801 63.2392 367.525 62.9631C367.249 62.6871 367.094 62.3127 367.094 61.9223C367.094 61.5318 367.249 61.1574 367.525 60.8814C367.801 60.6053 368.176 60.4502 368.566 60.4502H393.023C393.413 60.4502 393.788 60.6053 394.064 60.8814C394.34 61.1574 394.495 61.5318 394.495 61.9223C394.495 62.3127 394.34 62.6871 394.064 62.9631C393.788 63.2392 393.413 63.3943 393.023 63.3943Z" fill="white"/>
<path d="M386.909 75.6639H368.566C368.176 75.6639 367.801 75.5087 367.525 75.2327C367.249 74.9566 367.094 74.5822 367.094 74.1918C367.094 73.8014 367.249 73.4269 367.525 73.1508C367.801 72.8748 368.176 72.7197 368.566 72.7197H386.909C387.299 72.7197 387.673 72.8748 387.949 73.1508C388.225 73.4269 388.38 73.8014 388.38 74.1918C388.38 74.5822 388.225 74.9566 387.949 75.2327C387.673 75.5087 387.299 75.6639 386.909 75.6639Z" fill="white"/>
<path d="M380.794 87.9336H368.566C368.176 87.9336 367.801 87.7785 367.525 87.5025C367.249 87.2264 367.094 86.852 367.094 86.4616C367.094 86.0712 367.249 85.6967 367.525 85.4207C367.801 85.1446 368.176 84.9895 368.566 84.9895H380.794C381.185 84.9895 381.559 85.1446 381.835 85.4207C382.111 85.6967 382.266 86.0712 382.266 86.4616C382.266 86.852 382.111 87.2264 381.835 87.5025C381.559 87.7785 381.185 87.9336 380.794 87.9336Z" fill="white"/>
<path d="M630.716 28.5139H561.067C556.016 28.5139 551.922 32.61 551.922 37.6628V107.335C551.922 112.388 556.016 116.484 561.067 116.484H630.716C635.767 116.484 639.862 112.388 639.862 107.335V37.6628C639.862 32.61 635.767 28.5139 630.716 28.5139Z" fill="#F4A325"/>
<path d="M612.027 66.3457H597.503V71.7334C597.498 72.8693 597.214 73.9865 596.676 74.9867C596.138 75.987 595.362 76.8397 594.418 77.4699C593.473 78.1002 592.388 78.4886 591.258 78.601C590.128 78.7135 588.988 78.5466 587.938 78.1149C587.115 77.7701 586.365 77.2704 585.731 76.6428C585.102 76.0093 584.602 75.2593 584.259 74.4347C583.909 73.5949 583.727 72.6948 583.722 71.785V60.1042L577.497 63.8506C576.584 64.385 575.824 65.1454 575.29 66.0587C574.767 66.9842 574.488 68.0279 574.481 69.0911V73.6177L566.806 78.0339C566.456 78.237 566.146 78.5041 565.894 78.8214C565.65 79.1447 565.47 79.5121 565.364 79.9035C565.158 80.6925 565.272 81.5311 565.681 82.2366L573.362 95.5588C573.775 96.2622 574.45 96.7733 575.239 96.9802C576.027 97.1872 576.866 97.073 577.571 96.6628L587.497 90.9512H600.63C602.258 90.9454 603.817 90.2945 604.965 89.1412C606.114 87.9879 606.759 86.4261 606.759 84.798H608.231C609.045 84.7902 609.824 84.4612 610.397 83.8823C610.97 83.3034 611.292 82.5215 611.292 81.7067V75.5535H612.071C612.372 75.5601 612.671 75.5024 612.947 75.3842C613.223 75.2713 613.473 75.1035 613.683 74.891C613.896 74.6809 614.066 74.4308 614.183 74.155C614.299 73.8749 614.359 73.5749 614.36 73.2718V68.6348C614.36 68.3268 614.3 68.0217 614.183 67.7369C614.062 67.4598 613.887 67.2096 613.668 67.0008C613.46 66.7848 613.21 66.6143 612.932 66.5003C612.644 66.3895 612.336 66.337 612.027 66.3457ZM626.228 62.7539L618.546 49.4318C618.133 48.7284 617.459 48.2172 616.67 48.0103C615.881 47.8034 615.043 47.9175 614.338 48.3277L604.39 54.0467H594.56C593.411 54.0456 592.285 54.3724 591.315 54.9887L588.085 57.0349C587.645 57.3118 587.283 57.6964 587.033 58.1524C586.784 58.6083 586.654 59.1206 586.658 59.6405V71.7777C586.656 72.2824 586.754 72.7826 586.945 73.2497C587.14 73.7174 587.425 74.1425 587.783 74.5009C588.14 74.8547 588.562 75.1348 589.027 75.3253C589.97 75.7098 591.027 75.7098 591.97 75.3253C592.436 75.1331 592.861 74.8533 593.221 74.5009C593.937 73.778 594.341 72.8029 594.347 71.785V63.3133H612.005C613.433 63.3191 614.8 63.8884 615.81 64.8973C616.82 65.9062 617.391 67.2732 617.399 68.701V71.4538L625.08 67.0376C625.763 66.6366 626.262 65.9841 626.471 65.2196C626.677 64.4555 626.582 63.6415 626.206 62.9453L626.228 62.7539Z" fill="white"/>
<path d="M521.011 28.5139H451.363C446.312 28.5139 442.217 32.61 442.217 37.6628V107.335C442.217 112.388 446.312 116.484 451.363 116.484H521.011C526.063 116.484 530.157 112.388 530.157 107.335V37.6628C530.157 32.61 526.063 28.5139 521.011 28.5139Z" fill="#E97179"/>
<path d="M468.587 106.577C466.141 106.545 463.803 105.558 462.073 103.827C460.343 102.096 459.356 99.7582 459.324 97.3106V54.8048C459.351 52.3572 460.331 50.0166 462.057 48.2816C463.784 46.5466 466.119 45.5543 468.565 45.5161H475.658C476.228 45.5161 476.774 45.7425 477.177 46.1456C477.58 46.5486 477.807 47.0953 477.807 47.6654C477.807 48.2354 477.58 48.782 477.177 49.185C476.774 49.5881 476.228 49.8146 475.658 49.8146H468.587C467.273 49.8468 466.021 50.3865 465.096 51.3208C464.17 52.2551 463.641 53.5116 463.621 54.8269V97.2959C463.649 98.6098 464.184 99.8621 465.114 100.791C466.043 101.719 467.296 102.253 468.609 102.279H503.802C505.116 102.25 506.369 101.713 507.295 100.779C508.221 99.8457 508.749 98.5891 508.768 97.2739V54.8048C508.742 53.4896 508.208 52.2356 507.278 51.3053C506.348 50.3751 505.094 49.8409 503.78 49.8146H496.753C496.183 49.8146 495.637 49.5881 495.234 49.185C494.831 48.782 494.604 48.2354 494.604 47.6654C494.604 47.0953 494.831 46.5486 495.234 46.1456C495.637 45.7425 496.183 45.5161 496.753 45.5161H503.802C506.248 45.5504 508.584 46.5377 510.314 48.2681C512.044 49.9986 513.031 52.3358 513.065 54.7828V97.2959C513.04 99.7422 512.061 102.082 510.336 103.816C508.611 105.55 506.276 106.541 503.831 106.577H468.587Z" fill="white"/>
<path d="M489.682 56.8583H482.626C480.223 56.7905 477.942 55.7879 476.266 54.0636C474.59 52.3394 473.653 50.0295 473.653 47.6248C473.653 45.2201 474.59 42.9102 476.266 41.186C477.942 39.4618 480.223 38.4592 482.626 38.3914H489.771C492.174 38.4728 494.451 39.4892 496.117 41.2243C497.783 42.9594 498.707 45.2763 498.692 47.6821C498.676 50.088 497.723 52.3929 496.035 54.1066C494.347 55.8203 492.057 56.8075 489.653 56.8583H489.682ZM482.626 42.6898C481.653 42.6975 480.703 42.9925 479.897 43.5379C479.09 44.0833 478.462 44.8548 478.092 45.7555C477.722 46.6563 477.626 47.6463 477.816 48.6014C478.006 49.5566 478.474 50.4343 479.161 51.1246C479.612 51.5881 480.15 51.957 480.745 52.2097C481.34 52.4625 481.98 52.594 482.626 52.5967H489.682C490.33 52.5954 490.971 52.4646 491.567 52.2118C492.164 51.959 492.704 51.5893 493.155 51.1246C493.84 50.4389 494.307 49.5669 494.5 48.6172C494.693 47.6675 494.602 46.682 494.238 45.7837C493.875 44.8853 493.256 44.1136 492.458 43.5648C491.659 43.0159 490.717 42.7142 489.749 42.6971L482.626 42.6898Z" fill="white"/>
<path d="M475.658 92.3057C475.089 92.3057 474.542 92.0793 474.139 91.6763C473.736 91.2732 473.51 90.7265 473.51 90.1565V72.4403C473.51 71.8703 473.736 71.3235 474.139 70.9205C474.542 70.5174 475.089 70.291 475.658 70.291C476.228 70.291 476.775 70.5174 477.178 70.9205C477.58 71.3235 477.807 71.8703 477.807 72.4403V90.1565C477.807 90.7265 477.58 91.2732 477.178 91.6763C476.775 92.0793 476.228 92.3057 475.658 92.3057V92.3057Z" fill="white"/>
<path d="M486.246 92.3058C485.676 92.3058 485.13 92.0794 484.727 91.6763C484.324 91.2732 484.098 90.7265 484.098 90.1565V84.4818C484.098 83.9118 484.324 83.365 484.727 82.962C485.13 82.5589 485.676 82.3325 486.246 82.3325C486.816 82.3325 487.362 82.5589 487.765 82.962C488.168 83.365 488.394 83.9118 488.394 84.4818V90.1565C488.394 90.7265 488.168 91.2732 487.765 91.6763C487.362 92.0794 486.816 92.3058 486.246 92.3058V92.3058Z" fill="white"/>
<path d="M496.834 92.3056C496.264 92.3056 495.717 92.0792 495.315 91.6761C494.912 91.2731 494.685 90.7264 494.685 90.1564V79.5355C494.685 78.9655 494.912 78.4188 495.315 78.0157C495.717 77.6126 496.264 77.3862 496.834 77.3862C497.404 77.3862 497.95 77.6126 498.353 78.0157C498.756 78.4188 498.982 78.9655 498.982 79.5355V90.1564C498.982 90.7264 498.756 91.2731 498.353 91.6761C497.95 92.0792 497.404 92.3056 496.834 92.3056V92.3056Z" fill="white"/>
<path d="M656.203 1.104H212.971C198.627 1.104 186.998 12.7365 186.998 27.0859V117.912C186.998 132.262 198.627 143.894 212.971 143.894H656.203C670.548 143.894 682.176 132.262 682.176 117.912V27.0859C682.176 12.7365 670.548 1.104 656.203 1.104Z" stroke="#1C1B1A" stroke-width="3" stroke-miterlimit="10"/>
</g>
<defs>
<clipPath id="clip0_510:702">
<rect width="839" height="426" fill="white"/>
</clipPath>
</defs>
</svg>
