<?xml version="1.0" encoding="utf-8"?>
<!-- Generator: Adobe Illustrator 25.4.1, SVG Export Plug-In . SVG Version: 6.00 Build 0)  -->
<svg version="1.1" id="Layer_1" xmlns="http://www.w3.org/2000/svg" xmlns:xlink="http://www.w3.org/1999/xlink" x="0px" y="0px"
	 viewBox="0 0 80.6 71" style="enable-background:new 0 0 80.6 71;" xml:space="preserve">
<style type="text/css">
	.st0{fill:#3071E7;}
	.st1{fill:none;stroke:#FFFFFF;stroke-width:10;stroke-linecap:round;stroke-linejoin:round;}
	.st2{fill:url(#SVGID_1_);}
	.st3{fill:#5DD10D;}
	.st4{fill:#FFFFFF;}
	.st5{fill:none;stroke:#5DD10D;stroke-width:3;stroke-linecap:round;stroke-linejoin:round;}
	.st6{fill:url(#SVGID_00000059278829788554226060000004243037511454631066_);}
	.st7{fill:url(#SVGID_00000083787562719119857950000000837655158253622707_);}
	.st8{fill:#FFFFFF;stroke:#FFFFFF;stroke-width:4;}
	.st9{fill:#3C3C3C;}
	.st10{fill:#C4C4C4;}
	.st11{fill:#4AAF05;}
	.st12{fill-rule:evenodd;clip-rule:evenodd;fill:#E7E6E6;}
	.st13{fill:none;stroke:#BDBDBD;}
	.st14{fill:#BDBDBD;}
	.st15{fill:#E5E5E5;}
	.st16{fill:#E7E6E6;}
	.st17{fill:#C4C4C4;filter:url(#Adobe_OpacityMaskFilter);}
	.st18{mask:url(#mask0_0:1_00000079464290474750960640000000752820437039881869_);}
	.st19{fill:none;stroke:#E97179;}
	.st20{fill-rule:evenodd;clip-rule:evenodd;fill:#4AAF05;}
	.st21{fill:#FFFFFF;stroke:#BDBDBD;}
	.st22{fill:#E97179;}
	.st23{fill:#C4C4C4;filter:url(#Adobe_OpacityMaskFilter_00000005257760983976225110000004887526970602350014_);}
	.st24{mask:url(#mask1_0:1_00000155132012382774330090000006118603820518013580_);}
	.st25{fill:#DD596B;}
	.st26{fill:#F4A3AE;}
	.st27{fill:#F4BEC6;}
</style>
<g>
	<path class="st3" d="M35.9,71c19-0.8,33.7-16.8,32.9-35.7C68,16.4,51.9,1.8,33,2.6C14,3.4-0.8,19.4,0,38.3
		C0.9,57.1,16.9,71.8,35.9,71z"/>
	<path class="st4" d="M48.2,25.6l-9.2,1.9c-0.3-0.9-0.8-1.7-1.4-2.4c-0.6-0.5-1.2-1-1.9-1.3L36,31c5.1,1.1,8.6,2.4,10.3,3.8
		c1.1,0.9,2.1,2,2.7,3.3c0.6,1.3,1,2.7,1,4.2c0.1,1.7-0.2,3.5-1,5c-0.7,1.5-1.7,2.8-2.9,3.9c-1.2,1-2.5,1.8-3.9,2.4
		c-1.7,0.6-3.4,0.9-5.2,1l0.2,4.7l-3.7,0.2l-0.2-4.7c-2,0-4.1-0.4-6-0.9c-1.5-0.5-2.9-1.2-4.1-2.2c-1.1-0.9-2-2-2.7-3.2
		c-0.7-1.3-1.2-2.7-1.5-4.2l10.1-1.6c0.4,1.6,0.8,2.8,1.4,3.5C31.1,47,32,47.7,33,48l-0.4-8.8c-3.4-0.8-5.8-1.5-7.3-2.1
		c-1.5-0.7-2.8-1.8-3.8-3.1c-1.1-1.6-1.8-3.5-1.8-5.4c-0.1-1.4,0.1-2.8,0.6-4.1c0.5-1.3,1.2-2.5,2.2-3.5c2-2.1,5-3.3,9.1-3.7
		l-0.1-2.5l3.7-0.2l0.1,2.5c3.8,0.1,6.6,0.8,8.7,2.3C46.1,21,47.6,23.2,48.2,25.6z M32,23.8c-0.8,0.3-1.6,0.7-2.2,1.4
		c-0.4,0.5-0.6,1.2-0.6,1.9c0,0.7,0.3,1.4,0.7,1.9c0.6,0.6,1.4,1.1,2.3,1.3L32,23.8z M36.7,48.2c1.4-0.4,2.4-0.9,3.1-1.7
		c0.6-0.7,0.9-1.6,0.9-2.5c0-0.8-0.4-1.6-0.9-2.1c-0.6-0.6-1.7-1.2-3.3-1.7L36.7,48.2z"/>
	<g>
		<path class="st5" d="M71.8,20.4L71,2.9"/>
		<path class="st5" d="M64.7,9.8l6.4-6.9L78,9.2"/>
	</g>
</g>
</svg>
