<svg width="152" height="130" viewBox="0 0 152 130" fill="none" xmlns="http://www.w3.org/2000/svg">
<path d="M138.167 116.775L19.6124 129.214C18.6332 129.326 17.6414 129.234 16.6993 128.945C15.7572 128.655 14.885 128.174 14.1376 127.531C13.3901 126.888 12.7835 126.097 12.3558 125.208C11.9281 124.32 11.6886 123.352 11.6522 122.367L6.64567 21.4811C6.56914 19.4661 7.25361 17.4964 8.56278 15.9639C9.87196 14.4313 11.7098 13.4484 13.7106 13.2108L132.291 0.769331C133.268 0.660994 134.258 0.755535 135.197 1.04709C136.136 1.33865 137.005 1.82094 137.75 2.46382C138.495 3.1067 139.099 3.89638 139.525 4.78346C139.951 5.67053 140.189 6.63596 140.226 7.61943L145.232 108.505C145.309 110.52 144.624 112.49 143.315 114.022C142.006 115.555 140.168 116.538 138.167 116.775ZM13.9286 15.2879C12.4456 15.4602 11.0829 16.1883 10.115 17.3257C9.14706 18.4631 8.64566 19.9253 8.71177 21.4179L13.7183 122.303C13.7459 123.001 13.9163 123.685 14.219 124.313C14.5216 124.942 14.9501 125.502 15.4778 125.958C16.0055 126.414 16.6212 126.756 17.2867 126.965C17.9522 127.173 18.6533 127.242 19.3465 127.168L137.901 114.729C139.384 114.556 140.747 113.828 141.715 112.691C142.683 111.554 143.184 110.091 143.118 108.599L138.112 7.71319C138.087 7.01073 137.917 6.32101 137.612 5.68744C137.308 5.05387 136.876 4.49017 136.344 4.03179C135.811 3.57882 135.192 3.24029 134.523 3.03727C133.855 2.83425 133.152 2.77106 132.458 2.85168L13.9286 15.2879Z" fill="#407BFF"/>
<path d="M140.299 29.0462L8.68369 42.8554C8.43545 42.8425 8.19993 42.7413 8.01957 42.5701C7.83921 42.3989 7.72586 42.1689 7.69991 41.9214C7.67395 41.674 7.73709 41.4255 7.87798 41.2206C8.01888 41.0157 8.22826 40.8678 8.46843 40.8037L140.084 26.9945C140.229 26.9556 140.382 26.9488 140.53 26.9744C140.679 27.0001 140.82 27.0577 140.944 27.1432C141.069 27.2288 141.173 27.3402 141.25 27.4699C141.327 27.5996 141.375 27.7445 141.391 27.8946C141.406 28.0446 141.389 28.1963 141.341 28.3392C141.292 28.482 141.214 28.6127 141.11 28.7222C141.006 28.8316 140.88 28.9172 140.74 28.9732C140.6 29.0291 140.45 29.0541 140.299 29.0462Z" fill="#407BFF"/>
<path d="M44.189 126.635C43.9161 126.644 43.6506 126.546 43.4494 126.361C43.2482 126.176 43.1274 125.92 43.1129 125.647L38.6889 38.6061C38.6811 38.47 38.7006 38.3338 38.7463 38.2054C38.7921 38.0771 38.863 37.9592 38.9551 37.8588C39.0472 37.7584 39.1585 37.6775 39.2823 37.6209C39.4062 37.5643 39.5401 37.5332 39.6762 37.5293C39.9491 37.5204 40.2146 37.6189 40.4158 37.8037C40.617 37.9884 40.7378 38.2448 40.7523 38.5176L45.103 125.592C45.1049 125.848 45.0128 126.095 44.8443 126.288C44.6758 126.48 44.4426 126.604 44.189 126.635Z" fill="#407BFF"/>
<path d="M126.318 40.9103L54.9168 48.4017C54.6686 48.3888 54.4331 48.2876 54.2527 48.1164C54.0724 47.9452 53.959 47.7152 53.9331 47.4678C53.9071 47.2204 53.9702 46.9718 54.1111 46.7669C54.252 46.562 54.4614 46.4141 54.7016 46.35L126.103 38.8585C126.248 38.8196 126.401 38.8128 126.549 38.8385C126.698 38.8641 126.839 38.9217 126.963 39.0073C127.088 39.0928 127.192 39.2043 127.269 39.334C127.346 39.4637 127.394 39.6085 127.41 39.7586C127.426 39.9086 127.409 40.0603 127.36 40.2032C127.312 40.346 127.233 40.4767 127.129 40.5862C127.025 40.6956 126.899 40.7813 126.759 40.8372C126.619 40.8932 126.469 40.9181 126.318 40.9103Z" fill="#407BFF"/>
<path d="M116.884 54.6533L55.5568 61.0879C55.4111 61.1268 55.2588 61.1336 55.1102 61.1079C54.9616 61.0822 54.8204 61.0247 54.6962 60.9391C54.572 60.8536 54.4677 60.7421 54.3907 60.6124C54.3136 60.4827 54.2656 60.3379 54.2498 60.1878C54.2341 60.0378 54.251 59.8861 54.2995 59.7432C54.3479 59.6003 54.4268 59.4697 54.5305 59.3602C54.6343 59.2508 54.7605 59.1651 54.9005 59.1092C55.0405 59.0532 55.191 59.0283 55.3415 59.0361L116.669 52.6016C116.815 52.5627 116.967 52.5558 117.116 52.5815C117.264 52.6072 117.406 52.6648 117.53 52.7503C117.654 52.8358 117.758 52.9473 117.835 53.077C117.912 53.2067 117.96 53.3516 117.976 53.5016C117.992 53.6517 117.975 53.8033 117.926 53.9462C117.878 54.0891 117.799 54.2198 117.695 54.3292C117.592 54.4387 117.465 54.5243 117.325 54.5803C117.185 54.6362 117.035 54.6612 116.884 54.6533Z" fill="#407BFF"/>
<path d="M91.9021 70.4374L56.2142 74.1818C56.0685 74.2207 55.9161 74.2275 55.7675 74.2018C55.619 74.1761 55.4777 74.1186 55.3535 74.033C55.2293 73.9475 55.1251 73.836 55.048 73.7063C54.971 73.5766 54.9229 73.4318 54.9072 73.2817C54.8914 73.1317 54.9084 72.98 54.9568 72.8371C55.0053 72.6942 55.0841 72.5636 55.1878 72.4541C55.2916 72.3447 55.4178 72.259 55.5578 72.2031C55.6978 72.1471 55.8483 72.1222 55.9989 72.13L91.6868 68.3856C91.8325 68.3467 91.9849 68.3399 92.1334 68.3655C92.282 68.3912 92.4233 68.4488 92.5475 68.5343C92.6717 68.6199 92.7759 68.7313 92.853 68.861C92.93 68.9907 92.9781 69.1356 92.9938 69.2857C93.0095 69.4357 92.9926 69.5874 92.9442 69.7302C92.8957 69.8731 92.8169 70.0038 92.7131 70.1132C92.6094 70.2227 92.4832 70.3083 92.3432 70.3643C92.2031 70.4202 92.0527 70.4452 91.9021 70.4374Z" fill="#407BFF"/>
<path d="M101.05 95.1888L57.4904 99.7591C57.3447 99.798 57.1924 99.8048 57.0438 99.7792C56.8952 99.7535 56.754 99.6959 56.6298 99.6103C56.5055 99.5248 56.4014 99.4134 56.3243 99.2837C56.2473 99.154 56.1992 99.0091 56.1834 98.859C56.1677 98.709 56.1847 98.5573 56.2331 98.4144C56.2816 98.2716 56.3603 98.1409 56.4641 98.0315C56.5678 97.922 56.6941 97.8363 56.8341 97.7804C56.9741 97.7244 57.1246 97.6995 57.2751 97.7074L100.835 93.1371C100.98 93.0982 101.133 93.0913 101.281 93.117C101.43 93.1426 101.571 93.2002 101.695 93.2858C101.82 93.3713 101.924 93.4828 102.001 93.6125C102.078 93.7422 102.126 93.887 102.142 94.0371C102.157 94.1871 102.14 94.3388 102.092 94.4817C102.044 94.6246 101.965 94.7552 101.861 94.8647C101.757 94.9741 101.631 95.0598 101.491 95.1157C101.351 95.1717 101.201 95.1966 101.05 95.1888Z" fill="#407BFF"/>
<path d="M93.8358 109.109L58.1224 112.856C57.8742 112.843 57.6387 112.742 57.4583 112.57C57.2779 112.399 57.1646 112.169 57.1386 111.922C57.1127 111.674 57.1758 111.426 57.3167 111.221C57.4576 111.016 57.667 110.868 57.9072 110.804L93.6205 107.057C93.8687 107.07 94.1043 107.171 94.2846 107.342C94.465 107.513 94.5783 107.743 94.6043 107.991C94.6302 108.238 94.5671 108.487 94.4262 108.692C94.2853 108.897 94.0759 109.044 93.8358 109.109Z" fill="#407BFF"/>
<path d="M114.717 106.918L103.302 108.115C103.156 108.154 103.004 108.161 102.855 108.135C102.707 108.11 102.565 108.052 102.441 107.967C102.317 107.881 102.213 107.77 102.136 107.64C102.059 107.51 102.011 107.365 101.995 107.215C101.979 107.065 101.996 106.914 102.045 106.771C102.093 106.628 102.172 106.497 102.276 106.388C102.379 106.278 102.506 106.193 102.646 106.137C102.786 106.081 102.936 106.056 103.087 106.064L114.502 104.866C114.647 104.827 114.8 104.82 114.948 104.846C115.097 104.872 115.238 104.929 115.362 105.015C115.487 105.1 115.591 105.212 115.668 105.341C115.745 105.471 115.793 105.616 115.809 105.766C115.824 105.916 115.807 106.068 115.759 106.211C115.71 106.354 115.632 106.484 115.528 106.594C115.424 106.703 115.298 106.789 115.158 106.845C115.018 106.901 114.868 106.926 114.717 106.918Z" fill="#407BFF"/>
<path d="M123.702 79.8796L56.8316 86.8957C56.5564 86.9246 56.2811 86.8429 56.066 86.6685C55.851 86.4942 55.7139 86.2416 55.685 85.9661C55.6561 85.6907 55.7377 85.4151 55.9119 85.1999C56.0861 84.9847 56.3385 84.8476 56.6137 84.8187L123.484 77.8026C123.76 77.7737 124.035 77.8554 124.25 78.0298C124.465 78.2041 124.602 78.4568 124.631 78.7323C124.66 79.0077 124.578 79.2833 124.404 79.4985C124.23 79.7136 123.978 79.8507 123.702 79.8796Z" fill="#407BFF"/>
</svg>
