<svg width="76" height="60" viewBox="0 0 76 60" fill="none" xmlns="http://www.w3.org/2000/svg">
<path d="M57.9526 22.4994H39.9026V29.0624C39.9026 33.7152 36.067 37.5006 31.3526 37.5006C26.6383 37.5006 22.8027 33.7152 22.8027 29.0624V14.8112L15.0958 19.3819C12.8039 20.7297 11.4027 23.1791 11.4027 25.8043V31.3478L1.9027 36.7623C0.0858333 37.7936 -0.543541 40.0907 0.513332 41.8838L10.0133 58.1274C11.0583 59.9205 13.3858 60.5299 15.2027 59.4986L27.4814 52.5019H43.7026C47.8945 52.5019 51.3026 49.1383 51.3026 45.0013H53.2026C55.3045 45.0013 57.0026 43.3253 57.0026 41.2509V33.7503H57.9526C59.532 33.7503 60.8026 32.4963 60.8026 30.9376V25.3121C60.8026 23.7534 59.532 22.4994 57.9526 22.4994ZM75.492 18.1162L65.992 1.87262C64.947 0.0795029 62.6195 -0.529923 60.8026 0.501414L48.5239 7.4981H36.3876C34.9626 7.4981 33.5733 7.89657 32.362 8.63491L28.3839 11.0843C27.2677 11.7641 26.6027 12.9712 26.6027 14.2604V29.0624C26.6027 31.6525 28.7283 33.7503 31.3526 33.7503C33.977 33.7503 36.1026 31.6525 36.1026 29.0624V18.749H57.9526C61.622 18.749 64.6026 21.6907 64.6026 25.3121V28.6522L74.1026 23.2377C75.9194 22.1947 76.5369 19.9093 75.492 18.1162Z" fill="white"/>
</svg>
