<?xml version="1.0" encoding="utf-8"?>
<!-- Generator: Adobe Illustrator 25.4.1, SVG Export Plug-In . SVG Version: 6.00 Build 0)  -->
<svg version="1.1" id="Layer_1" xmlns="http://www.w3.org/2000/svg" xmlns:xlink="http://www.w3.org/1999/xlink" x="0px" y="0px"
	 viewBox="0 0 781.3 658" style="enable-background:new 0 0 781.3 658;" xml:space="preserve">
<style type="text/css">
	.st0{fill:#3071E7;}
	.st1{fill:none;stroke:#FFFFFF;stroke-width:10;stroke-linecap:round;stroke-linejoin:round;}
	.st2{fill:url(#SVGID_1_);}
	.st3{fill:#5DD10D;}
	.st4{fill:#FFFFFF;}
	.st5{fill:none;stroke:#5DD10D;stroke-width:3;stroke-linecap:round;stroke-linejoin:round;}
	.st6{fill:url(#SVGID_00000047753637928537483820000014792407776933389483_);}
	.st7{fill:url(#SVGID_00000181799676457801531010000018032505802688401550_);}
	.st8{fill:#FFFFFF;stroke:#FFFFFF;stroke-width:4;}
	.st9{fill:#3C3C3C;}
	.st10{fill:#C4C4C4;}
	.st11{fill:#4AAF05;}
	.st12{fill-rule:evenodd;clip-rule:evenodd;fill:#E7E6E6;}
	.st13{fill:none;stroke:#BDBDBD;}
	.st14{fill:#BDBDBD;}
	.st15{fill:#E5E5E5;}
	.st16{fill:#E7E6E6;}
	.st17{fill:#C4C4C4;filter:url(#Adobe_OpacityMaskFilter);}
	.st18{mask:url(#mask0_0:1_00000079464290474750960640000000752820437039881869_);}
	.st19{fill:none;stroke:#E97179;}
	.st20{fill-rule:evenodd;clip-rule:evenodd;fill:#4AAF05;}
	.st21{fill:#FFFFFF;stroke:#BDBDBD;}
	.st22{fill:#E97179;}
	.st23{fill:#C4C4C4;filter:url(#Adobe_OpacityMaskFilter_00000183237064669408742130000001335775238748004493_);}
	.st24{mask:url(#mask1_0:1_00000155132012382774330090000006118603820518013580_);}
	.st25{fill:#DD596B;}
	.st26{fill:#F4A3AE;}
	.st27{fill:#F4BEC6;}
</style>
<g>
	<g>
		<path class="st21" d="M133.3,71.9h541.6c5.2,0,9.5,4.3,9.5,9.5v498.1c0,5.2-4.3,9.5-9.5,9.5H133.3c-5.2,0-9.5-4.3-9.5-9.5V81.4
			C123.8,76.1,128,71.9,133.3,71.9z"/>
	</g>
	<path class="st9" d="M185.4,105.9h-9.8v26.7H169v-26.7h-9.7v-5.3h26.1V105.9z M183.2,120.4c0-2.4,0.5-4.5,1.4-6.3
		c0.9-1.9,2.2-3.3,3.9-4.3c1.7-1,3.7-1.5,6-1.5c3.2,0,5.8,1,7.8,2.9c2,2,3.2,4.6,3.4,8l0,1.6c0,3.7-1,6.6-3.1,8.8
		c-2,2.2-4.8,3.3-8.2,3.3c-3.4,0-6.2-1.1-8.2-3.3c-2-2.2-3.1-5.2-3.1-9V120.4z M189.6,120.9c0,2.3,0.4,4,1.3,5.2
		c0.9,1.2,2.1,1.8,3.6,1.8c1.5,0,2.7-0.6,3.6-1.8c0.9-1.2,1.3-3.1,1.3-5.7c0-2.2-0.4-3.9-1.3-5.1c-0.9-1.2-2.1-1.8-3.6-1.8
		c-1.6,0-2.8,0.6-3.6,1.8C190,116.5,189.6,118.4,189.6,120.9z M231.1,120.9c0,3.7-0.8,6.6-2.5,8.8c-1.7,2.2-3.9,3.3-6.7,3.3
		c-2.4,0-4.3-0.8-5.8-2.5v11.2h-6.4v-32.9h5.9l0.2,2.3c1.5-1.8,3.5-2.8,6-2.8c2.9,0,5.2,1.1,6.8,3.2c1.6,2.2,2.4,5.1,2.4,9V120.9z
		 M224.7,120.4c0-2.2-0.4-3.9-1.2-5.1c-0.8-1.2-1.9-1.8-3.4-1.8c-2,0-3.4,0.8-4.1,2.3v9.7c0.8,1.6,2.2,2.4,4.2,2.4
		C223.2,127.9,224.7,125.4,224.7,120.4z M263.2,124.1c0-1.2-0.4-2.2-1.3-2.9c-0.9-0.7-2.5-1.4-4.7-2.1c-2.3-0.8-4.1-1.5-5.4-2.2
		c-3.6-2-5.5-4.6-5.5-7.9c0-1.7,0.5-3.3,1.5-4.6c1-1.4,2.4-2.4,4.2-3.2c1.8-0.8,3.9-1.1,6.2-1.1c2.3,0,4.3,0.4,6.1,1.2
		c1.8,0.8,3.2,2,4.2,3.5c1,1.5,1.5,3.2,1.5,5.1h-6.6c0-1.5-0.5-2.6-1.4-3.4c-0.9-0.8-2.2-1.2-3.9-1.2c-1.6,0-2.9,0.3-3.8,1
		c-0.9,0.7-1.3,1.6-1.3,2.7c0,1,0.5,1.9,1.6,2.6c1.1,0.7,2.6,1.4,4.6,2c3.8,1.1,6.5,2.5,8.2,4.2c1.7,1.7,2.6,3.8,2.6,6.2
		c0,2.8-1,4.9-3.1,6.5c-2.1,1.6-4.9,2.3-8.5,2.3c-2.5,0-4.7-0.4-6.7-1.3c-2-0.9-3.6-2.1-4.6-3.7c-1.1-1.6-1.6-3.4-1.6-5.4h6.6
		c0,3.5,2.1,5.3,6.3,5.3c1.6,0,2.8-0.3,3.7-0.9C262.8,126.2,263.2,125.3,263.2,124.1z M284.9,133c-3.5,0-6.3-1.1-8.5-3.2
		c-2.2-2.1-3.3-5-3.3-8.6v-0.6c0-2.4,0.5-4.5,1.4-6.4c0.9-1.9,2.2-3.3,3.9-4.3c1.7-1,3.6-1.5,5.8-1.5c3.3,0,5.8,1,7.7,3.1
		c1.9,2.1,2.8,5,2.8,8.7v2.6h-15.1c0.2,1.6,0.8,2.8,1.8,3.7c1,0.9,2.4,1.4,3.9,1.4c2.4,0,4.4-0.9,5.7-2.7l3.1,3.5
		c-1,1.4-2.2,2.4-3.9,3.2C288.6,132.6,286.8,133,284.9,133z M284.1,113.5c-1.3,0-2.3,0.4-3.1,1.3c-0.8,0.9-1.3,2.1-1.5,3.6h8.8v-0.5
		c0-1.4-0.4-2.5-1.1-3.2C286.5,113.9,285.5,113.5,284.1,113.5z M305,132.5h-6.4V98.8h6.4V132.5z M316.9,132.5h-6.4V98.8h6.4V132.5z
		 M333.1,133c-3.5,0-6.3-1.1-8.5-3.2c-2.2-2.1-3.3-5-3.3-8.6v-0.6c0-2.4,0.5-4.5,1.4-6.4c0.9-1.9,2.2-3.3,3.9-4.3
		c1.7-1,3.6-1.5,5.8-1.5c3.3,0,5.8,1,7.7,3.1c1.9,2.1,2.8,5,2.8,8.7v2.6h-15.1c0.2,1.6,0.8,2.8,1.8,3.7c1,0.9,2.4,1.4,3.9,1.4
		c2.4,0,4.4-0.9,5.7-2.7l3.1,3.5c-1,1.4-2.2,2.4-3.9,3.2C336.9,132.6,335.1,133,333.1,133z M332.4,113.5c-1.3,0-2.3,0.4-3.1,1.3
		c-0.8,0.9-1.3,2.1-1.5,3.6h8.8v-0.5c0-1.4-0.4-2.5-1.1-3.2C334.8,113.9,333.7,113.5,332.4,113.5z M359.9,114.7
		c-0.9-0.1-1.6-0.2-2.3-0.2c-2.4,0-4,0.8-4.7,2.4v15.6h-6.3v-23.8h6l0.2,2.8c1.3-2.2,3-3.3,5.3-3.3c0.7,0,1.4,0.1,2,0.3L359.9,114.7
		z M375.8,126c0-0.8-0.4-1.4-1.2-1.8c-0.8-0.5-2-0.9-3.7-1.2c-5.7-1.2-8.5-3.6-8.5-7.2c0-2.1,0.9-3.9,2.6-5.3c1.8-1.4,4-2.1,6.9-2.1
		c3,0,5.4,0.7,7.2,2.1c1.8,1.4,2.7,3.3,2.7,5.5h-6.4c0-0.9-0.3-1.6-0.9-2.2c-0.6-0.6-1.5-0.9-2.7-0.9c-1.1,0-1.9,0.2-2.5,0.7
		c-0.6,0.5-0.9,1.1-0.9,1.8c0,0.7,0.3,1.3,1,1.7c0.7,0.4,1.8,0.8,3.4,1.1c1.6,0.3,2.9,0.7,4,1.1c3.4,1.2,5,3.4,5,6.4
		c0,2.2-0.9,3.9-2.8,5.3c-1.9,1.3-4.3,2-7.2,2c-2,0-3.8-0.3-5.3-1.1c-1.5-0.7-2.7-1.7-3.6-2.9c-0.9-1.2-1.3-2.6-1.3-4h6
		c0.1,1.1,0.5,2,1.3,2.6c0.8,0.6,1.8,0.9,3.1,0.9c1.2,0,2.1-0.2,2.7-0.7C375.5,127.3,375.8,126.7,375.8,126z"/>
	<path class="st9" d="M150.2,170.8l3.3,8.1l3.3-8.1h1.7v10h-1.3v-3.9l0.1-4.2l-3.3,8.1h-1l-3.3-8l0.1,4.2v3.9h-1.3v-10H150.2z
		 M165.2,180.7c-0.1-0.1-0.1-0.4-0.2-0.8c-0.6,0.6-1.3,0.9-2.1,0.9c-0.7,0-1.3-0.2-1.8-0.6c-0.5-0.4-0.7-0.9-0.7-1.6
		c0-0.8,0.3-1.4,0.9-1.8c0.6-0.4,1.4-0.6,2.5-0.6h1.2v-0.6c0-0.4-0.1-0.8-0.4-1.1c-0.3-0.3-0.7-0.4-1.2-0.4c-0.5,0-0.8,0.1-1.1,0.3
		c-0.3,0.2-0.5,0.5-0.5,0.8h-1.3c0-0.4,0.1-0.7,0.4-1.1c0.3-0.4,0.6-0.6,1.1-0.8c0.5-0.2,0.9-0.3,1.5-0.3c0.9,0,1.5,0.2,2,0.6
		c0.5,0.4,0.7,1,0.8,1.8v3.4c0,0.7,0.1,1.2,0.3,1.6v0.1H165.2z M163.1,179.8c0.4,0,0.8-0.1,1.1-0.3c0.4-0.2,0.6-0.5,0.8-0.8v-1.5h-1
		c-1.6,0-2.3,0.5-2.3,1.4c0,0.4,0.1,0.7,0.4,0.9C162.4,179.7,162.7,179.8,163.1,179.8z M172,174.5c-0.2,0-0.4,0-0.6,0
		c-0.8,0-1.4,0.4-1.7,1.1v5.2h-1.3v-7.4h1.2l0,0.9c0.4-0.7,1-1,1.8-1c0.2,0,0.4,0,0.6,0.1V174.5z M175.4,171.6v1.8h1.4v1h-1.4v4.6
		c0,0.3,0.1,0.5,0.2,0.7s0.3,0.2,0.6,0.2c0.1,0,0.3,0,0.6-0.1v1c-0.3,0.1-0.7,0.1-1,0.1c-0.6,0-1-0.2-1.3-0.5
		c-0.3-0.3-0.4-0.8-0.4-1.5v-4.6h-1.3v-1h1.3v-1.8H175.4z M179.8,180.7h-1.3v-7.4h1.3V180.7z M178.4,171.4c0-0.2,0.1-0.4,0.2-0.5
		c0.1-0.1,0.3-0.2,0.6-0.2c0.2,0,0.4,0.1,0.6,0.2c0.1,0.1,0.2,0.3,0.2,0.5c0,0.2-0.1,0.4-0.2,0.5c-0.1,0.1-0.3,0.2-0.6,0.2
		c-0.2,0-0.4-0.1-0.6-0.2C178.4,171.8,178.4,171.6,178.4,171.4z M183.1,173.4l0,0.9c0.6-0.7,1.3-1.1,2.2-1.1c1.6,0,2.4,0.9,2.4,2.6
		v4.9h-1.3v-4.9c0-0.5-0.1-0.9-0.4-1.2c-0.2-0.3-0.6-0.4-1.1-0.4c-0.4,0-0.8,0.1-1.1,0.3c-0.3,0.2-0.6,0.5-0.7,0.9v5.3h-1.3v-7.4
		H183.1z M199.1,178.1h-4.2l-0.9,2.6h-1.4l3.8-10h1.1l3.8,10H200L199.1,178.1z M195.3,177.1h3.4l-1.7-4.7L195.3,177.1z M204.8,179
		l1.8-5.7h1.3l-2.7,7.4h-1l-2.7-7.4h1.3L204.8,179z M210.6,180.7h-1.3v-7.4h1.3V180.7z M209.3,171.4c0-0.2,0.1-0.4,0.2-0.5
		c0.1-0.1,0.3-0.2,0.6-0.2s0.4,0.1,0.6,0.2c0.1,0.1,0.2,0.3,0.2,0.5c0,0.2-0.1,0.4-0.2,0.5c-0.1,0.1-0.3,0.2-0.6,0.2
		s-0.4-0.1-0.6-0.2C209.3,171.8,209.3,171.6,209.3,171.4z M214.2,180.7h-1.3v-10.5h1.3V180.7z M220.9,180.7
		c-0.1-0.1-0.1-0.4-0.2-0.8c-0.6,0.6-1.3,0.9-2.1,0.9c-0.7,0-1.3-0.2-1.8-0.6c-0.5-0.4-0.7-0.9-0.7-1.6c0-0.8,0.3-1.4,0.9-1.8
		c0.6-0.4,1.4-0.6,2.5-0.6h1.2v-0.6c0-0.4-0.1-0.8-0.4-1.1c-0.3-0.3-0.7-0.4-1.2-0.4c-0.5,0-0.8,0.1-1.1,0.3
		c-0.3,0.2-0.5,0.5-0.5,0.8h-1.3c0-0.4,0.1-0.7,0.4-1.1c0.3-0.4,0.6-0.6,1.1-0.8c0.5-0.2,0.9-0.3,1.5-0.3c0.9,0,1.5,0.2,2,0.6
		c0.5,0.4,0.7,1,0.8,1.8v3.4c0,0.7,0.1,1.2,0.3,1.6v0.1H220.9z M218.8,179.8c0.4,0,0.8-0.1,1.1-0.3c0.4-0.2,0.6-0.5,0.8-0.8v-1.5h-1
		c-1.5,0-2.3,0.5-2.3,1.4c0,0.4,0.1,0.7,0.4,0.9C218.1,179.7,218.4,179.8,218.8,179.8z"/>
	<path class="st9" d="M155.8,267.9c-0.1,1.1-0.5,1.9-1.2,2.4c-0.7,0.6-1.5,0.9-2.6,0.9c-1.2,0-2.1-0.4-2.8-1.3
		c-0.7-0.9-1.1-2-1.1-3.4v-1c0-0.9,0.2-1.7,0.5-2.4c0.3-0.7,0.8-1.2,1.4-1.6c0.6-0.4,1.3-0.6,2.1-0.6c1.1,0,1.9,0.3,2.5,0.9
		c0.6,0.6,1,1.4,1.1,2.4h-1.3c-0.1-0.8-0.4-1.4-0.7-1.7c-0.4-0.4-0.9-0.5-1.6-0.5c-0.8,0-1.5,0.3-2,0.9c-0.5,0.6-0.7,1.5-0.7,2.7v1
		c0,1.1,0.2,1.9,0.7,2.6c0.5,0.6,1.1,1,1.9,1c0.7,0,1.3-0.2,1.7-0.5c0.4-0.3,0.7-0.9,0.8-1.7H155.8z M158.8,264.6
		c0.6-0.7,1.3-1,2.2-1c1.6,0,2.4,0.9,2.4,2.6v4.9h-1.3v-4.9c0-0.5-0.1-0.9-0.4-1.2c-0.2-0.3-0.6-0.4-1.1-0.4c-0.4,0-0.8,0.1-1.1,0.3
		c-0.3,0.2-0.6,0.5-0.7,0.9v5.3h-1.3v-10.5h1.3V264.6z M170,271.1c-0.1-0.1-0.1-0.4-0.2-0.8c-0.6,0.6-1.3,0.9-2.1,0.9
		c-0.7,0-1.3-0.2-1.8-0.6c-0.5-0.4-0.7-0.9-0.7-1.6c0-0.8,0.3-1.4,0.9-1.8c0.6-0.4,1.4-0.6,2.5-0.6h1.2V266c0-0.4-0.1-0.8-0.4-1
		c-0.3-0.3-0.7-0.4-1.2-0.4c-0.5,0-0.8,0.1-1.1,0.3c-0.3,0.2-0.5,0.5-0.5,0.8h-1.3c0-0.4,0.1-0.7,0.4-1.1c0.3-0.3,0.6-0.6,1.1-0.8
		c0.5-0.2,0.9-0.3,1.5-0.3c0.9,0,1.5,0.2,2,0.6c0.5,0.4,0.7,1,0.8,1.8v3.4c0,0.7,0.1,1.2,0.3,1.6v0.1H170z M167.9,270.1
		c0.4,0,0.8-0.1,1.1-0.3c0.4-0.2,0.6-0.5,0.8-0.8v-1.5h-1c-1.5,0-2.3,0.5-2.3,1.4c0,0.4,0.1,0.7,0.4,0.9
		C167.1,270,167.5,270.1,167.9,270.1z M176.8,264.8c-0.2,0-0.4,0-0.6,0c-0.8,0-1.4,0.4-1.7,1v5.2h-1.3v-7.4h1.2l0,0.8
		c0.4-0.7,1-1,1.8-1c0.2,0,0.4,0,0.6,0.1V264.8z M179.4,271.1h-1.3v-10.5h1.3V271.1z M183,271.1h-1.3v-7.4h1.3V271.1z M181.6,261.7
		c0-0.2,0.1-0.4,0.2-0.5c0.1-0.1,0.3-0.2,0.6-0.2s0.4,0.1,0.6,0.2c0.1,0.1,0.2,0.3,0.2,0.5c0,0.2-0.1,0.4-0.2,0.5
		c-0.1,0.1-0.3,0.2-0.6,0.2s-0.4-0.1-0.6-0.2C181.7,262.1,181.6,261.9,181.6,261.7z M188.2,271.2c-1,0-1.8-0.3-2.4-1
		c-0.6-0.7-0.9-1.5-0.9-2.6v-0.2c0-0.7,0.1-1.4,0.4-2c0.3-0.6,0.7-1,1.2-1.4c0.5-0.3,1.1-0.5,1.6-0.5c1,0,1.7,0.3,2.2,0.9
		c0.5,0.6,0.8,1.5,0.8,2.7v0.5h-5c0,0.7,0.2,1.3,0.6,1.8c0.4,0.5,0.9,0.7,1.6,0.7c0.4,0,0.8-0.1,1.1-0.3c0.3-0.2,0.6-0.4,0.8-0.7
		l0.8,0.6C190.4,270.8,189.5,271.2,188.2,271.2z M188.1,264.6c-0.5,0-0.9,0.2-1.3,0.6c-0.3,0.4-0.6,0.9-0.6,1.6h3.7v-0.1
		c0-0.6-0.2-1.1-0.5-1.5C189,264.8,188.6,264.6,188.1,264.6z M202,266.7h-4.2v4.4h-1.3v-9.9h6.2v1.1h-4.9v3.4h4.2V266.7z
		 M205.6,271.1h-1.3v-10.5h1.3V271.1z M207.4,267.3c0-0.7,0.1-1.4,0.4-2c0.3-0.6,0.7-1,1.2-1.3c0.5-0.3,1.1-0.5,1.7-0.5
		c1,0,1.8,0.4,2.4,1c0.6,0.7,0.9,1.6,0.9,2.8v0.1c0,0.7-0.1,1.4-0.4,1.9c-0.3,0.6-0.7,1-1.2,1.3c-0.5,0.3-1.1,0.5-1.8,0.5
		c-1,0-1.8-0.4-2.4-1C207.7,269.5,207.4,268.6,207.4,267.3L207.4,267.3z M208.7,267.5c0,0.8,0.2,1.5,0.6,2c0.4,0.5,0.9,0.8,1.5,0.8
		c0.6,0,1.2-0.2,1.5-0.8c0.4-0.5,0.6-1.2,0.6-2.1c0-0.8-0.2-1.5-0.6-2c-0.4-0.5-0.9-0.8-1.5-0.8c-0.6,0-1.1,0.2-1.5,0.8
		C208.9,265.8,208.7,266.5,208.7,267.5z M222.4,269.4l1.4-5.6h1.3l-2.2,7.4h-1l-1.8-5.6l-1.8,5.6h-1l-2.1-7.4h1.3l1.5,5.5l1.7-5.5h1
		L222.4,269.4z M229.6,271.2c-1,0-1.8-0.3-2.4-1c-0.6-0.7-0.9-1.5-0.9-2.6v-0.2c0-0.7,0.1-1.4,0.4-2c0.3-0.6,0.7-1,1.2-1.4
		c0.5-0.3,1.1-0.5,1.6-0.5c1,0,1.7,0.3,2.2,0.9c0.5,0.6,0.8,1.5,0.8,2.7v0.5h-5c0,0.7,0.2,1.3,0.6,1.8c0.4,0.5,0.9,0.7,1.6,0.7
		c0.4,0,0.8-0.1,1.1-0.3c0.3-0.2,0.6-0.4,0.8-0.7l0.8,0.6C231.8,270.8,230.9,271.2,229.6,271.2z M229.5,264.6
		c-0.5,0-0.9,0.2-1.3,0.6c-0.3,0.4-0.6,0.9-0.6,1.6h3.7v-0.1c0-0.6-0.2-1.1-0.5-1.5S230,264.6,229.5,264.6z M237.7,264.8
		c-0.2,0-0.4,0-0.6,0c-0.8,0-1.4,0.4-1.7,1v5.2h-1.3v-7.4h1.2l0,0.8c0.4-0.7,1-1,1.8-1c0.2,0,0.4,0,0.6,0.1V264.8z M243.3,269.1
		c0-0.3-0.1-0.6-0.4-0.8c-0.3-0.2-0.7-0.4-1.3-0.5c-0.6-0.1-1.1-0.3-1.5-0.5c-0.4-0.2-0.7-0.4-0.8-0.7c-0.2-0.3-0.3-0.6-0.3-0.9
		c0-0.6,0.3-1.1,0.8-1.5c0.5-0.4,1.2-0.6,2-0.6c0.8,0,1.5,0.2,2,0.6c0.5,0.4,0.8,1,0.8,1.7h-1.3c0-0.3-0.1-0.6-0.4-0.9
		c-0.3-0.2-0.7-0.4-1.1-0.4c-0.5,0-0.8,0.1-1.1,0.3c-0.3,0.2-0.4,0.5-0.4,0.8c0,0.3,0.1,0.5,0.4,0.7c0.2,0.1,0.7,0.3,1.3,0.4
		c0.6,0.1,1.1,0.3,1.5,0.5c0.4,0.2,0.7,0.4,0.9,0.7c0.2,0.3,0.3,0.6,0.3,1c0,0.7-0.3,1.2-0.8,1.6c-0.5,0.4-1.2,0.6-2.1,0.6
		c-0.6,0-1.1-0.1-1.6-0.3c-0.5-0.2-0.8-0.5-1.1-0.9c-0.3-0.4-0.4-0.8-0.4-1.2h1.3c0,0.4,0.2,0.8,0.5,1c0.3,0.2,0.7,0.4,1.3,0.4
		c0.5,0,0.9-0.1,1.1-0.3C243.1,269.7,243.3,269.5,243.3,269.1z"/>
	<path class="st9" d="M156.2,356.8c0,1-0.2,1.8-0.5,2.6c-0.3,0.7-0.8,1.3-1.4,1.7c-0.6,0.4-1.3,0.6-2.1,0.6c-0.8,0-1.5-0.2-2.1-0.6
		c-0.6-0.4-1.1-0.9-1.4-1.6c-0.3-0.7-0.5-1.5-0.5-2.5v-0.7c0-1,0.2-1.8,0.5-2.5c0.3-0.7,0.8-1.3,1.4-1.7c0.6-0.4,1.3-0.6,2.1-0.6
		c0.8,0,1.5,0.2,2.1,0.6c0.6,0.4,1.1,0.9,1.4,1.7s0.5,1.6,0.5,2.6V356.8z M154.9,356.1c0-1.2-0.2-2.1-0.7-2.7c-0.5-0.6-1.1-1-2-1
		c-0.8,0-1.5,0.3-2,1c-0.5,0.6-0.7,1.5-0.7,2.6v0.7c0,1.1,0.2,2,0.7,2.7c0.5,0.6,1.1,1,2,1c0.8,0,1.5-0.3,2-0.9
		c0.5-0.6,0.7-1.5,0.7-2.7V356.1z M159.3,354l0,0.8c0.5-0.6,1.3-1,2.2-1c1,0,1.7,0.4,2.1,1.2c0.2-0.4,0.6-0.6,1-0.9
		c0.4-0.2,0.9-0.3,1.4-0.3c1.6,0,2.4,0.9,2.5,2.6v5h-1.3v-4.9c0-0.5-0.1-0.9-0.4-1.2c-0.2-0.3-0.6-0.4-1.2-0.4
		c-0.5,0-0.9,0.1-1.2,0.4c-0.3,0.3-0.5,0.6-0.5,1.1v4.9h-1.3v-4.9c0-1.1-0.5-1.6-1.6-1.6c-0.8,0-1.4,0.3-1.7,1.1v5.4h-1.3V354H159.3
		z M175.1,361.5c-0.1-0.2-0.1-0.4-0.2-0.8c-0.6,0.6-1.3,0.9-2.1,0.9c-0.7,0-1.3-0.2-1.8-0.6c-0.5-0.4-0.7-0.9-0.7-1.6
		c0-0.8,0.3-1.4,0.9-1.8c0.6-0.4,1.4-0.6,2.5-0.6h1.2v-0.6c0-0.4-0.1-0.8-0.4-1c-0.3-0.3-0.7-0.4-1.2-0.4c-0.5,0-0.8,0.1-1.1,0.3
		c-0.3,0.2-0.5,0.5-0.5,0.8h-1.3c0-0.4,0.1-0.7,0.4-1.1c0.3-0.3,0.6-0.6,1.1-0.8c0.5-0.2,0.9-0.3,1.5-0.3c0.9,0,1.5,0.2,2,0.6
		c0.5,0.4,0.7,1,0.8,1.8v3.4c0,0.7,0.1,1.2,0.3,1.6v0.1H175.1z M173,360.5c0.4,0,0.8-0.1,1.1-0.3c0.4-0.2,0.6-0.5,0.8-0.8v-1.5h-1
		c-1.5,0-2.3,0.5-2.3,1.4c0,0.4,0.1,0.7,0.4,0.9C172.2,360.4,172.5,360.5,173,360.5z M181.8,355.2c-0.2,0-0.4,0-0.6,0
		c-0.8,0-1.4,0.4-1.7,1.1v5.2h-1.3V354h1.2l0,0.9c0.4-0.7,1-1,1.8-1c0.2,0,0.4,0,0.6,0.1V355.2z M194.3,360.1
		c-0.3,0.5-0.8,0.9-1.4,1.1c-0.6,0.2-1.3,0.4-2.1,0.4c-0.8,0-1.5-0.2-2.2-0.6c-0.6-0.4-1.1-0.9-1.5-1.6c-0.3-0.7-0.5-1.5-0.5-2.4
		v-0.9c0-1.5,0.3-2.7,1-3.5c0.7-0.8,1.7-1.2,3-1.2c1,0,1.9,0.3,2.5,0.8c0.6,0.5,1,1.3,1.2,2.2H193c-0.2-1.3-1-2-2.4-2
		c-0.9,0-1.5,0.3-2,0.9c-0.5,0.6-0.7,1.5-0.7,2.7v0.8c0,1.1,0.3,2,0.8,2.7c0.5,0.7,1.2,1,2.1,1c0.5,0,0.9,0,1.3-0.2
		c0.4-0.1,0.7-0.3,0.9-0.6v-2.2h-2.3v-1.1h3.6V360.1z M197.8,361.5h-1.3V354h1.3V361.5z M196.4,352.1c0-0.2,0.1-0.4,0.2-0.5
		c0.1-0.1,0.3-0.2,0.6-0.2s0.4,0.1,0.6,0.2c0.1,0.1,0.2,0.3,0.2,0.5c0,0.2-0.1,0.4-0.2,0.5c-0.1,0.1-0.3,0.2-0.6,0.2
		s-0.4-0.1-0.6-0.2C196.5,352.5,196.4,352.3,196.4,352.1z M201.3,361.5h-1.3V351h1.3V361.5z M209.8,357.8c0,1.1-0.3,2-0.8,2.7
		c-0.5,0.7-1.2,1-2.1,1c-0.9,0-1.7-0.3-2.2-1l-0.1,0.9h-1.2V351h1.3v3.9c0.5-0.6,1.2-0.9,2.1-0.9c0.9,0,1.6,0.3,2.1,1
		c0.5,0.7,0.8,1.6,0.8,2.8V357.8z M208.5,357.7c0-0.9-0.2-1.5-0.5-2c-0.3-0.5-0.8-0.7-1.4-0.7c-0.8,0-1.4,0.4-1.8,1.2v3.2
		c0.4,0.8,1,1.2,1.8,1.2c0.6,0,1.1-0.2,1.4-0.7C208.3,359.3,208.5,358.6,208.5,357.7z M214.6,361.6c-1,0-1.8-0.3-2.4-1
		c-0.6-0.7-0.9-1.5-0.9-2.6v-0.2c0-0.7,0.1-1.4,0.4-2c0.3-0.6,0.7-1,1.2-1.3c0.5-0.3,1.1-0.5,1.6-0.5c1,0,1.7,0.3,2.2,0.9
		c0.5,0.6,0.8,1.5,0.8,2.7v0.5h-5c0,0.7,0.2,1.3,0.6,1.8c0.4,0.5,0.9,0.7,1.6,0.7c0.4,0,0.8-0.1,1.1-0.3c0.3-0.2,0.6-0.4,0.8-0.7
		l0.8,0.6C216.8,361.1,215.8,361.6,214.6,361.6z M214.4,355c-0.5,0-0.9,0.2-1.3,0.6c-0.3,0.4-0.6,0.9-0.6,1.6h3.7V357
		c0-0.6-0.2-1.1-0.5-1.5C215.4,355.1,215,355,214.4,355z M222.7,355.2c-0.2,0-0.4,0-0.6,0c-0.8,0-1.4,0.4-1.7,1.1v5.2h-1.3V354h1.2
		l0,0.9c0.4-0.7,1-1,1.8-1c0.2,0,0.4,0,0.6,0.1V355.2z M226,352.3v1.8h1.4v1H226v4.6c0,0.3,0.1,0.5,0.2,0.7c0.1,0.2,0.3,0.2,0.6,0.2
		c0.1,0,0.3,0,0.6-0.1v1c-0.3,0.1-0.7,0.1-1,0.1c-0.6,0-1-0.2-1.3-0.5c-0.3-0.3-0.4-0.8-0.4-1.5V355h-1.3v-1h1.3v-1.8H226z"/>
	<path class="st9" d="M156.2,446.7c0,1-0.2,1.8-0.5,2.5c-0.3,0.7-0.8,1.3-1.4,1.7c-0.6,0.4-1.3,0.6-2.1,0.6c-0.8,0-1.5-0.2-2.1-0.6
		c-0.6-0.4-1.1-0.9-1.4-1.6c-0.3-0.7-0.5-1.5-0.5-2.5v-0.7c0-1,0.2-1.8,0.5-2.5c0.3-0.7,0.8-1.3,1.4-1.7c0.6-0.4,1.3-0.6,2.1-0.6
		c0.8,0,1.5,0.2,2.1,0.6c0.6,0.4,1.1,1,1.4,1.7s0.5,1.6,0.5,2.5V446.7z M154.9,446.1c0-1.2-0.2-2.1-0.7-2.7s-1.1-0.9-2-0.9
		c-0.8,0-1.5,0.3-2,0.9c-0.5,0.6-0.7,1.5-0.7,2.6v0.7c0,1.1,0.2,2,0.7,2.7c0.5,0.6,1.1,1,2,1c0.8,0,1.5-0.3,2-0.9
		c0.5-0.6,0.7-1.5,0.7-2.7V446.1z M159.3,444l0,0.8c0.5-0.6,1.3-1,2.2-1c1,0,1.7,0.4,2.1,1.2c0.2-0.4,0.6-0.6,1-0.9
		c0.4-0.2,0.9-0.3,1.4-0.3c1.6,0,2.4,0.9,2.5,2.6v5h-1.3v-4.9c0-0.5-0.1-0.9-0.4-1.2c-0.2-0.3-0.6-0.4-1.2-0.4
		c-0.5,0-0.9,0.1-1.2,0.4c-0.3,0.3-0.5,0.6-0.5,1.1v4.9h-1.3v-4.8c0-1.1-0.5-1.6-1.6-1.6c-0.8,0-1.4,0.4-1.7,1.1v5.4h-1.3V444H159.3
		z M175.1,451.4c-0.1-0.1-0.1-0.4-0.2-0.8c-0.6,0.6-1.3,0.9-2.1,0.9c-0.7,0-1.3-0.2-1.8-0.6c-0.5-0.4-0.7-0.9-0.7-1.6
		c0-0.8,0.3-1.4,0.9-1.8c0.6-0.4,1.4-0.6,2.5-0.6h1.2v-0.6c0-0.4-0.1-0.8-0.4-1.1c-0.3-0.3-0.7-0.4-1.2-0.4c-0.5,0-0.8,0.1-1.1,0.3
		c-0.3,0.2-0.5,0.5-0.5,0.8h-1.3c0-0.4,0.1-0.7,0.4-1.1c0.3-0.4,0.6-0.6,1.1-0.8c0.5-0.2,0.9-0.3,1.5-0.3c0.9,0,1.5,0.2,2,0.6
		s0.7,1,0.8,1.8v3.4c0,0.7,0.1,1.2,0.3,1.6v0.1H175.1z M173,450.4c0.4,0,0.8-0.1,1.1-0.3c0.4-0.2,0.6-0.5,0.8-0.8v-1.5h-1
		c-1.5,0-2.3,0.5-2.3,1.4c0,0.4,0.1,0.7,0.4,0.9C172.2,450.3,172.5,450.4,173,450.4z M181.8,445.1c-0.2,0-0.4,0-0.6,0
		c-0.8,0-1.4,0.4-1.7,1.1v5.2h-1.3V444h1.2l0,0.9c0.4-0.7,1-1,1.8-1c0.2,0,0.4,0,0.6,0.1V445.1z M194.3,450.1
		c-0.3,0.5-0.8,0.8-1.4,1.1c-0.6,0.2-1.3,0.4-2.1,0.4c-0.8,0-1.5-0.2-2.2-0.6c-0.6-0.4-1.1-0.9-1.5-1.6c-0.3-0.7-0.5-1.5-0.5-2.4
		V446c0-1.5,0.3-2.7,1-3.5c0.7-0.8,1.7-1.2,3-1.2c1,0,1.9,0.3,2.5,0.8c0.6,0.5,1,1.3,1.2,2.3H193c-0.2-1.3-1-2-2.4-2
		c-0.9,0-1.5,0.3-2,0.9c-0.5,0.6-0.7,1.5-0.7,2.7v0.8c0,1.1,0.3,2,0.8,2.7c0.5,0.7,1.2,1,2.1,1c0.5,0,0.9-0.1,1.3-0.2
		c0.4-0.1,0.7-0.3,0.9-0.5v-2.2h-2.3v-1.1h3.6V450.1z M197.8,451.4h-1.3V444h1.3V451.4z M196.4,442c0-0.2,0.1-0.4,0.2-0.5
		c0.1-0.1,0.3-0.2,0.6-0.2s0.4,0.1,0.6,0.2c0.1,0.1,0.2,0.3,0.2,0.5c0,0.2-0.1,0.4-0.2,0.5c-0.1,0.1-0.3,0.2-0.6,0.2
		s-0.4-0.1-0.6-0.2C196.5,442.4,196.4,442.2,196.4,442z M201.3,451.4h-1.3v-10.5h1.3V451.4z M209.8,447.8c0,1.1-0.3,2-0.8,2.7
		c-0.5,0.7-1.2,1-2.1,1c-0.9,0-1.7-0.3-2.2-1l-0.1,0.9h-1.2v-10.5h1.3v3.9c0.5-0.6,1.2-1,2.1-1c0.9,0,1.6,0.3,2.1,1
		c0.5,0.7,0.8,1.6,0.8,2.8V447.8z M208.5,447.6c0-0.9-0.2-1.5-0.5-2c-0.3-0.5-0.8-0.7-1.4-0.7c-0.8,0-1.4,0.4-1.8,1.2v3.2
		c0.4,0.8,1,1.2,1.8,1.2c0.6,0,1.1-0.2,1.4-0.7C208.3,449.3,208.5,448.6,208.5,447.6z M214.6,451.5c-1,0-1.8-0.3-2.4-1
		c-0.6-0.7-0.9-1.5-0.9-2.6v-0.2c0-0.7,0.1-1.4,0.4-2c0.3-0.6,0.7-1,1.2-1.4c0.5-0.3,1.1-0.5,1.6-0.5c1,0,1.7,0.3,2.2,1
		c0.5,0.6,0.8,1.5,0.8,2.7v0.5h-5c0,0.7,0.2,1.3,0.6,1.8c0.4,0.4,0.9,0.7,1.6,0.7c0.4,0,0.8-0.1,1.1-0.3c0.3-0.2,0.6-0.4,0.8-0.7
		l0.8,0.6C216.8,451,215.8,451.5,214.6,451.5z M214.4,444.9c-0.5,0-0.9,0.2-1.3,0.6c-0.3,0.4-0.6,0.9-0.6,1.6h3.7v-0.1
		c0-0.6-0.2-1.1-0.5-1.5C215.4,445.1,215,444.9,214.4,444.9z M222.7,445.1c-0.2,0-0.4,0-0.6,0c-0.8,0-1.4,0.4-1.7,1.1v5.2h-1.3V444
		h1.2l0,0.9c0.4-0.7,1-1,1.8-1c0.2,0,0.4,0,0.6,0.1V445.1z M226,442.2v1.8h1.4v1H226v4.6c0,0.3,0.1,0.5,0.2,0.7s0.3,0.2,0.6,0.2
		c0.1,0,0.3,0,0.6-0.1v1c-0.3,0.1-0.7,0.1-1,0.1c-0.6,0-1-0.2-1.3-0.5c-0.3-0.3-0.4-0.8-0.4-1.5V445h-1.3v-1h1.3v-1.8H226z"/>
	<path class="st9" d="M156.2,534.6c0,1-0.2,1.8-0.5,2.6c-0.3,0.7-0.8,1.3-1.4,1.7c-0.6,0.4-1.3,0.6-2.1,0.6c-0.8,0-1.5-0.2-2.1-0.6
		c-0.6-0.4-1.1-0.9-1.4-1.6c-0.3-0.7-0.5-1.5-0.5-2.5V534c0-1,0.2-1.8,0.5-2.5c0.3-0.7,0.8-1.3,1.4-1.7c0.6-0.4,1.3-0.6,2.1-0.6
		c0.8,0,1.5,0.2,2.1,0.6c0.6,0.4,1.1,1,1.4,1.7s0.5,1.6,0.5,2.5V534.6z M154.9,534c0-1.2-0.2-2.1-0.7-2.7s-1.1-1-2-1
		c-0.8,0-1.5,0.3-2,1c-0.5,0.6-0.7,1.5-0.7,2.6v0.7c0,1.1,0.2,2,0.7,2.7c0.5,0.6,1.1,1,2,1c0.8,0,1.5-0.3,2-0.9
		c0.5-0.6,0.7-1.5,0.7-2.7V534z M159.3,531.9l0,0.8c0.5-0.6,1.3-1,2.2-1c1,0,1.7,0.4,2.1,1.2c0.2-0.4,0.6-0.6,1-0.9
		c0.4-0.2,0.9-0.3,1.4-0.3c1.6,0,2.4,0.9,2.5,2.6v4.9h-1.3v-4.9c0-0.5-0.1-0.9-0.4-1.2c-0.2-0.3-0.6-0.4-1.2-0.4
		c-0.5,0-0.9,0.2-1.2,0.4c-0.3,0.3-0.5,0.6-0.5,1.1v4.9h-1.3v-4.8c0-1.1-0.5-1.6-1.6-1.6c-0.8,0-1.4,0.4-1.7,1.1v5.4h-1.3v-7.4
		H159.3z M175.1,539.3c-0.1-0.1-0.1-0.4-0.2-0.8c-0.6,0.6-1.3,0.9-2.1,0.9c-0.7,0-1.3-0.2-1.8-0.6c-0.5-0.4-0.7-0.9-0.7-1.6
		c0-0.8,0.3-1.4,0.9-1.8c0.6-0.4,1.4-0.6,2.5-0.6h1.2v-0.6c0-0.4-0.1-0.8-0.4-1.1c-0.3-0.3-0.7-0.4-1.2-0.4c-0.5,0-0.8,0.1-1.1,0.3
		c-0.3,0.2-0.5,0.5-0.5,0.8h-1.3c0-0.4,0.1-0.7,0.4-1.1c0.3-0.3,0.6-0.6,1.1-0.8c0.5-0.2,0.9-0.3,1.5-0.3c0.9,0,1.5,0.2,2,0.6
		c0.5,0.4,0.7,1,0.8,1.8v3.4c0,0.7,0.1,1.2,0.3,1.6v0.1H175.1z M173,538.3c0.4,0,0.8-0.1,1.1-0.3c0.4-0.2,0.6-0.5,0.8-0.8v-1.5h-1
		c-1.5,0-2.3,0.5-2.3,1.4c0,0.4,0.1,0.7,0.4,0.9C172.2,538.2,172.5,538.3,173,538.3z M181.8,533c-0.2,0-0.4,0-0.6,0
		c-0.8,0-1.4,0.4-1.7,1.1v5.2h-1.3v-7.4h1.2l0,0.8c0.4-0.7,1-1,1.8-1c0.2,0,0.4,0,0.6,0.1V533z M194.3,538c-0.3,0.5-0.8,0.8-1.4,1.1
		c-0.6,0.2-1.3,0.4-2.1,0.4c-0.8,0-1.5-0.2-2.2-0.6c-0.6-0.4-1.1-0.9-1.5-1.6c-0.3-0.7-0.5-1.5-0.5-2.4v-0.9c0-1.5,0.3-2.7,1-3.5
		c0.7-0.8,1.7-1.2,3-1.2c1,0,1.9,0.3,2.5,0.8c0.6,0.5,1,1.3,1.2,2.3H193c-0.2-1.3-1-2-2.4-2c-0.9,0-1.5,0.3-2,0.9
		c-0.5,0.6-0.7,1.5-0.7,2.7v0.8c0,1.1,0.3,2,0.8,2.7c0.5,0.7,1.2,1,2.1,1c0.5,0,0.9-0.1,1.3-0.2c0.4-0.1,0.7-0.3,0.9-0.6v-2.2h-2.3
		v-1.1h3.6V538z M197.8,539.3h-1.3v-7.4h1.3V539.3z M196.4,530c0-0.2,0.1-0.4,0.2-0.5c0.1-0.2,0.3-0.2,0.6-0.2s0.4,0.1,0.6,0.2
		c0.1,0.1,0.2,0.3,0.2,0.5c0,0.2-0.1,0.4-0.2,0.5c-0.1,0.1-0.3,0.2-0.6,0.2s-0.4-0.1-0.6-0.2C196.5,530.3,196.4,530.1,196.4,530z
		 M201.3,539.3h-1.3v-10.5h1.3V539.3z M209.8,535.7c0,1.1-0.3,2-0.8,2.7c-0.5,0.7-1.2,1-2.1,1c-0.9,0-1.7-0.3-2.2-1l-0.1,0.8h-1.2
		v-10.5h1.3v3.9c0.5-0.6,1.2-1,2.1-1c0.9,0,1.6,0.3,2.1,1c0.5,0.7,0.8,1.6,0.8,2.8V535.7z M208.5,535.5c0-0.9-0.2-1.5-0.5-2
		c-0.3-0.5-0.8-0.7-1.4-0.7c-0.8,0-1.4,0.4-1.8,1.2v3.2c0.4,0.8,1,1.2,1.8,1.2c0.6,0,1.1-0.2,1.4-0.7
		C208.3,537.2,208.5,536.5,208.5,535.5z M214.6,539.4c-1,0-1.8-0.3-2.4-1c-0.6-0.7-0.9-1.5-0.9-2.6v-0.2c0-0.7,0.1-1.4,0.4-2
		c0.3-0.6,0.7-1,1.2-1.4c0.5-0.3,1.1-0.5,1.6-0.5c1,0,1.7,0.3,2.2,1c0.5,0.6,0.8,1.5,0.8,2.7v0.5h-5c0,0.7,0.2,1.3,0.6,1.8
		c0.4,0.4,0.9,0.7,1.6,0.7c0.4,0,0.8-0.1,1.1-0.3c0.3-0.2,0.6-0.4,0.8-0.7l0.8,0.6C216.8,539,215.8,539.4,214.6,539.4z M214.4,532.8
		c-0.5,0-0.9,0.2-1.3,0.6c-0.3,0.4-0.6,0.9-0.6,1.6h3.7v-0.1c0-0.6-0.2-1.1-0.5-1.5C215.4,533,215,532.8,214.4,532.8z M222.7,533
		c-0.2,0-0.4,0-0.6,0c-0.8,0-1.4,0.4-1.7,1.1v5.2h-1.3v-7.4h1.2l0,0.8c0.4-0.7,1-1,1.8-1c0.2,0,0.4,0,0.6,0.1V533z M226,530.1v1.8
		h1.4v1H226v4.6c0,0.3,0.1,0.5,0.2,0.7s0.3,0.2,0.6,0.2c0.1,0,0.3,0,0.6-0.1v1c-0.3,0.1-0.7,0.1-1,0.1c-0.6,0-1-0.2-1.3-0.5
		c-0.3-0.3-0.4-0.8-0.4-1.5v-4.6h-1.3v-1h1.3v-1.8H226z"/>
	<path class="st9" d="M152.2,312.2h-2.3v4h-1.3v-10h3.3c1.1,0,2,0.2,2.6,0.8c0.6,0.5,0.9,1.3,0.9,2.2c0,0.6-0.2,1.2-0.5,1.6
		c-0.3,0.5-0.8,0.8-1.4,1l2.3,4.2v0.1h-1.4L152.2,312.2z M149.8,311.2h2c0.7,0,1.2-0.2,1.6-0.5c0.4-0.3,0.6-0.8,0.6-1.4
		c0-0.6-0.2-1.1-0.6-1.4c-0.4-0.3-0.9-0.5-1.6-0.5h-2V311.2z M156.7,312.5c0-0.7,0.1-1.4,0.4-2c0.3-0.6,0.7-1,1.2-1.3
		c0.5-0.3,1.1-0.5,1.7-0.5c1,0,1.8,0.3,2.4,1c0.6,0.7,0.9,1.6,0.9,2.8v0.1c0,0.7-0.1,1.4-0.4,1.9c-0.3,0.6-0.7,1-1.2,1.3
		c-0.5,0.3-1.1,0.5-1.8,0.5c-1,0-1.8-0.4-2.4-1.1C157.1,314.7,156.7,313.7,156.7,312.5L156.7,312.5z M158,312.7c0,0.8,0.2,1.5,0.6,2
		c0.4,0.5,0.9,0.8,1.5,0.8c0.6,0,1.2-0.2,1.5-0.8c0.4-0.5,0.6-1.2,0.6-2.1c0-0.8-0.2-1.5-0.6-2c-0.4-0.5-0.9-0.8-1.5-0.8
		c-0.6,0-1.1,0.2-1.5,0.7C158.2,311,158,311.7,158,312.7z M169.5,314.3c0-0.3-0.1-0.6-0.4-0.8c-0.3-0.2-0.7-0.4-1.3-0.5
		c-0.6-0.1-1.1-0.3-1.5-0.5c-0.4-0.2-0.7-0.4-0.8-0.7c-0.2-0.3-0.3-0.6-0.3-0.9c0-0.6,0.3-1.1,0.8-1.5c0.5-0.4,1.2-0.6,2-0.6
		c0.8,0,1.5,0.2,2,0.6c0.5,0.4,0.8,1,0.8,1.7h-1.3c0-0.3-0.1-0.6-0.4-0.9c-0.3-0.2-0.7-0.4-1.1-0.4c-0.5,0-0.8,0.1-1.1,0.3
		c-0.3,0.2-0.4,0.5-0.4,0.8c0,0.3,0.1,0.5,0.4,0.7c0.2,0.2,0.7,0.3,1.3,0.5c0.6,0.1,1.1,0.3,1.5,0.5c0.4,0.2,0.7,0.4,0.9,0.7
		c0.2,0.3,0.3,0.6,0.3,1c0,0.7-0.3,1.2-0.8,1.6c-0.5,0.4-1.2,0.6-2.1,0.6c-0.6,0-1.1-0.1-1.6-0.3c-0.5-0.2-0.8-0.5-1.1-0.9
		c-0.3-0.4-0.4-0.8-0.4-1.2h1.3c0,0.4,0.2,0.8,0.5,1c0.3,0.2,0.7,0.4,1.3,0.4c0.5,0,0.9-0.1,1.1-0.3
		C169.4,314.9,169.5,314.6,169.5,314.3z M173.9,316.3h-1.3v-7.4h1.3V316.3z M172.6,306.9c0-0.2,0.1-0.4,0.2-0.5
		c0.1-0.1,0.3-0.2,0.6-0.2s0.4,0.1,0.6,0.2c0.1,0.1,0.2,0.3,0.2,0.5c0,0.2-0.1,0.4-0.2,0.5c-0.1,0.1-0.3,0.2-0.6,0.2
		s-0.4-0.1-0.6-0.2C172.6,307.3,172.6,307.1,172.6,306.9z M179.2,316.4c-1,0-1.8-0.3-2.4-1c-0.6-0.7-0.9-1.5-0.9-2.6v-0.2
		c0-0.7,0.1-1.4,0.4-2c0.3-0.6,0.7-1,1.2-1.4c0.5-0.3,1.1-0.5,1.6-0.5c1,0,1.7,0.3,2.2,0.9c0.5,0.6,0.8,1.5,0.8,2.7v0.5h-5
		c0,0.7,0.2,1.3,0.6,1.8c0.4,0.4,0.9,0.7,1.6,0.7c0.4,0,0.8-0.1,1.1-0.3c0.3-0.2,0.6-0.4,0.8-0.7l0.8,0.6
		C181.3,315.9,180.4,316.4,179.2,316.4z M179,309.8c-0.5,0-0.9,0.2-1.3,0.6c-0.3,0.4-0.6,0.9-0.6,1.6h3.7v-0.1
		c0-0.6-0.2-1.1-0.5-1.5S179.5,309.8,179,309.8z M187.5,316.3v-10h2.8c0.9,0,1.6,0.2,2.3,0.6c0.7,0.4,1.2,0.9,1.5,1.6
		c0.4,0.7,0.5,1.5,0.6,2.4v0.6c0,0.9-0.2,1.8-0.5,2.5c-0.4,0.7-0.9,1.2-1.6,1.6c-0.7,0.4-1.5,0.6-2.3,0.6H187.5z M188.8,307.4v7.8
		h1.4c1,0,1.8-0.3,2.4-1c0.6-0.6,0.8-1.5,0.8-2.7V311c0-1.1-0.3-2-0.8-2.6c-0.5-0.6-1.3-0.9-2.3-1H188.8z M198,316.3h-1.3v-7.4h1.3
		V316.3z M196.6,306.9c0-0.2,0.1-0.4,0.2-0.5c0.1-0.1,0.3-0.2,0.6-0.2s0.4,0.1,0.6,0.2c0.1,0.1,0.2,0.3,0.2,0.5
		c0,0.2-0.1,0.4-0.2,0.5c-0.1,0.1-0.3,0.2-0.6,0.2s-0.4-0.1-0.6-0.2C196.7,307.3,196.6,307.1,196.6,306.9z M203.1,315.4
		c0.5,0,0.8-0.1,1.2-0.4c0.3-0.3,0.5-0.6,0.6-1h1.2c0,0.4-0.2,0.8-0.4,1.2c-0.3,0.4-0.6,0.7-1.1,0.9c-0.4,0.2-0.9,0.3-1.4,0.3
		c-1,0-1.8-0.3-2.4-1c-0.6-0.7-0.9-1.6-0.9-2.8v-0.2c0-0.7,0.1-1.4,0.4-1.9c0.3-0.6,0.6-1,1.1-1.3c0.5-0.3,1.1-0.5,1.8-0.5
		c0.8,0,1.5,0.2,2.1,0.7c0.6,0.5,0.8,1.1,0.9,1.9h-1.2c0-0.5-0.2-0.9-0.5-1.2c-0.3-0.3-0.7-0.5-1.2-0.5c-0.6,0-1.1,0.2-1.5,0.7
		c-0.4,0.5-0.5,1.1-0.5,2v0.2c0,0.8,0.2,1.5,0.5,2C202,315.1,202.5,315.4,203.1,315.4z M209.7,312.9l-0.8,0.8v2.6h-1.3v-10.5h1.3
		v6.4l0.7-0.8l2.3-2.4h1.5l-2.9,3.1l3.2,4.3h-1.5L209.7,312.9z M219.2,314.3c0-0.3-0.1-0.6-0.4-0.8c-0.3-0.2-0.7-0.4-1.3-0.5
		c-0.6-0.1-1.1-0.3-1.5-0.5c-0.4-0.2-0.7-0.4-0.8-0.7c-0.2-0.3-0.3-0.6-0.3-0.9c0-0.6,0.3-1.1,0.8-1.5c0.5-0.4,1.2-0.6,2-0.6
		c0.8,0,1.5,0.2,2,0.6c0.5,0.4,0.8,1,0.8,1.7h-1.3c0-0.3-0.1-0.6-0.4-0.9c-0.3-0.2-0.7-0.4-1.1-0.4c-0.5,0-0.8,0.1-1.1,0.3
		c-0.3,0.2-0.4,0.5-0.4,0.8c0,0.3,0.1,0.5,0.4,0.7c0.2,0.2,0.7,0.3,1.3,0.5c0.6,0.1,1.1,0.3,1.5,0.5c0.4,0.2,0.7,0.4,0.9,0.7
		c0.2,0.3,0.3,0.6,0.3,1c0,0.7-0.3,1.2-0.8,1.6c-0.5,0.4-1.2,0.6-2.1,0.6c-0.6,0-1.1-0.1-1.6-0.3c-0.5-0.2-0.8-0.5-1.1-0.9
		c-0.3-0.4-0.4-0.8-0.4-1.2h1.3c0,0.4,0.2,0.8,0.5,1c0.3,0.2,0.7,0.4,1.3,0.4c0.5,0,0.9-0.1,1.1-0.3
		C219,314.9,219.2,314.6,219.2,314.3z M221.9,312.5c0-0.7,0.1-1.4,0.4-2c0.3-0.6,0.7-1,1.2-1.3c0.5-0.3,1.1-0.5,1.7-0.5
		c1,0,1.8,0.3,2.4,1c0.6,0.7,0.9,1.6,0.9,2.8v0.1c0,0.7-0.1,1.4-0.4,1.9c-0.3,0.6-0.7,1-1.2,1.3c-0.5,0.3-1.1,0.5-1.8,0.5
		c-1,0-1.8-0.4-2.4-1.1C222.2,314.7,221.9,313.7,221.9,312.5L221.9,312.5z M223.2,312.7c0,0.8,0.2,1.5,0.6,2
		c0.4,0.5,0.9,0.8,1.5,0.8c0.6,0,1.2-0.2,1.5-0.8c0.4-0.5,0.6-1.2,0.6-2.1c0-0.8-0.2-1.5-0.6-2c-0.4-0.5-0.9-0.8-1.5-0.8
		c-0.6,0-1.1,0.2-1.5,0.7C223.3,311,223.2,311.7,223.2,312.7z M231.5,308.9l0,0.9c0.6-0.7,1.3-1.1,2.2-1.1c1.6,0,2.4,0.9,2.4,2.6
		v4.9h-1.3v-4.9c0-0.5-0.1-0.9-0.4-1.2c-0.2-0.2-0.6-0.4-1.1-0.4c-0.4,0-0.8,0.1-1.1,0.3c-0.3,0.2-0.6,0.5-0.7,0.9v5.3h-1.3v-7.4
		H231.5z"/>
	<path class="st9" d="M152.2,402.2h-2.3v4h-1.3v-10h3.3c1.1,0,2,0.2,2.6,0.8c0.6,0.5,0.9,1.2,0.9,2.2c0,0.6-0.2,1.2-0.5,1.6
		c-0.3,0.5-0.8,0.8-1.4,1l2.3,4.2v0.1h-1.4L152.2,402.2z M149.8,401.1h2c0.7,0,1.2-0.2,1.6-0.5c0.4-0.3,0.6-0.8,0.6-1.4
		c0-0.6-0.2-1.1-0.6-1.4c-0.4-0.3-0.9-0.5-1.6-0.5h-2V401.1z M156.7,402.5c0-0.7,0.1-1.4,0.4-2c0.3-0.6,0.7-1,1.2-1.3
		c0.5-0.3,1.1-0.5,1.7-0.5c1,0,1.8,0.3,2.4,1c0.6,0.7,0.9,1.6,0.9,2.8v0.1c0,0.7-0.1,1.4-0.4,1.9c-0.3,0.6-0.7,1-1.2,1.3
		c-0.5,0.3-1.1,0.5-1.8,0.5c-1,0-1.8-0.3-2.4-1C157.1,404.6,156.7,403.7,156.7,402.5L156.7,402.5z M158,402.6c0,0.8,0.2,1.5,0.6,2
		c0.4,0.5,0.9,0.7,1.5,0.7c0.6,0,1.2-0.2,1.5-0.8c0.4-0.5,0.6-1.2,0.6-2.1c0-0.8-0.2-1.5-0.6-2c-0.4-0.5-0.9-0.8-1.5-0.8
		c-0.6,0-1.1,0.2-1.5,0.8C158.2,401,158,401.7,158,402.6z M169.5,404.3c0-0.3-0.1-0.6-0.4-0.8c-0.3-0.2-0.7-0.4-1.3-0.5
		c-0.6-0.1-1.1-0.3-1.5-0.5c-0.4-0.2-0.7-0.4-0.8-0.7c-0.2-0.3-0.3-0.6-0.3-0.9c0-0.6,0.3-1.1,0.8-1.5c0.5-0.4,1.2-0.6,2-0.6
		c0.8,0,1.5,0.2,2,0.6c0.5,0.4,0.8,1,0.8,1.7h-1.3c0-0.4-0.1-0.6-0.4-0.9c-0.3-0.2-0.7-0.4-1.1-0.4c-0.5,0-0.8,0.1-1.1,0.3
		c-0.3,0.2-0.4,0.5-0.4,0.8c0,0.3,0.1,0.5,0.4,0.7c0.2,0.2,0.7,0.3,1.3,0.5c0.6,0.1,1.1,0.3,1.5,0.5c0.4,0.2,0.7,0.4,0.9,0.7
		c0.2,0.3,0.3,0.6,0.3,1c0,0.7-0.3,1.2-0.8,1.6c-0.5,0.4-1.2,0.6-2.1,0.6c-0.6,0-1.1-0.1-1.6-0.3c-0.5-0.2-0.8-0.5-1.1-0.9
		c-0.3-0.4-0.4-0.8-0.4-1.2h1.3c0,0.4,0.2,0.8,0.5,1c0.3,0.2,0.7,0.4,1.3,0.4c0.5,0,0.9-0.1,1.1-0.3
		C169.4,404.8,169.5,404.6,169.5,404.3z M173.9,406.2h-1.3v-7.4h1.3V406.2z M172.6,396.9c0-0.2,0.1-0.4,0.2-0.5
		c0.1-0.1,0.3-0.2,0.6-0.2s0.4,0.1,0.6,0.2c0.1,0.1,0.2,0.3,0.2,0.5c0,0.2-0.1,0.4-0.2,0.5c-0.1,0.1-0.3,0.2-0.6,0.2
		s-0.4-0.1-0.6-0.2C172.6,397.2,172.6,397.1,172.6,396.9z M179.2,406.4c-1,0-1.8-0.3-2.4-1c-0.6-0.7-0.9-1.5-0.9-2.6v-0.2
		c0-0.7,0.1-1.4,0.4-2c0.3-0.6,0.7-1,1.2-1.3c0.5-0.3,1.1-0.5,1.6-0.5c1,0,1.7,0.3,2.2,1c0.5,0.6,0.8,1.5,0.8,2.7v0.5h-5
		c0,0.7,0.2,1.3,0.6,1.8c0.4,0.5,0.9,0.7,1.6,0.7c0.4,0,0.8-0.1,1.1-0.3c0.3-0.2,0.6-0.4,0.8-0.7l0.8,0.6
		C181.3,405.9,180.4,406.4,179.2,406.4z M179,399.7c-0.5,0-0.9,0.2-1.3,0.6c-0.3,0.4-0.6,0.9-0.6,1.6h3.7v-0.1
		c0-0.6-0.2-1.1-0.5-1.5C180,399.9,179.5,399.7,179,399.7z M187.5,406.2v-10h2.8c0.9,0,1.6,0.2,2.3,0.6c0.7,0.4,1.2,0.9,1.5,1.6
		c0.4,0.7,0.5,1.5,0.6,2.4v0.6c0,0.9-0.2,1.8-0.5,2.5c-0.4,0.7-0.9,1.2-1.6,1.6c-0.7,0.4-1.5,0.6-2.3,0.6H187.5z M188.8,397.4v7.8
		h1.4c1,0,1.8-0.3,2.4-0.9c0.6-0.6,0.8-1.5,0.8-2.7v-0.6c0-1.1-0.3-2-0.8-2.6c-0.5-0.6-1.3-0.9-2.3-0.9H188.8z M198,406.2h-1.3v-7.4
		h1.3V406.2z M196.6,396.9c0-0.2,0.1-0.4,0.2-0.5c0.1-0.1,0.3-0.2,0.6-0.2s0.4,0.1,0.6,0.2c0.1,0.1,0.2,0.3,0.2,0.5
		c0,0.2-0.1,0.4-0.2,0.5c-0.1,0.1-0.3,0.2-0.6,0.2s-0.4-0.1-0.6-0.2C196.7,397.2,196.6,397.1,196.6,396.9z M203.1,405.3
		c0.5,0,0.8-0.1,1.2-0.4c0.3-0.3,0.5-0.6,0.6-1h1.2c0,0.4-0.2,0.8-0.4,1.2c-0.3,0.4-0.6,0.7-1.1,0.9c-0.4,0.2-0.9,0.3-1.4,0.3
		c-1,0-1.8-0.3-2.4-1c-0.6-0.7-0.9-1.6-0.9-2.8v-0.2c0-0.7,0.1-1.4,0.4-1.9c0.3-0.6,0.6-1,1.1-1.3c0.5-0.3,1.1-0.5,1.8-0.5
		c0.8,0,1.5,0.2,2.1,0.7c0.6,0.5,0.8,1.1,0.9,1.9h-1.2c0-0.5-0.2-0.9-0.5-1.2c-0.3-0.3-0.7-0.5-1.2-0.5c-0.6,0-1.1,0.2-1.5,0.7
		c-0.4,0.5-0.5,1.1-0.5,2v0.2c0,0.9,0.2,1.5,0.5,2C202,405.1,202.5,405.3,203.1,405.3z M209.7,402.8l-0.8,0.8v2.6h-1.3v-10.5h1.3
		v6.3l0.7-0.8l2.3-2.4h1.5l-2.9,3.1l3.2,4.3h-1.5L209.7,402.8z M219.2,404.3c0-0.3-0.1-0.6-0.4-0.8c-0.3-0.2-0.7-0.4-1.3-0.5
		c-0.6-0.1-1.1-0.3-1.5-0.5c-0.4-0.2-0.7-0.4-0.8-0.7c-0.2-0.3-0.3-0.6-0.3-0.9c0-0.6,0.3-1.1,0.8-1.5c0.5-0.4,1.2-0.6,2-0.6
		c0.8,0,1.5,0.2,2,0.6c0.5,0.4,0.8,1,0.8,1.7h-1.3c0-0.4-0.1-0.6-0.4-0.9c-0.3-0.2-0.7-0.4-1.1-0.4c-0.5,0-0.8,0.1-1.1,0.3
		c-0.3,0.2-0.4,0.5-0.4,0.8c0,0.3,0.1,0.5,0.4,0.7c0.2,0.2,0.7,0.3,1.3,0.5c0.6,0.1,1.1,0.3,1.5,0.5c0.4,0.2,0.7,0.4,0.9,0.7
		c0.2,0.3,0.3,0.6,0.3,1c0,0.7-0.3,1.2-0.8,1.6c-0.5,0.4-1.2,0.6-2.1,0.6c-0.6,0-1.1-0.1-1.6-0.3c-0.5-0.2-0.8-0.5-1.1-0.9
		c-0.3-0.4-0.4-0.8-0.4-1.2h1.3c0,0.4,0.2,0.8,0.5,1c0.3,0.2,0.7,0.4,1.3,0.4c0.5,0,0.9-0.1,1.1-0.3
		C219,404.8,219.2,404.6,219.2,404.3z M221.9,402.5c0-0.7,0.1-1.4,0.4-2c0.3-0.6,0.7-1,1.2-1.3c0.5-0.3,1.1-0.5,1.7-0.5
		c1,0,1.8,0.3,2.4,1c0.6,0.7,0.9,1.6,0.9,2.8v0.1c0,0.7-0.1,1.4-0.4,1.9c-0.3,0.6-0.7,1-1.2,1.3c-0.5,0.3-1.1,0.5-1.8,0.5
		c-1,0-1.8-0.3-2.4-1C222.2,404.6,221.9,403.7,221.9,402.5L221.9,402.5z M223.2,402.6c0,0.8,0.2,1.5,0.6,2c0.4,0.5,0.9,0.7,1.5,0.7
		c0.6,0,1.2-0.2,1.5-0.8c0.4-0.5,0.6-1.2,0.6-2.1c0-0.8-0.2-1.5-0.6-2c-0.4-0.5-0.9-0.8-1.5-0.8c-0.6,0-1.1,0.2-1.5,0.8
		S223.2,401.7,223.2,402.6z M231.5,398.8l0,0.9c0.6-0.7,1.3-1.1,2.2-1.1c1.6,0,2.4,0.9,2.4,2.6v4.9h-1.3v-4.9c0-0.5-0.1-0.9-0.4-1.2
		c-0.2-0.2-0.6-0.4-1.1-0.4c-0.4,0-0.8,0.1-1.1,0.3c-0.3,0.2-0.6,0.5-0.7,0.9v5.3h-1.3v-7.4H231.5z"/>
	<path class="st9" d="M152.2,490.1h-2.3v4h-1.3v-9.9h3.3c1.1,0,2,0.2,2.6,0.8c0.6,0.5,0.9,1.2,0.9,2.2c0,0.6-0.2,1.2-0.5,1.6
		c-0.3,0.5-0.8,0.8-1.4,1l2.3,4.2v0.1h-1.4L152.2,490.1z M149.8,489h2c0.7,0,1.2-0.2,1.6-0.5c0.4-0.3,0.6-0.8,0.6-1.4
		c0-0.6-0.2-1.1-0.6-1.4c-0.4-0.3-0.9-0.5-1.6-0.5h-2V489z M156.7,490.4c0-0.7,0.1-1.4,0.4-1.9c0.3-0.6,0.7-1,1.2-1.3
		c0.5-0.3,1.1-0.5,1.7-0.5c1,0,1.8,0.3,2.4,1c0.6,0.7,0.9,1.6,0.9,2.8v0.1c0,0.7-0.1,1.4-0.4,1.9c-0.3,0.6-0.7,1-1.2,1.3
		c-0.5,0.3-1.1,0.5-1.8,0.5c-1,0-1.8-0.4-2.4-1C157.1,492.5,156.7,491.6,156.7,490.4L156.7,490.4z M158,490.5c0,0.8,0.2,1.5,0.6,2
		c0.4,0.5,0.9,0.7,1.5,0.7c0.6,0,1.2-0.2,1.5-0.8c0.4-0.5,0.6-1.2,0.6-2.1c0-0.8-0.2-1.5-0.6-2c-0.4-0.5-0.9-0.8-1.5-0.8
		c-0.6,0-1.1,0.2-1.5,0.7C158.2,488.9,158,489.6,158,490.5z M169.5,492.2c0-0.3-0.1-0.6-0.4-0.8c-0.3-0.2-0.7-0.4-1.3-0.5
		c-0.6-0.1-1.1-0.3-1.5-0.5c-0.4-0.2-0.7-0.4-0.8-0.7c-0.2-0.3-0.3-0.6-0.3-1c0-0.6,0.3-1.1,0.8-1.5c0.5-0.4,1.2-0.6,2-0.6
		c0.8,0,1.5,0.2,2,0.6c0.5,0.4,0.8,1,0.8,1.7h-1.3c0-0.4-0.1-0.7-0.4-0.9c-0.3-0.2-0.7-0.4-1.1-0.4c-0.5,0-0.8,0.1-1.1,0.3
		c-0.3,0.2-0.4,0.5-0.4,0.8c0,0.3,0.1,0.5,0.4,0.7c0.2,0.2,0.7,0.3,1.3,0.4c0.6,0.1,1.1,0.3,1.5,0.5c0.4,0.2,0.7,0.4,0.9,0.7
		c0.2,0.3,0.3,0.6,0.3,1c0,0.7-0.3,1.2-0.8,1.6c-0.5,0.4-1.2,0.6-2.1,0.6c-0.6,0-1.1-0.1-1.6-0.3c-0.5-0.2-0.8-0.5-1.1-0.9
		c-0.3-0.4-0.4-0.8-0.4-1.2h1.3c0,0.4,0.2,0.8,0.5,1c0.3,0.2,0.7,0.4,1.3,0.4c0.5,0,0.9-0.1,1.1-0.3
		C169.4,492.8,169.5,492.5,169.5,492.2z M173.9,494.1h-1.3v-7.4h1.3V494.1z M172.6,484.8c0-0.2,0.1-0.4,0.2-0.5
		c0.1-0.1,0.3-0.2,0.6-0.2s0.4,0.1,0.6,0.2c0.1,0.1,0.2,0.3,0.2,0.5c0,0.2-0.1,0.4-0.2,0.5c-0.1,0.1-0.3,0.2-0.6,0.2
		s-0.4-0.1-0.6-0.2C172.6,485.1,172.6,485,172.6,484.8z M179.2,494.3c-1,0-1.8-0.3-2.4-1c-0.6-0.7-0.9-1.5-0.9-2.6v-0.2
		c0-0.7,0.1-1.4,0.4-2c0.3-0.6,0.7-1,1.2-1.4c0.5-0.3,1.1-0.5,1.6-0.5c1,0,1.7,0.3,2.2,0.9c0.5,0.6,0.8,1.5,0.8,2.7v0.5h-5
		c0,0.7,0.2,1.3,0.6,1.8c0.4,0.4,0.9,0.7,1.6,0.7c0.4,0,0.8-0.1,1.1-0.3s0.6-0.4,0.8-0.7l0.8,0.6
		C181.3,493.8,180.4,494.3,179.2,494.3z M179,487.6c-0.5,0-0.9,0.2-1.3,0.6c-0.3,0.4-0.6,0.9-0.6,1.5h3.7v-0.1
		c0-0.6-0.2-1.1-0.5-1.5C180,487.8,179.5,487.6,179,487.6z M187.5,494.1v-9.9h2.8c0.9,0,1.6,0.2,2.3,0.6c0.7,0.4,1.2,0.9,1.5,1.6
		c0.4,0.7,0.5,1.5,0.6,2.4v0.6c0,0.9-0.2,1.8-0.5,2.5c-0.4,0.7-0.9,1.2-1.6,1.6c-0.7,0.4-1.5,0.6-2.3,0.6H187.5z M188.8,485.3v7.8
		h1.4c1,0,1.8-0.3,2.4-1c0.6-0.6,0.8-1.5,0.8-2.7v-0.6c0-1.1-0.3-2-0.8-2.6c-0.5-0.6-1.3-0.9-2.3-1H188.8z M198,494.1h-1.3v-7.4h1.3
		V494.1z M196.6,484.8c0-0.2,0.1-0.4,0.2-0.5c0.1-0.1,0.3-0.2,0.6-0.2s0.4,0.1,0.6,0.2c0.1,0.1,0.2,0.3,0.2,0.5
		c0,0.2-0.1,0.4-0.2,0.5c-0.1,0.1-0.3,0.2-0.6,0.2s-0.4-0.1-0.6-0.2C196.7,485.1,196.6,485,196.6,484.8z M203.1,493.2
		c0.5,0,0.8-0.1,1.2-0.4c0.3-0.3,0.5-0.6,0.6-1h1.2c0,0.4-0.2,0.8-0.4,1.2c-0.3,0.4-0.6,0.7-1.1,0.9c-0.4,0.2-0.9,0.4-1.4,0.4
		c-1,0-1.8-0.3-2.4-1c-0.6-0.7-0.9-1.6-0.9-2.8v-0.2c0-0.7,0.1-1.4,0.4-1.9c0.3-0.6,0.6-1,1.1-1.3c0.5-0.3,1.1-0.5,1.8-0.5
		c0.8,0,1.5,0.2,2.1,0.7c0.6,0.5,0.8,1.1,0.9,1.9h-1.2c0-0.5-0.2-0.9-0.5-1.2c-0.3-0.3-0.7-0.5-1.2-0.5c-0.6,0-1.1,0.2-1.5,0.7
		c-0.4,0.5-0.5,1.1-0.5,2v0.2c0,0.9,0.2,1.5,0.5,2C202,493,202.5,493.2,203.1,493.2z M209.7,490.7l-0.8,0.8v2.6h-1.3v-10.5h1.3v6.4
		l0.7-0.8l2.3-2.4h1.5l-2.9,3.1l3.2,4.3h-1.5L209.7,490.7z M219.2,492.2c0-0.3-0.1-0.6-0.4-0.8c-0.3-0.2-0.7-0.4-1.3-0.5
		c-0.6-0.1-1.1-0.3-1.5-0.5c-0.4-0.2-0.7-0.4-0.8-0.7c-0.2-0.3-0.3-0.6-0.3-1c0-0.6,0.3-1.1,0.8-1.5c0.5-0.4,1.2-0.6,2-0.6
		c0.8,0,1.5,0.2,2,0.6c0.5,0.4,0.8,1,0.8,1.7h-1.3c0-0.4-0.1-0.7-0.4-0.9c-0.3-0.2-0.7-0.4-1.1-0.4c-0.5,0-0.8,0.1-1.1,0.3
		c-0.3,0.2-0.4,0.5-0.4,0.8c0,0.3,0.1,0.5,0.4,0.7c0.2,0.2,0.7,0.3,1.3,0.4c0.6,0.1,1.1,0.3,1.5,0.5c0.4,0.2,0.7,0.4,0.9,0.7
		c0.2,0.3,0.3,0.6,0.3,1c0,0.7-0.3,1.2-0.8,1.6c-0.5,0.4-1.2,0.6-2.1,0.6c-0.6,0-1.1-0.1-1.6-0.3c-0.5-0.2-0.8-0.5-1.1-0.9
		c-0.3-0.4-0.4-0.8-0.4-1.2h1.3c0,0.4,0.2,0.8,0.5,1c0.3,0.2,0.7,0.4,1.3,0.4c0.5,0,0.9-0.1,1.1-0.3
		C219,492.8,219.2,492.5,219.2,492.2z M221.9,490.4c0-0.7,0.1-1.4,0.4-1.9c0.3-0.6,0.7-1,1.2-1.3c0.5-0.3,1.1-0.5,1.7-0.5
		c1,0,1.8,0.3,2.4,1c0.6,0.7,0.9,1.6,0.9,2.8v0.1c0,0.7-0.1,1.4-0.4,1.9c-0.3,0.6-0.7,1-1.2,1.3c-0.5,0.3-1.1,0.5-1.8,0.5
		c-1,0-1.8-0.4-2.4-1C222.2,492.5,221.9,491.6,221.9,490.4L221.9,490.4z M223.2,490.5c0,0.8,0.2,1.5,0.6,2c0.4,0.5,0.9,0.7,1.5,0.7
		c0.6,0,1.2-0.2,1.5-0.8c0.4-0.5,0.6-1.2,0.6-2.1c0-0.8-0.2-1.5-0.6-2c-0.4-0.5-0.9-0.8-1.5-0.8c-0.6,0-1.1,0.2-1.5,0.7
		S223.2,489.6,223.2,490.5z M231.5,486.7l0,0.9c0.6-0.7,1.3-1.1,2.2-1.1c1.6,0,2.4,0.9,2.4,2.6v4.9h-1.3v-4.9c0-0.5-0.1-0.9-0.4-1.2
		c-0.2-0.2-0.6-0.4-1.1-0.4c-0.4,0-0.8,0.1-1.1,0.3c-0.3,0.2-0.6,0.5-0.7,0.9v5.3h-1.3v-7.4H231.5z"/>
	<path class="st9" d="M154,223.3h-4.2l-0.9,2.6h-1.4l3.8-9.9h1.1l3.8,9.9H155L154,223.3z M150.2,222.2h3.4l-1.7-4.7L150.2,222.2z
		 M159,225.9h-1.3v-10.5h1.3V225.9z M164.2,226.1c-1,0-1.8-0.3-2.4-1c-0.6-0.7-0.9-1.5-0.9-2.6v-0.2c0-0.7,0.1-1.4,0.4-2
		c0.3-0.6,0.7-1,1.2-1.4c0.5-0.3,1.1-0.5,1.6-0.5c1,0,1.7,0.3,2.2,0.9c0.5,0.6,0.8,1.5,0.8,2.7v0.5h-5c0,0.7,0.2,1.3,0.6,1.8
		c0.4,0.4,0.9,0.7,1.6,0.7c0.4,0,0.8-0.1,1.1-0.3c0.3-0.2,0.6-0.4,0.8-0.7l0.8,0.6C166.4,225.6,165.4,226.1,164.2,226.1z M164,219.4
		c-0.5,0-0.9,0.2-1.3,0.6c-0.3,0.4-0.6,0.9-0.6,1.6h3.7v-0.1c0-0.6-0.2-1.1-0.5-1.5C165,219.6,164.6,219.4,164,219.4z M171.2,221.2
		l1.6-2.7h1.5l-2.4,3.7l2.5,3.7h-1.5l-1.7-2.8l-1.7,2.8H168l2.5-3.7l-2.4-3.7h1.5L171.2,221.2z M177.2,225.9h-1.3v-7.4h1.3V225.9z
		 M175.8,216.6c0-0.2,0.1-0.4,0.2-0.5c0.1-0.1,0.3-0.2,0.6-0.2s0.4,0.1,0.6,0.2c0.1,0.1,0.2,0.3,0.2,0.5c0,0.2-0.1,0.4-0.2,0.5
		c-0.1,0.1-0.3,0.2-0.6,0.2s-0.4-0.1-0.6-0.2C175.8,216.9,175.8,216.8,175.8,216.6z M183.6,224c0-0.3-0.1-0.6-0.4-0.8
		c-0.3-0.2-0.7-0.4-1.3-0.5c-0.6-0.1-1.1-0.3-1.5-0.5c-0.4-0.2-0.7-0.4-0.8-0.7c-0.2-0.3-0.3-0.6-0.3-1c0-0.6,0.3-1.1,0.8-1.5
		c0.5-0.4,1.2-0.6,2-0.6c0.8,0,1.5,0.2,2,0.6c0.5,0.4,0.8,1,0.8,1.7h-1.3c0-0.4-0.1-0.7-0.4-0.9c-0.3-0.2-0.7-0.4-1.1-0.4
		c-0.5,0-0.8,0.1-1.1,0.3c-0.3,0.2-0.4,0.5-0.4,0.8c0,0.3,0.1,0.5,0.4,0.7c0.2,0.2,0.7,0.3,1.3,0.4c0.6,0.1,1.1,0.3,1.5,0.5
		c0.4,0.2,0.7,0.4,0.9,0.7c0.2,0.3,0.3,0.6,0.3,1c0,0.7-0.3,1.2-0.8,1.6c-0.5,0.4-1.2,0.6-2.1,0.6c-0.6,0-1.1-0.1-1.6-0.3
		c-0.5-0.2-0.8-0.5-1.1-0.9c-0.3-0.4-0.4-0.8-0.4-1.2h1.3c0,0.4,0.2,0.8,0.5,1c0.3,0.2,0.7,0.4,1.3,0.4c0.5,0,0.9-0.1,1.1-0.3
		C183.5,224.5,183.6,224.3,183.6,224z M192.2,216l3.3,8.1l3.3-8.1h1.7v9.9h-1.3V222l0.1-4.2l-3.3,8.1h-1l-3.3-8l0.1,4.2v3.9h-1.3
		V216H192.2z M207.2,225.9c-0.1-0.1-0.1-0.4-0.2-0.8c-0.6,0.6-1.3,0.9-2.1,0.9c-0.7,0-1.3-0.2-1.8-0.6c-0.5-0.4-0.7-0.9-0.7-1.6
		c0-0.8,0.3-1.4,0.9-1.8c0.6-0.4,1.4-0.6,2.5-0.6h1.2v-0.6c0-0.4-0.1-0.8-0.4-1.1c-0.3-0.3-0.7-0.4-1.2-0.4c-0.5,0-0.8,0.1-1.1,0.3
		c-0.3,0.2-0.5,0.5-0.5,0.8h-1.3c0-0.4,0.1-0.7,0.4-1.1c0.3-0.3,0.6-0.6,1.1-0.8c0.5-0.2,0.9-0.3,1.5-0.3c0.9,0,1.5,0.2,2,0.6
		c0.5,0.4,0.7,1,0.8,1.8v3.4c0,0.7,0.1,1.2,0.3,1.6v0.1H207.2z M205.1,225c0.4,0,0.8-0.1,1.1-0.3c0.4-0.2,0.6-0.5,0.8-0.8v-1.5h-1
		c-1.6,0-2.3,0.4-2.3,1.4c0,0.4,0.1,0.7,0.4,0.9C204.4,224.8,204.7,225,205.1,225z M214,219.7c-0.2,0-0.4-0.1-0.6-0.1
		c-0.8,0-1.4,0.4-1.7,1.1v5.2h-1.3v-7.4h1.2l0,0.9c0.4-0.7,1-1,1.8-1c0.2,0,0.4,0,0.6,0.1V219.7z M217.4,216.7v1.8h1.4v1h-1.4v4.6
		c0,0.3,0.1,0.5,0.2,0.7c0.1,0.1,0.3,0.2,0.6,0.2c0.1,0,0.3,0,0.6-0.1v1c-0.3,0.1-0.7,0.1-1,0.1c-0.6,0-1-0.2-1.3-0.5
		c-0.3-0.3-0.4-0.8-0.4-1.5v-4.6h-1.3v-1h1.3v-1.8H217.4z M221.7,225.9h-1.3v-7.4h1.3V225.9z M220.4,216.6c0-0.2,0.1-0.4,0.2-0.5
		c0.1-0.1,0.3-0.2,0.6-0.2s0.4,0.1,0.6,0.2c0.1,0.1,0.2,0.3,0.2,0.5c0,0.2-0.1,0.4-0.2,0.5c-0.1,0.1-0.3,0.2-0.6,0.2
		s-0.4-0.1-0.6-0.2C220.4,216.9,220.4,216.8,220.4,216.6z M225.1,218.5l0,0.9c0.6-0.7,1.3-1.1,2.2-1.1c1.6,0,2.4,0.9,2.4,2.6v4.9
		h-1.3V221c0-0.5-0.1-0.9-0.4-1.2c-0.2-0.2-0.6-0.4-1.1-0.4c-0.4,0-0.8,0.1-1.1,0.3c-0.3,0.2-0.6,0.5-0.7,0.9v5.3h-1.3v-7.4H225.1z
		 M234.8,226.1c-1,0-1.8-0.3-2.4-1c-0.6-0.7-0.9-1.5-0.9-2.6v-0.2c0-0.7,0.1-1.4,0.4-2c0.3-0.6,0.7-1,1.2-1.4
		c0.5-0.3,1.1-0.5,1.6-0.5c1,0,1.7,0.3,2.2,0.9c0.5,0.6,0.8,1.5,0.8,2.7v0.5h-5c0,0.7,0.2,1.3,0.6,1.8c0.4,0.4,0.9,0.7,1.6,0.7
		c0.4,0,0.8-0.1,1.1-0.3s0.6-0.4,0.8-0.7l0.8,0.6C237,225.6,236.1,226.1,234.8,226.1z M234.7,219.4c-0.5,0-0.9,0.2-1.3,0.6
		c-0.3,0.4-0.6,0.9-0.6,1.6h3.7v-0.1c0-0.6-0.2-1.1-0.5-1.5C235.6,219.6,235.2,219.4,234.7,219.4z M240.5,224.9h4.3v1H239V225
		l4.1-5.4h-4v-1h5.6v0.9L240.5,224.9z"/>
	<path class="st22" d="M301.6,169.5h304.1c2.7,0,5,2.2,5,5l0,0c0,2.7-2.2,5-5,5H301.6c-2.7,0-5-2.2-5-5l0,0
		C296.7,171.8,298.9,169.5,301.6,169.5z"/>
	<path class="st22" d="M301.6,215.6h238.9c2.7,0,5,2.2,5,5l0,0c0,2.7-2.2,5-5,5H301.6c-2.7,0-5-2.2-5-5l0,0
		C296.7,217.9,298.9,215.6,301.6,215.6z"/>
	<path class="st22" d="M301.6,260.8h217.5c2.7,0,5,2.2,5,5l0,0c0,2.7-2.2,5-5,5H301.6c-2.7,0-5-2.2-5-5l0,0
		C296.7,263,298.9,260.8,301.6,260.8z"/>
	<path class="st22" d="M301.6,306h196c2.7,0,5,2.2,5,5l0,0c0,2.7-2.2,5-5,5h-196c-2.7,0-5-2.2-5-5l0,0
		C296.7,308.2,298.9,306,301.6,306z"/>
	<path class="st22" d="M301.6,395.9h196c2.7,0,5,2.2,5,5l0,0c0,2.7-2.2,5-5,5h-196c-2.7,0-5-2.2-5-5l0,0
		C296.7,398.2,298.9,395.9,301.6,395.9z"/>
	<path class="st22" d="M301.6,483.8h196c2.7,0,5,2.2,5,5l0,0c0,2.7-2.2,5-5,5h-196c-2.7,0-5-2.2-5-5l0,0
		C296.7,486.1,298.9,483.8,301.6,483.8z"/>
	<path class="st22" d="M301.6,351.2h171.1c2.7,0,5,2.2,5,5l0,0c0,2.7-2.2,5-5,5H301.6c-2.7,0-5-2.2-5-5l0,0
		C296.7,353.4,298.9,351.2,301.6,351.2z"/>
	<path class="st22" d="M301.6,441.1h171.1c2.7,0,5,2.2,5,5l0,0c0,2.7-2.2,5-5,5H301.6c-2.7,0-5-2.2-5-5l0,0
		C296.7,443.3,298.9,441.1,301.6,441.1z"/>
	<path class="st22" d="M301.6,529h171.1c2.7,0,5,2.2,5,5l0,0c0,2.7-2.2,5-5,5H301.6c-2.7,0-5-2.2-5-5l0,0
		C296.7,531.2,298.9,529,301.6,529z"/>
	<g>
		<path class="st4" d="M494,6c0-3.3,3.1-6,6.8-6h273.6c3.8,0,6.8,2.7,6.8,6v217.4c0,3.3-3.1,6-6.8,6H500.8c-3.8,0-6.8-2.7-6.8-6V6z"
			/>
	</g>
	<path class="st9" d="M522.7,26.5h-4.6l-0.9,2.6h-2.8l4.7-12.7h2.4l4.8,12.7h-2.8L522.7,26.5z M518.8,24.4h3.2l-1.6-4.8L518.8,24.4z
		"/>
	<path class="st9" d="M531.3,27.2c0.5,0,0.8-0.1,1.1-0.4c0.3-0.2,0.4-0.6,0.5-1h2.4c0,0.6-0.2,1.2-0.5,1.8c-0.3,0.5-0.8,0.9-1.4,1.2
		c-0.6,0.3-1.3,0.4-2,0.4c-1.4,0-2.4-0.4-3.2-1.3c-0.8-0.9-1.2-2.1-1.2-3.6v-0.2c0-1.5,0.4-2.6,1.2-3.5c0.8-0.9,1.8-1.3,3.2-1.3
		c1.2,0,2.1,0.3,2.8,1c0.7,0.7,1.1,1.6,1.1,2.7h-2.4c0-0.5-0.2-0.9-0.5-1.2c-0.3-0.3-0.7-0.5-1.2-0.5c-0.6,0-1,0.2-1.3,0.6
		c-0.3,0.4-0.4,1.1-0.4,2.1v0.3c0,1,0.1,1.7,0.4,2.1C530.2,27,530.7,27.2,531.3,27.2z"/>
	<path class="st9" d="M539.7,17.3v2.3h1.6v1.9h-1.6v4.7c0,0.4,0.1,0.6,0.2,0.8c0.1,0.1,0.4,0.2,0.8,0.2c0.3,0,0.5,0,0.7-0.1v1.9
		c-0.5,0.1-1,0.2-1.5,0.2c-1.8,0-2.7-0.9-2.7-2.7v-5.1h-1.4v-1.9h1.4v-2.3H539.7z"/>
	<path class="st9" d="M545.4,29.1h-2.5v-9.5h2.5V29.1z M542.7,17.2c0-0.4,0.1-0.7,0.4-0.9c0.3-0.2,0.6-0.4,1-0.4
		c0.4,0,0.8,0.1,1,0.4c0.3,0.2,0.4,0.6,0.4,0.9c0,0.4-0.1,0.7-0.4,0.9c-0.3,0.2-0.6,0.4-1,0.4c-0.4,0-0.8-0.1-1-0.4
		C542.9,17.9,542.7,17.6,542.7,17.2z"/>
	<path class="st9" d="M551.1,26l1.8-6.4h2.6l-3.2,9.5h-2.4l-3.2-9.5h2.6L551.1,26z"/>
	<path class="st9" d="M561.9,29.1c-0.1-0.2-0.2-0.5-0.3-0.9c-0.6,0.7-1.4,1-2.4,1c-0.9,0-1.7-0.3-2.3-0.8c-0.6-0.5-0.9-1.2-0.9-2
		c0-1,0.4-1.8,1.1-2.3c0.7-0.5,1.8-0.8,3.2-0.8h1.2v-0.5c0-0.4-0.1-0.8-0.3-1.1c-0.2-0.3-0.6-0.4-1.1-0.4c-0.4,0-0.8,0.1-1,0.3
		c-0.2,0.2-0.4,0.5-0.4,0.8h-2.5c0-0.6,0.2-1.1,0.5-1.5c0.3-0.5,0.8-0.8,1.4-1.1c0.6-0.3,1.3-0.4,2.1-0.4c1.2,0,2.1,0.3,2.8,0.9
		c0.7,0.6,1,1.4,1,2.5v4.1c0,0.9,0.1,1.6,0.4,2v0.2H561.9z M559.8,27.4c0.4,0,0.7-0.1,1-0.2c0.3-0.2,0.5-0.4,0.7-0.7v-1.6h-0.9
		c-1.3,0-1.9,0.4-2,1.3l0,0.1c0,0.3,0.1,0.6,0.3,0.8C559.1,27.2,559.4,27.4,559.8,27.4z"/>
	<path class="st9" d="M569.1,17.3v2.3h1.6v1.9h-1.6v4.7c0,0.4,0.1,0.6,0.2,0.8c0.1,0.1,0.4,0.2,0.8,0.2c0.3,0,0.5,0,0.7-0.1v1.9
		c-0.5,0.1-1,0.2-1.5,0.2c-1.8,0-2.7-0.9-2.7-2.7v-5.1h-1.4v-1.9h1.4v-2.3H569.1z"/>
	<path class="st9" d="M574.8,29.1h-2.5v-9.5h2.5V29.1z M572.1,17.2c0-0.4,0.1-0.7,0.4-0.9c0.3-0.2,0.6-0.4,1-0.4
		c0.4,0,0.8,0.1,1,0.4c0.3,0.2,0.4,0.6,0.4,0.9c0,0.4-0.1,0.7-0.4,0.9c-0.3,0.2-0.6,0.4-1,0.4c-0.4,0-0.8-0.1-1-0.4
		C572.2,17.9,572.1,17.6,572.1,17.2z"/>
	<path class="st9" d="M576.4,24.3c0-0.9,0.2-1.8,0.5-2.5c0.4-0.7,0.9-1.3,1.6-1.7c0.7-0.4,1.5-0.6,2.4-0.6c1.3,0,2.3,0.4,3.1,1.2
		c0.8,0.8,1.3,1.8,1.4,3.2l0,0.6c0,1.4-0.4,2.6-1.2,3.5c-0.8,0.9-1.9,1.3-3.3,1.3c-1.4,0-2.5-0.4-3.3-1.3c-0.8-0.9-1.2-2.1-1.2-3.6
		V24.3z M579,24.5c0,0.9,0.2,1.6,0.5,2.1c0.3,0.5,0.8,0.7,1.5,0.7c0.6,0,1.1-0.2,1.4-0.7s0.5-1.2,0.5-2.3c0-0.9-0.2-1.6-0.5-2
		c-0.3-0.5-0.8-0.7-1.5-0.7c-0.6,0-1.1,0.2-1.4,0.7C579.1,22.7,579,23.5,579,24.5z"/>
	<path class="st9" d="M589.3,19.6l0.1,1.1c0.7-0.8,1.6-1.3,2.7-1.3c1,0,1.7,0.3,2.2,0.9c0.5,0.6,0.7,1.5,0.8,2.6v6.1h-2.5v-6.1
		c0-0.5-0.1-0.9-0.4-1.2c-0.2-0.2-0.6-0.4-1.2-0.4c-0.7,0-1.2,0.3-1.6,0.9v6.7h-2.5v-9.5H589.3z"/>
	<path class="st9" d="M602.1,26.5c0-0.3-0.2-0.6-0.5-0.7c-0.3-0.2-0.8-0.3-1.5-0.5c-2.2-0.5-3.4-1.4-3.4-2.9c0-0.8,0.3-1.5,1-2.1
		c0.7-0.6,1.6-0.9,2.7-0.9c1.2,0,2.2,0.3,2.9,0.9c0.7,0.6,1.1,1.3,1.1,2.2H602c0-0.4-0.1-0.7-0.3-0.9c-0.2-0.2-0.6-0.3-1.1-0.3
		c-0.4,0-0.8,0.1-1,0.3c-0.2,0.2-0.3,0.4-0.3,0.7c0,0.3,0.1,0.5,0.4,0.7c0.3,0.2,0.7,0.3,1.3,0.4c0.6,0.1,1.2,0.3,1.6,0.4
		c1.3,0.5,2,1.3,2,2.5c0,0.9-0.4,1.6-1.1,2.1c-0.7,0.5-1.7,0.8-2.9,0.8c-0.8,0-1.5-0.1-2.1-0.4c-0.6-0.3-1.1-0.7-1.4-1.2
		c-0.4-0.5-0.5-1-0.5-1.6h2.4c0,0.4,0.2,0.8,0.5,1c0.3,0.2,0.7,0.4,1.2,0.4c0.5,0,0.8-0.1,1.1-0.3C602,27,602.1,26.8,602.1,26.5z"/>
	<path class="st9" d="M522.7,208.8h-3.2v-12.2l-3.8,1.2v-2.6l6.6-2.4h0.3V208.8z"/>
	<path class="st9" d="M528.8,212.8l-1.7-0.9l0.4-0.7c0.5-0.9,0.7-1.8,0.8-2.7v-2.4h2.7l0,2.2c0,0.8-0.2,1.6-0.6,2.4
		C530,211.6,529.5,212.3,528.8,212.8z"/>
	<path class="st9" d="M544.2,208.8h-10.9v-2.2l5.1-5.5c0.7-0.8,1.2-1.5,1.6-2c0.3-0.6,0.5-1.1,0.5-1.6c0-0.7-0.2-1.3-0.5-1.7
		c-0.4-0.4-0.9-0.6-1.5-0.6c-0.7,0-1.3,0.2-1.7,0.8c-0.4,0.5-0.6,1.1-0.6,1.9H533c0-1,0.2-1.9,0.7-2.7c0.5-0.8,1.1-1.4,2-1.9
		c0.8-0.4,1.8-0.7,2.9-0.7c1.6,0,2.9,0.4,3.8,1.2c0.9,0.8,1.4,1.9,1.4,3.3c0,0.8-0.2,1.6-0.6,2.4c-0.4,0.8-1.1,1.8-2.1,2.9l-3.6,3.8
		h6.8V208.8z"/>
	<path class="st9" d="M555.5,202.8h1.8v2.6h-1.8v3.4h-3.2v-3.4h-6.5l-0.1-2l6.6-10.5h3.2V202.8z M548.9,202.8h3.5v-5.6l-0.2,0.4
		L548.9,202.8z"/>
	<path class="st9" d="M562.3,199.5h1.7c0.8,0,1.4-0.2,1.8-0.6s0.6-0.9,0.6-1.6c0-0.6-0.2-1.1-0.6-1.5c-0.4-0.4-0.9-0.5-1.6-0.5
		c-0.6,0-1.1,0.2-1.5,0.5c-0.4,0.3-0.6,0.8-0.6,1.3h-3.2c0-0.8,0.2-1.6,0.7-2.2c0.5-0.7,1.1-1.2,1.9-1.6c0.8-0.4,1.7-0.5,2.7-0.5
		c1.7,0,3,0.4,4,1.2c1,0.8,1.4,1.9,1.4,3.3c0,0.7-0.2,1.4-0.7,2c-0.4,0.6-1,1.1-1.7,1.4c0.9,0.3,1.6,0.8,2,1.5
		c0.4,0.6,0.7,1.4,0.7,2.3c0,1.4-0.5,2.5-1.6,3.4c-1,0.9-2.4,1.3-4.1,1.3c-1.6,0-2.9-0.4-3.9-1.3c-1-0.8-1.5-1.9-1.5-3.3h3.2
		c0,0.6,0.2,1.1,0.7,1.5c0.5,0.4,1,0.6,1.7,0.6c0.8,0,1.3-0.2,1.8-0.6c0.4-0.4,0.6-0.9,0.6-1.6c0-1.6-0.9-2.4-2.6-2.4h-1.7V199.5z"
		/>
	<path class="st14" d="M517.4,183.4c-1-0.3-1.7-0.6-2.1-1c-0.4-0.4-0.7-0.9-0.7-1.5c0-0.7,0.3-1.2,0.8-1.7c0.5-0.4,1.2-0.7,2.1-0.7
		c0.6,0,1.1,0.1,1.6,0.3c0.5,0.2,0.8,0.5,1.1,0.9c0.3,0.4,0.4,0.8,0.4,1.3h-1.1c0-0.5-0.2-0.9-0.5-1.2c-0.3-0.3-0.8-0.4-1.4-0.4
		c-0.6,0-1,0.1-1.3,0.4c-0.3,0.2-0.5,0.6-0.5,1c0,0.4,0.1,0.6,0.4,0.9c0.3,0.2,0.8,0.5,1.5,0.7c0.7,0.2,1.3,0.4,1.7,0.7
		c0.4,0.2,0.7,0.5,0.9,0.8c0.2,0.3,0.3,0.7,0.3,1.1c0,0.7-0.3,1.2-0.8,1.7c-0.5,0.4-1.3,0.6-2.2,0.6c-0.6,0-1.1-0.1-1.6-0.3
		c-0.5-0.2-0.9-0.5-1.2-0.9c-0.3-0.4-0.4-0.8-0.4-1.3h1.1c0,0.5,0.2,0.9,0.6,1.2c0.4,0.3,0.9,0.4,1.5,0.4c0.6,0,1-0.1,1.4-0.4
		c0.3-0.2,0.5-0.6,0.5-1c0-0.4-0.1-0.7-0.4-1C518.7,183.9,518.2,183.6,517.4,183.4z"/>
	<path class="st14" d="M525.7,187.2c-0.1-0.1-0.1-0.4-0.2-0.7c-0.5,0.5-1.1,0.8-1.8,0.8c-0.6,0-1.1-0.2-1.5-0.5
		c-0.4-0.3-0.6-0.8-0.6-1.3c0-0.7,0.2-1.2,0.7-1.5c0.5-0.4,1.2-0.5,2.1-0.5h1v-0.5c0-0.4-0.1-0.7-0.3-0.9c-0.2-0.2-0.6-0.3-1-0.3
		c-0.4,0-0.7,0.1-1,0.3c-0.3,0.2-0.4,0.4-0.4,0.7h-1.1c0-0.3,0.1-0.6,0.3-0.9c0.2-0.3,0.5-0.5,0.9-0.7c0.4-0.2,0.8-0.2,1.3-0.2
		c0.7,0,1.3,0.2,1.7,0.5s0.6,0.9,0.6,1.5v2.9c0,0.6,0.1,1,0.2,1.4v0.1H525.7z M523.9,186.4c0.3,0,0.7-0.1,1-0.3
		c0.3-0.2,0.5-0.4,0.7-0.7v-1.3h-0.8c-1.3,0-2,0.4-2,1.2c0,0.3,0.1,0.6,0.3,0.8C523.3,186.3,523.6,186.4,523.9,186.4z"/>
	<path class="st14" d="M529.5,187.2h-1.1v-9h1.1V187.2z"/>
	<path class="st14" d="M533.9,187.3c-0.9,0-1.6-0.3-2.1-0.8c-0.5-0.6-0.8-1.3-0.8-2.3V184c0-0.6,0.1-1.2,0.4-1.7
		c0.2-0.5,0.6-0.9,1-1.2c0.4-0.3,0.9-0.4,1.4-0.4c0.8,0,1.5,0.3,1.9,0.8c0.5,0.5,0.7,1.3,0.7,2.3v0.4H532c0,0.6,0.2,1.1,0.5,1.5
		c0.4,0.4,0.8,0.6,1.3,0.6c0.4,0,0.7-0.1,1-0.2c0.3-0.1,0.5-0.4,0.7-0.6l0.7,0.5C535.7,186.9,534.9,187.3,533.9,187.3z M533.7,181.6
		c-0.4,0-0.8,0.2-1.1,0.5c-0.3,0.3-0.5,0.8-0.5,1.3h3.2v-0.1c0-0.5-0.2-1-0.4-1.3C534.5,181.8,534.2,181.6,533.7,181.6z"/>
	<path class="st14" d="M541.2,185.5c0-0.3-0.1-0.5-0.3-0.7c-0.2-0.2-0.6-0.3-1.1-0.4c-0.5-0.1-1-0.3-1.3-0.4
		c-0.3-0.2-0.6-0.4-0.7-0.6c-0.2-0.2-0.2-0.5-0.2-0.8c0-0.5,0.2-0.9,0.7-1.3c0.4-0.4,1-0.5,1.7-0.5c0.7,0,1.3,0.2,1.7,0.5
		c0.4,0.4,0.7,0.8,0.7,1.4h-1.1c0-0.3-0.1-0.6-0.4-0.8c-0.2-0.2-0.6-0.3-0.9-0.3c-0.4,0-0.7,0.1-0.9,0.3c-0.2,0.2-0.3,0.4-0.3,0.7
		c0,0.3,0.1,0.4,0.3,0.6c0.2,0.1,0.6,0.3,1.1,0.4c0.5,0.1,1,0.3,1.3,0.4c0.3,0.2,0.6,0.4,0.7,0.6c0.2,0.2,0.2,0.5,0.2,0.9
		c0,0.6-0.2,1-0.7,1.4c-0.5,0.3-1,0.5-1.8,0.5c-0.5,0-1-0.1-1.3-0.3c-0.4-0.2-0.7-0.4-0.9-0.8c-0.2-0.3-0.3-0.7-0.3-1h1.1
		c0,0.4,0.2,0.6,0.4,0.9c0.3,0.2,0.6,0.3,1.1,0.3c0.4,0,0.7-0.1,1-0.2C541.1,186,541.2,185.8,541.2,185.5z"/>
	<path class="st9" d="M521.8,192.3h-0.7v-4.2l-1.3,0.5V188l1.9-0.7h0.1V192.3z"/>
	<path class="st15" d="M522,39.4h1v147h-1V39.4z"/>
	<path class="st9" d="M577.6,188.7c0,0.2-0.1,0.5-0.2,0.6c-0.1,0.2-0.3,0.3-0.5,0.4c0.2,0.1,0.4,0.3,0.6,0.5
		c0.1,0.2,0.2,0.4,0.2,0.7c0,0.4-0.1,0.8-0.4,1c-0.3,0.2-0.6,0.4-1.1,0.4c-0.5,0-0.8-0.1-1.1-0.4c-0.3-0.2-0.4-0.6-0.4-1
		c0-0.3,0.1-0.5,0.2-0.7c0.1-0.2,0.3-0.4,0.6-0.5c-0.2-0.1-0.4-0.3-0.5-0.4c-0.1-0.2-0.2-0.4-0.2-0.6c0-0.4,0.1-0.7,0.4-1
		c0.3-0.2,0.6-0.4,1-0.4c0.4,0,0.8,0.1,1,0.4C577.5,187.9,577.6,188.3,577.6,188.7z M577.1,190.9c0-0.3-0.1-0.5-0.3-0.7
		c-0.2-0.2-0.4-0.3-0.7-0.3s-0.5,0.1-0.7,0.3c-0.2,0.2-0.2,0.4-0.2,0.7c0,0.3,0.1,0.5,0.2,0.6c0.2,0.2,0.4,0.2,0.7,0.2
		c0.3,0,0.5-0.1,0.7-0.2C577,191.4,577.1,191.2,577.1,190.9z M576.2,187.8c-0.2,0-0.4,0.1-0.6,0.2c-0.1,0.1-0.2,0.4-0.2,0.6
		c0,0.2,0.1,0.4,0.2,0.6c0.1,0.2,0.3,0.2,0.6,0.2s0.4-0.1,0.6-0.2c0.1-0.2,0.2-0.4,0.2-0.6c0-0.2-0.1-0.5-0.2-0.6
		C576.6,187.9,576.5,187.8,576.2,187.8z"/>
	<path class="st16" d="M576.5,39.4h1v147h-1V39.4z"/>
	<path class="st9" d="M629.5,192.3h-0.6v-4.2l-1.2,0.5V188l1.8-0.7h0.1V192.3z"/>
	<path class="st9" d="M631.8,189.8l0.2-2.4h2.5v0.6h-2l-0.1,1.3c0.2-0.1,0.5-0.2,0.8-0.2c0.4,0,0.8,0.1,1,0.4
		c0.3,0.3,0.4,0.7,0.4,1.2c0,0.5-0.1,0.9-0.4,1.2c-0.3,0.3-0.6,0.4-1.1,0.4c-0.4,0-0.8-0.1-1-0.4c-0.3-0.2-0.4-0.6-0.5-1h0.6
		c0,0.3,0.1,0.5,0.3,0.6c0.2,0.1,0.4,0.2,0.6,0.2c0.3,0,0.5-0.1,0.7-0.3c0.2-0.2,0.2-0.5,0.2-0.8c0-0.3-0.1-0.6-0.3-0.8
		c-0.2-0.2-0.4-0.3-0.7-0.3c-0.3,0-0.5,0-0.6,0.2l-0.2,0.1L631.8,189.8z"/>
	<path class="st16" d="M630.9,39.4h1v147h-1V39.4z"/>
	<path class="st9" d="M685.7,192.3h-3v-0.5l1.6-1.9c0.2-0.3,0.4-0.5,0.5-0.7c0.1-0.2,0.1-0.4,0.1-0.6c0-0.2-0.1-0.5-0.2-0.6
		c-0.1-0.2-0.3-0.2-0.6-0.2c-0.3,0-0.5,0.1-0.7,0.3c-0.2,0.2-0.2,0.4-0.2,0.7h-0.6c0-0.5,0.1-0.8,0.4-1.1c0.3-0.3,0.6-0.4,1.1-0.4
		c0.4,0,0.8,0.1,1,0.4c0.3,0.2,0.4,0.6,0.4,1c0,0.5-0.3,1.1-0.9,1.7l-1.2,1.4h2.3V192.3z"/>
	<path class="st9" d="M689.6,192.3h-3v-0.5l1.6-1.9c0.2-0.3,0.4-0.5,0.5-0.7c0.1-0.2,0.1-0.4,0.1-0.6c0-0.2-0.1-0.5-0.2-0.6
		c-0.1-0.2-0.3-0.2-0.6-0.2c-0.3,0-0.5,0.1-0.7,0.3c-0.2,0.2-0.2,0.4-0.2,0.7h-0.6c0-0.5,0.1-0.8,0.4-1.1c0.3-0.3,0.6-0.4,1.1-0.4
		c0.4,0,0.8,0.1,1,0.4c0.3,0.2,0.4,0.6,0.4,1c0,0.5-0.3,1.1-0.9,1.7l-1.2,1.4h2.3V192.3z"/>
	<path class="st16" d="M685.4,39.4h1v147h-1V39.4z"/>
	<path class="st16" d="M739.8,39.4h1v147h-1V39.4z"/>
	<path class="st9" d="M739.7,192.3h-3.1v-0.5l1.7-1.9c0.2-0.3,0.4-0.5,0.5-0.7c0.1-0.2,0.1-0.4,0.1-0.6c0-0.2-0.1-0.5-0.2-0.6
		c-0.2-0.2-0.4-0.2-0.6-0.2c-0.3,0-0.5,0.1-0.7,0.3c-0.2,0.2-0.2,0.4-0.2,0.7h-0.6c0-0.5,0.1-0.8,0.4-1.1c0.3-0.3,0.7-0.4,1.1-0.4
		c0.4,0,0.8,0.1,1.1,0.4c0.3,0.2,0.4,0.6,0.4,1c0,0.5-0.3,1.1-0.9,1.7l-1.3,1.4h2.4V192.3z"/>
	<path class="st9" d="M742.9,190.2c-0.1,0.1-0.3,0.3-0.5,0.4c-0.2,0.1-0.4,0.2-0.6,0.2c-0.3,0-0.5-0.1-0.7-0.2
		c-0.2-0.1-0.4-0.3-0.5-0.6c-0.1-0.3-0.2-0.5-0.2-0.8c0-0.3,0.1-0.6,0.2-0.9c0.1-0.3,0.3-0.5,0.5-0.6s0.5-0.2,0.8-0.2
		c0.5,0,0.8,0.2,1.1,0.5c0.3,0.4,0.4,0.9,0.4,1.5v0.2c0,1-0.2,1.7-0.6,2.1c-0.4,0.4-0.9,0.7-1.7,0.7h-0.1v-0.5h0.1
		c0.5,0,0.9-0.1,1.2-0.4C742.7,191.1,742.9,190.7,742.9,190.2z M742,190.2c0.2,0,0.4-0.1,0.6-0.2c0.2-0.1,0.3-0.3,0.4-0.5v-0.2
		c0-0.4-0.1-0.8-0.3-1c-0.2-0.3-0.4-0.4-0.7-0.4c-0.3,0-0.5,0.1-0.6,0.3s-0.2,0.5-0.2,0.8s0.1,0.6,0.2,0.8
		C741.5,190,741.7,190.2,742,190.2z"/>
	<defs>
		<filter id="Adobe_OpacityMaskFilter" filterUnits="userSpaceOnUse" x="520.7" y="60.2" width="217.7" height="88.4">
			<feColorMatrix  type="matrix" values="1 0 0 0 0  0 1 0 0 0  0 0 1 0 0  0 0 0 1 0"/>
		</filter>
	</defs>
	
		<mask maskUnits="userSpaceOnUse" x="520.7" y="60.2" width="217.7" height="88.4" id="mask1_0:1_00000155132012382774330090000006118603820518013580_">
		<path class="st17" d="M509.9,38.6h246.3v130.9h-123H509.9V38.6z"/>
	</mask>
	<g class="st24">
		<path class="st19" d="M520.7,139.6c7,0,7-20.3,14-20.3c4.7,0,4.7,8.6,11.7,8.6c7,0,7,11,14,11c7,0,7,0.2,14,0.2
			c7,0,7-2.6,11.7-2.6c7,0,7,11.5,14,11.5c7,0,7-3.3,14-3.3c7,0,7,1,14,1c4.7,0,4.7,2.2,11.7,2.5c61.1,2.1,91.3-87.4,98.3-87.4"/>
	</g>
	<g>
		<path class="st4" d="M0,426.9c0-3.4,2.5-6.2,5.6-6.2h226c3.1,0,5.6,2.8,5.6,6.2v224.9c0,3.4-2.5,6.2-5.6,6.2H5.6
			c-3.1,0-5.6-2.8-5.6-6.2V426.9z"/>
	</g>
	<g>
		<path class="st25" d="M114.9,541.3c-1,1.6-1.9,3.1-2.9,4.5c-13.5,21-27,41.9-40.5,62.9c-1.1,1.7-2.2,3.4-3.3,5.1
			c-0.3,0.5-0.5,0.6-1,0.3c-10.9-7.2-19.8-16.4-26.6-27.5c-5.6-9.2-9.5-19.3-11.4-29.8c-0.2-0.9-0.3-1.7-0.4-2.6
			c-0.1-0.6,0-0.9,0.7-1c5.8-0.8,11.6-1.6,17.4-2.4c7.5-1,15-2.1,22.5-3.1c8.1-1.1,16.2-2.3,24.3-3.4c6.7-0.9,13.4-1.9,20.2-2.8
			C114.1,541.4,114.4,541.4,114.9,541.3z"/>
	</g>
	<g>
		<path class="st22" d="M124.5,630.2h-10.1c-1.4-0.3-2.8-0.3-4.2-0.5c-11.8-1.3-23.3-5-33.6-10.9c-1.1-0.6-2.1-1.3-3.2-1.9
			c-0.6-0.3-0.7-0.6-0.3-1.2c4.1-6.3,8.2-12.6,12.3-19c10.5-16.4,21-32.7,31.5-49c0.8-1.2,1.6-2.5,2.4-3.7c0.3-0.5,0.5-0.6,1.1-0.3
			c8.3,5.2,16.6,10.5,24.9,15.7l46.9,29.6c0.1,0.1,0.2,0.1,0.2,0.1c1,0.7,1.1,0.4,0.4,1.6c-9.3,14.2-21.8,24.8-37.2,31.9
			c-8.3,3.8-17.2,6.2-26.3,7.2L124.5,630.2z"/>
	</g>
	<g>
		<path class="st26" d="M119.7,448.6c0.9,0.3,2,0.2,2.9,0.3c1.3,0.2,2.6,0.3,4,0.4c0.7,0.1,0.8,0.4,0.7,1
			c-1.1,7.2-2.1,14.4-3.2,21.6c-1.1,7.8-2.3,15.5-3.4,23.2c-1.2,8.1-2.4,16.2-3.5,24.2c-0.7,5.1-1.5,10.2-2.2,15.3
			c-0.1,0.7-0.4,0.8-0.9,0.9c-4.4,0.6-8.9,1.2-13.3,1.9c-7.1,1-14.3,2-21.4,3c-7.6,1.1-15.2,2.1-22.8,3.2l-24.2,3.4
			c-1,0.1-1.9,0.2-2.9,0.4c-0.6,0.1-0.9,0-1-0.7c-0.1-1.7-0.3-3.5-0.5-5.2c0-0.2,0.1-0.4-0.2-0.6v-10.7c0.3-0.2,0.2-0.6,0.2-0.8
			c0.5-7.1,1.8-14.2,4.1-21c6.6-19.5,18.5-34.9,35.8-46.2c12-7.8,25.3-12.2,39.6-13.5c0.8-0.1,1.6,0.1,2.4-0.3H119.7z"/>
	</g>
	<g>
		<path class="st27" d="M208.7,531.6v10.4c-0.3,0.1-0.2,0.4-0.2,0.5c-0.2,2.6-0.5,5.1-0.9,7.7c-1.8,11.4-5.9,22.4-11.9,32.2
			c-0.3,0.5-0.6,0.6-1.1,0.2c-23.9-15.1-47.9-30.2-71.8-45.3c-0.9-0.6-1.1-1.1-1-2.2c0.9-5.6,1.7-11.3,2.5-17
			c1.1-7.3,2.1-14.7,3.2-22c1.2-8.5,2.5-17,3.7-25.6c0.9-6.4,1.9-12.9,2.8-19.3c0.1-0.7,0.2-0.9,1-0.8c12.6,2,24.3,6.3,34.8,13.5
			c22.9,15.7,35.8,37.3,38.6,65C208.5,529.9,208.3,530.8,208.7,531.6z"/>
	</g>
</g>
</svg>
