<?xml version="1.0" encoding="utf-8"?>
<!-- Generator: Adobe Illustrator 25.4.1, SVG Export Plug-In . SVG Version: 6.00 Build 0)  -->
<svg version="1.1" id="Layer_1" xmlns="http://www.w3.org/2000/svg" xmlns:xlink="http://www.w3.org/1999/xlink" x="0px" y="0px"
	 viewBox="0 0 279 59.7" style="enable-background:new 0 0 279 59.7;" xml:space="preserve">
<style type="text/css">
	.st0{fill:#3071E7;}
	.st1{fill:none;stroke:#FFFFFF;stroke-width:10;stroke-linecap:round;stroke-linejoin:round;}
	.st2{fill:url(#SVGID_1_);}
	.st3{fill:#5DD10D;}
	.st4{fill:#FFFFFF;}
	.st5{fill:none;stroke:#5DD10D;stroke-width:3;stroke-linecap:round;stroke-linejoin:round;}
	.st6{fill:url(#SVGID_00000119090505694708292990000004365637272664438698_);}
	.st7{fill:url(#SVGID_00000094620467871010468680000005572060022458402694_);}
	.st8{fill:#FFFFFF;stroke:#FFFFFF;stroke-width:4;}
	.st9{fill:#3C3C3C;}
	.st10{fill:#C4C4C4;}
	.st11{fill:#4AAF05;}
	.st12{fill-rule:evenodd;clip-rule:evenodd;fill:#E7E6E6;}
	.st13{fill:none;stroke:#BDBDBD;}
	.st14{fill:#BDBDBD;}
	.st15{fill:#E5E5E5;}
	.st16{fill:#E7E6E6;}
	.st17{fill:#C4C4C4;filter:url(#Adobe_OpacityMaskFilter);}
	.st18{mask:url(#mask0_0:1_00000079464290474750960640000000752820437039881869_);}
	.st19{fill:none;stroke:#E97179;}
	.st20{fill-rule:evenodd;clip-rule:evenodd;fill:#4AAF05;}
	.st21{fill:#FFFFFF;stroke:#BDBDBD;}
	.st22{fill:#E97179;}
	.st23{fill:#C4C4C4;filter:url(#Adobe_OpacityMaskFilter_00000066481924783780106180000014288638680210020270_);}
	.st24{mask:url(#mask1_0:1_00000155132012382774330090000006118603820518013580_);}
	.st25{fill:#DD596B;}
	.st26{fill:#F4A3AE;}
	.st27{fill:#F4BEC6;}
</style>
<g>
	<g>
		<path class="st4" d="M0,8c0-4.4,3.5-8,7.9-8h263.1c4.4,0,7.9,3.6,7.9,8v43.8c0,4.4-3.6,8-7.9,8H7.9c-4.4,0-7.9-3.6-7.9-8V8z"/>
	</g>
	<path class="st9" d="M83.9,29.6l1.8-16.2h17.6v5.3H90.8L90,25.5c1.5-0.8,3.1-1.2,4.7-1.2c3,0,5.3,0.9,7,2.8
		c1.7,1.9,2.6,4.5,2.6,7.9c0,2.1-0.4,3.9-1.3,5.5c-0.9,1.6-2.1,2.9-3.7,3.8c-1.6,0.9-3.5,1.3-5.7,1.3c-1.9,0-3.7-0.4-5.3-1.2
		c-1.6-0.8-2.9-1.9-3.9-3.3c-0.9-1.4-1.4-3-1.5-4.8h6.2c0.1,1.3,0.6,2.4,1.4,3.1c0.8,0.7,1.8,1.1,3.1,1.1c1.4,0,2.5-0.5,3.3-1.5
		c0.8-1,1.1-2.5,1.1-4.4c0-1.8-0.4-3.2-1.3-4.1c-0.9-1-2.1-1.4-3.7-1.4c-1.5,0-2.7,0.4-3.6,1.2l-0.6,0.6L83.9,29.6z"/>
	<path class="st9" d="M110.2,53.2l-3.3-1.7l0.8-1.4c1-1.8,1.5-3.6,1.5-5.3v-4.9h5.3l0,4.4c0,1.6-0.4,3.2-1.2,4.9
		C112.5,50.8,111.5,52.1,110.2,53.2z"/>
	<path class="st9" d="M140.7,45.2h-21.6v-4.3l10.2-11c1.4-1.5,2.4-2.9,3.1-4c0.7-1.1,1-2.2,1-3.3c0-1.4-0.4-2.5-1.1-3.3
		c-0.7-0.8-1.7-1.2-3-1.2c-1.4,0-2.5,0.5-3.3,1.5c-0.8,1-1.2,2.3-1.2,3.9h-6.3c0-1.9,0.4-3.7,1.4-5.3c0.9-1.6,2.2-2.9,3.9-3.8
		c1.7-0.9,3.6-1.4,5.7-1.4c3.2,0,5.8,0.8,7.5,2.4c1.8,1.6,2.7,3.8,2.7,6.7c0,1.6-0.4,3.2-1.2,4.8c-0.8,1.6-2.2,3.5-4.2,5.7l-7.1,7.6
		h13.5V45.2z"/>
	<path class="st9" d="M150.9,26.5h3.3c1.6,0,2.8-0.4,3.5-1.2s1.1-1.9,1.1-3.2c0-1.3-0.4-2.3-1.1-3c-0.8-0.7-1.8-1.1-3.1-1.1
		c-1.2,0-2.2,0.3-3,1c-0.8,0.7-1.2,1.5-1.2,2.6h-6.2c0-1.7,0.4-3.1,1.3-4.5c0.9-1.3,2.1-2.4,3.7-3.1c1.6-0.7,3.4-1.1,5.3-1.1
		c3.3,0,5.9,0.8,7.8,2.4c1.9,1.6,2.8,3.8,2.8,6.7c0,1.4-0.4,2.8-1.3,4c-0.9,1.2-2,2.2-3.4,2.8c1.8,0.7,3.1,1.6,3.9,2.9
		c0.9,1.3,1.3,2.8,1.3,4.5c0,2.8-1,5.1-3.1,6.8c-2,1.7-4.7,2.6-8.1,2.6c-3.1,0-5.7-0.8-7.7-2.5c-2-1.7-3-3.9-3-6.6h6.2
		c0,1.2,0.4,2.2,1.3,2.9c0.9,0.8,2,1.1,3.3,1.1c1.5,0,2.6-0.4,3.5-1.2c0.8-0.8,1.3-1.8,1.3-3.2c0-3.2-1.7-4.8-5.2-4.8h-3.3V26.5z"/>
	<path class="st9" d="M188.5,33.2h3.6v5.1h-3.6v6.9h-6.2v-6.9h-12.9l-0.3-4l13.1-21h6.3V33.2z M175.3,33.2h7V22l-0.4,0.7L175.3,33.2
		z"/>
	<path class="st10" d="M27.2,30.1c0-0.5-0.2-0.9-0.6-1.2c-0.4-0.3-1.1-0.6-2.1-0.9c-1-0.3-1.8-0.6-2.3-0.9c-1.6-0.8-2.4-1.9-2.4-3.3
		c0-0.7,0.2-1.4,0.6-1.9c0.4-0.6,1-1,1.8-1.3C23.1,20.2,24,20,25,20c1,0,1.9,0.2,2.6,0.5c0.8,0.3,1.4,0.8,1.8,1.5
		c0.4,0.6,0.6,1.3,0.6,2.1h-2.8c0-0.6-0.2-1.1-0.6-1.4c-0.4-0.3-1-0.5-1.7-0.5c-0.7,0-1.2,0.1-1.6,0.4c-0.4,0.3-0.6,0.7-0.6,1.1
		c0,0.4,0.2,0.8,0.7,1.1c0.5,0.3,1.1,0.6,2,0.8c1.6,0.5,2.8,1.1,3.5,1.8c0.7,0.7,1.1,1.6,1.1,2.6c0,1.2-0.5,2.1-1.4,2.7
		c-0.9,0.6-2.1,1-3.7,1c-1.1,0-2-0.2-2.9-0.6c-0.9-0.4-1.5-0.9-2-1.6c-0.5-0.6-0.7-1.4-0.7-2.3h2.9c0,1.5,0.9,2.2,2.7,2.2
		c0.7,0,1.2-0.1,1.6-0.4C27,30.9,27.2,30.5,27.2,30.1z"/>
	<path class="st10" d="M37.8,33.6c-0.1-0.2-0.2-0.5-0.3-0.9c-0.7,0.7-1.5,1.1-2.6,1.1c-1,0-1.8-0.3-2.5-0.8c-0.7-0.6-1-1.3-1-2.1
		c0-1.1,0.4-1.9,1.2-2.4c0.8-0.6,2-0.9,3.5-0.9h1.3v-0.6c0-0.5-0.1-0.8-0.4-1.1c-0.2-0.3-0.6-0.4-1.1-0.4c-0.5,0-0.8,0.1-1.1,0.3
		c-0.3,0.2-0.4,0.5-0.4,0.9h-2.7c0-0.6,0.2-1.1,0.6-1.6c0.4-0.5,0.9-0.9,1.6-1.1c0.7-0.3,1.4-0.4,2.3-0.4c1.3,0,2.3,0.3,3,0.9
		c0.7,0.6,1.1,1.5,1.1,2.6v4.3c0,0.9,0.1,1.7,0.4,2.1v0.2H37.8z M35.5,31.7c0.4,0,0.8-0.1,1.1-0.2c0.3-0.2,0.6-0.4,0.8-0.7V29h-1
		c-1.4,0-2.1,0.5-2.2,1.4l0,0.2c0,0.3,0.1,0.6,0.4,0.8C34.8,31.6,35.1,31.7,35.5,31.7z"/>
	<path class="st10" d="M45.2,33.6h-2.8V19.5h2.8V33.6z"/>
	<path class="st10" d="M52.2,33.7c-1.5,0-2.7-0.4-3.7-1.3c-0.9-0.9-1.4-2.1-1.4-3.6v-0.3c0-1,0.2-1.9,0.6-2.7c0.4-0.8,1-1.4,1.7-1.8
		c0.7-0.4,1.6-0.6,2.5-0.6c1.4,0,2.5,0.4,3.3,1.3c0.8,0.9,1.2,2.1,1.2,3.6v1.1h-6.5c0.1,0.6,0.4,1.2,0.8,1.6c0.4,0.4,1,0.6,1.7,0.6
		c1.1,0,1.9-0.4,2.5-1.1l1.3,1.5c-0.4,0.6-1,1-1.7,1.3C53.8,33.6,53,33.7,52.2,33.7z M51.8,25.6c-0.5,0-1,0.2-1.3,0.5
		c-0.3,0.4-0.6,0.9-0.6,1.5h3.8v-0.2c0-0.6-0.2-1-0.5-1.4C52.9,25.8,52.4,25.6,51.8,25.6z"/>
	<path class="st10" d="M63.5,30.8c0-0.3-0.2-0.6-0.5-0.8c-0.3-0.2-0.9-0.4-1.6-0.5c-2.4-0.5-3.7-1.5-3.7-3c0-0.9,0.4-1.6,1.1-2.2
		c0.8-0.6,1.8-0.9,3-0.9c1.3,0,2.3,0.3,3.1,0.9c0.8,0.6,1.2,1.4,1.2,2.3h-2.7c0-0.4-0.1-0.7-0.4-0.9c-0.3-0.2-0.6-0.4-1.2-0.4
		c-0.5,0-0.8,0.1-1.1,0.3c-0.3,0.2-0.4,0.5-0.4,0.8c0,0.3,0.1,0.5,0.4,0.7c0.3,0.2,0.8,0.3,1.5,0.5c0.7,0.1,1.3,0.3,1.7,0.4
		c1.4,0.5,2.2,1.4,2.2,2.7c0,0.9-0.4,1.6-1.2,2.2c-0.8,0.6-1.8,0.8-3.1,0.8c-0.9,0-1.6-0.1-2.3-0.4c-0.7-0.3-1.2-0.7-1.6-1.2
		c-0.4-0.5-0.6-1.1-0.6-1.7H60c0,0.5,0.2,0.8,0.5,1.1c0.3,0.2,0.8,0.4,1.3,0.4c0.5,0,0.9-0.1,1.2-0.3C63.4,31.4,63.5,31.1,63.5,30.8
		z"/>
	<path class="st11" d="M206.3,20.1c0-1.8,1.5-3.2,3.2-3.2h42.8c1.8,0,3.2,1.4,3.2,3.2V37c0,1.8-1.5,3.2-3.2,3.2h-42.8
		c-1.8,0-3.2-1.4-3.2-3.2V20.1z"/>
	<path class="st4" d="M224.8,27.8l0.5-4.3h4.7v1h-3.7l-0.3,2.3c0.4-0.2,1-0.4,1.5-0.4c0.8,0,1.5,0.3,2,0.8c0.5,0.5,0.7,1.2,0.7,2.1
		c0,0.9-0.2,1.6-0.8,2.1c-0.5,0.5-1.2,0.8-2.1,0.8c-0.8,0-1.5-0.2-2-0.6c-0.5-0.4-0.8-1-0.9-1.7h1.1c0.1,0.5,0.3,0.9,0.6,1.1
		c0.3,0.2,0.7,0.4,1.2,0.4c0.6,0,1-0.2,1.3-0.5c0.3-0.4,0.5-0.8,0.5-1.4c0-0.6-0.2-1-0.5-1.4c-0.3-0.3-0.8-0.5-1.3-0.5
		c-0.5,0-0.9,0.1-1.2,0.3l-0.3,0.2L224.8,27.8z"/>
	<path class="st4" d="M231.9,33.7l-0.7-0.4c0.4-0.5,0.6-1.1,0.6-1.6v-1h1.1v0.9c0,0.4-0.1,0.8-0.3,1.2
		C232.5,33.2,232.3,33.5,231.9,33.7z"/>
	<path class="st4" d="M240.5,28.4c0,1.3-0.2,2.2-0.7,2.8c-0.5,0.6-1.2,0.9-2.2,0.9c-1,0-1.7-0.3-2.2-0.9c-0.5-0.6-0.7-1.5-0.7-2.7
		v-1.4c0-1.2,0.2-2.2,0.7-2.8c0.5-0.6,1.2-0.9,2.2-0.9c1,0,1.7,0.3,2.2,0.9c0.5,0.6,0.7,1.5,0.7,2.7V28.4z M239.3,26.9
		c0-0.9-0.1-1.6-0.4-2c-0.3-0.4-0.7-0.6-1.3-0.6s-1,0.2-1.3,0.6c-0.3,0.4-0.4,1.1-0.4,1.9v1.7c0,0.9,0.1,1.6,0.4,2.1
		c0.3,0.4,0.7,0.7,1.3,0.7c0.6,0,1-0.2,1.3-0.6c0.3-0.4,0.4-1.1,0.4-2V26.9z"/>
	<path class="st4" d="M242.2,25.1c0-0.5,0.2-0.9,0.5-1.3c0.4-0.3,0.8-0.5,1.4-0.5c0.6,0,1,0.2,1.4,0.5c0.4,0.3,0.5,0.8,0.5,1.3v0.4
		c0,0.5-0.2,0.9-0.5,1.3c-0.3,0.3-0.8,0.5-1.3,0.5c-0.5,0-1-0.2-1.3-0.5c-0.4-0.3-0.5-0.8-0.5-1.3V25.1z M243.1,25.6
		c0,0.3,0.1,0.6,0.3,0.8c0.2,0.2,0.4,0.3,0.7,0.3c0.3,0,0.5-0.1,0.7-0.3c0.2-0.2,0.3-0.5,0.3-0.8v-0.4c0-0.3-0.1-0.6-0.3-0.8
		c-0.2-0.2-0.4-0.3-0.7-0.3c-0.3,0-0.6,0.1-0.7,0.3c-0.2,0.2-0.3,0.5-0.3,0.8V25.6z M246.7,29.9c0-0.5,0.2-0.9,0.5-1.3
		c0.4-0.3,0.8-0.5,1.4-0.5c0.6,0,1,0.2,1.4,0.5c0.3,0.3,0.5,0.8,0.5,1.3v0.4c0,0.5-0.2,0.9-0.5,1.3c-0.4,0.3-0.8,0.5-1.3,0.5
		c-0.5,0-1-0.2-1.4-0.5c-0.4-0.3-0.5-0.8-0.5-1.3V29.9z M247.6,30.4c0,0.3,0.1,0.6,0.3,0.8c0.2,0.2,0.4,0.3,0.8,0.3
		c0.3,0,0.5-0.1,0.7-0.3c0.2-0.2,0.3-0.5,0.3-0.8v-0.4c0-0.3-0.1-0.6-0.3-0.8c-0.2-0.2-0.4-0.3-0.7-0.3c-0.3,0-0.5,0.1-0.7,0.3
		c-0.2,0.2-0.3,0.4-0.3,0.8V30.4z M244.4,31.4l-0.7-0.4l4.5-6.7l0.7,0.4L244.4,31.4z"/>
</g>
</svg>
