<svg width="100" height="27" viewBox="0 0 100 27" fill="none" xmlns="http://www.w3.org/2000/svg">
<path d="M65.1673 3.87304L62.3978 4.43043C62.1918 3.36597 61.3039 2.84094 60.3923 2.84094C59.4497 2.84094 58.8498 3.34799 58.8498 3.9917C58.8498 4.44841 59.0559 4.78646 59.776 4.93929L62.159 5.46253C64.1499 5.90306 65.315 6.96932 65.315 8.762C65.315 11.1804 63.138 12.4319 60.5746 12.4319C57.9838 12.4319 55.8579 11.2146 55.5498 8.99754L58.467 8.44013C58.7587 9.60708 59.5809 10.1141 60.7314 10.1141C61.7943 10.1141 62.4288 9.64125 62.4288 8.94719C62.4288 8.44014 62.1882 8.11828 61.3659 7.94926L58.9647 7.44221C57.3238 7.07 55.8762 6.22491 55.8762 4.16072C55.8762 1.96168 57.7285 0.591553 60.4214 0.591553C62.9211 0.591553 64.7388 1.80885 65.1673 3.87304Z" fill="#3C3C3C"/>
<path d="M76.0411 12.1782H73.3063V11.5022C72.6372 12.0937 71.7456 12.4318 70.6298 12.4318C68.349 12.4318 66.4364 10.6211 66.4364 7.93659C66.4364 5.25207 68.3563 3.44141 70.6298 3.44141C71.7456 3.44141 72.6353 3.78125 73.3063 4.37281V3.69673H76.0411V12.1782ZM73.3063 7.93299C73.3063 6.62939 72.3108 5.73395 71.1968 5.73395C69.9953 5.73395 69.122 6.63299 69.122 7.93299C69.122 9.233 69.9953 10.132 71.1968 10.132C72.3017 10.132 73.2972 9.25098 73.2972 7.93299H73.3063Z" fill="#3C3C3C"/>
<path d="M78.0302 12.1783V0H80.765V12.1783H78.0302Z" fill="#3C3C3C"/>
<path d="M91.2047 8.62525H84.8946C85.117 9.64116 85.8208 10.2669 86.747 10.2669C87.3814 10.2669 88.118 10.1141 88.5811 9.28514L91.0169 9.77602C90.2876 11.5741 88.7179 12.4318 86.747 12.4318C84.2601 12.4318 82.2017 10.6211 82.2017 7.93659C82.2017 5.25207 84.2601 3.44141 86.7597 3.44141C89.1955 3.44141 91.15 5.16756 91.2011 7.93659L91.2047 8.62525ZM84.9456 6.96923H88.4954C88.2383 6.05581 87.5528 5.63146 86.7634 5.63146C86.3537 5.62922 85.9544 5.75854 85.6258 5.99988C85.2972 6.24122 85.0572 6.58147 84.942 6.96923H84.9456Z" fill="#3C3C3C"/>
<path d="M94.7181 9.422C94.8385 10.1412 95.5058 10.4199 96.2442 10.4199C96.9826 10.4199 97.3581 10.1143 97.3581 9.74206C97.3581 9.45437 97.1357 9.235 96.5012 9.11632L94.7528 8.77829C93.1574 8.49059 92.2477 7.6455 92.2477 6.30953C92.2477 4.5672 93.7737 3.43262 95.9524 3.43262C98.0966 3.43262 99.5205 4.39818 99.8632 5.869L97.3581 6.35988C97.2724 5.83484 96.7583 5.36195 95.9178 5.36195C95.1885 5.36195 94.9405 5.72156 94.9405 6.02184C94.9405 6.25739 95.0426 6.49474 95.5933 6.61341L97.617 7.01978C99.2452 7.35781 100 8.32158 100 9.57304C100 11.4502 98.3591 12.432 96.0892 12.432C94.0654 12.432 92.3333 11.7127 92.0416 9.96322L94.7181 9.422Z" fill="#3C3C3C"/>
<path d="M66.3853 25.939H63.572V21.4564H58.735V25.939H55.9054V14.6111H58.735V19.0254H63.572V14.6057H66.3853V25.939Z" fill="#3C3C3C"/>
<path d="M77.0018 25.939H74.267V25.1263C73.9255 25.4747 73.5144 25.7494 73.0596 25.933C72.6048 26.1165 72.1164 26.2049 71.6251 26.1925C69.6196 26.1925 68.2795 24.7882 68.2795 22.6575V17.4431H71.0144V22.0875C71.0144 23.0855 71.6142 23.7615 72.4894 23.7615C73.5705 23.7615 74.2743 23.0423 74.2743 21.3935V17.4485H77.0091L77.0018 25.939Z" fill="#3C3C3C"/>
<path d="M88.6122 21.6938C88.6122 24.3909 86.6923 26.189 84.4188 26.189C83.3048 26.189 82.4132 25.851 81.7441 25.2594V25.9355H79.0093V13.7607H81.7441V18.1319C82.4132 17.5403 83.3048 17.2005 84.4188 17.2005C86.6923 17.1933 88.6122 19.0201 88.6122 21.6938ZM85.9193 21.6938C85.9193 20.3902 85.0441 19.4948 83.8445 19.4948C82.7305 19.4948 81.735 20.3938 81.735 21.6938C81.735 22.9938 82.7305 23.8929 83.8445 23.8929C85.0441 23.8857 85.9175 23.0118 85.9175 21.6938H85.9193Z" fill="#3C3C3C"/>
<path d="M31.4196 6.44427C28.6574 6.44427 13.2676 6.12062 12.2283 6.12062C11.1984 6.10364 10.1696 6.19647 9.15986 6.39752C8.30902 6.58811 7.8836 7.07419 7.8836 7.85576C7.8836 8.53063 8.24825 9.0227 8.97753 9.33197C9.70682 9.64124 10.9989 10.0392 12.8537 10.5259C15.016 11.0917 16.6648 11.7797 17.8001 12.5901C18.9354 13.4004 19.7017 14.3378 20.0992 15.4023C20.5294 16.5642 20.7408 17.7939 20.7227 19.0308C20.7227 21.4042 19.7923 23.3126 17.9314 24.7558C16.0705 26.1991 13.253 26.9183 9.47892 26.9135C7.7872 26.9216 6.09817 26.7795 4.43225 26.4892C3.03186 26.2622 1.66632 25.8611 0.368294 25.2953V19.0308C1.68532 19.6258 3.06045 20.0867 4.47235 20.4063C5.85577 20.7419 7.27399 20.9181 8.69858 20.9313C10.066 20.9313 11.0991 20.8169 11.7981 20.5879C12.497 20.3589 12.8452 19.8399 12.8428 19.0308C12.8547 18.778 12.8072 18.5259 12.7041 18.2942C12.601 18.0625 12.4451 17.8573 12.2484 17.6948C11.8509 17.3712 11.2353 17.0745 10.4015 16.8048C9.56765 16.5351 8.4804 16.1982 7.13973 15.7942C5.36269 15.2273 3.95395 14.6069 2.9135 13.9332C1.94427 13.3376 1.16804 12.481 0.676408 11.4645C0.225464 10.4935 0 9.3062 0 7.9025C0 5.34085 0.923158 3.39174 2.76947 2.05517C4.61579 0.718605 7.35852 0.050924 10.9977 0.0521227C12.4471 0.0521227 28.6574 0.00537109 31.3576 0.00537109L31.4196 6.44427Z" fill="#E97179"/>
<path d="M40.4189 0.451416V10.0513H23.5942V10.1412V16.6395V17.463V26.5127H31.3101V16.7995H40.4189V26.5127H48.133V0.451416H40.4189Z" fill="#F4A3AE"/>
</svg>
