<?xml version="1.0" encoding="utf-8"?>
<!-- Generator: Adobe Illustrator 25.4.1, SVG Export Plug-In . SVG Version: 6.00 Build 0)  -->
<svg version="1.1" id="Layer_1" xmlns="http://www.w3.org/2000/svg" xmlns:xlink="http://www.w3.org/1999/xlink" x="0px" y="0px"
	 viewBox="0 0 142 142" style="enable-background:new 0 0 142 142;" xml:space="preserve">
<style type="text/css">
	.st0{fill:#3071E7;}
	.st1{fill:none;stroke:#FFFFFF;stroke-width:10;stroke-linecap:round;stroke-linejoin:round;}
	.st2{fill:url(#SVGID_1_);}
	.st3{fill:#5DD10D;}
	.st4{fill:#FFFFFF;}
	.st5{fill:none;stroke:#5DD10D;stroke-width:3;stroke-linecap:round;stroke-linejoin:round;}
	.st6{fill:url(#SVGID_00000096754953748884396890000008324074772212918675_);}
	.st7{fill:url(#SVGID_00000109011808923391770760000002914695517521773992_);}
	.st8{fill:#FFFFFF;stroke:#FFFFFF;stroke-width:4;}
	.st9{fill:#3C3C3C;}
	.st10{fill:#C4C4C4;}
	.st11{fill:#4AAF05;}
	.st12{fill-rule:evenodd;clip-rule:evenodd;fill:#E7E6E6;}
	.st13{fill:none;stroke:#BDBDBD;}
	.st14{fill:#BDBDBD;}
	.st15{fill:#E5E5E5;}
	.st16{fill:#E7E6E6;}
	.st17{fill:#C4C4C4;filter:url(#Adobe_OpacityMaskFilter);}
	.st18{mask:url(#mask0_0:1_00000079464290474750960640000000752820437039881869_);}
	.st19{fill:none;stroke:#E97179;}
	.st20{fill-rule:evenodd;clip-rule:evenodd;fill:#4AAF05;}
	.st21{fill:#FFFFFF;stroke:#BDBDBD;}
	.st22{fill:#E97179;}
	.st23{fill:#C4C4C4;filter:url(#Adobe_OpacityMaskFilter_00000127016808473532723290000001286394060952304543_);}
	.st24{mask:url(#mask1_0:1_00000155132012382774330090000006118603820518013580_);}
	.st25{fill:#DD596B;}
	.st26{fill:#F4A3AE;}
	.st27{fill:#F4BEC6;}
</style>
<g>
	
		<linearGradient id="SVGID_1_" gradientUnits="userSpaceOnUse" x1="115.6839" y1="897.5234" x2="26.3174" y2="1052.3177" gradientTransform="matrix(1 0 0 -1 0 1045.9209)">
		<stop  offset="9.000000e-02" style="stop-color:#E97179"/>
		<stop  offset="0.83" style="stop-color:#F4A3AE"/>
	</linearGradient>
	<path class="st2" d="M121.2,0H20.8C9.3,0,0,9.3,0,20.8v100.4C0,132.7,9.3,142,20.8,142h100.4c11.5,0,20.8-9.3,20.8-20.8V20.8
		C142,9.3,132.7,0,121.2,0z"/>
	<path class="st4" d="M83.7,58.7c-4.8,0-31.3-0.6-33.1-0.6c-2.1,0-3.8,0.2-5.3,0.5c-1.5,0.3-2.2,1.2-2.2,2.5c0,1.2,0.6,2,1.9,2.6
		c1.3,0.5,3.5,1.2,6.7,2.1c3.7,1,6.6,2.2,8.5,3.6c2,1.4,3.3,3.1,4,4.9c0.7,1.9,1.1,4,1.1,6.3c0,4.2-1.6,7.5-4.8,10
		c-3.2,2.5-8.1,3.8-14.6,3.8c-2.9,0-5.8-0.2-8.7-0.7c-2.7-0.5-5.1-1.2-7-2.1v-11c2.3,1,4.6,1.8,7.1,2.4c2.6,0.6,5,0.9,7.3,0.9
		c2.4,0,4.1-0.2,5.3-0.6c1.2-0.4,1.8-1.3,1.8-2.7c0-1-0.3-1.8-1-2.3c-0.7-0.6-1.7-1.1-3.2-1.6c-1.4-0.5-3.3-1.1-5.6-1.8
		c-3.1-1-5.5-2.1-7.3-3.3c-1.8-1.2-3.1-2.6-3.9-4.3c-0.8-1.7-1.2-3.8-1.2-6.2c0-4.5,1.6-7.9,4.8-10.2s7.9-3.5,14.2-3.5
		c2.5,0,30.5-0.1,35.1-0.1L83.7,58.7z"/>
	<path class="st4" d="M99.2,48.3V65h-29v0.2v11.4V78v15.8h13.3v-17h15.7v17h13.3V48.3H99.2z"/>
</g>
</svg>
