<svg width="60" height="60" viewBox="0 0 60 60" fill="none" xmlns="http://www.w3.org/2000/svg">
<g clip-path="url(#clip0_634:4514)">
<path d="M0 40.6091C0.917143 39.3163 2.0143 38.3123 3.73287 38.9371C5.37001 39.5361 5.51999 40.9796 5.50713 42.4878C5.4857 45.3577 5.50713 48.2232 5.50713 51.106C5.50713 53.9888 6.17143 54.6007 9.08143 54.6223C11.8629 54.6223 14.6529 54.6223 17.4214 54.6223C18.8786 54.6223 20.3314 54.6223 21.0257 56.2813C21.72 57.9403 20.73 58.9702 19.74 60.013H6C4.581 59.4583 3.30464 58.5891 2.26585 57.4701C1.22706 56.351 0.452569 55.0109 0 53.5493V40.6091Z" fill="white"/>
<path d="M40.2859 60C39.2573 58.9917 38.1859 58.0092 38.8887 56.32C39.5916 54.6308 40.993 54.5964 42.4588 54.5964C45.3859 54.5964 48.3087 54.6265 51.2316 54.5964C53.683 54.5619 54.4288 53.7992 54.4459 51.3645C54.4716 48.4257 54.4716 45.4855 54.4459 42.5438C54.4459 40.9581 54.5488 39.4283 56.3573 38.8983C58.2388 38.3467 59.2888 39.4542 60.0002 41.0529V52.6875C59.3402 56.2382 57.1802 58.5478 54.0002 60.0129L40.2859 60Z" fill="white"/>
<path d="M-0.000209264 6.99812C2.16836 1.16359 3.82694 0.0216976 10.1612 0.0216976C12.7969 0.0216976 15.4326 0.0604796 18.0683 0.0216976C19.9155 -0.0127752 21.1455 0.6982 21.3041 2.63299C21.4455 4.30923 20.1512 5.32188 17.9698 5.33912C15.1198 5.36497 12.2698 5.33912 9.41978 5.33912C6.0855 5.33912 5.50694 5.94671 5.50266 9.38538C5.50266 12.1087 5.47266 14.8278 5.50266 17.5727C5.50266 19.1886 5.27549 20.6623 3.49692 21.1665C1.71835 21.6706 0.758354 20.4684 -0.00878906 19.0852L-0.000209264 6.99812Z" fill="white"/>
<path d="M59.9996 18.6326C59.361 20.283 58.3796 21.8257 56.4382 21.05C55.5382 20.6924 54.6039 19.2273 54.5182 18.1931C54.2653 15.1336 54.4367 12.0397 54.4239 8.963C54.4239 6.16208 53.6439 5.36058 50.9181 5.34334C47.9181 5.34334 44.9181 5.34334 41.9439 5.34334C39.801 5.34334 38.4896 4.28757 38.6396 2.61133C38.8153 0.667925 40.0667 -0.00429543 41.901 0.0258683C45.0339 0.0689594 48.1667 0.0258683 51.2996 0.0258683C56.0139 0.0560321 58.5853 2.15458 59.691 6.87736C59.7682 7.20916 59.8967 7.53235 59.9996 7.85985V18.6326Z" fill="white"/>
<path d="M30.0004 32.8741C23.509 32.8741 17.0175 32.8741 10.5261 32.8741C8.28467 32.8741 7.09752 31.9648 7.01609 30.2886C6.95181 28.5176 8.16895 27.5308 10.5475 27.5308C23.5332 27.5308 36.5175 27.5308 49.5004 27.5308C51.7675 27.5308 52.8904 28.4658 52.8775 30.1938C52.8647 31.9217 51.7032 32.8482 49.4747 32.8568C42.9861 32.8798 36.4947 32.8856 30.0004 32.8741Z" fill="white"/>
</g>
<defs>
<clipPath id="clip0_634:4514">
<rect width="60" height="60" fill="white"/>
</clipPath>
</defs>
</svg>
