<svg width="344" height="52" viewBox="0 0 344 52" fill="none" xmlns="http://www.w3.org/2000/svg">
<rect y="9" width="303" height="34" rx="17" fill="#E96100"/>
<path d="M17.3418 29.6182L19.5566 22.4902H21.2969L17.4736 33.4678C16.8818 35.0498 15.9414 35.8408 14.6523 35.8408L14.3447 35.8145L13.7383 35.7002V34.3818L14.1777 34.417C14.7285 34.417 15.1562 34.3057 15.4609 34.083C15.7715 33.8604 16.0264 33.4531 16.2256 32.8613L16.5859 31.8945L13.1934 22.4902H14.9688L17.3418 29.6182ZM21.9866 27.1572C21.9866 26.2256 22.1682 25.3877 22.5315 24.6436C22.9006 23.8994 23.4104 23.3252 24.0608 22.9209C24.717 22.5166 25.4641 22.3145 26.302 22.3145C27.5969 22.3145 28.6428 22.7627 29.4397 23.6592C30.2424 24.5557 30.6438 25.748 30.6438 27.2363V27.3506C30.6438 28.2764 30.4651 29.1084 30.1077 29.8467C29.7561 30.5791 29.2493 31.1504 28.5872 31.5605C27.9309 31.9707 27.175 32.1758 26.3196 32.1758C25.0305 32.1758 23.9846 31.7275 23.1819 30.8311C22.385 29.9346 21.9866 28.748 21.9866 27.2715V27.1572ZM23.6213 27.3506C23.6213 28.4053 23.8645 29.252 24.3508 29.8906C24.843 30.5293 25.4993 30.8486 26.3196 30.8486C27.1458 30.8486 27.802 30.5264 28.2883 29.8818C28.7747 29.2314 29.0178 28.3232 29.0178 27.1572C29.0178 26.1143 28.7688 25.2705 28.2708 24.626C27.7786 23.9756 27.1223 23.6504 26.302 23.6504C25.4993 23.6504 24.8518 23.9697 24.3596 24.6084C23.8674 25.2471 23.6213 26.1611 23.6213 27.3506ZM38.356 31.0596C37.7231 31.8037 36.7944 32.1758 35.5698 32.1758C34.5561 32.1758 33.7827 31.8828 33.2495 31.2969C32.7222 30.7051 32.4556 29.832 32.4497 28.6777V22.4902H34.0757V28.6338C34.0757 30.0752 34.6616 30.7959 35.8335 30.7959C37.0757 30.7959 37.9019 30.333 38.312 29.4072V22.4902H39.938V32H38.3911L38.356 31.0596ZM46.8152 23.9492C46.5691 23.9082 46.3025 23.8877 46.0154 23.8877C44.949 23.8877 44.2253 24.3418 43.8445 25.25V32H42.2185V22.4902H43.8005L43.8269 23.5889C44.3601 22.7393 45.116 22.3145 46.0945 22.3145C46.4109 22.3145 46.6511 22.3555 46.8152 22.4375V23.9492ZM49.8867 32H48.2607V18.5H49.8867V32ZM54.0657 32H52.4397V22.4902H54.0657V32ZM52.3078 19.9678C52.3078 19.7041 52.387 19.4814 52.5452 19.2998C52.7092 19.1182 52.9495 19.0273 53.2659 19.0273C53.5823 19.0273 53.8225 19.1182 53.9866 19.2998C54.1506 19.4814 54.2327 19.7041 54.2327 19.9678C54.2327 20.2314 54.1506 20.4512 53.9866 20.627C53.8225 20.8027 53.5823 20.8906 53.2659 20.8906C52.9495 20.8906 52.7092 20.8027 52.5452 20.627C52.387 20.4512 52.3078 20.2314 52.3078 19.9678ZM58.0161 22.4902L58.0688 23.6855C58.7954 22.7715 59.7446 22.3145 60.9165 22.3145C62.9263 22.3145 63.9399 23.4482 63.9575 25.7158V32H62.3315V25.707C62.3257 25.0215 62.1675 24.5146 61.8569 24.1865C61.5522 23.8584 61.0747 23.6943 60.4243 23.6943C59.897 23.6943 59.4341 23.835 59.0356 24.1162C58.6372 24.3975 58.3266 24.7666 58.104 25.2236V32H56.478V22.4902H58.0161ZM68.866 27.5967L67.8464 28.6602V32H66.2204V18.5H67.8464V26.665L68.7165 25.6191L71.6785 22.4902H73.656L69.9558 26.4629L74.0867 32H72.1794L68.866 27.5967ZM75.1719 31.1475C75.1719 30.8662 75.2539 30.6318 75.418 30.4443C75.5879 30.2568 75.8398 30.1631 76.1738 30.1631C76.5078 30.1631 76.7598 30.2568 76.9297 30.4443C77.1055 30.6318 77.1933 30.8662 77.1933 31.1475C77.1933 31.417 77.1055 31.6426 76.9297 31.8242C76.7598 32.0059 76.5078 32.0967 76.1738 32.0967C75.8398 32.0967 75.5879 32.0059 75.418 31.8242C75.2539 31.6426 75.1719 31.417 75.1719 31.1475ZM83.4993 30.8486C84.0793 30.8486 84.5862 30.6729 85.0198 30.3213C85.4534 29.9697 85.6936 29.5303 85.7405 29.0029H87.2785C87.2493 29.5479 87.0618 30.0664 86.716 30.5586C86.3703 31.0508 85.9075 31.4434 85.3274 31.7363C84.7532 32.0293 84.1438 32.1758 83.4993 32.1758C82.2043 32.1758 81.1731 31.7451 80.4055 30.8838C79.6438 30.0166 79.2629 28.833 79.2629 27.333V27.0605C79.2629 26.1348 79.4328 25.3115 79.7727 24.5908C80.1125 23.8701 80.5989 23.3105 81.2317 22.9121C81.8703 22.5137 82.6233 22.3145 83.4905 22.3145C84.5569 22.3145 85.4416 22.6338 86.1448 23.2725C86.8537 23.9111 87.2317 24.7402 87.2785 25.7598H85.7405C85.6936 25.1445 85.4592 24.6406 85.0373 24.248C84.6213 23.8496 84.1057 23.6504 83.4905 23.6504C82.6643 23.6504 82.0227 23.9492 81.5657 24.5469C81.1145 25.1387 80.8889 25.9971 80.8889 27.1221V27.4297C80.8889 28.5254 81.1145 29.3691 81.5657 29.9609C82.0168 30.5527 82.6614 30.8486 83.4993 30.8486ZM88.478 27.1572C88.478 26.2256 88.6596 25.3877 89.0229 24.6436C89.3921 23.8994 89.9018 23.3252 90.5522 22.9209C91.2085 22.5166 91.9555 22.3145 92.7934 22.3145C94.0884 22.3145 95.1343 22.7627 95.9311 23.6592C96.7339 24.5557 97.1352 25.748 97.1352 27.2363V27.3506C97.1352 28.2764 96.9565 29.1084 96.5991 29.8467C96.2475 30.5791 95.7407 31.1504 95.0786 31.5605C94.4223 31.9707 93.6665 32.1758 92.811 32.1758C91.5219 32.1758 90.4761 31.7275 89.6733 30.8311C88.8764 29.9346 88.478 28.748 88.478 27.2715V27.1572ZM90.1128 27.3506C90.1128 28.4053 90.3559 29.252 90.8423 29.8906C91.3344 30.5293 91.9907 30.8486 92.811 30.8486C93.6372 30.8486 94.2934 30.5264 94.7798 29.8818C95.2661 29.2314 95.5093 28.3232 95.5093 27.1572C95.5093 26.1143 95.2602 25.2705 94.7622 24.626C94.27 23.9756 93.6137 23.6504 92.7934 23.6504C91.9907 23.6504 91.3432 23.9697 90.8511 24.6084C90.3589 25.2471 90.1128 26.1611 90.1128 27.3506ZM100.506 22.4902L100.55 23.5449C101.247 22.7246 102.187 22.3145 103.371 22.3145C104.701 22.3145 105.606 22.8242 106.087 23.8438C106.403 23.3867 106.813 23.0176 107.317 22.7363C107.827 22.4551 108.427 22.3145 109.119 22.3145C111.205 22.3145 112.265 23.4189 112.301 25.6279V32H110.675V25.7246C110.675 25.0449 110.519 24.5381 110.209 24.2041C109.898 23.8643 109.377 23.6943 108.644 23.6943C108.041 23.6943 107.54 23.876 107.141 24.2393C106.743 24.5967 106.511 25.0801 106.447 25.6895V32H104.812V25.7686C104.812 24.3857 104.135 23.6943 102.782 23.6943C101.716 23.6943 100.986 24.1484 100.593 25.0566V32H98.9675V22.4902H100.506Z" fill="white"/>
<path d="M118.5 15V36.5" stroke="white" stroke-width="2"/>
<rect x="310" y="9" width="34" height="34" rx="17" fill="#020C30"/>
<circle cx="324.5" cy="23.5" r="5.5" stroke="white" stroke-width="2"/>
<path d="M335.5 34L329 27.5" stroke="white" stroke-width="2"/>
</svg>
