<svg width="273" height="247" viewBox="0 0 273 247" fill="none" xmlns="http://www.w3.org/2000/svg">
<path d="M116.378 247C77.4772 247 45.6317 235.514 25.8633 214.192C4.69657 191.411 -4.0753 155.557 1.77257 115.832C3.85654 93.7875 12.0741 72.7636 25.4967 55.1358C38.9193 37.508 57.0122 23.9789 77.7315 16.0765C101.989 5.14745 128.354 -0.335026 154.965 0.0158384C181.576 0.366702 207.786 6.54231 231.747 18.1071C252.659 28.5777 265.753 41.8404 270.711 57.5145C271.124 58.8189 271.002 60.2336 270.37 61.4474C270.057 62.0485 269.629 62.5821 269.109 63.0179C268.59 63.4537 267.989 63.7831 267.342 63.9873C266.036 64.3996 264.619 64.2769 263.403 63.6461C262.187 63.0154 261.272 61.9283 260.859 60.624C256.791 47.9324 245.413 36.51 227.107 27.3086C204.513 16.4281 179.804 10.6245 154.721 10.3066C129.638 9.9886 104.79 15.1639 81.9267 25.4683C62.8036 32.6817 46.1024 45.1268 33.7363 61.3779C21.3702 77.6291 13.8393 97.0291 12.0065 117.355C6.60353 153.971 14.4219 186.715 33.4275 207.148C59.8065 235.641 103.348 237.672 127.248 236.403C171.361 233.928 209.245 218.571 234.035 193.124C263.02 163.299 271.156 118.751 253.104 89.4339C250.834 85.2113 247.657 81.5423 243.8 78.6898C239.942 75.8374 235.501 73.8722 230.793 72.9349C229.488 72.7384 228.307 72.0485 227.497 71.008C226.686 69.9674 226.307 68.6557 226.437 67.3439C226.568 66.032 227.198 64.8204 228.198 63.9595C229.198 63.0986 230.491 62.6542 231.81 62.7181C238.128 63.6978 244.131 66.1276 249.348 69.8164C254.565 73.5052 258.854 78.3524 261.876 83.9765C282.471 117.228 273.763 167.17 241.599 200.295C214.966 227.645 174.666 244.081 127.947 246.683C123.942 247 120.129 247 116.378 247Z" fill="white"/>
</svg>
