<svg width="102" height="64" viewBox="0 0 102 64" fill="none" xmlns="http://www.w3.org/2000/svg">
<path d="M66.5877 19.3747C61.1115 18.8139 30.6654 15.0356 28.6055 14.8246C26.5619 14.5876 24.4989 14.5693 22.4513 14.7701C21.7286 14.7729 21.034 15.0509 20.5086 15.5475C19.9832 16.044 19.6662 16.722 19.6222 17.4438C19.5536 18.1055 19.6962 18.772 20.0294 19.3476C20.3626 19.9232 20.8694 20.3784 21.4771 20.6481C23.8864 21.8686 26.3721 22.9319 28.9185 23.8316C32.3266 24.9743 35.5011 26.722 38.2899 28.9909C40.21 30.585 41.6119 32.7152 42.317 35.1101C42.9201 37.5329 43.0813 40.045 42.793 42.5253C42.6296 44.7547 41.9338 46.9124 40.7641 48.817C39.5943 50.7216 37.9848 52.3176 36.0707 53.4705C32.0889 55.998 26.3579 56.8787 18.8775 56.1127C15.5073 55.7865 12.1735 55.1561 8.9169 54.229C6.18873 53.4876 3.56481 52.4052 1.10704 51.0076L2.39928 38.3887C4.88153 39.8546 7.50852 41.0598 10.2384 41.9854C12.9106 42.9398 15.6841 43.5818 18.5038 43.8987C20.5618 44.1876 22.6513 44.1677 24.7035 43.8395C25.3803 43.7077 25.9901 43.3439 26.4277 42.8107C26.8654 42.2775 27.1035 41.6083 27.101 40.9183C27.1757 40.4113 27.1339 39.8938 26.9786 39.4055C26.8233 38.9171 26.5588 38.4708 26.2051 38.1002C25.1776 37.1848 23.9979 36.4563 22.7194 35.9482C21.1013 35.2236 19.0431 34.3355 16.4644 33.2417C13.6118 32.0657 10.9254 30.5211 8.47366 28.6471C6.67235 27.2296 5.31162 25.3282 4.55056 23.1652C3.83107 20.7996 3.62473 18.3074 3.94532 15.8554C4.05317 13.5856 4.72095 11.3778 5.88905 9.42902C7.05716 7.48024 8.68925 5.85112 10.6396 4.68708C14.5651 2.37962 20.1395 1.59572 27.363 2.33545L67.7168 6.36642L66.5877 19.3747Z" fill="#E77179"/>
<path d="M85.6572 9.15185L83.6802 28.4574L50.337 25.0429L50.3181 25.2272L48.9795 38.2987L48.8096 39.9577L46.9458 58.1572L62.2358 59.723L64.2369 40.1829L82.2901 42.0316L80.2891 61.5718L95.579 63.1376L100.947 10.7176L85.6572 9.15185Z" fill="#F2A1AC"/>
</svg>
