<svg width="624" height="431" viewBox="0 0 624 431" fill="none" xmlns="http://www.w3.org/2000/svg">
<g clip-path="url(#clip0_2_217)">
<path d="M380.672 141.735L376.497 142.589C376.372 141.889 375.999 141.257 375.446 140.812C374.893 140.366 374.198 140.137 373.49 140.167C372.069 140.167 371.168 140.932 371.168 141.926C371.168 142.615 371.473 143.201 372.564 143.367L376.142 144.17C379.124 144.846 380.875 146.478 380.875 149.27C380.875 152.967 377.601 154.893 373.769 154.893C369.938 154.893 366.689 153.018 366.156 149.627L370.534 148.773C370.682 149.547 371.113 150.238 371.742 150.71C372.371 151.182 373.153 151.4 373.934 151.323C375.533 151.323 376.472 150.609 376.472 149.538C376.472 148.76 376.117 148.263 374.873 148.021L371.27 147.243C368.732 146.669 366.639 145.381 366.639 142.22C366.639 138.854 369.417 136.763 373.465 136.763C377.309 136.725 380.025 138.586 380.672 141.735Z" fill="white"/>
<path d="M397.002 154.446H392.878V153.414C391.764 154.382 390.328 154.893 388.856 154.842C387.14 154.693 385.543 153.903 384.379 152.629C383.215 151.354 382.569 149.687 382.569 147.957C382.569 146.227 383.215 144.56 384.379 143.285C385.543 142.01 387.14 141.221 388.856 141.072C390.326 141.016 391.763 141.522 392.878 142.487V141.455H397.002V154.446ZM392.878 147.957C392.895 147.525 392.826 147.095 392.675 146.69C392.523 146.286 392.293 145.916 391.998 145.602C391.702 145.289 391.347 145.038 390.953 144.864C390.56 144.69 390.136 144.597 389.706 144.591C388.855 144.644 388.056 145.021 387.471 145.645C386.887 146.269 386.562 147.094 386.562 147.95C386.562 148.807 386.887 149.632 387.471 150.256C388.056 150.88 388.855 151.257 389.706 151.31C390.135 151.305 390.559 151.214 390.952 151.042C391.346 150.869 391.701 150.619 391.997 150.307C392.293 149.994 392.523 149.625 392.674 149.221C392.826 148.818 392.895 148.388 392.878 147.957Z" fill="white"/>
<path d="M399.983 154.446V135.819H404.107V154.446H399.983Z" fill="white"/>
<path d="M419.764 149.015H410.299C410.378 149.705 410.703 150.344 411.214 150.812C411.724 151.281 412.386 151.548 413.077 151.565C413.634 151.609 414.191 151.49 414.682 151.223C415.173 150.957 415.576 150.553 415.843 150.061L419.498 150.813C418.995 152.087 418.102 153.168 416.948 153.899C415.794 154.63 414.439 154.974 413.077 154.88C411.26 154.88 409.518 154.154 408.233 152.863C406.948 151.572 406.226 149.821 406.226 147.995C406.226 146.169 406.948 144.418 408.233 143.127C409.518 141.836 411.26 141.11 413.077 141.11C413.973 141.094 414.863 141.262 415.691 141.605C416.519 141.947 417.269 142.457 417.893 143.102C418.517 143.748 419.003 144.515 419.321 145.356C419.638 146.198 419.781 147.096 419.739 147.995L419.764 149.015ZM410.362 146.465H415.704C415.588 145.878 415.27 145.351 414.806 144.976C414.342 144.6 413.762 144.401 413.166 144.412C412.537 144.396 411.921 144.59 411.413 144.964C410.906 145.338 410.536 145.87 410.362 146.478V146.465Z" fill="white"/>
<path d="M425.042 150.213C425.233 151.323 426.235 151.743 427.339 151.743C428.443 151.743 429.014 151.272 429.014 150.711C429.014 150.15 428.684 149.933 427.745 149.755L425.119 149.232C422.733 148.798 421.312 147.498 421.312 145.407C421.312 142.742 423.609 141.008 426.882 141.008C430.156 141.008 432.237 142.475 432.744 144.731L428.938 145.484C428.823 145.007 428.54 144.588 428.14 144.307C427.741 144.025 427.253 143.899 426.768 143.953C425.664 143.953 425.309 144.502 425.309 144.961C425.309 145.42 425.461 145.687 426.286 145.866L429.318 146.491C431.767 147.013 432.909 148.48 432.909 150.392C432.909 153.273 430.435 154.778 427.035 154.778C423.989 154.778 421.388 153.656 420.957 150.953L425.042 150.213Z" fill="white"/>
<path d="M382.499 175.496H378.274V168.649H370.965V175.496H366.715V158.156H370.965V164.914H378.223V158.156H382.448L382.499 175.496Z" fill="white"/>
<path d="M398.448 175.496H394.324V174.221C393.811 174.754 393.192 175.174 392.509 175.455C391.825 175.736 391.091 175.871 390.353 175.853C387.346 175.853 385.278 173.698 385.278 170.447V162.466H389.376V169.567C389.341 169.884 389.371 170.205 389.466 170.509C389.561 170.813 389.718 171.094 389.927 171.334C390.136 171.574 390.392 171.767 390.679 171.902C390.967 172.037 391.279 172.11 391.596 172.117C393.22 172.117 394.274 170.995 394.274 168.483V162.453H398.397L398.448 175.496Z" fill="white"/>
<path d="M415.882 169.006C415.937 169.882 415.814 170.76 415.521 171.586C415.229 172.413 414.772 173.171 414.178 173.815C413.585 174.459 412.868 174.975 412.07 175.332C411.272 175.688 410.411 175.879 409.537 175.891C408.07 175.94 406.638 175.43 405.528 174.463V175.496H401.417V156.869H405.541V163.549C406.65 162.582 408.082 162.072 409.55 162.121C410.422 162.137 411.281 162.33 412.077 162.688C412.872 163.046 413.587 163.562 414.179 164.206C414.77 164.849 415.226 165.606 415.519 166.431C415.811 167.256 415.935 168.132 415.882 169.006ZM411.834 169.006C411.867 168.575 411.811 168.141 411.669 167.733C411.527 167.325 411.303 166.951 411.009 166.634C410.716 166.318 410.36 166.066 409.965 165.895C409.569 165.724 409.143 165.637 408.713 165.64C407.824 165.64 406.972 165.995 406.344 166.626C405.716 167.257 405.363 168.113 405.363 169.006C405.363 169.899 405.716 170.755 406.344 171.386C406.972 172.017 407.824 172.372 408.713 172.372C409.144 172.377 409.571 172.292 409.967 172.121C410.363 171.951 410.72 171.699 411.014 171.382C411.307 171.065 411.532 170.69 411.673 170.281C411.815 169.872 411.869 169.438 411.834 169.006Z" fill="white"/>
<path d="M329.995 145.662C325.846 145.662 302.728 145.165 301.167 145.165C299.617 145.144 298.069 145.289 296.549 145.598C296.007 145.656 295.508 145.919 295.152 146.333C294.796 146.748 294.611 147.283 294.633 147.829C294.632 148.333 294.79 148.824 295.084 149.231C295.379 149.639 295.793 149.943 296.27 150.099C298.17 150.832 300.115 151.441 302.094 151.922C304.737 152.519 307.251 153.59 309.516 155.084C311.078 156.136 312.293 157.632 313.006 159.38C313.644 161.158 313.958 163.037 313.932 164.926C313.981 166.617 313.624 168.296 312.894 169.82C312.163 171.344 311.079 172.67 309.732 173.685C306.941 175.895 302.711 177 297.044 177C294.492 177.014 291.944 176.797 289.431 176.35C287.328 176.002 285.278 175.389 283.328 174.527V164.926C285.302 165.839 287.364 166.543 289.482 167.03C291.558 167.542 293.687 167.812 295.826 167.833C297.391 167.892 298.956 167.716 300.47 167.31C300.967 167.159 301.396 166.838 301.683 166.403C301.971 165.968 302.098 165.446 302.043 164.926C302.06 164.539 301.989 164.152 301.835 163.797C301.681 163.441 301.448 163.125 301.155 162.874C300.314 162.264 299.374 161.806 298.376 161.522C297.107 161.101 295.496 160.592 293.478 159.967C291.249 159.301 289.116 158.346 287.134 157.124C285.675 156.195 284.509 154.869 283.772 153.299C283.051 151.573 282.705 149.713 282.757 147.842C282.663 146.125 282.995 144.411 283.721 142.854C284.447 141.297 285.546 139.944 286.919 138.918C289.685 136.878 293.804 135.858 299.277 135.858L329.843 135.781L329.995 145.662Z" fill="#E77179"/>
<path d="M343.508 136.495V151.182H318.246V151.323V161.267V162.529V176.375H329.83V161.509H343.508V176.375H355.092V136.495H343.508Z" fill="#F2A1AC"/>
<path d="M78.6669 79.926C64.1009 95.4676 31.1115 123.121 19.6414 123.121C12.8532 123.121 0 111.315 0 106.343C0 90.3423 6.47099 63.1989 42.3913 56.7094C37.7601 49.1363 33.738 37.2921 33.738 20.5394C33.738 11.2578 64.7733 4.07985 78.1467 4.07985C80.2656 4.07985 83.3616 6.32369 85.7596 8.64408C86.9998 6.13534 87.7125 3.39691 87.8532 0.599288C87.8532 -2.48607 97.4835 7.22889 97.4835 10.3907C97.4835 13.5526 75.0254 38.9239 75.0254 42.6213C75.0254 46.3186 68.9604 37.4069 68.9604 35.8642C68.9604 32.7151 77.1063 23.6374 82.7018 14.3941C69.4553 16.383 43.952 22.9616 43.952 29.1834C43.952 42.4427 48.4436 50.8574 52.0471 55.5875C54.4578 55.4217 56.9066 55.2687 59.5458 55.2687C63.3523 55.2687 57.7314 67.1128 54.3309 67.1128C52.7068 67.1128 50.258 65.8379 47.6062 63.288C17.7889 70.4787 8.71681 112.322 14.9467 112.322C33.979 112.322 57.7821 92.191 70.8891 79.9133C73.3379 77.6184 73.8708 76.267 76.345 76.267C78.8192 76.267 81.0396 77.4017 78.6669 79.926Z" fill="white"/>
<path d="M134.888 79.8749C118.153 100.733 102.47 119.194 93.0173 119.194C91.1267 119.194 84.0087 112.22 84.0087 110.576C84.0087 104.673 97.585 81.4177 104.881 73.768C91.5962 78.8678 67.4378 108.357 67.4378 117.945C67.4378 121.017 56.2722 112.182 56.2849 110.142C56.2849 106.088 80.9254 67.61 80.9762 54.0446C80.9762 52.5784 92.5351 61.6943 92.5351 64.4482C92.5351 67.5718 80.2022 81.5069 73.2364 94.575C85.6454 80.2829 105.35 60.6999 110.768 60.7254C113.23 60.7254 120.601 67.1001 120.601 68.8468C120.601 71.8556 95.1362 96.8955 95.1362 108.829C95.1362 111.8 102.952 108.115 127.605 79.3012C128.874 77.8223 129.877 77.4271 132.871 77.4271C135.865 77.4271 135.942 78.5745 134.888 79.8749Z" fill="white"/>
<path d="M164.985 79.9515C144.506 103.767 123.799 119.615 121.452 119.615C118.597 119.615 111.809 113.355 111.809 110.231C111.809 106.101 122.162 86.3263 132.376 69.1273C129.509 67.1512 126.616 63.288 126.616 61.0568C126.616 59.8711 127.428 62.3318 130.422 62.3318C132.757 62.3318 134.698 62.3318 136.474 62.3318C143.504 50.9466 149.759 42.0603 151.586 42.0603C158.577 42.0603 162.46 50.0541 161.356 50.0541C159.389 50.0541 154.517 55.4088 148.782 62.8035C150.178 62.88 151.548 62.9311 153.159 62.9311C155.342 62.9311 158.235 66.6793 158.235 68.732C158.235 71.0396 157.6 68.8469 153.35 68.8469C148.706 68.8469 147.234 69.5098 143.453 69.9433C132.148 85.5103 119.942 104.838 119.942 106.713C119.942 109.798 137.375 100.669 158.006 79.059C158.691 78.345 159.186 77.784 161.559 77.784C166.685 77.9243 165.721 79.1101 164.985 79.9515Z" fill="white"/>
<path d="M212.363 79.059C203.316 90.3805 165.01 120.099 156.991 120.099C153.908 120.099 145.965 113.1 145.965 110.168C145.965 89.6665 169.946 53.9938 186.276 53.9938C188.813 53.9938 196.426 62.217 196.426 65.3789C196.426 78.3578 175.897 99.5729 165.975 99.5729C164.071 99.5729 161.331 97.5967 159.174 94.5623C154.175 103.117 151.383 110.015 153.921 110.015C169.984 110.015 199.319 83.8783 204.674 79.059C205.212 78.4333 205.888 77.9419 206.647 77.6233C207.407 77.3047 208.23 77.1678 209.051 77.2231C212.122 77.2231 212.68 78.5873 212.363 79.059ZM162.333 89.4243C162.473 91.1072 162.79 92.3567 163.475 92.3567C169.35 92.3567 192.29 62.2171 188.077 62.2171C182.152 62.2426 170.492 76.4836 162.27 89.4243H162.333Z" fill="white"/>
<path d="M252.965 76.9299C258.256 76.9299 256.974 78.498 256.771 78.753C251.95 84.8727 220.141 119.653 212.363 119.653C209.317 119.653 201.451 112.934 201.451 110.729C201.451 101.332 221.46 81.8129 221.46 76.9172C221.46 76.0502 219.811 74.3673 217.793 72.4804C215.958 74.7498 214.05 77.0488 212.071 79.3777C211.456 80.106 210.698 80.6986 209.844 81.1177C208.99 81.5368 208.059 81.7735 207.11 81.8129C202.212 81.8129 204.75 78.8679 204.75 78.8679C208.049 75.4128 211.094 71.9577 213.898 68.6683C211.969 66.5902 210.421 64.4865 210.421 62.7654C210.421 57.5381 218.986 43.9981 227.88 43.9981C229.593 43.9981 232.588 47.9888 232.588 48.8812C232.588 52.4638 228.121 59.3612 221.866 67.4315C225.482 71.0906 231.306 76.1394 231.306 79.4415C231.306 80.8185 214.811 104.061 214.811 107.745C214.811 113.725 239.833 88.0601 248.955 78.8041C249.397 78.1895 249.992 77.703 250.68 77.394C251.369 77.085 252.126 76.9645 252.876 77.0446L252.965 76.9299Z" fill="white"/>
<path d="M307.27 80.8695C305.253 83.2791 279.534 116.67 249.78 116.67C245.073 116.67 242.231 112.386 240.962 109.02C239.744 110.652 238.576 112.25 237.46 113.814C231.319 125.594 226.535 137.171 226.535 145.407C226.535 146.414 214.228 143.303 214.228 134.876C214.228 130.924 255.756 76.6621 255.756 58.3795C255.756 56.9388 264.194 64.41 264.194 66.3479C264.194 68.2858 260.971 73.7044 256.467 81.1245C265.831 69.2803 275.233 59.374 280.803 59.374C282.884 59.374 288.669 65.5319 288.669 67.9288C288.669 78.1283 281.64 92.7265 272.289 103.27C285.256 96.6533 294.481 85.9947 300.355 79.8622C301.738 78.4215 303.071 78.4089 304.936 78.4089C306.801 78.4089 309.288 78.4598 307.27 80.8695ZM248.829 109.173C259.778 109.173 278.011 82.3995 278.011 70.2748C278.011 65.4937 259.943 84.6433 245.022 103.806C245.923 106.559 247.484 109.173 248.829 109.173V109.173Z" fill="white"/>
<path d="M353.595 78.8168C348.774 84.9365 316.964 119.717 309.186 119.717C306.141 119.717 298.262 112.998 298.262 110.792C298.262 101.396 318.284 81.8768 318.284 76.981C318.284 76.114 316.634 74.431 314.617 72.5441C312.781 74.8135 310.87 77.1126 308.882 79.4415C308.268 80.171 307.51 80.7643 306.656 81.1835C305.802 81.6028 304.871 81.8388 303.921 81.8767C299.036 81.8767 301.573 78.9315 301.573 78.9315C304.872 75.4764 307.918 72.0213 310.709 68.732C308.78 66.6538 307.232 64.5502 307.232 62.829C307.232 57.6018 315.797 44.0619 324.704 44.0619C326.417 44.0619 329.411 48.0524 329.411 48.9449C329.411 52.5275 324.945 59.425 318.677 67.4953C322.306 71.1544 328.13 76.2032 328.13 79.5053C328.13 80.8823 311.635 104.124 311.635 107.809C311.635 113.788 336.669 88.1239 345.779 78.8679C346.224 78.2542 346.822 77.7686 347.512 77.4599C348.202 77.1511 348.961 77.0299 349.713 77.1084C355.067 76.93 353.785 78.4981 353.595 78.8168Z" fill="white"/>
<path d="M385.252 78.7403C364.773 102.556 350.829 118.442 341.732 118.442C338.877 118.442 330.312 109.517 330.312 106.419C330.312 102.505 353.925 64.7033 353.925 57.4999C353.925 53.1141 365.116 64.6905 365.116 66.9217C365.116 69.6883 334.373 108.115 340.615 108.115C347.137 108.115 357.617 99.5728 378.223 77.9626C378.908 77.2359 379.403 76.6876 381.763 76.6876C386.965 76.7131 385.975 77.9116 385.252 78.7403ZM363.276 52.298C364.545 52.298 372.424 33.6711 372.424 29.8208C372.424 25.69 382.41 34.9206 382.41 38.3375C382.41 41.7543 370.585 54.7204 368.149 54.7204C362.896 54.7204 362.084 52.298 363.276 52.298Z" fill="white"/>
<path d="M420.272 77.9372C414.27 85.1151 405.947 95.0469 388.551 99.6112C388.272 103.716 388.107 108.306 388.107 113.47C388.107 118.136 378.223 121.119 374.658 121.119C369.658 121.119 360.701 108.803 360.701 101.026C360.788 100.19 361.08 99.3885 361.551 98.6931C362.502 96.7807 365.357 94.2436 367.235 94.2436C371.486 94.2436 375.203 94.1162 378.566 93.874C378.566 90.0491 378.566 86.2242 378.566 83.2536C378.566 74.1123 386.432 53.1523 390.289 53.1523C392.738 53.1523 398.245 59.0043 398.245 63.9128C398.245 66.2077 391.901 70.5425 389.211 92.5097C401.252 89.9598 406.365 84.86 413.255 77.2104C413.876 76.6808 414.598 76.2845 415.377 76.0455C416.156 75.8065 416.975 75.73 417.785 75.8207C419.891 75.7825 421.173 76.8535 420.272 77.9372ZM378.578 101.383C375.082 101.778 371.566 101.974 368.047 101.97C368.047 101.97 367.197 101.88 366.131 101.715C369.735 108.956 378.54 114.859 378.54 109.084C378.489 107.49 378.578 104.673 378.578 101.383Z" fill="white"/>
<path d="M465.886 79.059C456.839 90.3805 418.533 120.099 410.514 120.099C407.431 120.099 399.488 113.1 399.488 110.168C399.488 89.6665 423.469 53.9938 439.799 53.9938C442.336 53.9938 449.949 62.217 449.949 65.3789C449.949 78.3578 429.42 99.5729 419.498 99.5729C417.582 99.5729 414.841 97.5967 412.684 94.5623C407.685 103.117 404.906 110.015 407.431 110.015C423.507 110.015 452.83 83.8783 458.184 79.059C458.722 78.4333 459.398 77.9419 460.158 77.6233C460.917 77.3047 461.74 77.1678 462.561 77.2231C465.708 77.2231 466.266 78.5873 465.886 79.059ZM415.856 89.4243C416.008 91.1072 416.313 92.3567 416.998 92.3567C422.873 92.3567 445.826 62.2171 441.601 62.2171C435.739 62.2426 424.116 76.4836 415.856 89.4243V89.4243Z" fill="white"/>
</g>
<path d="M11.707 207.383H4.69922V212.633H12.8906V215H1.73438V197.938H12.8086V200.328H4.69922V205.039H11.707V207.383ZM17.4079 202.32L17.4899 203.785C18.4274 202.652 19.6579 202.086 21.1813 202.086C23.8219 202.086 25.1657 203.598 25.2126 206.621V215H22.3649V206.785C22.3649 205.98 22.1891 205.387 21.8376 205.004C21.4938 204.613 20.9274 204.418 20.1383 204.418C18.9899 204.418 18.1344 204.938 17.5719 205.977V215H14.7243V202.32H17.4079ZM31.429 199.238V202.32H33.6673V204.43H31.429V211.508C31.429 211.992 31.5228 212.344 31.7103 212.562C31.9056 212.773 32.2493 212.879 32.7415 212.879C33.0697 212.879 33.4017 212.84 33.7376 212.762V214.965C33.0892 215.145 32.4642 215.234 31.8626 215.234C29.6751 215.234 28.5814 214.027 28.5814 211.613V204.43H26.4954V202.32H28.5814V199.238H31.429ZM41.1728 215.234C39.3682 215.234 37.9033 214.668 36.7783 213.535C35.6611 212.395 35.1025 210.879 35.1025 208.988V208.637C35.1025 207.371 35.3447 206.242 35.8291 205.25C36.3213 204.25 37.0088 203.473 37.8916 202.918C38.7744 202.363 39.7588 202.086 40.8447 202.086C42.5713 202.086 43.9033 202.637 44.8408 203.738C45.7861 204.84 46.2588 206.398 46.2588 208.414V209.562H37.9736C38.0596 210.609 38.4072 211.438 39.0166 212.047C39.6338 212.656 40.4072 212.961 41.3369 212.961C42.6416 212.961 43.7041 212.434 44.5244 211.379L46.0596 212.844C45.5518 213.602 44.8721 214.191 44.0205 214.613C43.1768 215.027 42.2275 215.234 41.1728 215.234ZM40.833 204.371C40.0518 204.371 39.4189 204.645 38.9346 205.191C38.458 205.738 38.1533 206.5 38.0205 207.477H43.4463V207.266C43.3838 206.312 43.1299 205.594 42.6846 205.109C42.2393 204.617 41.6221 204.371 40.833 204.371ZM54.8542 204.922C54.4792 204.859 54.0924 204.828 53.694 204.828C52.3893 204.828 51.5104 205.328 51.0573 206.328V215H48.2096V202.32H50.9284L50.9987 203.738C51.6862 202.637 52.6393 202.086 53.8581 202.086C54.2643 202.086 54.6003 202.141 54.8659 202.25L54.8542 204.922ZM67.4925 208.789C67.4925 210.75 67.0472 212.316 66.1566 213.488C65.2659 214.652 64.0706 215.234 62.5706 215.234C61.18 215.234 60.0667 214.777 59.2308 213.863V219.875H56.3831V202.32H59.0081L59.1253 203.609C59.9613 202.594 61.098 202.086 62.5355 202.086C64.0823 202.086 65.2933 202.664 66.1683 203.82C67.0511 204.969 67.4925 206.566 67.4925 208.613V208.789ZM64.6566 208.543C64.6566 207.277 64.4027 206.273 63.8948 205.531C63.3948 204.789 62.6761 204.418 61.7386 204.418C60.5745 204.418 59.7386 204.898 59.2308 205.859V211.484C59.7464 212.469 60.5902 212.961 61.762 212.961C62.6683 212.961 63.3753 212.598 63.8831 211.871C64.3988 211.137 64.6566 210.027 64.6566 208.543ZM76.2871 204.922C75.9121 204.859 75.5254 204.828 75.1269 204.828C73.8223 204.828 72.9433 205.328 72.4902 206.328V215H69.6426V202.32H72.3613L72.4316 203.738C73.1191 202.637 74.0723 202.086 75.291 202.086C75.6973 202.086 76.0332 202.141 76.2988 202.25L76.2871 204.922ZM80.8512 215H78.0036V202.32H80.8512V215ZM77.8278 199.027C77.8278 198.59 77.9645 198.227 78.2379 197.938C78.5192 197.648 78.9176 197.504 79.4333 197.504C79.9489 197.504 80.3473 197.648 80.6286 197.938C80.9098 198.227 81.0504 198.59 81.0504 199.027C81.0504 199.457 80.9098 199.816 80.6286 200.105C80.3473 200.387 79.9489 200.527 79.4333 200.527C78.9176 200.527 78.5192 200.387 78.2379 200.105C77.9645 199.816 77.8278 199.457 77.8278 199.027ZM90.806 211.555C90.806 211.047 90.595 210.66 90.1732 210.395C89.7591 210.129 89.0677 209.895 88.0989 209.691C87.1302 209.488 86.3216 209.23 85.6732 208.918C84.2513 208.23 83.5403 207.234 83.5403 205.93C83.5403 204.836 84.0013 203.922 84.9232 203.188C85.845 202.453 87.0169 202.086 88.4388 202.086C89.9544 202.086 91.1771 202.461 92.1068 203.211C93.0443 203.961 93.513 204.934 93.513 206.129H90.6653C90.6653 205.582 90.4622 205.129 90.056 204.77C89.6497 204.402 89.1107 204.219 88.4388 204.219C87.8138 204.219 87.3021 204.363 86.9036 204.652C86.513 204.941 86.3177 205.328 86.3177 205.812C86.3177 206.25 86.5013 206.59 86.8685 206.832C87.2357 207.074 87.9778 207.32 89.095 207.57C90.2122 207.812 91.0872 208.105 91.72 208.449C92.3607 208.785 92.8333 209.191 93.138 209.668C93.4505 210.145 93.6068 210.723 93.6068 211.402C93.6068 212.543 93.1341 213.469 92.1888 214.18C91.2435 214.883 90.0052 215.234 88.4739 215.234C87.4349 215.234 86.5091 215.047 85.6966 214.672C84.8841 214.297 84.2513 213.781 83.7982 213.125C83.345 212.469 83.1185 211.762 83.1185 211.004H85.8841C85.9232 211.676 86.1771 212.195 86.6458 212.562C87.1146 212.922 87.7357 213.102 88.5091 213.102C89.2591 213.102 89.8294 212.961 90.22 212.68C90.6107 212.391 90.806 212.016 90.806 211.555ZM101.417 215.234C99.6123 215.234 98.1474 214.668 97.0224 213.535C95.9053 212.395 95.3467 210.879 95.3467 208.988V208.637C95.3467 207.371 95.5888 206.242 96.0732 205.25C96.5654 204.25 97.2529 203.473 98.1357 202.918C99.0185 202.363 100.003 202.086 101.089 202.086C102.815 202.086 104.147 202.637 105.085 203.738C106.03 204.84 106.503 206.398 106.503 208.414V209.562H98.2178C98.3037 210.609 98.6513 211.438 99.2607 212.047C99.8779 212.656 100.651 212.961 101.581 212.961C102.886 212.961 103.948 212.434 104.769 211.379L106.304 212.844C105.796 213.602 105.116 214.191 104.265 214.613C103.421 215.027 102.472 215.234 101.417 215.234ZM101.077 204.371C100.296 204.371 99.6631 204.645 99.1787 205.191C98.7021 205.738 98.3974 206.5 98.2646 207.477H103.69V207.266C103.628 206.312 103.374 205.594 102.929 205.109C102.483 204.617 101.866 204.371 101.077 204.371ZM126.928 197.938V209.34C126.928 211.152 126.346 212.59 125.182 213.652C124.026 214.707 122.483 215.234 120.553 215.234C118.6 215.234 117.049 214.715 115.901 213.676C114.752 212.629 114.178 211.18 114.178 209.328V197.938H117.131V209.352C117.131 210.492 117.42 211.363 117.998 211.965C118.576 212.566 119.428 212.867 120.553 212.867C122.834 212.867 123.975 211.664 123.975 209.258V197.938H126.928ZM136.109 208.426H132.805V215H129.84V197.938H135.84C137.809 197.938 139.328 198.379 140.398 199.262C141.469 200.145 142.004 201.422 142.004 203.094C142.004 204.234 141.727 205.191 141.172 205.965C140.625 206.73 139.859 207.32 138.875 207.734L142.707 214.848V215H139.531L136.109 208.426ZM132.805 206.047H135.852C136.852 206.047 137.633 205.797 138.195 205.297C138.758 204.789 139.039 204.098 139.039 203.223C139.039 202.309 138.777 201.602 138.254 201.102C137.738 200.602 136.965 200.344 135.934 200.328H132.805V206.047ZM147.517 212.633H155.263V215H144.552V197.938H147.517V212.633ZM171.903 210.605C171.903 209.855 171.638 209.277 171.106 208.871C170.583 208.465 169.634 208.055 168.259 207.641C166.884 207.227 165.79 206.766 164.977 206.258C163.423 205.281 162.645 204.008 162.645 202.438C162.645 201.062 163.204 199.93 164.321 199.039C165.446 198.148 166.903 197.703 168.692 197.703C169.88 197.703 170.938 197.922 171.868 198.359C172.798 198.797 173.528 199.422 174.06 200.234C174.591 201.039 174.856 201.934 174.856 202.918H171.903C171.903 202.027 171.622 201.332 171.06 200.832C170.505 200.324 169.708 200.07 168.669 200.07C167.7 200.07 166.946 200.277 166.407 200.691C165.876 201.105 165.61 201.684 165.61 202.426C165.61 203.051 165.899 203.574 166.477 203.996C167.056 204.41 168.009 204.816 169.337 205.215C170.665 205.605 171.731 206.055 172.536 206.562C173.341 207.062 173.931 207.641 174.306 208.297C174.681 208.945 174.868 209.707 174.868 210.582C174.868 212.004 174.321 213.137 173.227 213.98C172.142 214.816 170.665 215.234 168.798 215.234C167.563 215.234 166.427 215.008 165.388 214.555C164.356 214.094 163.552 213.461 162.974 212.656C162.403 211.852 162.118 210.914 162.118 209.844H165.083C165.083 210.812 165.403 211.562 166.044 212.094C166.685 212.625 167.602 212.891 168.798 212.891C169.829 212.891 170.602 212.684 171.118 212.27C171.642 211.848 171.903 211.293 171.903 210.605ZM179.737 203.703C180.667 202.625 181.842 202.086 183.264 202.086C185.967 202.086 187.339 203.629 187.378 206.715V215H184.53V206.82C184.53 205.945 184.339 205.328 183.956 204.969C183.581 204.602 183.026 204.418 182.292 204.418C181.151 204.418 180.299 204.926 179.737 205.941V215H176.889V197H179.737V203.703ZM189.469 208.543C189.469 207.301 189.715 206.184 190.207 205.191C190.699 204.191 191.391 203.426 192.282 202.895C193.172 202.355 194.196 202.086 195.352 202.086C197.063 202.086 198.449 202.637 199.512 203.738C200.582 204.84 201.16 206.301 201.246 208.121L201.258 208.789C201.258 210.039 201.016 211.156 200.532 212.141C200.055 213.125 199.367 213.887 198.469 214.426C197.578 214.965 196.547 215.234 195.375 215.234C193.586 215.234 192.153 214.641 191.074 213.453C190.004 212.258 189.469 210.668 189.469 208.684V208.543ZM192.317 208.789C192.317 210.094 192.586 211.117 193.125 211.859C193.664 212.594 194.414 212.961 195.375 212.961C196.336 212.961 197.082 212.586 197.614 211.836C198.153 211.086 198.422 209.988 198.422 208.543C198.422 207.262 198.145 206.246 197.59 205.496C197.043 204.746 196.297 204.371 195.352 204.371C194.422 204.371 193.684 204.742 193.137 205.484C192.59 206.219 192.317 207.32 192.317 208.789ZM210.041 204.922C209.666 204.859 209.279 204.828 208.881 204.828C207.576 204.828 206.697 205.328 206.244 206.328V215H203.396V202.32H206.115L206.186 203.738C206.873 202.637 207.826 202.086 209.045 202.086C209.451 202.086 209.787 202.141 210.053 202.25L210.041 204.922ZM215.73 199.238V202.32H217.968V204.43H215.73V211.508C215.73 211.992 215.824 212.344 216.011 212.562C216.207 212.773 216.55 212.879 217.043 212.879C217.371 212.879 217.703 212.84 218.039 212.762V214.965C217.39 215.145 216.765 215.234 216.164 215.234C213.976 215.234 212.882 214.027 212.882 211.613V204.43H210.796V202.32H212.882V199.238H215.73ZM225.474 215.234C223.669 215.234 222.204 214.668 221.079 213.535C219.962 212.395 219.404 210.879 219.404 208.988V208.637C219.404 207.371 219.646 206.242 220.13 205.25C220.622 204.25 221.31 203.473 222.193 202.918C223.075 202.363 224.06 202.086 225.146 202.086C226.872 202.086 228.204 202.637 229.142 203.738C230.087 204.84 230.56 206.398 230.56 208.414V209.562H222.275C222.361 210.609 222.708 211.438 223.318 212.047C223.935 212.656 224.708 212.961 225.638 212.961C226.943 212.961 228.005 212.434 228.825 211.379L230.361 212.844C229.853 213.602 229.173 214.191 228.322 214.613C227.478 215.027 226.529 215.234 225.474 215.234ZM225.134 204.371C224.353 204.371 223.72 204.645 223.236 205.191C222.759 205.738 222.454 206.5 222.322 207.477H227.747V207.266C227.685 206.312 227.431 205.594 226.986 205.109C226.54 204.617 225.923 204.371 225.134 204.371ZM235.159 202.32L235.241 203.785C236.179 202.652 237.409 202.086 238.933 202.086C241.573 202.086 242.917 203.598 242.964 206.621V215H240.116V206.785C240.116 205.98 239.94 205.387 239.589 205.004C239.245 204.613 238.679 204.418 237.89 204.418C236.741 204.418 235.886 204.938 235.323 205.977V215H232.476V202.32H235.159ZM251.196 215.234C249.391 215.234 247.926 214.668 246.801 213.535C245.684 212.395 245.126 210.879 245.126 208.988V208.637C245.126 207.371 245.368 206.242 245.852 205.25C246.344 204.25 247.032 203.473 247.915 202.918C248.797 202.363 249.782 202.086 250.868 202.086C252.594 202.086 253.926 202.637 254.864 203.738C255.809 204.84 256.282 206.398 256.282 208.414V209.562H247.997C248.083 210.609 248.43 211.438 249.04 212.047C249.657 212.656 250.43 212.961 251.36 212.961C252.665 212.961 253.727 212.434 254.547 211.379L256.083 212.844C255.575 213.602 254.895 214.191 254.044 214.613C253.2 215.027 252.251 215.234 251.196 215.234ZM250.856 204.371C250.075 204.371 249.442 204.645 248.958 205.191C248.481 205.738 248.176 206.5 248.044 207.477H253.469V207.266C253.407 206.312 253.153 205.594 252.708 205.109C252.262 204.617 251.645 204.371 250.856 204.371ZM264.877 204.922C264.502 204.859 264.116 204.828 263.717 204.828C262.412 204.828 261.533 205.328 261.08 206.328V215H258.233V202.32H260.951L261.022 203.738C261.709 202.637 262.662 202.086 263.881 202.086C264.287 202.086 264.623 202.141 264.889 202.25L264.877 204.922Z" fill="white"/>
<path d="M4.55114 287H26.9233C38.6847 287 44.9489 280.864 44.9489 272.528C44.9489 264.781 39.4006 260.102 33.4432 259.821V259.31C38.8892 258.082 42.9034 254.222 42.9034 248.06C42.9034 240.21 37.0739 234.636 25.517 234.636H4.55114V287ZM15.6222 277.949V264.04H24.9034C30.2216 264.04 33.5199 267.108 33.5199 271.429C33.5199 275.366 30.8352 277.949 24.6477 277.949H15.6222ZM15.6222 256.548V243.585H24.0341C28.9432 243.585 31.7301 246.116 31.7301 249.901C31.7301 254.043 28.3551 256.548 23.8295 256.548H15.6222ZM68.9005 287.767C80.8152 287.767 88.23 279.611 88.23 267.517C88.23 255.347 80.8152 247.216 68.9005 247.216C56.9857 247.216 49.5709 255.347 49.5709 267.517C49.5709 279.611 56.9857 287.767 68.9005 287.767ZM68.9516 279.33C63.4544 279.33 60.6419 274.293 60.6419 267.44C60.6419 260.588 63.4544 255.526 68.9516 255.526C74.3465 255.526 77.159 260.588 77.159 267.44C77.159 274.293 74.3465 279.33 68.9516 279.33ZM112.265 287.767C124.179 287.767 131.594 279.611 131.594 267.517C131.594 255.347 124.179 247.216 112.265 247.216C100.35 247.216 92.9352 255.347 92.9352 267.517C92.9352 279.611 100.35 287.767 112.265 287.767ZM112.316 279.33C106.819 279.33 104.006 274.293 104.006 267.44C104.006 260.588 106.819 255.526 112.316 255.526C117.711 255.526 120.523 260.588 120.523 267.44C120.523 274.293 117.711 279.33 112.316 279.33ZM170.561 258.926C169.589 251.69 163.76 247.216 153.839 247.216C143.791 247.216 137.169 251.869 137.194 259.438C137.169 265.318 140.876 269.128 148.547 270.662L155.348 272.017C158.774 272.707 160.334 273.96 160.385 275.929C160.334 278.256 157.802 279.918 153.993 279.918C150.106 279.918 147.524 278.256 146.859 275.06L136.146 275.622C137.169 283.139 143.561 287.767 153.967 287.767C164.143 287.767 171.43 282.577 171.456 274.83C171.43 269.153 167.723 265.753 160.103 264.193L152.995 262.761C149.339 261.969 147.984 260.716 148.01 258.824C147.984 256.472 150.643 254.938 154.018 254.938C157.802 254.938 160.052 257.009 160.589 259.54L170.561 258.926ZM198.412 247.727H191.022V238.318H180.13V247.727H174.761V255.909H180.13V276.364C180.079 284.06 185.321 287.869 193.221 287.537C196.034 287.435 198.028 286.872 199.127 286.514L197.414 278.409C196.877 278.511 195.727 278.767 194.704 278.767C192.531 278.767 191.022 277.949 191.022 274.932V255.909H198.412V247.727ZM231.786 287.741C237.59 287.741 241.348 285.21 243.266 281.554H243.573V287H253.902V260.511C253.902 251.153 245.976 247.216 237.232 247.216C227.823 247.216 221.635 251.716 220.127 258.875L230.2 259.693C230.942 257.085 233.269 255.168 237.181 255.168C240.888 255.168 243.01 257.034 243.01 260.256V260.409C243.01 262.94 240.325 263.273 233.499 263.938C225.726 264.653 218.746 267.261 218.746 276.031C218.746 283.804 224.294 287.741 231.786 287.741ZM234.905 280.224C231.556 280.224 229.152 278.665 229.152 275.673C229.152 272.605 231.683 271.097 235.519 270.56C237.896 270.227 241.783 269.665 243.087 268.795V272.963C243.087 277.08 239.686 280.224 234.905 280.224ZM272.452 264.295C272.478 259.233 275.495 256.267 279.893 256.267C284.265 256.267 286.898 259.131 286.873 263.938V287H297.765V261.994C297.765 252.841 292.396 247.216 284.214 247.216C278.384 247.216 274.166 250.08 272.401 254.656H271.941V247.727H261.56V287H272.452V264.295ZM320.029 287.639C326.37 287.639 329.668 283.983 331.177 280.71H331.637V287H342.376V234.636H331.509V254.324H331.177C329.719 251.128 326.575 247.216 320.003 247.216C311.387 247.216 304.1 253.915 304.1 267.415C304.1 280.557 311.08 287.639 320.029 287.639ZM323.481 278.972C318.137 278.972 315.222 274.216 315.222 267.364C315.222 260.562 318.086 255.884 323.481 255.884C328.773 255.884 331.739 260.358 331.739 267.364C331.739 274.369 328.722 278.972 323.481 278.972ZM384.155 287.767C394.613 287.767 401.184 281.631 401.695 272.605H391.417C390.777 276.798 388.016 279.151 384.283 279.151C379.195 279.151 375.897 274.881 375.897 267.364C375.897 259.949 379.221 255.705 384.283 255.705C388.272 255.705 390.829 258.338 391.417 262.25H401.695C401.235 253.173 394.357 247.216 384.104 247.216C372.189 247.216 364.826 255.474 364.826 267.517C364.826 279.457 372.062 287.767 384.155 287.767ZM425.621 287.767C437.536 287.767 444.951 279.611 444.951 267.517C444.951 255.347 437.536 247.216 425.621 247.216C413.706 247.216 406.292 255.347 406.292 267.517C406.292 279.611 413.706 287.767 425.621 287.767ZM425.672 279.33C420.175 279.33 417.363 274.293 417.363 267.44C417.363 260.588 420.175 255.526 425.672 255.526C431.067 255.526 433.88 260.588 433.88 267.44C433.88 274.293 431.067 279.33 425.672 279.33ZM462.133 264.295C462.159 259.233 465.176 256.267 469.573 256.267C473.946 256.267 476.579 259.131 476.554 263.938V287H487.446V261.994C487.446 252.841 482.076 247.216 473.894 247.216C468.065 247.216 463.846 250.08 462.082 254.656H461.622V247.727H451.241V287H462.133V264.295ZM516.127 247.727H508.738V238.318H497.846V247.727H492.477V255.909H497.846V276.364C497.795 284.06 503.036 287.869 510.937 287.537C513.749 287.435 515.744 286.872 516.843 286.514L515.13 278.409C514.593 278.511 513.443 278.767 512.42 278.767C510.247 278.767 508.738 277.949 508.738 274.932V255.909H516.127V247.727ZM522.43 287H533.322V264.781C533.322 259.949 536.851 256.625 541.658 256.625C543.166 256.625 545.237 256.881 546.26 257.213V247.548C545.288 247.318 543.933 247.165 542.834 247.165C538.436 247.165 534.831 249.722 533.399 254.58H532.99V247.727H522.43V287ZM567.016 287.767C578.93 287.767 586.345 279.611 586.345 267.517C586.345 255.347 578.93 247.216 567.016 247.216C555.101 247.216 547.686 255.347 547.686 267.517C547.686 279.611 555.101 287.767 567.016 287.767ZM567.067 279.33C561.57 279.33 558.757 274.293 558.757 267.44C558.757 260.588 561.57 255.526 567.067 255.526C572.462 255.526 575.274 260.588 575.274 267.44C575.274 274.293 572.462 279.33 567.067 279.33ZM603.528 234.636H592.636V287H603.528V234.636ZM11.071 356.727C19.1761 356.727 23.4716 352.585 25.696 346.244L40.9602 302.778L29.429 302.727L21.2216 331.568H20.8125L12.6818 302.727H1.22727L15.3153 343.125L14.6761 344.787C13.2443 348.469 10.5085 348.648 6.6733 347.472L4.21875 355.602C5.77841 356.267 8.30966 356.727 11.071 356.727ZM62.1505 342.767C74.0652 342.767 81.48 334.611 81.48 322.517C81.48 310.347 74.0652 302.216 62.1505 302.216C50.2357 302.216 42.8209 310.347 42.8209 322.517C42.8209 334.611 50.2357 342.767 62.1505 342.767ZM62.2016 334.33C56.7044 334.33 53.8919 329.293 53.8919 322.44C53.8919 315.588 56.7044 310.526 62.2016 310.526C67.5965 310.526 70.409 315.588 70.409 322.44C70.409 329.293 67.5965 334.33 62.2016 334.33ZM112.955 325.278C112.981 330.545 109.376 333.307 105.464 333.307C101.347 333.307 98.688 330.418 98.6624 325.79V302.727H87.7704V327.733C87.796 336.912 93.1653 342.511 101.066 342.511C106.972 342.511 111.216 339.469 112.981 334.866H113.39V342H123.847V302.727H112.955V325.278ZM131.767 342H142.66V319.781C142.66 314.949 146.188 311.625 150.995 311.625C152.503 311.625 154.574 311.881 155.597 312.213V302.548C154.625 302.318 153.27 302.165 152.171 302.165C147.773 302.165 144.168 304.722 142.736 309.58H142.327V302.727H131.767V342ZM187.201 289.636H176.308V342H187.201V289.636ZM195.134 342H206.026V302.727H195.134V342ZM200.605 297.665C203.852 297.665 206.511 295.185 206.511 292.142C206.511 289.125 203.852 286.645 200.605 286.645C197.384 286.645 194.725 289.125 194.725 292.142C194.725 295.185 197.384 297.665 200.605 297.665ZM224.851 319.295C224.876 314.233 227.893 311.267 232.291 311.267C236.663 311.267 239.297 314.131 239.271 318.938V342H250.163V316.994C250.163 307.841 244.794 302.216 236.612 302.216C230.783 302.216 226.564 305.08 224.8 309.656H224.34V302.727H213.959V342H224.851V319.295ZM257.956 342H268.848V329.523L271.788 326.173L282.501 342H295.26L279.945 319.73L294.518 302.727H282.016L269.436 317.634H268.848V289.636H257.956V342ZM331.746 313.926C330.775 306.69 324.945 302.216 315.025 302.216C304.976 302.216 298.354 306.869 298.38 314.438C298.354 320.318 302.062 324.128 309.732 325.662L316.533 327.017C319.959 327.707 321.519 328.96 321.57 330.929C321.519 333.256 318.988 334.918 315.178 334.918C311.292 334.918 308.709 333.256 308.045 330.06L297.332 330.622C298.354 338.139 304.746 342.767 315.153 342.767C325.329 342.767 332.616 337.577 332.641 329.83C332.616 324.153 328.908 320.753 321.289 319.193L314.181 317.761C310.525 316.969 309.17 315.716 309.195 313.824C309.17 311.472 311.829 309.938 315.204 309.938C318.988 309.938 321.238 312.009 321.775 314.54L331.746 313.926ZM345.074 342.665C348.347 342.665 351.185 339.929 351.211 336.528C351.185 333.179 348.347 330.443 345.074 330.443C341.699 330.443 338.912 333.179 338.938 336.528C338.912 339.929 341.699 342.665 345.074 342.665Z" fill="white"/>
<path d="M2.55682 368.727V392H5.89773V375.148H6.11364L12.9773 391.966H15.75L22.6136 375.159H22.8295V392H26.1705V368.727H21.9091L14.5 386.818H14.2273L6.81818 368.727H2.55682ZM35.7304 392.386C38.6168 392.386 40.2418 390.92 40.8895 389.614H41.0258V392H44.344V380.409C44.344 375.33 40.344 374.318 37.5713 374.318C34.4122 374.318 31.5031 375.591 30.3668 378.773L33.5599 379.5C34.0599 378.261 35.3327 377.068 37.6168 377.068C39.8099 377.068 40.9349 378.216 40.9349 380.193V380.273C40.9349 381.511 39.6622 381.489 36.5258 381.852C33.219 382.239 29.8327 383.102 29.8327 387.068C29.8327 390.5 32.4122 392.386 35.7304 392.386ZM36.469 389.659C34.5486 389.659 33.1622 388.795 33.1622 387.114C33.1622 385.295 34.7758 384.648 36.7418 384.386C37.844 384.239 40.4577 383.943 40.9463 383.455V385.705C40.9463 387.773 39.2986 389.659 36.469 389.659ZM51.9153 381.636C51.9153 378.852 53.6199 377.261 55.9835 377.261C58.2903 377.261 59.688 378.773 59.688 381.307V392H63.0858V380.898C63.0858 376.58 60.7108 374.318 57.1426 374.318C54.5176 374.318 52.8017 375.534 51.9949 377.386H51.779V374.545H48.5176V392H51.9153V381.636ZM72.3701 392.386C75.2565 392.386 76.8815 390.92 77.5292 389.614H77.6656V392H80.9838V380.409C80.9838 375.33 76.9838 374.318 74.211 374.318C71.052 374.318 68.1429 375.591 67.0065 378.773L70.1997 379.5C70.6997 378.261 71.9724 377.068 74.2565 377.068C76.4497 377.068 77.5747 378.216 77.5747 380.193V380.273C77.5747 381.511 76.302 381.489 73.1656 381.852C69.8588 382.239 66.4724 383.102 66.4724 387.068C66.4724 390.5 69.052 392.386 72.3701 392.386ZM73.1088 389.659C71.1883 389.659 69.802 388.795 69.802 387.114C69.802 385.295 71.4156 384.648 73.3815 384.386C74.4838 384.239 77.0974 383.943 77.586 383.455V385.705C77.586 387.773 75.9383 389.659 73.1088 389.659ZM92.4755 398.909C96.9187 398.909 100.351 396.875 100.351 392.386V374.545H97.021V377.375H96.771C96.1687 376.295 94.9642 374.318 91.7142 374.318C87.4983 374.318 84.396 377.648 84.396 383.205C84.396 388.773 87.5664 391.739 91.6914 391.739C94.896 391.739 96.1346 389.932 96.7483 388.818H96.9642V392.25C96.9642 394.989 95.0892 396.17 92.5096 396.17C89.6801 396.17 88.5778 394.75 87.9755 393.75L85.0551 394.955C85.9755 397.091 88.3051 398.909 92.4755 398.909ZM92.4414 388.92C89.4073 388.92 87.8278 386.591 87.8278 383.159C87.8278 379.807 89.3733 377.205 92.4414 377.205C95.4073 377.205 96.9983 379.625 96.9983 383.159C96.9983 386.761 95.3733 388.92 92.4414 388.92ZM112.078 392.352C115.885 392.352 118.578 390.477 119.351 387.636L116.135 387.057C115.521 388.705 114.044 389.545 112.112 389.545C109.203 389.545 107.249 387.659 107.158 384.295H119.567V383.091C119.567 376.784 115.794 374.318 111.839 374.318C106.976 374.318 103.771 378.023 103.771 383.386C103.771 388.807 106.93 392.352 112.078 392.352ZM107.169 381.75C107.305 379.273 109.101 377.125 111.862 377.125C114.499 377.125 116.226 379.08 116.237 381.75H107.169ZM127.405 388.818H124.132L124.019 390.091C123.757 393.17 123.03 396.273 122.723 397.682H125.132C125.678 396.193 126.882 392.784 127.235 390.057L127.405 388.818ZM139.866 392H143.184V389.284H143.468C144.082 390.398 145.332 392.341 148.514 392.341C152.741 392.341 155.809 388.955 155.809 383.307C155.809 377.648 152.695 374.318 148.479 374.318C145.241 374.318 144.07 376.295 143.468 377.375H143.264V368.727H139.866V392ZM143.195 383.273C143.195 379.625 144.786 377.205 147.752 377.205C150.832 377.205 152.377 379.807 152.377 383.273C152.377 386.773 150.786 389.443 147.752 389.443C144.832 389.443 143.195 386.943 143.195 383.273ZM159.272 392H162.67V381.341C162.67 379.057 164.431 377.409 166.841 377.409C167.545 377.409 168.341 377.534 168.613 377.614V374.364C168.272 374.318 167.602 374.284 167.17 374.284C165.125 374.284 163.375 375.443 162.738 377.318H162.556V374.545H159.272V392ZM176.125 392.386C179.011 392.386 180.636 390.92 181.284 389.614H181.42V392H184.739V380.409C184.739 375.33 180.739 374.318 177.966 374.318C174.807 374.318 171.898 375.591 170.761 378.773L173.954 379.5C174.454 378.261 175.727 377.068 178.011 377.068C180.204 377.068 181.329 378.216 181.329 380.193V380.273C181.329 381.511 180.057 381.489 176.92 381.852C173.614 382.239 170.227 383.102 170.227 387.068C170.227 390.5 172.807 392.386 176.125 392.386ZM176.864 389.659C174.943 389.659 173.557 388.795 173.557 387.114C173.557 385.295 175.17 384.648 177.136 384.386C178.239 384.239 180.852 383.943 181.341 383.455V385.705C181.341 387.773 179.693 389.659 176.864 389.659ZM192.31 381.636C192.31 378.852 194.014 377.261 196.378 377.261C198.685 377.261 200.083 378.773 200.083 381.307V392H203.48V380.898C203.48 376.58 201.105 374.318 197.537 374.318C194.912 374.318 193.196 375.534 192.389 377.386H192.173V374.545H188.912V392H192.31V381.636ZM214.219 392.341C217.401 392.341 218.651 390.398 219.265 389.284H219.549V392H222.867V368.727H219.469V377.375H219.265C218.651 376.295 217.492 374.318 214.242 374.318C210.026 374.318 206.924 377.648 206.924 383.307C206.924 388.955 209.981 392.341 214.219 392.341ZM214.969 389.443C211.935 389.443 210.356 386.773 210.356 383.273C210.356 379.807 211.901 377.205 214.969 377.205C217.935 377.205 219.526 379.625 219.526 383.273C219.526 386.943 217.901 389.443 214.969 389.443ZM240.561 392.386C243.447 392.386 245.072 390.92 245.72 389.614H245.856V392H249.174V380.409C249.174 375.33 245.174 374.318 242.402 374.318C239.242 374.318 236.333 375.591 235.197 378.773L238.39 379.5C238.89 378.261 240.163 377.068 242.447 377.068C244.64 377.068 245.765 378.216 245.765 380.193V380.273C245.765 381.511 244.492 381.489 241.356 381.852C238.049 382.239 234.663 383.102 234.663 387.068C234.663 390.5 237.242 392.386 240.561 392.386ZM241.299 389.659C239.379 389.659 237.992 388.795 237.992 387.114C237.992 385.295 239.606 384.648 241.572 384.386C242.674 384.239 245.288 383.943 245.777 383.455V385.705C245.777 387.773 244.129 389.659 241.299 389.659ZM256.746 381.636C256.746 378.852 258.45 377.261 260.814 377.261C263.121 377.261 264.518 378.773 264.518 381.307V392H267.916V380.898C267.916 376.58 265.541 374.318 261.973 374.318C259.348 374.318 257.632 375.534 256.825 377.386H256.609V374.545H253.348V392H256.746V381.636ZM278.655 392.341C281.837 392.341 283.087 390.398 283.7 389.284H283.984V392H287.303V368.727H283.905V377.375H283.7C283.087 376.295 281.928 374.318 278.678 374.318C274.462 374.318 271.359 377.648 271.359 383.307C271.359 388.955 274.416 392.341 278.655 392.341ZM279.405 389.443C276.371 389.443 274.791 386.773 274.791 383.273C274.791 379.807 276.337 377.205 279.405 377.205C282.371 377.205 283.962 379.625 283.962 383.273C283.962 386.943 282.337 389.443 279.405 389.443ZM308.065 374.545H304.485V370.364H301.087V374.545H298.53V377.273H301.087V387.58C301.076 390.75 303.496 392.284 306.178 392.227C307.258 392.216 307.985 392.011 308.383 391.864L307.769 389.057C307.542 389.102 307.121 389.205 306.576 389.205C305.474 389.205 304.485 388.841 304.485 386.875V377.273H308.065V374.545ZM311.471 392H314.869V381.341C314.869 379.057 316.63 377.409 319.039 377.409C319.744 377.409 320.539 377.534 320.812 377.614V374.364C320.471 374.318 319.801 374.284 319.369 374.284C317.323 374.284 315.573 375.443 314.937 377.318H314.755V374.545H311.471V392ZM328.324 392.386C331.21 392.386 332.835 390.92 333.483 389.614H333.619V392H336.937V380.409C336.937 375.33 332.937 374.318 330.165 374.318C327.005 374.318 324.096 375.591 322.96 378.773L326.153 379.5C326.653 378.261 327.926 377.068 330.21 377.068C332.403 377.068 333.528 378.216 333.528 380.193V380.273C333.528 381.511 332.255 381.489 329.119 381.852C325.812 382.239 322.426 383.102 322.426 387.068C322.426 390.5 325.005 392.386 328.324 392.386ZM329.062 389.659C327.142 389.659 325.755 388.795 325.755 387.114C325.755 385.295 327.369 384.648 329.335 384.386C330.437 384.239 333.051 383.943 333.54 383.455V385.705C333.54 387.773 331.892 389.659 329.062 389.659ZM348.463 392.352C352.588 392.352 355.259 389.875 355.634 386.477H352.327C351.895 388.364 350.429 389.477 348.486 389.477C345.611 389.477 343.759 387.08 343.759 383.273C343.759 379.534 345.645 377.182 348.486 377.182C350.645 377.182 351.963 378.545 352.327 380.182H355.634C355.27 376.659 352.395 374.318 348.429 374.318C343.509 374.318 340.327 378.023 340.327 383.352C340.327 388.614 343.395 392.352 348.463 392.352ZM358.915 392H362.313V385.807L364.006 384.114L369.938 392H374.108L366.563 382.034L373.631 374.545H369.563L362.608 381.932H362.313V368.727H358.915V392ZM386.64 398.545C389.447 398.545 391.22 397.08 392.231 394.33L399.447 374.58L395.776 374.545L391.356 388.091H391.174L386.754 374.545H383.117L389.504 392.227L389.083 393.386C388.22 395.705 387.004 395.898 385.14 395.386L384.322 398.17C384.731 398.352 385.617 398.545 386.64 398.545ZM409.024 392.352C413.944 392.352 417.16 388.75 417.16 383.352C417.16 377.92 413.944 374.318 409.024 374.318C404.103 374.318 400.888 377.92 400.888 383.352C400.888 388.75 404.103 392.352 409.024 392.352ZM409.035 389.5C405.819 389.5 404.319 386.693 404.319 383.341C404.319 380 405.819 377.159 409.035 377.159C412.228 377.159 413.728 380 413.728 383.341C413.728 386.693 412.228 389.5 409.035 389.5ZM431.658 384.761C431.669 387.727 429.464 389.136 427.555 389.136C425.453 389.136 423.999 387.614 423.999 385.239V374.545H420.601V385.648C420.601 389.977 422.976 392.227 426.328 392.227C428.953 392.227 430.737 390.841 431.544 388.977H431.726V392H435.067V374.545H431.658V384.761ZM439.28 392H442.678V381.341C442.678 379.057 444.439 377.409 446.848 377.409C447.553 377.409 448.348 377.534 448.621 377.614V374.364C448.28 374.318 447.61 374.284 447.178 374.284C445.132 374.284 443.382 375.443 442.746 377.318H442.564V374.545H439.28V392ZM5.68182 400.727H2.28409V424H5.68182V400.727ZM9.90084 424H13.2986V406.545H9.90084V424ZM11.6167 403.852C12.7872 403.852 13.7645 402.943 13.7645 401.83C13.7645 400.716 12.7872 399.795 11.6167 399.795C10.4349 399.795 9.46902 400.716 9.46902 401.83C9.46902 402.943 10.4349 403.852 11.6167 403.852ZM20.9153 413.636C20.9153 410.852 22.6199 409.261 24.9835 409.261C27.2903 409.261 28.688 410.773 28.688 413.307V424H32.0858V412.898C32.0858 408.58 29.7108 406.318 26.1426 406.318C23.5176 406.318 21.8017 407.534 20.9949 409.386H20.779V406.545H17.5176V424H20.9153V413.636ZM36.2906 424H39.6883V417.807L41.3815 416.114L47.3133 424H51.4838L43.9383 414.034L51.0065 406.545H46.9383L39.9838 413.932H39.6883V400.727H36.2906V424ZM66.8306 410.807C66.1261 408.091 64.0011 406.318 60.2284 406.318C56.2852 406.318 53.4897 408.398 53.4897 411.489C53.4897 413.966 54.9897 415.614 58.2625 416.341L61.217 416.989C62.8988 417.364 63.6829 418.114 63.6829 419.205C63.6829 420.557 62.2397 421.614 60.0125 421.614C57.9784 421.614 56.6715 420.739 56.2625 419.023L52.9784 419.523C53.5465 422.614 56.1147 424.352 60.0352 424.352C64.2511 424.352 67.1715 422.114 67.1715 418.955C67.1715 416.489 65.6034 414.966 62.3988 414.227L59.6261 413.591C57.7056 413.136 56.8761 412.489 56.8875 411.307C56.8761 409.966 58.3306 409.011 60.2625 409.011C62.3761 409.011 63.3534 410.182 63.7511 411.352L66.8306 410.807ZM86.8198 406.545H83.2403V402.364H79.8425V406.545H77.2857V409.273H79.8425V419.58C79.8312 422.75 82.2516 424.284 84.9335 424.227C86.013 424.216 86.7403 424.011 87.138 423.864L86.5244 421.057C86.2971 421.102 85.8766 421.205 85.3312 421.205C84.2289 421.205 83.2403 420.841 83.2403 418.875V409.273H86.8198V406.545ZM93.9991 413.636C93.9991 410.852 95.7604 409.261 98.1809 409.261C100.522 409.261 101.92 410.75 101.92 413.307V424H105.317V412.898C105.317 408.545 102.931 406.318 99.34 406.318C96.6241 406.318 94.9877 407.5 94.1695 409.386H93.9536V400.727H90.6013V424H93.9991V413.636ZM117.022 424.352C120.829 424.352 123.522 422.477 124.295 419.636L121.079 419.057C120.465 420.705 118.988 421.545 117.056 421.545C114.147 421.545 112.193 419.659 112.102 416.295H124.511V415.091C124.511 408.784 120.738 406.318 116.783 406.318C111.92 406.318 108.715 410.023 108.715 415.386C108.715 420.807 111.874 424.352 117.022 424.352ZM112.113 413.75C112.249 411.273 114.045 409.125 116.806 409.125C119.443 409.125 121.17 411.08 121.181 413.75H112.113ZM149.125 410.807C148.42 408.091 146.295 406.318 142.523 406.318C138.579 406.318 135.784 408.398 135.784 411.489C135.784 413.966 137.284 415.614 140.557 416.341L143.511 416.989C145.193 417.364 145.977 418.114 145.977 419.205C145.977 420.557 144.534 421.614 142.307 421.614C140.273 421.614 138.966 420.739 138.557 419.023L135.273 419.523C135.841 422.614 138.409 424.352 142.329 424.352C146.545 424.352 149.466 422.114 149.466 418.955C149.466 416.489 147.898 414.966 144.693 414.227L141.92 413.591C140 413.136 139.17 412.489 139.182 411.307C139.17 409.966 140.625 409.011 142.557 409.011C144.67 409.011 145.648 410.182 146.045 411.352L149.125 410.807ZM152.85 424H156.247V413.239C156.247 410.886 157.895 409.25 159.827 409.25C161.713 409.25 163.02 410.5 163.02 412.398V424H166.406V412.875C166.406 410.773 167.691 409.25 169.906 409.25C171.702 409.25 173.179 410.25 173.179 412.614V424H176.577V412.295C176.577 408.307 174.35 406.318 171.191 406.318C168.679 406.318 166.793 407.523 165.952 409.386H165.77C165.009 407.477 163.406 406.318 161.077 406.318C158.77 406.318 157.054 407.466 156.327 409.386H156.111V406.545H152.85V424ZM185.858 424.386C188.745 424.386 190.37 422.92 191.017 421.614H191.154V424H194.472V412.409C194.472 407.33 190.472 406.318 187.699 406.318C184.54 406.318 181.631 407.591 180.495 410.773L183.688 411.5C184.188 410.261 185.461 409.068 187.745 409.068C189.938 409.068 191.063 410.216 191.063 412.193V412.273C191.063 413.511 189.79 413.489 186.654 413.852C183.347 414.239 179.961 415.102 179.961 419.068C179.961 422.5 182.54 424.386 185.858 424.386ZM186.597 421.659C184.677 421.659 183.29 420.795 183.29 419.114C183.29 417.295 184.904 416.648 186.87 416.386C187.972 416.239 190.586 415.943 191.074 415.455V417.705C191.074 419.773 189.427 421.659 186.597 421.659ZM198.646 424H202.043V413.341C202.043 411.057 203.805 409.409 206.214 409.409C206.918 409.409 207.714 409.534 207.986 409.614V406.364C207.646 406.318 206.975 406.284 206.543 406.284C204.498 406.284 202.748 407.443 202.111 409.318H201.93V406.545H198.646V424ZM219.754 406.545H216.174V402.364H212.777V406.545H210.22V409.273H212.777V419.58C212.765 422.75 215.186 424.284 217.867 424.227C218.947 424.216 219.674 424.011 220.072 423.864L219.458 421.057C219.231 421.102 218.811 421.205 218.265 421.205C217.163 421.205 216.174 420.841 216.174 418.875V409.273H219.754V406.545ZM235.061 424H238.516L242.061 411.398H242.323L245.868 424H249.334L254.459 406.545H250.948L247.55 419.307H247.379L243.97 406.545H240.459L237.027 419.364H236.857L233.436 406.545H229.925L235.061 424ZM262.411 424.386C265.297 424.386 266.922 422.92 267.57 421.614H267.706V424H271.025V412.409C271.025 407.33 267.025 406.318 264.252 406.318C261.093 406.318 258.184 407.591 257.047 410.773L260.24 411.5C260.74 410.261 262.013 409.068 264.297 409.068C266.49 409.068 267.615 410.216 267.615 412.193V412.273C267.615 413.511 266.343 413.489 263.206 413.852C259.9 414.239 256.513 415.102 256.513 419.068C256.513 422.5 259.093 424.386 262.411 424.386ZM263.15 421.659C261.229 421.659 259.843 420.795 259.843 419.114C259.843 417.295 261.456 416.648 263.422 416.386C264.525 416.239 267.138 415.943 267.627 415.455V417.705C267.627 419.773 265.979 421.659 263.15 421.659ZM276.721 430.545C279.528 430.545 281.3 429.08 282.312 426.33L289.528 406.58L285.857 406.545L281.437 420.091H281.255L276.834 406.545H273.198L279.584 424.227L279.164 425.386C278.3 427.705 277.084 427.898 275.221 427.386L274.403 430.17C274.812 430.352 275.698 430.545 276.721 430.545ZM293.522 424.216C294.761 424.216 295.795 423.205 295.795 421.943C295.795 420.705 294.761 419.682 293.522 419.682C292.272 419.682 291.25 420.705 291.25 421.943C291.25 423.205 292.272 424.216 293.522 424.216Z" fill="white"/>
<defs>
<clipPath id="clip0_2_217">
<rect width="466" height="177" fill="white"/>
</clipPath>
</defs>
</svg>
