<svg width="54" height="54" viewBox="0 0 54 54" fill="none" xmlns="http://www.w3.org/2000/svg">
<path d="M27 54C41.9117 54 54 41.9117 54 27C54 12.0883 41.9117 0 27 0C12.0883 0 0 12.0883 0 27C0 41.9117 12.0883 54 27 54Z" fill="white"/>
<path d="M30.75 27.2166V26.014C30.7854 26.014 30.7853 25.9619 30.7893 25.9299C31.0042 24.2175 31.8636 22.6577 33.1857 21.5805C34.5799 20.3929 36.3044 19.682 38.1159 19.5482C39.9484 19.358 41.7946 19.7336 43.4154 20.6265C44.9211 21.4054 46.1091 22.7014 46.7703 24.2863C47.1188 25.1025 47.2811 25.9888 47.2451 26.8783C47.209 27.7678 46.9755 28.6373 46.5621 29.4213C45.5996 31.3254 44.0243 32.5159 42.0719 33.2134C40.9878 33.5855 39.8487 33.7632 38.7052 33.7386C36.3481 33.7386 33.9832 33.7386 31.6104 33.7386C31.4338 33.7693 31.2522 33.7376 31.0958 33.6487C30.9393 33.5597 30.8173 33.4189 30.75 33.2495V32.9248C30.8601 32.7199 31.0052 32.5367 31.1782 32.3837L32.286 31.2532C32.5139 31.0207 32.5139 31.0207 32.3096 30.7762C31.6256 29.9705 31.143 29.0077 30.9032 27.9702C30.8758 27.7146 30.8245 27.4622 30.75 27.2166ZM38.9998 25.9579H42.8026C42.8856 25.96 42.9683 25.9455 43.0458 25.915C43.1234 25.8845 43.1943 25.8387 43.2545 25.7803C43.3146 25.7218 43.363 25.6519 43.3966 25.5744C43.4303 25.4969 43.4487 25.4133 43.4508 25.3286V25.3085C43.4467 25.1383 43.3781 24.9764 43.2594 24.8568C43.1407 24.7371 42.9812 24.6692 42.8144 24.6671H35.1735C35.0527 24.6708 34.9357 24.7108 34.8371 24.7821C34.7386 24.8535 34.6629 24.9529 34.6195 25.068C34.5809 25.1693 34.5683 25.279 34.5829 25.3867C34.5975 25.4944 34.6389 25.5964 34.703 25.6832C34.7672 25.77 34.852 25.8385 34.9495 25.8824C35.047 25.9263 35.1538 25.944 35.2599 25.9338L38.9998 25.9579ZM37.7427 28.5474H40.2373C40.3203 28.553 40.4037 28.5417 40.4825 28.5144C40.5613 28.4871 40.634 28.4442 40.6966 28.3882C40.7591 28.3322 40.8103 28.2641 40.8471 28.1879C40.8839 28.1118 40.9056 28.0289 40.911 27.9442C40.9164 27.8594 40.9054 27.7744 40.8787 27.694C40.8519 27.6136 40.8098 27.5393 40.7549 27.4755C40.7 27.4116 40.6333 27.3595 40.5587 27.3219C40.484 27.2844 40.4028 27.2622 40.3198 27.2567H35.2835C35.1511 27.244 35.0181 27.2734 34.9028 27.3408C34.7874 27.4083 34.6954 27.5105 34.6392 27.6335C34.5677 27.7867 34.5585 27.9625 34.6137 28.1225C34.669 28.2825 34.784 28.4137 34.9338 28.4873C35.026 28.5309 35.127 28.5515 35.2285 28.5474C36.0652 28.5474 36.902 28.5474 37.7427 28.5474Z" fill="#E97179"/>
<path d="M17.9525 33.0006C17.2555 32.9904 16.6079 32.7861 15.986 32.4895C15.0138 32.0251 14.1572 31.3894 13.3495 30.6856C12.0771 29.5774 10.8931 28.3823 9.86713 27.0383C9.30623 26.3031 8.81634 25.5243 8.50635 24.6456C8.26569 23.9628 8.16371 23.2672 8.3367 22.5504C8.48395 21.9399 8.78656 21.4242 9.28288 21.0335C9.56333 20.8125 9.85474 20.6044 10.1407 20.3922C10.382 20.2146 10.6348 20.1991 10.8807 20.3746C11.0402 20.4857 11.1898 20.6103 11.3277 20.7472C11.7895 21.2176 12.2463 21.693 12.6981 22.1732C12.9289 22.4174 13.0154 22.7065 12.8887 23.0283C12.8451 23.1385 12.7629 23.2396 12.679 23.3266C12.3316 23.6865 11.9847 24.0479 11.6213 24.3915C11.4335 24.5691 11.3811 24.7743 11.4557 24.9955C11.5462 25.2642 11.6547 25.5333 11.7998 25.7758C12.2642 26.5515 12.8799 27.2061 13.5168 27.8405C14.0917 28.4126 14.6883 28.9623 15.3796 29.3933C15.62 29.5433 15.8861 29.6541 16.1471 29.7681C16.2381 29.8079 16.3479 29.811 16.4501 29.8177C16.5869 29.8267 16.7018 29.7776 16.8021 29.6768C17.1769 29.2989 17.5572 28.9266 17.9346 28.5516C18.246 28.2417 18.6944 28.2062 19.0161 28.5053C19.5832 29.0324 20.1331 29.5781 20.684 30.1214C20.7758 30.2117 20.8465 30.3271 20.9123 30.4394C21.01 30.6063 21.0386 30.7955 20.933 30.9624C20.5935 31.4997 20.248 32.038 19.7352 32.4309C19.2129 32.8311 18.6068 32.9985 17.9525 33.0006Z" fill="#E97179"/>
<path d="M27 10.5V43.5" stroke="#BDBDBD" stroke-width="0.5"/>
</svg>
