<svg width="50" height="49" viewBox="0 0 50 49" fill="none" xmlns="http://www.w3.org/2000/svg">
<path d="M44.6833 0H6.18335C3.28491 0 0.93335 2.35156 0.93335 5.25V43.75C0.93335 46.6484 3.28491 49 6.18335 49H44.6833C47.5818 49 49.9333 46.6484 49.9333 43.75V5.25C49.9333 2.35156 47.5818 0 44.6833 0ZM39.3349 17.3687C39.3568 17.675 39.3568 17.9922 39.3568 18.2984C39.3568 27.7812 32.138 38.7078 18.9474 38.7078C14.8787 38.7078 11.1052 37.5266 7.93335 35.4922C8.51304 35.5578 9.07085 35.5797 9.66148 35.5797C13.0193 35.5797 16.1037 34.4422 18.5646 32.5172C15.4146 32.4516 12.7677 30.3844 11.8599 27.5406C12.9646 27.7047 13.9599 27.7047 15.0974 27.4094C11.8162 26.7422 9.35522 23.8547 9.35522 20.3656V20.2781C10.3068 20.8141 11.4224 21.1422 12.5927 21.1859C11.6088 20.5315 10.8022 19.6436 10.245 18.6016C9.68768 17.5595 9.39704 16.3958 9.39897 15.2141C9.39897 13.8797 9.74897 12.6547 10.3724 11.5938C13.9052 15.9469 19.2099 18.7906 25.1599 19.0969C24.1427 14.2297 27.7849 10.2812 32.1599 10.2812C34.2271 10.2812 36.0865 11.1453 37.399 12.5453C39.0177 12.2391 40.5709 11.6375 41.949 10.8172C41.413 12.4797 40.2865 13.8797 38.799 14.7656C40.2427 14.6125 41.6427 14.2078 42.9333 13.65C41.9599 15.0828 40.7349 16.3516 39.3349 17.3687Z" fill="white"/>
</svg>
