<svg width="1155" height="427" viewBox="0 0 1155 427" fill="none" xmlns="http://www.w3.org/2000/svg">
<path d="M269.494 46.503L258.061 56.4443C256.2 58.0872 254.772 60.164 253.905 62.4906C253.038 64.8172 252.758 67.3217 253.09 69.7823L255.526 88.0081C255.828 90.3059 255.598 92.6423 254.854 94.8372C254.11 97.032 252.872 99.0265 251.235 100.667L228.452 123.433C225.855 126.026 224.293 129.479 224.062 133.142L223.117 147.607C222.405 158.459 265.285 170.24 275.525 166.562L358.37 121.428C360.243 120.754 361.964 119.717 363.435 118.376C364.906 117.035 366.098 115.416 366.942 113.614C367.785 111.811 368.264 109.859 368.352 107.87C368.439 105.882 368.132 103.895 367.449 102.025C366.48 99.3741 366.273 96.504 366.853 93.741L369.968 79.1604C370.696 75.7753 370.237 72.2427 368.669 69.156C367.1 66.0694 364.516 63.6168 361.352 62.2104L344.65 54.7708C343.548 54.2806 342.391 53.9247 341.204 53.7105L282.186 43.0069C279.943 42.5883 277.635 42.6856 275.436 43.2913C273.238 43.897 271.205 44.9953 269.494 46.503Z" fill="#5A0604"/>
<path d="M282.749 21.3182L271.3 31.4087C269.452 33.0443 268.033 35.1075 267.166 37.4182C266.3 39.7288 266.012 42.2165 266.329 44.6638L268.765 62.8897C269.067 65.1899 268.837 67.5289 268.093 69.7264C267.349 71.9239 266.111 73.9214 264.473 75.5649L241.691 98.3307C239.097 100.92 237.536 104.366 237.3 108.023L236.356 122.538C236.192 125.037 236.653 127.538 237.696 129.815C238.74 132.092 240.334 134.074 242.334 135.581C244.335 137.088 246.679 138.074 249.156 138.45C251.632 138.825 254.163 138.578 256.52 137.732L371.559 96.3092C375.311 94.9183 378.359 92.0975 380.036 88.4642C381.713 84.8309 381.882 80.6811 380.506 76.9235C379.536 74.2721 379.329 71.402 379.909 68.639L383.041 54.0584C383.766 50.6735 383.306 47.1422 381.737 44.0563C380.169 40.9703 377.587 38.5173 374.425 37.1084L357.707 29.6524C356.602 29.1697 355.446 28.8139 354.261 28.5919L295.308 17.8885C293.092 17.4867 290.813 17.5861 288.64 18.1796C286.467 18.7731 284.454 19.8455 282.749 21.3182Z" fill="#5A0604"/>
<path d="M385.112 42.2779L396.147 52.7163C397.958 54.4209 399.318 56.5485 400.105 58.9082C400.891 61.268 401.08 63.7861 400.653 66.2366L397.572 84.4293C397.18 86.7134 397.32 89.0572 397.981 91.2784C398.642 93.4997 399.806 95.5387 401.382 97.2371L423.303 120.831C425.818 123.541 427.256 127.077 427.346 130.773L427.744 145.27C428.058 156.14 366.787 162.817 356.696 158.758L293.601 114.021C291.76 113.274 290.085 112.17 288.672 110.774C287.258 109.377 286.135 107.715 285.365 105.883C284.595 104.051 284.195 102.086 284.186 100.099C284.178 98.1116 284.562 96.1426 285.317 94.3044C286.39 91.6825 286.7 88.8106 286.212 86.02L283.577 71.1741C282.994 67.7717 283.593 64.2722 285.275 61.2577C286.957 58.2432 289.621 55.8955 292.823 54.6052L309.789 47.7788C310.913 47.3308 312.087 47.0193 313.285 46.851L372.586 38.3179C374.837 37.9938 377.132 38.1816 379.301 38.8672C381.47 39.5528 383.456 40.7186 385.112 42.2779Z" fill="#5A0604"/>
<path d="M372.884 16.6458L383.919 27.0677C385.722 28.7784 387.076 30.9066 387.862 33.2645C388.648 35.6224 388.842 38.1375 388.426 40.5879L385.327 58.6977C384.938 60.9857 385.08 63.3328 385.744 65.5568C386.408 67.7808 387.575 69.822 389.155 71.5222L411.075 95.1163C413.567 97.8 414.998 101.298 415.102 104.958L415.516 119.456C415.587 121.961 415.034 124.445 413.906 126.683C412.777 128.92 411.109 130.842 409.052 132.274C406.996 133.706 404.615 134.603 402.124 134.885C399.634 135.167 397.113 134.824 394.788 133.888L281.374 88.3065C279.532 87.5572 277.857 86.4518 276.443 85.0537C275.029 83.6556 273.906 81.9923 273.136 80.1591C272.366 78.3259 271.966 76.3587 271.958 74.3706C271.95 72.3824 272.335 70.4122 273.089 68.5728C274.163 65.9511 274.474 63.079 273.984 60.2884L271.416 45.6083C270.825 42.2074 271.419 38.7066 273.099 35.691C274.779 32.6754 277.442 30.3275 280.645 29.0394L297.628 22.213C298.748 21.7673 299.916 21.4505 301.107 21.2685L360.424 12.7521C362.66 12.4284 364.94 12.6102 367.096 13.284C369.253 13.9579 371.23 15.1067 372.884 16.6458Z" fill="#5A0604"/>
<path d="M291.994 135.163L277.033 171.416L359.629 171.35L353.863 139.488L291.994 135.163Z" fill="#CA8A72"/>
<path d="M284.091 133.424L290.271 143.067C295.457 148.816 312.855 156.918 324.039 162.005C327.154 163.422 330.4 164.532 333.731 165.319L359.645 171.383L353.879 139.504L284.091 133.424Z" fill="#BC715A"/>
<path d="M280.827 65.8886C280.827 65.8886 260.745 51.308 262.237 73.4938C263.728 95.6796 270.786 105.621 274.498 101.76C278.209 97.8999 280.827 65.8886 280.827 65.8886Z" fill="#BC715A"/>
<path d="M378.998 77.9839C378.998 77.9839 396.412 71.1907 391.093 87.0803C385.775 102.97 378.749 108.835 376.778 105.306C374.806 101.777 378.998 77.9839 378.998 77.9839Z" fill="#BC715A"/>
<path d="M382.345 105.058C383.663 105.058 384.731 103.989 384.731 102.672C384.731 101.354 383.663 100.286 382.345 100.286C381.027 100.286 379.959 101.354 379.959 102.672C379.959 103.989 381.027 105.058 382.345 105.058Z" fill="#FBF1E1"/>
<path d="M280.728 57.1072C280.728 57.1072 248.832 150.241 320.261 153.207C363.871 154.98 376.347 131.584 382.113 103.235C386.74 80.9939 384.462 57.8702 375.585 36.9593C369.471 22.7597 360.159 9.32235 346.755 9.07382C318.173 8.56018 292.558 19.214 280.728 57.1072Z" fill="#CB8770"/>
<path d="M340.044 69.5172C341.701 72.831 343.176 76.3105 344.667 79.6906C345.429 81.3475 346.142 83.0044 346.97 84.6613C347.626 86.2296 348.484 87.7055 349.522 89.052C350.274 89.8448 350.852 90.7869 351.218 91.8173C351.583 92.8477 351.728 93.9435 351.643 95.0334C351.631 97.1689 350.773 99.2125 349.257 100.717C348.484 101.45 347.537 101.974 346.506 102.241C345.552 102.442 344.582 102.558 343.607 102.589C342.655 102.616 341.703 102.578 340.757 102.473C339.781 102.456 338.85 102.065 338.155 101.379C338.948 101.834 339.87 102.009 340.773 101.876C341.687 101.809 342.596 101.676 343.491 101.479C345.189 101.384 346.796 100.678 348.014 99.4905C349.047 98.2282 349.577 96.6295 349.505 95.0003C349.599 93.4521 349.082 91.9288 348.064 90.7586C346.772 89.2045 345.747 87.4463 345.032 85.5559C344.303 83.7996 343.623 82.0599 343.027 80.287C341.818 76.7599 340.822 73.1635 340.044 69.5172Z" fill="#5A0604"/>
<path d="M333.35 22.213C333.35 22.213 338.951 29.9672 357.276 33.1319C374.773 36.164 381.516 73.4275 383.538 81.1818C385.195 87.5277 398.367 8.89157 355.371 1.31957C312.374 -6.25244 333.35 22.213 333.35 22.213Z" fill="#5A0604"/>
<path d="M336.996 21.6164C336.996 21.6164 328.91 29.4037 314.677 25.974C296.601 21.5998 273.255 82.3084 273.769 90.3444C274.282 98.3803 270.902 9.67019 318.936 1.48513C366.969 -6.69993 336.996 21.6164 336.996 21.6164Z" fill="#5A0604"/>
<path d="M324.37 58.7806C318.919 57.9024 307.801 56.7923 301.488 61.1665C301.395 61.2225 301.285 61.245 301.177 61.2302C301.069 61.2154 300.969 61.1643 300.894 61.0853C300.818 61.0062 300.772 60.904 300.763 60.7952C300.754 60.6865 300.782 60.5778 300.842 60.4871C302.913 57.5544 306.293 53.8596 310.386 53.6111C315.453 53.5861 320.446 54.8216 324.917 57.2065C325.092 57.3026 325.227 57.4575 325.299 57.6439C325.371 57.8302 325.374 58.0359 325.309 58.2245C325.243 58.413 325.113 58.5724 324.941 58.6742C324.769 58.776 324.567 58.8137 324.37 58.7806Z" fill="#5A0604"/>
<path d="M352.007 59.8907C357.525 60.073 368.709 61.15 373.994 66.6509C374.074 66.7285 374.177 66.7762 374.288 66.786C374.398 66.7957 374.509 66.767 374.601 66.7046C374.692 66.6421 374.76 66.5498 374.791 66.4433C374.822 66.3369 374.816 66.2229 374.773 66.1206C373.298 62.8068 370.697 58.5983 366.72 57.5213C361.767 56.531 356.645 56.7757 351.808 58.2338C351.615 58.289 351.448 58.4112 351.337 58.5785C351.225 58.7459 351.178 58.9475 351.201 59.147C351.225 59.3465 351.32 59.531 351.467 59.6673C351.615 59.8036 351.806 59.8828 352.007 59.8907Z" fill="#5A0604"/>
<path d="M316.964 78.4313C319.599 78.4313 321.736 76.2949 321.736 73.6595C321.736 71.024 319.599 68.8876 316.964 68.8876C314.328 68.8876 312.192 71.024 312.192 73.6595C312.192 76.2949 314.328 78.4313 316.964 78.4313Z" fill="#5A0604"/>
<path d="M359.811 80.8172C362.447 80.8172 364.583 78.6808 364.583 76.0454C364.583 73.41 362.447 71.2735 359.811 71.2735C357.176 71.2735 355.039 73.41 355.039 76.0454C355.039 78.6808 357.176 80.8172 359.811 80.8172Z" fill="#5A0604"/>
<g style="mix-blend-mode:multiply" opacity="0.18">
<g style="mix-blend-mode:multiply" opacity="0.18">
<path d="M314.627 104.354C315.081 101.684 310.82 98.7319 305.109 97.7609C299.399 96.7899 294.401 98.1675 293.947 100.838C293.493 103.508 297.755 106.46 303.465 107.431C309.176 108.402 314.173 107.024 314.627 104.354Z" fill="#EC504B"/>
</g>
</g>
<g style="mix-blend-mode:multiply" opacity="0.18">
<g style="mix-blend-mode:multiply" opacity="0.18">
<path d="M378.652 107.285C378.703 104.577 374.048 102.294 368.257 102.187C362.465 102.08 357.73 104.189 357.68 106.897C357.63 109.605 362.284 111.887 368.075 111.994C373.867 112.101 378.602 109.993 378.652 107.285Z" fill="#EC504B"/>
</g>
</g>
<path d="M270.372 104.577C272.129 104.577 273.553 103.153 273.553 101.396C273.553 99.639 272.129 98.2147 270.372 98.2147C268.615 98.2147 267.191 99.639 267.191 101.396C267.191 103.153 268.615 104.577 270.372 104.577Z" fill="#FBF1E1"/>
<path d="M280.578 156.858C280.578 156.858 337.211 175.896 361.302 170.345L364.036 185.39L378.948 188.704C378.948 188.704 462.721 199.241 469.564 316.284L468.404 379.246L470.79 412.285L311 417.67H134.987C132.887 417.665 130.816 417.171 128.939 416.227C127.062 415.284 125.431 413.916 124.174 412.233C122.917 410.55 122.069 408.598 121.697 406.531C121.325 404.463 121.439 402.338 122.03 400.322L178.365 211.734C180.954 203.106 186.183 195.508 193.316 190.006C200.449 184.505 209.128 181.378 218.13 181.065L272.808 179.209L280.578 156.858Z" fill="#FACE80"/>
<path d="M235.833 272L210 373.496L212.906 374.236L238.74 272.74L235.833 272Z" fill="white"/>
<path d="M308.099 213.982L271.648 179.286L273.719 177.116L307.983 209.707L330.948 184.854C330.902 183.905 330.964 182.955 331.13 182.02L334.096 182.368L333.947 186.013C334.378 190.321 337.029 197.728 349.621 201.903L364.368 182.02L366.753 183.843L350.682 205.383L349.671 205.084C336.863 201.157 332.655 194.016 331.445 188.714L308.099 213.982Z" fill="white"/>
<path d="M512.5 410.88C512.5 410.88 479.12 386.1 457.38 385.7L449.59 414.55L512.5 410.88Z" fill="#BC715A"/>
<path d="M327.14 371.2C327.14 371.2 391.44 367.8 452.55 384.35C454.163 384.777 455.773 385.227 457.38 385.7L449.59 414.55L319.04 416.98" fill="#FACE80"/>
<path d="M319.06 418.18V415.77L448.7 413.36L455.94 386.53C454.7 386.262 453.475 385.928 452.27 385.53C435.35 378.66 398.65 375.07 398 375.1L397.88 372.69C398.52 372.69 417.99 371.98 452.88 383.2C454.48 383.71 456.12 384.09 457.73 384.56L458.87 384.88L450.54 415.77H449.64L319.06 418.18Z" fill="white"/>
<path d="M314.197 202.963L319.913 218.058L313.749 388.9L343.573 398.444L367.996 374.899L337.841 221.388L347.169 203.577L332.456 188.3L314.197 202.963Z" fill="white"/>
<path d="M344.054 400.15L312.308 389.977L318.488 218.306L312.49 202.483L332.671 186.279L349.025 203.311L339.448 221.537L369.653 375.33L344.054 400.15ZM315.39 387.823L343.259 396.754L366.455 374.402L336.366 221.173L345.429 203.842L332.423 190.338L316.069 203.444L321.52 217.809V218.124L315.39 387.823Z" fill="white"/>
<g clip-path="url(#clip0_2_634)">
<path d="M396.49 411.16C396.49 411.16 363.11 386.37 341.36 385.97L333.58 414.83L396.49 411.16Z" fill="#BC715A"/>
<path d="M211.12 371.48C211.12 371.48 275.42 368.08 336.53 384.62C338.15 385.047 339.76 385.497 341.36 385.97L333.58 414.83L203.02 417.25" fill="#FACE80"/>
<path d="M203.05 418.46L203 416.04L332.65 413.64L339.89 386.8C338.67 386.45 337.44 386.12 336.22 385.8C275.99 369.48 211.83 372.65 211.22 372.65L211.1 370.24C211.74 370.24 276.3 367.02 336.89 383.42C338.51 383.86 340.12 384.31 341.74 384.78L342.88 385.11L334.55 415.99H333.64L203.05 418.46Z" fill="white"/>
</g>
<path d="M323.591 402.619H666.568C668.766 402.619 670.873 403.492 672.426 405.046C673.98 406.599 674.853 408.706 674.853 410.904V417.349H315.307V410.904C315.307 408.706 316.18 406.599 317.733 405.046C319.287 403.492 321.394 402.619 323.591 402.619Z" fill="#CDCECE"/>
<path d="M717.435 285.792L483.813 375.264C464.378 375.264 443.849 360.534 443.849 341.413L473.292 158.989C473.392 149.695 477.168 140.818 483.793 134.298C490.418 127.778 499.355 124.146 508.65 124.195L815.175 127.094C824.475 127.037 833.418 130.666 840.048 137.187C846.678 143.708 850.454 152.59 850.55 161.889L760.564 280.837C760.514 299.941 736.887 285.792 717.435 285.792Z" fill="#F4ACB6"/>
<path d="M797.446 376.175H490.921C481.553 376.145 472.577 372.41 465.953 365.785C459.329 359.161 455.593 350.185 455.563 340.817L485.039 155.245C485.065 145.875 488.799 136.897 495.424 130.272C502.049 123.647 511.028 119.913 520.397 119.887L826.922 122.836C836.292 122.862 845.27 126.596 851.896 133.221C858.521 139.846 862.254 148.825 862.281 158.194L832.838 340.817C832.807 350.191 829.067 359.172 822.436 365.797C815.804 372.422 806.82 376.153 797.446 376.175Z" fill="white"/>
<path d="M608.08 334.786L553.403 376.921L632.453 375.927L608.08 334.786Z" fill="#CDCECE"/>
<path d="M533.52 401.774L505.353 418.343H652.816L637.904 401.774C637.904 401.774 534.415 402.669 533.52 401.774Z" fill="#A9A9A9"/>
<path d="M608.08 334.786L643.852 416.686H719.97L681.249 335.498L608.08 334.786Z" fill="#E0E0E0"/>
<path d="M1155 417H0V427H1155V417Z" fill="white"/>
<path d="M661.349 274.972C672.788 274.972 682.06 265.699 682.06 254.261C682.06 242.822 672.788 233.55 661.349 233.55C649.911 233.55 640.638 242.822 640.638 254.261C640.638 265.699 649.911 274.972 661.349 274.972Z" stroke="#E0E0E0" stroke-width="2" stroke-miterlimit="10"/>
<path d="M350.433 118.694C349.479 120.519 348.074 122.069 346.351 123.198C344.628 124.326 342.645 124.994 340.591 125.139C338.518 125.219 336.455 124.822 334.56 123.979C333.648 123.55 332.768 123.057 331.925 122.505C331.13 121.892 330.368 121.262 329.639 120.583C330.567 120.947 331.445 121.395 332.323 121.792C333.201 122.19 334.096 122.521 335.007 122.753C336.779 123.313 338.635 123.56 340.492 123.482C342.335 123.375 344.135 122.884 345.777 122.041C347.483 121.156 349.051 120.029 350.433 118.694Z" fill="#5A0604"/>
<defs>
<clipPath id="clip0_2_634">
<rect width="309.5" height="48.46" fill="white" transform="translate(203 370)"/>
</clipPath>
</defs>
</svg>
