<svg width="158" height="72" viewBox="0 0 158 72" fill="none" xmlns="http://www.w3.org/2000/svg">
<g clip-path="url(#clip0_579:950)">
<path d="M94.8123 31.2568H90.8747C90.7865 30.8907 90.7246 30.5188 90.6895 30.144C90.6105 29.3261 90.6105 28.5026 90.6895 27.6848C90.7251 27.31 90.787 26.9381 90.8747 26.572H100.688V57.5152C100.194 57.6012 99.7005 57.6627 99.2067 57.6996C98.713 57.7365 98.213 57.7549 97.7193 57.7549C97.2255 57.7549 96.7688 57.7549 96.2936 57.6996C95.8184 57.6443 95.3061 57.6012 94.8123 57.5152V31.2568ZM128.992 39.071C128.996 37.9788 128.842 36.8917 128.535 35.8432C128.262 34.8732 127.81 33.9622 127.202 33.1565C126.608 32.3781 125.841 31.7469 124.962 31.3121C123.954 30.8245 122.842 30.5862 121.722 30.6174C119.253 30.6174 117.364 31.3613 116.056 32.8491C114.747 34.337 113.945 36.4109 113.649 39.071H128.992ZM113.562 43.5099C113.649 46.8913 114.529 49.3649 116.204 50.9306C117.879 52.4963 120.347 53.2812 123.61 53.2853C126.407 53.2969 129.181 52.786 131.788 51.779C132.144 52.4756 132.408 53.2155 132.572 53.98C132.773 54.8215 132.895 55.6798 132.936 56.5438C131.527 57.1325 130.055 57.5574 128.548 57.8103C126.796 58.1057 125.022 58.2477 123.246 58.2345C120.789 58.2852 118.344 57.8872 116.031 57.0602C114.15 56.3748 112.456 55.2581 111.088 53.8002C109.72 52.3423 108.716 50.5843 108.156 48.6681C107.527 46.5848 107.219 44.4186 107.242 42.2434C107.227 40.0687 107.524 37.9031 108.125 35.8125C108.66 33.919 109.575 32.1535 110.816 30.6235C112.06 29.1305 113.625 27.935 115.396 27.1253C117.442 26.2156 119.667 25.7725 121.907 25.828C123.841 25.7902 125.762 26.1611 127.542 26.9162C129.105 27.5935 130.493 28.6151 131.603 29.9042C132.72 31.234 133.559 32.7723 134.072 34.4292C134.651 36.2731 134.937 38.1963 134.917 40.1284C134.917 40.6941 134.917 41.2843 134.855 41.9114C134.825 42.4463 134.781 42.975 134.738 43.5099H113.562ZM141.521 26.5535C141.941 26.4736 142.367 26.4121 142.793 26.3691C143.215 26.3292 143.639 26.3107 144.064 26.3137C144.508 26.3137 144.953 26.3322 145.397 26.3691C145.812 26.4057 146.224 26.4673 146.631 26.5535C146.749 27.1683 146.872 27.9491 146.989 28.9328C147.102 29.7644 147.164 30.6021 147.175 31.4412C148.048 30.0447 149.192 28.8347 150.538 27.8815C152.114 26.8171 153.993 26.2868 155.895 26.3691C156.222 26.3691 156.556 26.3691 156.895 26.3691C157.235 26.3691 157.512 26.4183 157.778 26.4613C157.859 26.8388 157.919 27.2206 157.957 27.6048C158 28.0256 158.02 28.4484 158.019 28.8713C158.017 29.3768 157.986 29.8818 157.926 30.3838C157.87 30.8879 157.796 31.392 157.716 31.89C157.389 31.8111 157.053 31.7719 156.716 31.7732H155.895C154.84 31.7674 153.789 31.9187 152.779 32.222C151.774 32.5344 150.86 33.0826 150.112 33.8205C149.256 34.7081 148.621 35.7845 148.261 36.9622C147.727 38.6372 147.473 40.388 147.508 42.145V57.5152C147.014 57.6012 146.52 57.6627 146.02 57.6996C145.52 57.7365 144.984 57.7549 144.539 57.7549C144.095 57.7549 143.552 57.7549 143.058 57.6996C142.564 57.6443 142.021 57.6012 141.509 57.5152V26.5535H141.521ZM99.003 10.0214C99.0037 10.744 98.8719 11.4608 98.6142 12.1363C97.9354 12.3907 97.2163 12.5218 96.4911 12.5236C95.7658 12.5218 95.0468 12.3907 94.368 12.1363C94.1103 11.4608 93.9785 10.744 93.9791 10.0214V10.0214C93.9775 9.29861 94.1093 8.58171 94.368 7.90643C95.0471 7.65404 95.7662 7.52494 96.4911 7.52525V7.52525C97.216 7.52494 97.9351 7.65404 98.6142 7.90643C98.8725 8.58394 99.0043 9.30279 99.003 10.0275V10.0214ZM106.409 8.34294H100.54L104.694 4.21144C104.04 3.29928 103.239 2.50148 102.324 1.85059L98.1698 5.98209V0.135275C97.6191 0.0442085 97.0617 -0.00103351 96.5034 1.79105e-05V1.79105e-05C95.9432 0.00127327 95.384 0.0464991 94.8309 0.135275V5.98823L90.6772 1.85059C90.2223 2.17587 89.7951 2.53777 89.3996 2.93265V2.93265C89.0046 3.33004 88.6414 3.75761 88.3134 4.21144L92.4423 8.33065H86.5729C86.5729 8.33065 86.4309 9.425 86.4309 9.99677C86.431 10.5531 86.4785 11.1084 86.5729 11.6568H92.4423L88.2948 15.7882C88.945 16.7084 89.7462 17.5128 90.6648 18.1676L94.8123 14.0361V19.889C95.3654 19.978 95.9247 20.0232 96.4849 20.0243C97.0432 20.0253 97.6006 19.9801 98.1513 19.889V14.0483L102.317 18.1676C102.777 17.846 103.207 17.4839 103.601 17.0855V17.0855C103.998 16.6894 104.361 16.2618 104.687 15.8067L100.534 11.6752H106.409C106.498 11.1242 106.544 10.5671 106.545 10.0091V10.0091C106.546 9.45295 106.501 8.8977 106.409 8.34909V8.34294ZM0 56.6667L16.3555 31.3183H1.93797C1.81099 30.5213 1.75112 29.7151 1.75898 28.9082C1.7554 28.1198 1.81525 27.3324 1.93797 26.5535H25.2615L25.5639 27.3343L9.085 52.7443H24.5147C24.6375 53.5583 24.6994 54.3803 24.6998 55.2035C24.7028 55.9717 24.6409 56.7388 24.5147 57.4967H0.302422L0 56.6667ZM47.1963 42.975C46.5791 42.8951 45.82 42.8151 44.8942 42.7352C43.9684 42.6553 43.1784 42.6123 42.5304 42.6123C40.0246 42.6123 38.1154 43.0754 36.8029 44.0017C36.143 44.4829 35.6159 45.1224 35.2706 45.8608C34.9253 46.5992 34.773 47.4127 34.8279 48.2254C34.7737 49.2142 35.005 50.1978 35.4945 51.0597C35.9102 51.7123 36.483 52.2512 37.1609 52.6275C37.8449 52.9949 38.5965 53.2207 39.3704 53.2914C40.1789 53.3714 40.9504 53.4144 41.6725 53.4144C42.6353 53.4124 43.5973 53.3611 44.5548 53.2607C45.4433 53.1772 46.3242 53.0271 47.1902 52.8119V42.975H47.1963ZM47.1963 37.122C47.1963 34.7427 46.5791 33.0951 45.3448 32.2036C44.1104 31.3121 42.3823 30.8141 40.074 30.8141C38.7439 30.8072 37.4158 30.9183 36.1055 31.1461C34.8873 31.3637 33.6836 31.6552 32.5011 32.0191C31.7029 30.5597 31.3068 28.9157 31.3531 27.2544C32.8355 26.7849 34.3551 26.4414 35.8956 26.2277C37.479 25.9901 39.0776 25.8668 40.6788 25.8588C44.7152 25.8588 47.7847 26.7748 49.8873 28.607C51.9857 30.4514 53.0411 33.3656 53.0411 37.3864V56.7528C51.6216 57.0725 49.9037 57.4045 47.8876 57.7488C45.8486 58.0932 43.7838 58.2639 41.7157 58.2591C39.9133 58.2784 38.1143 58.0969 36.3523 57.7181C34.8952 57.4145 33.5155 56.8183 32.2974 55.9659C31.1922 55.173 30.305 54.1159 29.7176 52.8918C29.0764 51.4688 28.7662 49.9199 28.8103 48.3607C28.764 46.828 29.102 45.308 29.7939 43.9382C30.4857 42.5685 31.5095 41.3922 32.7727 40.5158C34.0404 39.6283 35.4577 38.9744 36.9572 38.5853C38.5793 38.1651 40.2496 37.9585 41.9255 37.9705C43.2155 37.9705 44.277 37.9705 45.1041 38.0627C45.9311 38.1549 46.6285 38.1918 47.1963 38.2717V37.1159V37.122ZM65.6132 52.4492C66.3789 52.731 67.1707 52.9369 67.977 53.064C69.0205 53.1994 70.0725 53.259 71.1247 53.2423C72.4889 53.2593 73.8447 53.0259 75.1241 52.5537C76.3096 52.0935 77.3676 51.3579 78.21 50.408C79.1375 49.3418 79.8388 48.0995 80.2714 46.7561C80.8107 45.0674 81.0672 43.3019 81.0305 41.5302C81.0305 38.3148 80.4134 35.751 79.2407 33.8636C78.068 31.9761 76.1301 31.017 73.4453 31.017C72.4523 31.0143 71.4678 31.2 70.5445 31.5642C69.6184 31.9333 68.7781 32.4878 68.0758 33.1934C67.3104 33.9791 66.7139 34.9122 66.323 35.9355C65.8508 37.1991 65.6246 38.5407 65.6564 39.8887V52.443L65.6132 52.4492ZM59.6141 26.5597C60.0256 26.4818 60.4371 26.4203 60.8485 26.3752C61.2805 26.3383 61.7187 26.3199 62.1508 26.3199C62.5828 26.3199 62.9778 26.3199 63.4222 26.3752C63.8488 26.4155 64.2731 26.4771 64.6936 26.5597C64.7695 26.8062 64.8212 27.0594 64.8479 27.3159L65.0269 28.6684L65.2059 30.0579C65.2511 30.339 65.282 30.6222 65.2984 30.9063C65.7234 30.2464 66.2111 29.6287 66.755 29.0619C67.356 28.4287 68.0413 27.8806 68.7917 27.4327C69.6246 26.9333 70.5215 26.5486 71.458 26.2891C72.5333 25.9946 73.6448 25.8518 74.7599 25.8649C76.4867 25.8491 78.2012 26.1556 79.8147 26.7687C81.3571 27.3649 82.73 28.3272 83.8141 29.5722C84.9978 30.9799 85.8799 32.614 86.4062 34.3739C87.0749 36.6153 87.3914 38.9464 87.3444 41.2843C87.3444 46.6126 85.9043 50.7666 83.0241 53.7464C80.1439 56.7262 76.056 58.2242 70.7605 58.2406C69.8483 58.2398 68.9371 58.1803 68.0326 58.0623C67.2127 57.9632 66.4017 57.8008 65.607 57.5766V71.7602C65.0948 71.8402 64.5825 71.9016 64.0641 71.9385C63.5456 71.9754 63.021 72 62.5766 72C62.1323 72 61.5891 72 61.0954 71.9385C60.5986 71.9071 60.1041 71.8476 59.6141 71.7602V26.5597V26.5597Z" fill="#FF4A00"/>
</g>
<defs>
<clipPath id="clip0_579:950">
<rect width="158" height="72" fill="white"/>
</clipPath>
</defs>
</svg>
