<svg version="1.1" id="Layer_1" xmlns="http://www.w3.org/2000/svg" xmlns:xlink="http://www.w3.org/1999/xlink" x="0px" y="0px" viewBox="0 0 375.182 95.363" enable-background="new 0 0 375.182 95.363" xml:space="preserve">
			<g class="icon">
				<polygon class="arrow shape-1 fadeZoom in-view" fill="#B3AEAF" points="374.3,50.1 341.5,23.4 341.5,42 104.4,53.4 104.4,56 341.5,59.9 341.5,76.8 "></polygon>
			</g>
		
			<g class="relevant">
				<g class="w fadeZoom in-view">
					<path class="" fill="#828282" d="M62,23.6L51.6,72c-0.8,3.8-2.8,5.6-5.9,5.6c-3.2,0-5.2-1.9-5.9-5.6l-7.5-37.6L25.1,72c-0.7,3.7-2.7,5.6-5.9,5.6c-3.1,0-5.1-1.9-5.9-5.6L2.8,23.6h7.4l9.1,42.2L26.6,29c0.8-4,2.7-6,5.7-6s5,2,5.8,6l7.3,36.8l9.2-42.2L62,23.6z"></path>
				</g>
				
				<g class="e fadeZoom in-view">
					<path class="" fill="#828282" d="M98,52.5L72.4,63.1v1.3c0,2.1,0.6,3.6,1.7,4.6c0.8,0.6,2.1,0.8,4.1,0.8h19.7v6.9H77c-3.6,0-6.3-0.8-8-2.3c-2.2-1.8-3.3-4.7-3.3-8.6V46.9c0-6.8,3.6-10.1,10.7-10.1h11.7c6.6,0,9.9,3.6,9.9,10.8V52.5z M91.2,48.6V48c0-3-1.8-4.6-5.3-4.6h-7.4c-4.1,0-6.1,1.7-6.2,5.2v7.8L91.2,48.6z"></path>
				</g>
				
				<g class="p fadeZoom in-view">
					<path class="" fill="#DF9026" d="M164.9,45.3c0,3.5-1,6.3-3,8.4c-2,2-4.7,3.1-8.2,3.1h-18.5v20h-7.6V23.4h25.6c3.3,0,6,0.9,8.1,2.6c2.2,1.9,3.4,4.5,3.4,7.9C164.9,37.4,164.9,41.2,164.9,45.3zM157.3,42.8v-6.3c0-3.6-2-5.4-6-5.4h-16.1v17.7h15.9C155.3,48.8,157.3,46.8,157.3,42.8L157.3,42.8z"></path>
				</g>
				
				<g class="r fadeZoom in-view">
					<path class="" fill="#DF9026" d="M190.3,43c-5.2,0-8.2,0.1-9,0.4c-1.8,0.7-2.6,2.5-2.6,5.4v27.6h-6.9V47c0-7.2,3.6-10.8,10.8-10.8h7.7V43z"></path>
				</g>
				
				<g class="o fadeZoom in-view">
					<path class="" fill="#DF9026" d="M228.6,66.8c0,3.4-1.1,6-3.3,7.8c-1.6,1.4-3.9,2.1-7,2.1h-11.6c-3.5,0-6.2-0.9-7.9-2.7c-1.8-1.8-2.6-4.2-2.7-7.2V46.9c0-3.5,1.1-6.2,3.3-8.1c1.6-1.4,4-2.1,7.2-2.1h11.6c3.2,0,5.6,0.7,7.1,2.1c2.1,1.8,3.2,4.5,3.2,8.1L228.6,66.8z M221.9,64.9V48.7c0-1.8-0.5-3.2-1.6-4c-0.8-0.8-2.1-1.2-3.9-1.2h-7.9c-1.8,0-3.2,0.4-4.1,1.2c-1.1,0.8-1.6,2.2-1.6,4v16.1c0,1.7,0.5,3,1.6,3.9c1,0.8,2.3,1.2,3.6,1.1h8.9c1.2,0.1,2.5-0.3,3.4-1.1C221.4,67.8,221.9,66.6,221.9,64.9z"></path>
				</g>
				<g class="p-two fadeZoom in-view">
					<path class="" fill="#DF9026" d="M272.6,45.3c0,3.5-1,6.3-3,8.4c-2,2-4.7,3.1-8.2,3.1h-18.5v20h-7.6V23.4H261c3.3,0,6,0.9,8.1,2.6c2.2,1.9,3.4,4.5,3.4,7.9C272.6,37.4,272.6,41.2,272.6,45.3zM265,42.8v-6.3c0-3.6-2-5.4-6-5.4h-16.1v17.7h15.9C263,48.8,265.1,46.8,265,42.8L265,42.8z"></path>
				</g>
				<g class="e-two fadeZoom in-view">
					<path class="" fill="#DF9026" d="M311.4,52.5l-25.6,10.6v1.3c0,2.1,0.6,3.6,1.7,4.6c0.8,0.6,2.1,0.8,4.1,0.8h19.7v6.9h-21c-3.6,0-6.3-0.8-8-2.3c-2.2-1.8-3.3-4.7-3.3-8.6V46.9c0-6.8,3.6-10.1,10.7-10.1h11.7c6.6,0,9.9,3.6,9.9,10.8L311.4,52.5zM304.5,48.6V48c0-3-1.8-4.6-5.3-4.6h-7.4c-4.1,0-6.1,1.7-6.2,5.2v7.8L304.5,48.6z"></path>
				</g>
				<g class="l fadeZoom in-view">
					<path class="" fill="#DF9026" d="M325,76.7h-6.7V23.5h6.7V76.7z"></path>
				</g>
			</g>
		</svg>